<?xml version="1.0" standalone="no"?>
<!DOCTYPE svg PUBLIC "-//W3C//DTD SVG 1.1//EN" "http://www.w3.org/Graphics/SVG/1.1/DTD/svg11.dtd" >
<svg xmlns="http://www.w3.org/2000/svg" xmlns:xlink="http://www.w3.org/1999/xlink" version="1.1">
<metadata></metadata>
<defs>
<font id="mongolianscriptregular" horiz-adv-x="939" >
<font-face units-per-em="1000" ascent="800" descent="-200" />
<missing-glyph horiz-adv-x="512" />
<glyph unicode="&#x1820;&#x180b;" horiz-adv-x="768" d="M768 269l-6 -316q-1 -113 -29 -199q-29 -90 -72 -103q-25 -8 -55 -34l-2 -3q-2 -3 -6.5 -9.5t-9.5 -12.5q-10 -16 -27 -16q-24 0 -24 82q0 74 1 78q6 55 34 55q5 0 14.5 -4.5t13.5 -4.5q10 0 36 9q11 4 18 13q3 4 5.5 7.5t4.5 5.5l1 2q13 11 20 135q6 100 6 178 q0 52 -9 63q-20 23 -102 23h-153l-86 -299q-38 171 -74 344q-30 143 -41 175q-18 47 -45 47h-1q-38 -1 -98 -37q-47 -28 -82 -60q5 80 57 164q59 93 124 93q66 0 100 -109q21 -67 25 -148h332q84 0 111 -31q19 -20 19 -88z" />
<glyph unicode="&#x182d;&#x180b;" horiz-adv-x="726" d="M726 388v-170h-86l-85 -299q-5 34 -11.5 84t-17 127.5t-18.5 136.5q-5 43 -16 130q-14 77 -45 114q-40 49 -117 49q-70 0 -115 -61q-39 -53 -44 -128q77 -58 106 -123q23 -57 23 -152v-8l-1 -169l-11 -6l-5 6q-32 160 -57 212q-54 115 -167 115q-31 0 -42 6q-17 9 -17 36 q0 47 42 73q36 22 86 24q4 156 35 228q48 117 179 117q107 0 160 -125q38 -90 39 -217h185z" />
<glyph unicode="&#x1832;&#x180b;" horiz-adv-x="512" d="M512 388v-170h-427q50 -103 116 -212q34 44 52 62q35 33 71 33q66 0 107 -60q35 -53 35 -123q0 -67 -50 -117q-49 -49 -118 -49q-102 0 -162 120q-42 86 -136 346v170h512zM421 -50q0 38 -27 72q-29 38 -65 38q-35 0 -64 -38q-27 -34 -27 -72q0 -35 27 -60t64 -25 t64.5 24.5t27.5 60.5z" />
<glyph unicode="&#x1836;&#x180b;" horiz-adv-x="384" d="M384 388v-170h-299l171 -342l-128 -127l-128 469v171z" />
<glyph unicode="&#x1825;&#x180b;" horiz-adv-x="976" d="M976 382q0 -123 -19 -123q-8 0 -10 8q-4 22 -11 65t-10 65q-17 78 -47 114q-40 49 -122 49q-80 0 -135 -44q-57 -47 -62 -128h242q39 -108 39 -257q0 -256 -127 -256q-88 0 -150 132q-52 108 -52 211h-85l-86 -299q-38 171 -74 344q-30 143 -41 175q-18 47 -45 47h-1 q-38 -1 -98 -37q-47 -28 -82 -60q5 80 57 164q59 93 124 93q66 0 100 -109q21 -67 25 -148h206q0 137 59 231q67 111 197 111q111 0 166 -127q42 -96 42 -221zM793 186l1 32h-239v-9q-2 -58 43 -111q48 -56 105 -56q87 0 90 144z" />
<glyph unicode="&#xf318;&#x180b;" horiz-adv-x="683" d="M342 218v-20q0 -323 -149 -323q-87 0 -146 126q-47 105 -47 204v183h552q86 0 111 -31q20 -22 20 -88l-6 -316q-1 -113 -29 -199q-29 -90 -72 -103q-25 -8 -55 -34q-3 -2 -19 -25q-10 -16 -26 -16q-24 0 -24 82v78q6 55 34 55q5 0 15 -4.5t14 -4.5q9 0 35 9q10 4 19 13 q3 4 5.5 7.5t3.5 5.5l2 2q11 10 19 135q7 94 7 178q0 52 -9 63q-20 23 -102 23h-153zM299 218h-256v-9v-6q0 -56 38 -106q43 -55 102 -55q69 0 96 57q18 38 20 119z" />
<glyph unicode="&#x182c;&#x180b;" horiz-adv-x="337" d="M376 429q0 -51 -2 -59l-33 -132q-1 2 -16 114q-11 75 -33 111q-32 50 -96 50q-77 0 -122 -60q-40 -53 -40 -133q0 -90 30 -129q11 -14 107 -88l-68 -103q-22 39 -66 116q-37 67 -37 123v137q0 107 47 183q56 89 158 89q79 0 128 -72q43 -62 43 -147z" />
<glyph unicode="&#x1821;&#x180b;" horiz-adv-x="768" d="M306 388h462v-170h-85l-86 -299l-85 299h-85l-86 -299q-38 171 -74 344q-30 143 -41 175q-18 47 -45 47h-1q-38 -1 -98 -37q-47 -28 -82 -60q5 80 57 164q59 93 124 93q66 0 100 -109q21 -67 25 -148z" />
<glyph unicode="&#xf308;&#x180b;" horiz-adv-x="256" d="M256 269l-6 -316q-1 -113 -29 -199q-29 -90 -72 -103q-25 -8 -55 -34l-2 -3q-2 -3 -6.5 -9.5t-9.5 -12.5q-10 -16 -27 -16q-24 0 -24 82q0 74 1 78q6 55 34 55q5 0 14.5 -4.5t13.5 -4.5q10 0 36 9q11 4 18 13q3 4 5.5 7.5t4.5 5.5l1 2q13 11 20 135q6 101 6 178 q0 52 -9 63q-20 23 -102 23h-68v170h126q84 0 111 -31q19 -20 19 -88z" />
<glyph unicode="&#x180e;&#x1822;" horiz-adv-x="470" d="M470 462v-7q-2 -30 -19 -87q-16 -55 -24 -67l-18 105q-10 68 -38 102q-38 47 -115 52h-13q-82 0 -138 -59q-62 -67 -62 -179v-20q3 -94 34 -162q23 -52 67 -101l70 -77l-86 -128l-9 23q-9 23 -32 84t-48 125q-28 75 -39 152v170q6 137 56 226q65 116 191 116h9 q105 -5 163 -94q51 -76 51 -174z" />
<glyph unicode="&#x180e;&#x1824;" horiz-adv-x="464" d="M464 382q0 -123 -19 -123q-8 0 -10 8q-4 22 -11 65t-10 65q-17 78 -47 114q-40 49 -122 49q-80 0 -135 -44q-57 -47 -62 -128h242q39 -108 39 -257q0 -256 -127 -256q-88 0 -150 126q-52 104 -52 204v183q0 137 59 231q68 111 197 111q111 0 166 -127q42 -96 42 -221z M281 186l1 32h-239v-9q-2 -58 43 -111q48 -56 105 -56q87 0 90 144z" />
<glyph unicode="&#xf30e;&#x180b;" horiz-adv-x="342" d="M341 388l1 -170q0 -134 -15 -200q-33 -143 -134 -143q-87 0 -146 126q-47 105 -47 204v183h341zM298 186l1 32h-256v-9v-5q0 -55 39 -106q44 -56 101 -56q112 0 115 144z" />
<glyph unicode="&#xf3a8;&#x180b;" horiz-adv-x="641" d="M640 290l1 -166v-44q-3 -34 -17 -34t-23 65q-2 13 -5 40t-4 40q-7 28 -89 28h-6l-155 -1v-30q1 -313 -149 -313q-88 0 -146 133q-47 109 -47 210v170h528q112 0 112 -98zM299 218h-256v-9v-5q0 -56 39 -107q43 -55 101 -55q69 0 96 57q18 38 20 119z" />
<glyph unicode="&#xf3ac;&#x180b;" horiz-adv-x="438" d="M438 815q-85 -124 -151 -284q-49 -117 -104 -303q-29 -103 -86 -309l-87 299h1v170q45 -174 61 -261q14 175 36 324q59 353 159 500l-26 120q65 -90 197 -256zM192 -252q-30 -8 -60 -52q-28 -40 -36 -76q-9 36 -35 76q-30 46 -61 52q33 8 63 52q26 39 33 76q7 -35 34 -76 q31 -45 62 -52z" />
<glyph unicode="&#xf3af;&#x180c;" horiz-adv-x="612" d="M612 601q-116 -170 -164 -326q-30 -119 -91 -356l-87 299h-84l-86 -299l-85 299v170h256q45 -174 61 -261q9 98 24 193q38 229 103 392l-43 145q58 -81 196 -256zM448 -235q-31 -7 -61 -52q-28 -42 -35 -76q-9 37 -35 77q-30 45 -61 51q33 7 62 52q27 39 34 76 q7 -37 34 -76q28 -43 62 -52zM192 -235q-31 -7 -61 -52q-28 -42 -35 -76q-9 37 -35 77q-30 45 -61 51q33 7 62 52q27 39 34 76q7 -37 34 -76q28 -43 62 -52z" />
<glyph unicode="&#xf3af;&#x180d;" horiz-adv-x="337" d="M376 429q0 -51 -2 -59l-33 -132q-1 2 -16 114q-11 75 -33 111q-32 50 -96 50q-77 0 -122 -60q-40 -53 -40 -133q0 -90 30 -129q11 -14 107 -88l-68 -103q-22 39 -66 116q-37 67 -37 123v137q0 107 47 183q56 89 158 89q79 0 128 -72q43 -62 43 -147z" />
<glyph unicode="&#xf3af;&#x180b;" horiz-adv-x="641" d="M641 277q0 -159 -72 -375q-33 -101 -33 -110q0 -7 17 -7q8 0 34.5 4t34.5 4q18 0 18 -43q0 -46 -3 -87l-40 -1q-12 0 -84 2q-80 2 -85 2l-5 9q0 41 36 137q63 168 68 183q35 117 35 197q0 8 -6 26h-471l171 -342l-128 -127l-128 469v170h588q53 0 53 -111z" />
<glyph unicode="&#xf325;&#x180b;" horiz-adv-x="427" d="M427 730l-211 -854l-98 339l-118 3v169l49 1h88q8 5 22 19q30 34 79 117q88 147 189 206z" />
<glyph unicode="&#xf325;&#x180c;" horiz-adv-x="727" d="M727 289v-165q0 -78 -18 -78q-13 0 -22 65q-3 27 -10 80q-5 19 -36 24q-14 1 -44 3h-125l-86 -342l-149 512l-150 -512l-87 342v169l49 1l124 427l135 -427l306 1q43 0 74 -22q39 -27 39 -78z" />
<glyph unicode="&#x1833;&#x180b;" horiz-adv-x="683" d="M683 388v-170h-86l-86 -299l-85 299q-36 -87 -137 -87q-16 0 -25 1q-92 11 -264 256q203 251 304 258h6q62 0 135 -100q72 -98 71 -158h167zM435 380q1 6 1 17q0 51 -45 86q-44 33 -100 33q-43 0 -99 -41l-108 -86q24 -36 47 -61q59 -64 129 -85q35 -9 59 -9 q93 0 116 146z" />
<glyph unicode="&#xf32d;&#x180b;" horiz-adv-x="731" d="M727 115q0 -69 -18 -69q-15 0 -22 66q-9 78 -10 79q-11 27 -80 27h-512q50 -103 116 -212q40 50 52 62q35 33 71 33q66 0 107 -60q35 -53 35 -123q0 -67 -50 -117q-49 -49 -118 -49q-104 0 -162 120q-40 82 -136 346v170h614q117 0 117 -163q0 -9 -2 -59t-2 -51zM421 -50 q0 38 -27 72q-29 38 -65 38q-35 0 -64 -38q-27 -34 -27 -72q0 -35 27 -60t64 -25t64.5 24.5t27.5 60.5z" />
<glyph unicode="&#xf3a5;&#x180b;" horiz-adv-x="768" d="M768 388v-170h-298l170 -342l-128 -127l-128 469h-42v-30q1 -313 -149 -313q-88 0 -146 133q-47 109 -47 210v170h602h4h162zM299 218h-256v-9v-5q0 -56 39 -107q43 -55 101 -55q69 0 97 57q17 39 19 119z" />
<glyph unicode="&#x1828;&#x180b;" horiz-adv-x="512" d="M306 388h206v-170h-85l-86 -299q-38 171 -74 344q-30 143 -41 175q-18 47 -45 47h-1q-38 -1 -98 -37q-47 -28 -82 -60q5 80 57 164q59 93 124 93q66 0 100 -109q21 -67 25 -148z" />
<glyph unicode="&#xf314;&#x180b;" horiz-adv-x="256" d="M0 388h256v-170h-85l-86 -299l-85 299v170z" />
<glyph unicode="&#xf332;&#x180b;" horiz-adv-x="430" d="M470 462v-7q-2 -30 -19 -87q-16 -55 -24 -67l-18 105q-10 68 -38 102q-38 47 -115 52h-13q-82 0 -138 -59q-62 -67 -62 -179v-20q3 -94 34 -162q23 -52 67 -101l70 -77l-86 -128l-9 23q-9 23 -32 84t-48 125q-28 75 -39 152v170q6 137 56 226q65 116 191 116h9 q105 -5 163 -94q51 -76 51 -174z" />
<glyph unicode="&#x182a;&#xf3a1;" horiz-adv-x="683" d="M455 388h228v-170h-86l-85 -299q-43 149 -93 383q-35 159 -59 200q-34 58 -115 58t-135 -45q-57 -46 -62 -127h242q39 -110 39 -257q0 -256 -127 -256q-88 0 -150 125q-52 105 -52 205v183q0 137 58 231q69 111 198 111q107 0 160 -125q38 -92 39 -217zM282 218h-239v-9 v-5q0 -58 43 -108q46 -54 105 -54q58 0 79 64q11 35 12 112z" />
<glyph unicode="&#x182a;&#xf308;" d="M939 269l-6 -316q-1 -113 -29 -199q-29 -90 -72 -103q-25 -8 -55 -34q-3 -2 -19 -25q-10 -16 -26 -16q-24 0 -24 82v78q6 55 34 55q5 0 15 -4.5t14 -4.5q9 0 35 9q10 4 19 13q3 4 5.5 7.5t3.5 5.5l2 2q11 10 19 135q7 94 7 178q0 52 -9 63q-20 23 -102 23h-68l-81 -2 l-90 -297q-43 149 -93 383q-35 159 -59 200q-34 58 -115 58t-135 -45q-57 -46 -62 -127h242q39 -110 39 -257q0 -256 -127 -256q-88 0 -150 125q-52 105 -52 205v183q0 137 58 231q69 111 198 111q107 0 160 -125q38 -92 39 -217h353q86 0 111 -31q20 -22 20 -88zM282 218 h-239v-9v-5q0 -58 43 -108q46 -54 105 -54q58 0 79 64q11 35 12 112z" />
<glyph unicode="&#x182a;&#x1835;" horiz-adv-x="810" d="M810 388v-170h-298l171 -342l-128 -127q-67 207 -127 464q-48 199 -68 243q-34 75 -115 104q-21 8 -41 8q-60 0 -106 -55q-45 -53 -50 -125h242q39 -110 39 -257q0 -256 -127 -256q-88 0 -150 125q-52 105 -52 205v183q0 137 58 231q69 111 198 111q107 0 160 -125 q38 -92 39 -217h355zM282 218h-239v-9v-5q0 -58 43 -108q46 -54 105 -54q58 0 79 64q11 35 12 112z" />
<glyph unicode="&#x182a;&#xf30b;" d="M939 290v-204q-1 -40 -16 -40h-1q-13 0 -19 47q-11 90 -12 98q-4 20 -59 25q-22 2 -107 2h-213l171 -342l-128 -127q-2 4 -112 474q-42 176 -75 238q-39 69 -123 99q-21 8 -41 8q-60 0 -106 -55q-45 -53 -50 -125h242q39 -110 39 -257q0 -256 -127 -256q-88 0 -150 125 q-52 105 -52 205v183q0 137 58 231q69 111 198 111q107 0 160 -125q38 -92 39 -217h371q113 0 113 -98zM282 218h-239v-9v-5q0 -58 43 -108q46 -54 105 -54q58 0 79 64q11 35 12 112z" />
<glyph unicode="&#x182a;&#xf30c;" horiz-adv-x="726" d="M726 388v-170l-84 -1v-9q0 -333 -141 -333q-91 0 -176 253q-24 -253 -123 -253q-88 0 -150 125q-52 105 -52 205v183q0 132 96 235q98 107 228 107q115 0 208 -112q85 -103 104 -230h90zM48 388h527q-32 78 -99 124q-68 48 -149 48q-89 0 -174 -42q-101 -51 -105 -130z M598 218h-239v-9v-7q0 -56 43 -105q46 -55 105 -55t78 64q12 36 13 112zM285 218h-239v-9q-2 -61 44 -112q46 -55 105 -55t78 64q11 33 12 112z" />
<glyph unicode="&#x182a;&#xf30e;" horiz-adv-x="642" d="M640 334q0 -26 1 -55q1 -28 1 -70q0 -334 -141 -334q-91 0 -176 253q-24 -253 -123 -253q-88 0 -150 125q-52 105 -52 205v183q0 132 96 235q98 107 228 107q129 0 227 -137q89 -127 89 -259zM48 388h527q-32 78 -99 124q-68 48 -149 48q-89 0 -174 -42 q-101 -51 -105 -130zM598 218h-239v-9v-7q0 -56 43 -105q46 -55 105 -55t78 64q12 36 13 112zM285 218h-239v-9q-2 -61 44 -112q46 -55 105 -55t78 64q11 33 12 112z" />
<glyph unicode="&#x182a;&#x1861;" horiz-adv-x="1067" d="M1067 388v-170h-299l171 -342l-128 -127l-128 469h-41v-9q0 -334 -141 -334q-91 0 -176 253q-24 -253 -123 -253q-88 0 -150 125q-52 105 -52 205v183q0 132 96 235q98 107 228 107q115 0 208 -112q85 -103 104 -230h47h384zM48 388h527q-32 78 -99 124q-68 48 -149 48 q-89 0 -174 -42q-101 -51 -105 -130zM598 218h-239v-9v-7q0 -56 43 -105q46 -55 105 -55t78 64q12 36 13 112zM285 218h-239v-9q-2 -61 44 -112q46 -55 105 -55t78 64q11 33 12 112z" />
<glyph unicode="&#x182a;&#xf311;" d="M939 290v-204q-1 -40 -16 -40h-1q-13 0 -19 47q-11 90 -12 98q-4 20 -59 25q-22 2 -106 2h-84v-9q0 -334 -141 -334q-91 0 -176 253q-24 -253 -123 -253q-88 0 -150 125q-52 105 -52 205v183q0 132 96 235q98 107 228 107q115 0 208 -112q85 -103 104 -230h190 q113 0 113 -98zM48 388h527q-32 78 -99 124q-68 48 -149 48q-89 0 -174 -42q-101 -51 -105 -130zM598 218h-239v-9v-7q0 -56 43 -105q46 -55 105 -55t78 64q12 36 13 112zM285 218h-239v-9q-2 -61 44 -112q46 -55 105 -55t78 64q11 33 12 112z" />
<glyph unicode="&#x182a;&#x1838;" horiz-adv-x="896" d="M896 388v-170h-385q22 -51 65 -153q53 -101 109 -101q25 0 41 30q11 25 14 53q27 -104 27 -157q0 -36 -18 -65q-19 -34 -55 -34q-99 0 -169 199q-76 248 -113 371q-70 199 -167 199q-81 0 -135 -45q-57 -46 -62 -127h242q39 -110 39 -257q0 -256 -127 -256 q-88 0 -150 125q-52 105 -52 205v183q0 137 58 231q69 111 198 111q107 0 160 -125q38 -92 39 -217h441zM282 218h-239v-9v-5q0 -58 43 -108q46 -54 105 -54q58 0 79 64q11 35 12 112z" />
<glyph unicode="&#x182a;&#xf313;" horiz-adv-x="1024" d="M1024 290v-204q-1 -40 -16 -40h-1q-12 0 -18 47q-8 69 -13 98q-4 27 -138 27h-28h-299l65 -153q53 -101 109 -101q25 0 41 30q11 25 14 53q27 -104 27 -157q0 -36 -18 -65q-19 -34 -55 -34q-99 0 -169 199q-76 248 -113 371q-70 199 -167 199q-81 0 -135 -45 q-57 -46 -62 -127h242q39 -110 39 -257q0 -256 -127 -256q-88 0 -150 125q-52 105 -52 205v183q0 137 58 231q69 111 198 111q107 0 160 -125q38 -92 39 -217h456q113 0 113 -98zM282 218h-239v-9v-5q0 -58 43 -108q46 -54 105 -54q58 0 79 64q11 35 12 112z" />
<glyph unicode="&#x182b;&#xf3a1;" horiz-adv-x="683" d="M455 388h228v-170h-86l-85 -299q-43 149 -93 383q-35 159 -59 200q-34 58 -115 58t-135 -45q-57 -46 -62 -127h242q39 -115 39 -257q0 -256 -127 -256q-32 0 -51 28l-27 52q-16 28 -45 28q-13 0 -39 -9q-23 -9 -38 -11l-2 3q11 13 24 49q14 37 24 49q18 21 49 21 q8 0 33 -22q26 -21 61 -21q58 0 79 64q11 35 12 112l-282 1v169q0 137 58 231q69 111 198 111q107 0 160 -125q38 -92 39 -217z" />
<glyph unicode="&#x182b;&#xf308;" d="M939 275v-6l-6 -316q-1 -113 -29 -199q-29 -90 -72 -103q-25 -8 -55 -34q-3 -2 -19 -25q-10 -16 -26 -16q-24 0 -24 82v78q6 55 34 55q5 0 15 -4.5t14 -4.5q9 0 35 9q10 4 19 13q3 4 5.5 7.5t3.5 5.5l2 2q11 10 19 135q7 94 7 178q0 52 -9 63q-20 23 -102 23h-154 l-85 -299q-43 149 -93 383q-35 159 -59 200q-34 58 -115 58t-135 -45q-57 -46 -62 -127h237q44 -132 44 -257q0 -256 -127 -256q-32 0 -51 28q-9 17 -27 52q-16 28 -45 28q-13 0 -39 -9q-23 -9 -38 -11l-2 3q11 13 24 49q14 37 24 49q18 21 49 21q8 0 33 -22q26 -21 61 -21 q58 0 79 64q11 35 12 112l-282 -1v171q0 137 58 231q69 111 198 111q107 0 160 -125q38 -92 39 -217h353q86 0 111 -31q20 -23 20 -82z" />
<glyph unicode="&#x182b;&#x1835;" horiz-adv-x="810" d="M810 388v-170h-298l171 -342l-128 -127q-67 207 -127 464q-48 199 -68 243q-34 75 -115 104q-21 8 -41 8q-60 0 -106 -55q-45 -53 -50 -125h242q39 -115 39 -257q0 -256 -127 -256q-32 0 -51 28q-9 17 -27 52q-16 28 -45 28q-13 0 -39 -9q-23 -9 -38 -11l-2 3 q11 13 24 49q14 37 24 49q18 21 49 21q8 0 33 -22q26 -21 61 -21q58 0 79 64q11 35 12 112l-282 -1v171q0 137 58 231q69 111 198 111q107 0 160 -125q38 -92 39 -217h355z" />
<glyph unicode="&#x182b;&#xf30b;" d="M939 290v-204q-1 -40 -16 -40h-1q-13 0 -19 47q-11 90 -12 98q-4 20 -59 25q-22 2 -107 2h-213l171 -342l-128 -127q-2 4 -112 474q-42 176 -75 238q-39 69 -123 99q-21 8 -41 8q-60 0 -106 -55q-45 -53 -50 -125h242q39 -115 39 -257q0 -256 -127 -256q-32 0 -51 28 l-27 52q-16 28 -45 28q-13 0 -39 -9q-23 -9 -38 -11l-2 3q11 13 24 49q14 37 24 49q18 21 49 21q8 0 33 -22q26 -21 61 -21q58 0 79 64q11 35 12 112h-282v170q0 137 58 231q69 111 198 111q107 0 160 -125q38 -92 39 -217h371q113 0 113 -98z" />
<glyph unicode="&#x182b;&#xf30c;" horiz-adv-x="726" d="M726 388v-170l-84 -1v-9q0 -333 -141 -333q-58 0 -111 101q-22 43 -61 155q0 -256 -127 -256q-32 0 -51 28l-27 52q-16 28 -45 28q-13 0 -39 -9q-23 -9 -38 -11l-2 3q11 13 24 49q14 37 24 49q18 21 49 21q8 0 33 -22q26 -21 61 -21q58 0 80 64q12 35 14 112h-285v170 q0 132 96 235q98 107 228 107q115 0 208 -112q85 -103 104 -230h90zM48 388h527q-32 78 -99 124q-68 48 -149 48q-89 0 -174 -42q-101 -51 -105 -130zM598 218h-239v-9v-7q0 -56 43 -105q46 -55 105 -55t78 64q12 36 13 112z" />
<glyph unicode="&#x182b;&#xf30e;" horiz-adv-x="642" d="M640 334q0 -26 1 -55q1 -28 1 -70q0 -334 -141 -334q-58 0 -111 101q-22 43 -61 155q0 -256 -127 -256q-32 0 -51 28q-9 17 -27 52q-16 28 -45 28q-13 0 -39 -9q-23 -9 -38 -11l-2 3q11 13 24 49q14 37 24 49q18 21 49 21q8 0 33 -22q26 -21 61 -21q58 0 80 64 q12 35 14 112l-285 -1v171q0 132 96 235q98 107 228 107q129 0 227 -137q89 -127 89 -259zM48 388h527q-32 78 -99 124q-68 48 -149 48q-89 0 -174 -42q-101 -51 -105 -130zM598 218h-239v-9v-7q0 -56 43 -105q46 -55 105 -55t78 64q12 36 13 112z" />
<glyph unicode="&#x182b;&#x1861;" horiz-adv-x="1067" d="M1067 388v-170h-299l171 -342l-128 -127l-128 469h-41v-9q0 -334 -141 -334q-58 0 -111 101q-22 43 -61 155q0 -256 -127 -256q-32 0 -51 28l-27 52q-16 28 -45 28q-13 0 -39 -9q-23 -9 -38 -11l-2 3q11 13 24 49q14 37 24 49q18 21 49 21q8 0 33 -22q26 -21 61 -21 q58 0 80 64q12 35 14 112l-285 1v169q0 132 96 236q97 106 228 106q115 0 208 -112q85 -103 104 -230h47h384zM48 388h527q-32 78 -99 124q-68 48 -149 48q-89 0 -174 -42q-101 -51 -105 -130zM598 218h-239v-9v-7q0 -56 43 -105q46 -55 105 -55t78 64q12 36 13 112z" />
<glyph unicode="&#x182b;&#xf311;" d="M939 290v-204q-1 -40 -16 -40h-1q-13 0 -19 47q-11 90 -12 98q-4 20 -59 25q-22 2 -106 2h-84v-9q0 -334 -141 -334q-58 0 -111 101q-22 43 -61 155q0 -256 -127 -256q-32 0 -51 28l-27 52q-16 28 -45 28q-13 0 -39 -9q-23 -9 -38 -11l-2 3q11 13 24 49q14 37 24 49 q18 21 49 21q8 0 33 -22q26 -21 61 -21q58 0 80 64q12 35 14 112l-285 1v169q0 132 96 236q97 106 228 106q115 0 208 -112q85 -103 104 -230h190q113 0 113 -98zM48 388h527q-32 78 -99 124q-68 48 -149 48q-89 0 -174 -42q-101 -51 -105 -130zM598 218h-239v-9v-7 q0 -56 43 -105q46 -55 105 -55t78 64q12 36 13 112z" />
<glyph unicode="&#x182b;&#x1838;" horiz-adv-x="896" d="M896 388v-170h-385q22 -51 65 -153q53 -101 109 -101q25 0 41 30q11 25 14 53q27 -104 27 -157q0 -36 -18 -65q-19 -34 -55 -34q-99 0 -169 199q-76 248 -113 371q-70 199 -167 199q-81 0 -135 -45q-57 -46 -62 -127h242q39 -115 39 -257q0 -256 -127 -256q-32 0 -51 28 q-9 17 -27 52q-16 28 -45 28q-13 0 -39 -9q-23 -9 -38 -11l-2 3q11 13 24 49q14 37 24 49q18 21 49 21q8 0 33 -22q26 -21 61 -21q58 0 79 64q11 35 12 112l-282 1v169q0 137 58 231q69 111 198 111q107 0 160 -125q38 -92 39 -217h441z" />
<glyph unicode="&#x182b;&#xf313;" horiz-adv-x="1024" d="M1024 290v-204q-1 -40 -16 -40h-1q-12 0 -18 47q-8 69 -13 98q-4 27 -138 27h-28h-299l65 -153q53 -101 109 -101q25 0 41 30q11 25 14 53q27 -104 27 -157q0 -36 -18 -65q-19 -34 -55 -34q-99 0 -169 199q-76 248 -113 371q-70 199 -167 199q-81 0 -135 -45 q-57 -46 -62 -127h242q39 -115 39 -257q0 -256 -127 -256q-32 0 -51 28l-27 52q-16 28 -45 28q-13 0 -39 -9q-23 -9 -38 -11l-2 3q11 13 24 49q14 37 24 49q18 21 49 21q8 0 33 -22q26 -21 61 -21q58 0 79 64q11 35 12 112h-282v170q0 137 58 231q69 111 198 111 q107 0 160 -125q38 -92 39 -217h456q113 0 113 -98z" />
<glyph unicode="&#x182c;&#xf3a1;" horiz-adv-x="640" d="M458 388h182v-170h-85l-85 -299q-8 26 -30 224q-20 188 -54 281q-49 136 -140 136h-1q-97 -2 -152 -75q-51 -67 -51 -166q0 -80 17 -123q13 -36 54 -71l101 -78l-86 -128q-8 14 -37 65.5t-45 79.5q-46 85 -46 154v170q0 136 59 231q69 111 197 111q99 0 160 -91 q54 -79 54 -184q0 -31 -12 -67z" />
<glyph unicode="&#x182c;&#xf3a2;" d="M939 275v-6l-6 -316q-1 -113 -29 -199q-29 -90 -72 -103q-25 -8 -55 -34q-3 -2 -19 -25q-10 -16 -26 -16q-24 0 -24 82v78q6 55 34 55q5 0 15 -4.5t14 -4.5q9 0 35 9q10 4 19 13q3 4 5.5 7.5t3.5 5.5l2 2q11 10 19 135q7 94 7 178q0 52 -9 63q-20 23 -102 23h-196 l-85 -299q-8 26 -30 224q-20 188 -54 281q-49 136 -140 136h-1q-97 -2 -152 -75q-51 -67 -51 -166q0 -80 17 -123q13 -36 54 -71l101 -78l-86 -128q-8 14 -37 65.5t-45 79.5q-46 85 -46 154v170q0 136 59 231q69 111 197 111q99 0 160 -91q54 -79 54 -184q0 -31 -12 -67h350 q86 0 111 -31q20 -23 20 -82z" />
<glyph unicode="&#x182c;&#x1835;" horiz-adv-x="810" d="M810 388v-170h-298l171 -342l-128 -127q-47 149 -97 410q-42 222 -72 291q-48 110 -139 110h-2q-97 -2 -152 -75q-51 -67 -51 -166q0 -80 17 -123q13 -36 54 -71l101 -78l-86 -128q-8 14 -37 65.5t-45 79.5q-46 85 -46 154v170q0 136 59 231q69 111 197 111q99 0 160 -91 q54 -79 54 -184q0 -31 -12 -67h352z" />
<glyph unicode="&#x182c;&#xf30b;" d="M939 290v-204q-1 -40 -16 -40h-1q-13 0 -19 47q-11 90 -12 98q-4 20 -59 25l-107 2h-213l171 -342l-128 -127q-47 149 -97 410q-42 222 -72 291q-48 110 -139 110h-2q-97 -2 -152 -75q-51 -67 -51 -166q0 -80 17 -123q13 -36 54 -71l101 -78l-86 -128q-8 14 -37 65.5 t-45 79.5q-46 85 -46 154v170q0 136 59 231q69 111 197 111q99 0 160 -91q54 -79 54 -184q0 -31 -12 -67h368q113 0 113 -98z" />
<glyph unicode="&#x182c;&#xf3a5;" horiz-adv-x="640" d="M552 388h88v-170h-85q0 -21 1 -46q2 -50 2 -63q0 -234 -126 -234q-85 0 -148 131q-42 89 -62 208q-11 68 -11 121q0 27 3 53h299q-19 49 -50 86q-74 86 -184 86q-98 0 -169 -74q-68 -73 -68 -167q0 -106 52 -173l103 -108l-69 -119q-8 14 -37 65.5t-45 79.5 q-46 85 -46 154v170q0 131 76 231q84 111 214 111q104 0 186 -91q79 -86 79 -184q0 -57 -3 -67zM511 186l2 32h-248v-9q35 -77 62 -112q43 -55 95 -55q56 0 76 44q11 27 13 100z" />
<glyph unicode="&#x182c;&#xf3a8;" horiz-adv-x="556" d="M556 388v2q-1 0 -1 -69v-103q-3 -13 -5 -122q-2 -101 -19 -149q-27 -72 -99 -72q-85 0 -148 131q-42 89 -62 208q-11 68 -11 121q0 27 3 53h299q-19 49 -50 86q-74 86 -184 86q-98 0 -169 -74q-68 -73 -68 -167q0 -106 52 -173l103 -108l-69 -119q-8 14 -37 65.5 t-45 79.5q-46 85 -46 154v170q0 131 76 231q84 111 214 111q103 0 185 -91q77 -88 77 -184q0 -26 4 -67zM511 186l2 32h-248v-9q35 -77 62 -112q43 -55 95 -55q56 0 76 44q11 27 13 100z" />
<glyph unicode="&#xf419;&#x180b;" horiz-adv-x="981" d="M981 388v-170h-299l170 -342l-127 -127q-19 68 -128 469h-42q0 -21 1 -46q2 -50 2 -63q0 -234 -126 -234q-85 0 -148 131q-42 89 -62 208q-11 68 -11 121q0 27 3 53h299q-19 49 -50 86q-74 86 -184 86q-98 0 -169 -74q-68 -73 -68 -167q0 -106 52 -173l103 -108l-69 -119 q-8 14 -37 65.5t-45 79.5q-46 85 -46 154v170q0 131 76 231q84 111 214 111q104 0 186 -91q79 -86 79 -184q0 -57 -3 -67h44h385zM511 186l2 32h-248v-9q35 -77 62 -112q43 -55 95 -55q56 0 76 44q11 27 13 100z" />
<glyph unicode="&#x182c;&#xf3a9;" horiz-adv-x="853" d="M853 290v-204q-1 -40 -16 -40h-1q-12 0 -18 47q-8 69 -13 98q-4 21 -55 25q-2 0 -110 2h-85q0 -21 1 -46q2 -50 2 -63q0 -234 -126 -234q-85 0 -148 131q-42 89 -62 208q-11 68 -11 121q0 27 3 53h299q-19 49 -50 86q-74 86 -184 86q-98 0 -169 -74q-68 -73 -68 -167 q0 -106 52 -173l103 -108l-69 -119q-8 14 -37 65.5t-45 79.5q-46 85 -46 154v170q0 131 76 231q84 111 214 111q104 0 186 -91q79 -86 79 -184q0 -57 -3 -67h189q112 0 112 -98zM511 186l2 32h-248v-9q35 -77 62 -112q43 -55 95 -55q56 0 76 44q11 27 13 100z" />
<glyph unicode="&#x182c;&#x1838;" horiz-adv-x="811" d="M811 388v-170h-317q18 -51 52 -153q41 -101 97 -101q25 0 40 30q13 25 14 53q28 -102 28 -157q0 -36 -18 -65q-21 -34 -56 -34q-105 0 -166 199q-60 248 -91 371q-57 199 -149 199q-96 0 -152 -74q-51 -68 -51 -167q0 -80 17 -123q13 -36 54 -71q34 -26 101 -78l-86 -128 q-8 14 -37 65.5t-45 79.5q-46 85 -46 154v170q0 136 59 231q69 111 197 111q99 0 160 -91q54 -79 54 -184q0 -31 -12 -67h353z" />
<glyph unicode="&#x182c;&#xf313;" horiz-adv-x="1024" d="M1024 290v-204q-1 -40 -16 -40h-1q-12 0 -18 47q-8 69 -13 98q-4 27 -137 27h-28h-317q18 -51 52 -153q41 -101 97 -101q25 0 40 30q13 25 14 53q28 -102 28 -157q0 -36 -18 -65q-21 -34 -56 -34q-105 0 -166 199q-60 248 -91 371q-57 199 -149 199q-96 0 -152 -74 q-51 -68 -51 -167q0 -80 17 -123q13 -36 54 -71l101 -78l-86 -128q-8 14 -37 65.5t-45 79.5q-46 85 -46 154v170q0 136 59 231q69 111 197 111q99 0 160 -91q54 -79 54 -184q0 -31 -12 -67h453q113 0 113 -98z" />
<glyph unicode="&#x1839;&#xf305;" horiz-adv-x="683" d="M455 388h228v-170h-86l-85 -299q-40 142 -71 282q-9 50 -28 150q-19 94 -52 144q-42 65 -116 65q-79 0 -135 -45q-57 -46 -62 -127h242q39 -110 39 -257q0 -93 -11 -135q-17 -59 -70 -114q-4 -4 -3 -11l2 -12q0 -72 -50 -95q-29 -13 -112 -13q-39 0 -77 -36q0 5 -0.5 9.5 t-1.5 7.5v2q0 69 35 89q24 15 98 15q57 0 57 31q0 4 -1 6q-89 0 -147 126q-48 103 -48 204v183q0 136 59 231q69 111 197 111q107 0 160 -125q38 -90 39 -217zM282 218h-239v-9v-5q0 -58 43 -108q46 -54 105 -54q58 0 79 64q11 35 12 112z" />
<glyph unicode="&#x1839;&#xf308;" d="M939 275v-6l-6 -316q-1 -113 -29 -199q-29 -90 -72 -103q-25 -8 -55 -34q-3 -2 -19 -25q-10 -16 -26 -16q-24 0 -24 82v78q6 55 34 55q5 0 15 -4.5t14 -4.5q9 0 35 9q10 4 19 13q3 4 5.5 7.5t3.5 5.5l2 2q11 10 19 135q7 94 7 178q0 52 -9 63q-20 23 -102 23h-154 l-85 -299q-43 149 -93 383q-35 159 -59 200q-34 58 -115 58t-135 -45q-57 -46 -62 -127h242q39 -110 39 -257q0 -207 -80 -248q1 -2 1 -8q0 -9 -3 -24q-14 -62 -37 -81q-25 -20 -85 -20q-59 0 -64 -1q-20 -4 -53 -34q0 5 -0.5 9.5t-1.5 7.5v2q0 57 24 80.5t81 23.5 q44 0 54 2q32 6 30 35q-89 0 -147 126q-48 103 -48 204v183q0 137 58 231q69 111 198 111q107 0 160 -125q38 -92 39 -217h353q86 0 111 -31q20 -23 20 -82zM282 218h-239v-9v-5q0 -58 43 -108q46 -54 105 -54q58 0 79 64q11 35 12 112z" />
<glyph unicode="&#x1839;&#x1835;" horiz-adv-x="810" d="M810 388v-170h-298l171 -342l-128 -127q-67 207 -127 464q-48 199 -68 243q-34 75 -115 104q-21 8 -41 8q-60 0 -106 -55q-45 -53 -50 -125h242q39 -110 39 -257q0 -86 -15 -154q-23 -93 -65 -94q1 -2 1 -8q0 -9 -3 -24q-14 -62 -37 -81q-25 -20 -85 -20q-59 0 -64 -1 q-20 -4 -53 -34q0 5 -0.5 9.5t-1.5 7.5v2q0 57 24 80.5t81 23.5q44 0 54 2q32 6 30 35q-89 0 -147 126q-48 103 -48 204v183q0 137 58 231q69 111 198 111q107 0 160 -125q38 -92 39 -217h355zM282 218h-239v-9v-5q0 -58 43 -108q46 -54 105 -54q58 0 79 64q11 35 12 112z " />
<glyph unicode="&#x1839;&#xf30b;" d="M939 290v-204q-1 -40 -16 -40h-1q-13 0 -19 47q-11 90 -12 98q-4 20 -59 25q-22 2 -107 2h-213l171 -342l-128 -127q-2 4 -112 474q-42 176 -75 238q-39 69 -123 99q-21 8 -41 8q-60 0 -106 -55q-45 -53 -50 -125h242q39 -110 39 -257q0 -201 -80 -248q1 -2 1 -8 q0 -9 -3 -24q-14 -62 -37 -81q-25 -20 -85 -20q-59 0 -64 -1q-20 -4 -53 -34q0 5 -0.5 9.5t-1.5 7.5v2q0 57 24 80.5t81 23.5q44 0 54 2q32 6 30 35q-89 0 -147 126q-48 103 -48 204v183q0 137 58 231q69 111 198 111q107 0 160 -125q38 -92 39 -217h371q113 0 113 -98z M282 218h-239v-9v-5q0 -58 43 -108q46 -54 105 -54q58 0 79 64q11 35 12 112z" />
<glyph unicode="&#x1839;&#xf30c;" horiz-adv-x="726" d="M726 388v-170l-84 -1v-9q0 -333 -141 -333q-91 0 -176 253q-7 -83 -18 -130q-19 -87 -58 -115q1 -2 1 -8q0 -9 -3 -24q-14 -62 -37 -81q-25 -20 -85 -20q-59 0 -64 -1q-20 -4 -53 -34q0 5 -0.5 9.5t-1.5 7.5v2q0 57 24 80.5t81 23.5q44 0 54 2q32 6 30 35q-89 0 -147 126 q-48 103 -48 204v183q0 132 96 235q98 107 228 107q115 0 208 -112q85 -103 104 -230h90zM48 388h527q-32 78 -99 124q-68 48 -149 48q-89 0 -174 -42q-101 -51 -105 -130zM598 218h-239v-9v-7q0 -56 43 -105q46 -55 105 -55t78 64q12 36 13 112zM285 218h-239v-9 q-2 -61 44 -112q46 -55 105 -55t78 64q11 33 12 112z" />
<glyph unicode="&#x1839;&#xf30e;" horiz-adv-x="642" d="M640 334q0 -26 1 -55q1 -28 1 -70q0 -334 -141 -334q-91 0 -176 253q-11 -116 -12 -123q-16 -82 -64 -122q1 -2 1 -8q0 -9 -3 -24q-14 -62 -37 -81q-25 -20 -85 -20q-59 0 -64 -1q-20 -4 -53 -34q0 5 -0.5 9.5t-1.5 7.5v2q0 57 24 80.5t81 23.5q44 0 54 2q32 6 30 35 q-89 0 -147 126q-48 103 -48 204v183q0 132 96 235q98 107 228 107q129 0 227 -137q89 -127 89 -259zM48 388h527q-32 78 -99 124q-68 48 -149 48q-89 0 -174 -42q-101 -51 -105 -130zM598 218h-239v-9v-7q0 -56 43 -105q46 -55 105 -55t78 64q12 36 13 112zM285 218h-239 v-9q-2 -61 44 -112q46 -55 105 -55t78 64q11 33 12 112z" />
<glyph unicode="&#x1839;&#xf3a6;" horiz-adv-x="1067" d="M1067 388v-170h-299l171 -342l-128 -127l-128 469h-41v-9q0 -334 -141 -334q-91 0 -176 253q-16 -182 -76 -245q1 -2 1 -8q0 -9 -3 -24q-14 -62 -37 -81q-25 -20 -85 -20q-59 0 -64 -1q-20 -4 -53 -34q0 5 -0.5 9.5t-1.5 7.5v2q0 57 24 80.5t81 23.5q44 0 54 2 q32 6 30 35q-89 0 -147 126q-48 103 -48 204v183q0 132 96 235q98 107 228 107q115 0 208 -112q85 -103 104 -230h47h384zM48 388h527q-32 78 -99 124q-68 48 -149 48q-89 0 -174 -42q-101 -51 -105 -130zM598 218h-239v-9v-7q0 -56 43 -105q46 -55 105 -55t78 64 q12 36 13 112zM285 218h-239v-9q-2 -61 44 -112q46 -55 105 -55t78 64q11 33 12 112z" />
<glyph unicode="&#x1839;&#xf311;" d="M939 290v-204q-1 -40 -16 -40h-1q-13 0 -19 47q-11 90 -12 98q-4 20 -59 25q-22 2 -106 2h-84v-9q0 -334 -141 -334q-91 0 -176 253q-17 -177 -76 -245q1 -2 1 -8q0 -9 -3 -24q-14 -62 -37 -81q-25 -20 -85 -20q-59 0 -64 -1q-20 -4 -53 -34q0 5 -0.5 9.5t-1.5 7.5v2 q0 57 24 80.5t81 23.5q44 0 54 2q32 6 30 35q-89 0 -147 126q-48 103 -48 204v183q0 132 96 235q98 107 228 107q115 0 208 -112q85 -103 104 -230h190q113 0 113 -98zM48 388h527q-32 78 -99 124q-68 48 -149 48q-89 0 -174 -42q-101 -51 -105 -130zM598 218h-239v-9v-7 q0 -56 43 -105q46 -55 105 -55t78 64q12 36 13 112zM285 218h-239v-9q-2 -61 44 -112q46 -55 105 -55t78 64q11 33 12 112z" />
<glyph unicode="&#x1839;&#x1838;" horiz-adv-x="896" d="M896 388v-170h-385q22 -51 65 -153q53 -101 109 -101q25 0 41 30q11 25 14 53q27 -104 27 -157q0 -36 -18 -65q-19 -34 -55 -34q-99 0 -169 199q-76 248 -113 371q-70 199 -167 199q-81 0 -135 -45q-57 -46 -62 -127h242q39 -110 39 -257q0 -176 -80 -248q1 -2 1 -8 q0 -9 -3 -24q-14 -62 -37 -81q-25 -20 -85 -20q-59 0 -64 -1q-20 -4 -53 -34q0 5 -0.5 9.5t-1.5 7.5v2q0 57 24 80.5t81 23.5q44 0 54 2q32 6 30 35h-3q-68 0 -132 124q-60 116 -60 206v183q0 137 58 231q69 111 198 111q107 0 160 -125q38 -92 39 -217h441zM282 218h-239 v-9v-5q0 -58 43 -108q46 -54 105 -54q58 0 79 64q11 35 12 112z" />
<glyph unicode="&#x1839;&#xf313;" horiz-adv-x="1024" d="M1024 290v-204q-1 -40 -16 -40h-1q-12 0 -18 47q-8 69 -13 98q-4 27 -138 27h-28h-299l65 -153q53 -101 109 -101q25 0 41 30q11 25 14 53q27 -104 27 -157q0 -36 -18 -65q-19 -34 -55 -34q-99 0 -169 199q-76 248 -113 371q-70 199 -167 199q-81 0 -135 -45 q-57 -46 -62 -127h242q39 -110 39 -257q0 -165 -80 -248q1 -2 1 -8q0 -9 -3 -24q-14 -62 -37 -81q-25 -20 -85 -20q-59 0 -64 -1q-20 -4 -53 -34q0 5 -0.5 9.5t-1.5 7.5v2q0 57 24 80.5t81 23.5q44 0 54 2q32 6 30 35q-89 0 -147 126q-48 103 -48 204v183q0 137 58 231 q69 111 198 111q107 0 160 -125q38 -92 39 -217h456q113 0 113 -98zM282 218h-239v-9v-5q0 -58 43 -108q46 -54 105 -54q58 0 79 64q11 35 12 112z" />
<glyph unicode="&#x183a;&#xf305;" horiz-adv-x="640" d="M458 388h182v-170h-85l-85 -299q-8 26 -30 224q-20 188 -54 281q-49 136 -140 136h-1q-97 -2 -152 -75q-51 -67 -51 -166q0 -80 17 -123q13 -36 54 -71l101 -78l-86 -128q-16 26 -42 76q-10 -12 -32.5 -37.5t-30.5 -33.5l-23 121l41 27q-41 80 -41 146v170q0 136 59 231 q69 111 197 111q99 0 160 -91q54 -79 54 -184q0 -31 -12 -67z" />
<glyph unicode="&#x183a;&#xf3a2;" d="M939 275v-6l-6 -316q-1 -113 -29 -199q-29 -90 -72 -103q-25 -8 -55 -34q-3 -2 -19 -25q-10 -16 -26 -16q-24 0 -24 82v78q6 55 34 55q5 0 15 -4.5t14 -4.5q9 0 35 9q10 4 19 13q3 4 5.5 7.5t3.5 5.5l2 2q11 10 19 135q7 94 7 178q0 52 -9 63q-20 23 -102 23h-196 l-85 -299q-8 26 -30 224q-20 188 -54 281q-49 136 -140 136h-1q-97 -2 -152 -75q-51 -67 -51 -166q0 -80 17 -123q13 -36 54 -71l101 -78l-86 -128q-2 4 -42 76q-10 -12 -32.5 -37.5t-30.5 -33.5l-23 121l41 27q-41 74 -41 146v170q0 136 59 231q69 111 197 111 q99 0 160 -91q54 -79 54 -184q0 -31 -12 -67h350q86 0 111 -31q20 -23 20 -82z" />
<glyph unicode="&#x183a;&#x1835;" horiz-adv-x="810" d="M810 388v-170h-298l171 -342l-128 -127q-47 149 -97 410q-42 222 -72 291q-48 110 -139 110h-2q-97 -2 -152 -75q-51 -67 -51 -166q0 -80 17 -123q13 -36 54 -71l101 -78l-86 -128q-4 7 -42 76q-10 -12 -32.5 -37.5t-30.5 -33.5l-23 121l41 27q-25 45 -32 69q-9 31 -9 77 v170q0 136 59 231q69 111 197 111q99 0 160 -91q54 -79 54 -184q0 -31 -12 -67h352z" />
<glyph unicode="&#x183a;&#xf30b;" d="M939 290v-204q-1 -40 -16 -40h-1q-13 0 -19 47q-11 90 -12 98q-4 20 -59 25l-107 2h-213l171 -342l-128 -127q-47 149 -97 410q-42 222 -72 291q-48 110 -139 110h-2q-97 -2 -152 -75q-51 -67 -51 -166q0 -80 17 -123q13 -36 54 -71l101 -78l-86 -128q-5 10 -42 76 q-10 -12 -32.5 -37.5t-30.5 -33.5l-23 121l41 27q-29 68 -30 72q-11 33 -11 74v170q0 136 59 231q69 111 197 111q99 0 160 -91q54 -79 54 -184q0 -31 -12 -67h368q113 0 113 -98z" />
<glyph unicode="&#x183a;&#xf30c;" horiz-adv-x="640" d="M552 388h88v-170h-85q0 -21 1 -46q2 -50 2 -63q0 -234 -126 -234q-85 0 -148 131q-42 89 -62 208q-11 68 -11 121q0 27 3 53h299q-19 49 -50 86q-74 86 -184 86q-98 0 -169 -74q-68 -73 -68 -167q0 -106 52 -173l103 -108l-69 -119q-6 14 -42 76q-10 -12 -32.5 -37.5 t-30.5 -33.5l-23 121l41 27q-24 56 -30 71q-11 33 -11 75v170q0 131 76 231q84 111 214 111q104 0 186 -91q79 -86 79 -184q0 -57 -3 -67zM511 186l2 32h-248v-9q35 -77 62 -112q43 -55 95 -55q56 0 76 44q11 27 13 100z" />
<glyph unicode="&#x183a;&#xf30e;" horiz-adv-x="555" d="M555 218q-3 -13 -5 -122q-2 -101 -19 -149q-27 -72 -99 -72q-85 0 -148 131q-42 89 -62 208q-11 68 -11 121q0 27 3 53h299q-19 49 -50 86q-74 86 -184 86q-98 0 -169 -74q-68 -73 -68 -167q0 -106 52 -173l103 -108l-69 -119q-7 14 -42 76q-10 -12 -32.5 -37.5 t-30.5 -33.5l-23 121l41 27q-24 53 -31 72q-10 27 -10 74v170q0 131 76 231q84 111 214 111q103 0 185 -91q77 -88 77 -184q0 -21 3 -67v2q-1 0 -1 -34q0 -75 1 -138zM511 186l2 32h-248v-9q35 -77 62 -112q43 -55 95 -55q56 0 76 44q11 27 13 100z" />
<glyph unicode="&#x183a;&#x1861;" horiz-adv-x="981" d="M981 388v-170h-299l170 -342l-127 -127q-19 68 -128 469h-42q0 -21 1 -46q2 -50 2 -63q0 -234 -126 -234q-85 0 -148 131q-42 89 -62 208q-11 68 -11 121q0 27 3 53h299q-19 49 -50 86q-74 86 -184 86q-98 0 -169 -74q-68 -73 -68 -167q0 -106 52 -173l103 -108l-69 -119 q-9 21 -42 76q-10 -12 -32.5 -37.5t-30.5 -33.5l-23 121l41 27q-26 47 -32 68q-9 30 -9 78v170q0 131 76 231q84 111 214 111q104 0 186 -91q79 -86 79 -184q0 -57 -3 -67h44h385zM511 186l2 32h-248v-9q35 -77 62 -112q43 -55 95 -55q56 0 76 44q11 27 13 100z" />
<glyph unicode="&#x183a;&#xf3a9;" horiz-adv-x="853" d="M853 290v-204q-1 -40 -16 -40h-1q-12 0 -18 47q-8 69 -13 98q-4 21 -55 25q-2 0 -110 2h-85q0 -21 1 -46q2 -50 2 -63q0 -234 -126 -234q-85 0 -148 131q-42 89 -62 208q-11 68 -11 121q0 27 3 53h299q-19 49 -50 86q-74 86 -184 86q-98 0 -169 -74q-68 -73 -68 -167 q0 -106 52 -173l103 -108l-69 -119q-5 10 -42 76q-10 -12 -32.5 -37.5t-30.5 -33.5l-23 121l41 27q-30 68 -31 72q-10 29 -10 74v170q0 131 76 231q84 111 214 111q104 0 186 -91q79 -86 79 -184q0 -57 -3 -67h189q112 0 112 -98zM511 186l2 32h-248v-9q35 -77 62 -112 q43 -55 95 -55q56 0 76 44q11 27 13 100z" />
<glyph unicode="&#x183a;&#x1838;" horiz-adv-x="811" d="M811 388v-170h-317q18 -51 52 -153q41 -101 97 -101q25 0 40 30q13 25 14 53q28 -102 28 -157q0 -36 -18 -65q-21 -34 -56 -34q-105 0 -166 199q-60 248 -91 371q-57 199 -149 199q-96 0 -152 -74q-51 -68 -51 -167q0 -80 17 -123q13 -36 54 -71q34 -26 101 -78l-86 -128 q-7 14 -42 76q-10 -12 -32.5 -37.5t-30.5 -33.5l-23 121l41 27l-30 72q-11 33 -11 74v170q0 136 59 231q69 111 197 111q99 0 160 -91q54 -79 54 -184q0 -31 -12 -67h353z" />
<glyph unicode="&#x183a;&#xf313;" horiz-adv-x="1024" d="M1024 290v-204q-1 -40 -16 -40h-1q-12 0 -18 47q-8 69 -13 98q-4 27 -137 27h-28h-317q18 -51 52 -153q41 -101 97 -101q25 0 40 30q13 25 14 53q28 -102 28 -157q0 -36 -18 -65q-21 -34 -56 -34q-105 0 -166 199q-60 248 -91 371q-57 199 -149 199q-96 0 -152 -74 q-51 -68 -51 -167q0 -80 17 -123q13 -36 54 -71l101 -78l-86 -128q-13 27 -42 76q-10 -12 -32.5 -37.5t-30.5 -33.5l-23 121l41 27q-27 59 -31 70q-10 27 -10 76v170q0 136 59 231q69 111 197 111q99 0 160 -91q54 -79 54 -184q0 -31 -12 -67h453q113 0 113 -98z" />
<glyph unicode="&#x183b;&#xf305;" horiz-adv-x="640" d="M458 388h182v-170h-85l-85 -299q-8 26 -30 224q-20 188 -54 281q-49 136 -140 136h-1q-79 -2 -131 -51q-49 -46 -65 -120h120v-171h-117q12 -48 53 -86l109 -85l-86 -128q-8 14 -37 65.5t-45 79.5q-46 85 -46 154v170q0 136 59 231q69 111 197 111q99 0 160 -91 q54 -79 54 -184q0 -31 -12 -67z" />
<glyph unicode="&#x183b;&#xf308;" d="M939 275v-6l-6 -316q-1 -113 -29 -199q-29 -90 -72 -103q-25 -8 -55 -34q-3 -2 -19 -25q-10 -16 -26 -16q-24 0 -24 82v78q6 55 34 55q5 0 15 -4.5t14 -4.5q9 0 35 9q10 4 19 13q3 4 5.5 7.5t3.5 5.5l2 2q11 10 19 135q7 94 7 178q0 52 -9 63q-20 23 -102 23h-196 l-85 -299q-8 26 -30 224q-20 188 -54 281q-49 136 -140 136h-1q-79 -2 -131 -51q-49 -47 -65 -121h121v-170h-118q12 -48 53 -86l109 -85l-86 -128q-8 14 -37 65.5t-45 79.5q-46 85 -46 154v170q0 136 59 231q69 111 197 111q99 0 160 -91q54 -79 54 -184q0 -31 -12 -67h350 q86 0 111 -31q20 -23 20 -82z" />
<glyph unicode="&#x183b;&#x1835;" horiz-adv-x="810" d="M810 388v-170h-298l171 -342l-128 -127q-47 149 -97 410q-42 222 -72 291q-48 110 -139 110h-2q-79 -2 -131 -51q-49 -47 -65 -121h122v-170h-119q12 -48 53 -86l109 -85l-86 -128q-8 14 -37 65.5t-45 79.5q-46 85 -46 154v170q0 136 59 231q69 111 197 111q99 0 160 -91 q54 -79 54 -184q0 -31 -12 -67h352z" />
<glyph unicode="&#x183b;&#xf30b;" d="M939 290v-204q-1 -40 -16 -40h-1q-13 0 -19 47q-11 90 -12 98q-4 20 -59 25q-22 2 -107 2h-213l171 -342l-128 -127q-47 149 -97 410q-42 222 -72 291q-48 110 -139 110h-2q-79 -2 -131 -51q-49 -47 -65 -121h122v-170h-119q12 -48 53 -86l109 -85l-86 -128 q-8 14 -37 65.5t-45 79.5q-46 85 -46 154v170q0 136 59 231q69 111 197 111q99 0 160 -91q54 -79 54 -184q0 -31 -12 -67h368q113 0 113 -98z" />
<glyph unicode="&#x183b;&#xf3a5;" horiz-adv-x="640" d="M552 388h88v-170h-85q0 -21 1 -46q2 -50 2 -63q0 -234 -126 -234q-85 0 -148 131q-42 89 -62 208q-11 68 -11 121q0 27 3 53h299q-19 49 -50 86q-74 86 -184 86q-79 0 -143 -50q-61 -49 -83 -121h67v-171h-63q17 -52 60 -99l80 -81l-69 -119q-8 14 -37 65.5t-45 79.5 q-46 85 -46 154v170q0 131 76 231q84 111 214 111q104 0 186 -91q79 -86 79 -184q0 -57 -3 -67zM511 186l2 32h-248v-9q35 -77 62 -112q43 -55 95 -55q56 0 76 44q11 27 13 100z" />
<glyph unicode="&#x183b;&#xf30e;" horiz-adv-x="555" d="M555 218q-3 -13 -5 -122q-2 -101 -19 -149q-27 -72 -99 -72q-85 0 -148 131q-42 89 -62 208q-11 68 -11 121q0 27 3 53h299q-19 49 -50 86q-74 86 -184 86q-80 0 -143 -51q-61 -47 -83 -120h67v-171h-63q17 -52 60 -99l80 -81l-69 -119q-8 14 -37 65.5t-45 79.5 q-46 85 -46 154v170q0 131 76 231q84 111 214 111q103 0 185 -91q77 -86 77 -184l3 -65q-1 0 0 -172zM511 186l2 32h-248v-9q35 -77 62 -112q43 -55 95 -55q56 0 76 44q11 27 13 100z" />
<glyph unicode="&#x183b;&#x1861;" horiz-adv-x="981" d="M981 388v-170h-299l170 -342l-127 -127q-19 68 -128 469h-42q0 -21 1 -46q2 -50 2 -63q0 -234 -126 -234q-85 0 -148 131q-42 89 -62 208q-11 68 -11 121q0 27 3 53h299q-19 49 -50 86q-74 86 -184 86q-80 0 -143 -51q-60 -47 -83 -121h67v-170h-63q17 -52 60 -99l80 -81 l-69 -119q-8 14 -37 65.5t-45 79.5q-46 85 -46 154v170q0 131 76 231q84 111 214 111q104 0 186 -91q79 -86 79 -184q0 -57 -3 -67h44h385zM511 186l2 32h-248v-9q35 -77 62 -112q43 -55 95 -55q56 0 76 44q11 27 13 100z" />
<glyph unicode="&#x183b;&#xf311;" horiz-adv-x="853" d="M853 290v-204q-1 -40 -16 -40h-1q-12 0 -18 47q-8 69 -13 98q-4 21 -55 25q-22 2 -110 2h-85q0 -21 1 -46q2 -50 2 -63q0 -234 -126 -234q-85 0 -148 131q-42 89 -62 208q-11 68 -11 121q0 27 3 53h299q-19 49 -50 86q-74 86 -184 86q-80 0 -143 -51q-60 -47 -83 -121h67 v-170h-63q17 -52 60 -99l80 -81l-69 -119q-8 14 -37 65.5t-45 79.5q-46 85 -46 154v170q0 131 76 231q84 111 214 111q104 0 186 -91q79 -86 79 -184q0 -57 -3 -67h189q112 0 112 -98zM511 186l2 32h-248v-9q35 -77 62 -112q43 -55 95 -55q56 0 76 44q11 27 13 100z" />
<glyph unicode="&#x183b;&#x1838;" horiz-adv-x="811" d="M811 388v-170h-317q18 -51 52 -153q41 -101 97 -101q25 0 40 30q13 25 14 53q28 -102 28 -157q0 -36 -18 -65q-21 -34 -56 -34q-105 0 -166 199q-60 248 -91 371q-57 199 -149 199q-78 0 -131 -50q-49 -46 -65 -121h122v-171h-119q12 -48 53 -86q36 -28 109 -85l-86 -128 q-8 14 -37 65.5t-45 79.5q-46 85 -46 154v170q0 136 59 231q69 111 197 111q99 0 160 -91q54 -79 54 -184q0 -31 -12 -67h353z" />
<glyph unicode="&#x183b;&#xf313;" horiz-adv-x="1024" d="M1024 290v-204q-1 -40 -16 -40h-1q-12 0 -18 47q-8 69 -13 98q-4 27 -137 27h-28h-317q18 -51 52 -153q41 -101 97 -101q25 0 40 30q13 25 14 53q28 -102 28 -157q0 -36 -18 -65q-21 -34 -56 -34q-105 0 -166 199q-60 248 -91 371q-57 199 -149 199q-78 0 -131 -50 q-49 -46 -65 -121h122v-171h-119q12 -48 53 -86l109 -85l-86 -128q-8 14 -37 65.5t-45 79.5q-46 85 -46 154v170q0 136 59 231q69 111 197 111q99 0 160 -91q54 -79 54 -184q0 -31 -12 -67h453q113 0 113 -98z" />
<glyph unicode=" "  horiz-adv-x="512" />
<glyph unicode="&#x09;" horiz-adv-x="512" />
<glyph unicode="&#xa0;" horiz-adv-x="512" />
<glyph unicode="!" horiz-adv-x="284" d="M174 182h-58l-28 389v162h111v-162zM195 0h-103v103h103v-103z" />
<glyph unicode="&#x22;" horiz-adv-x="363" d="M127 474h-55l-25 139v120h102v-120zM291 474h-54l-24 139v120h103v-120z" />
<glyph unicode="#" horiz-adv-x="569" d="M127 -13h-75l43 213h-84v75h99l37 181h-136v75h151l44 214h75l-44 -214h157l44 214h76l-44 -214h86v-75h-101l-37 -181h138v-75h-154l-43 -213h-75l43 213h-157zM222 456l-37 -181h157l38 181h-158z" />
<glyph unicode="$" horiz-adv-x="569" d="M308 -106h-53v90q-67 9 -105 28q-48 25 -78.5 74t-35.5 117l91 18q11 -75 37 -107q38 -48 91 -53v286q-57 11 -114 43q-89 50 -89 163q0 96 68 155q46 40 135 49v43h53v-43q172 -17 195 -180l-92 -14q-16 100 -103 119v-260q69 -16 90 -27q80 -34 109 -108q15 -36 15 -78 q0 -95 -60 -157q-61 -63 -154 -67v-91zM255 434v249q-48 -7 -81 -40q-32 -35 -32 -83q0 -91 113 -126zM308 334v-273q54 6 87.5 46t33.5 95q0 58 -34 89q-25 23 -87 43z" />
<glyph unicode="%" horiz-adv-x="910" d="M60 557q0 79 36 130q42 58 118 58q79 0 122 -58q37 -52 37 -136q0 -80 -38 -133q-43 -60 -120 -60q-80 0 -121 62q-34 52 -34 137zM216 684q-78 0 -78 -136q0 -128 78 -128t78 135q0 129 -78 129zM291 -27h-74l401 772h73zM534 172q0 79 36 130q42 59 118 59 q78 0 122 -60q37 -52 37 -134q0 -81 -38 -134q-43 -60 -120 -60q-80 0 -121 62q-34 52 -34 137zM691 298q-79 0 -79 -135q0 -128 78 -128q79 0 79 135q0 128 -78 128z" />
<glyph unicode="&#x26;" horiz-adv-x="683" d="M486 86q-88 -99 -210 -99q-113 0 -179 77q-53 62 -53 138q0 137 175 219q-83 95 -83 161q0 72 56 119q53 44 126 44q70 0 119 -42q51 -45 51 -114q0 -105 -138 -178l132 -168q21 40 35 102l93 -20q-24 -96 -65 -158q49 -66 114 -112l-60 -72q-51 32 -113 103zM264 515 l39 -46q42 23 65 46q28 31 28 72q0 36 -23 60.5t-59 24.5t-60.5 -23t-24.5 -59q0 -34 35 -75zM430 158l-165 204q-124 -73 -124 -154q0 -58 39 -98q40 -43 97 -43q43 0 87 27q39 25 66 64z" />
<glyph unicode="'" horiz-adv-x="195" d="M124 474h-56l-23 136v123h102v-123z" />
<glyph unicode="(" horiz-adv-x="340" d="M304 -216h-65q-177 225 -177 482q0 242 177 479h65q-63 -108 -80 -148q-69 -157 -69 -332q0 -239 149 -481z" />
<glyph unicode=")" horiz-adv-x="340" d="M127 -216h-65q150 242 150 481q0 174 -70 330q-18 43 -80 150h65q177 -237 177 -479q0 -256 -177 -482z" />
<glyph unicode="*" horiz-adv-x="398" d="M32 598l23 72q70 -25 116 -49q-10 86 -10 124h72q-1 -44 -11 -123q51 26 117 48l24 -72q-65 -20 -125 -27q27 -23 86 -95l-60 -42q-27 37 -69 107q-33 -65 -65 -107l-58 42q57 71 83 95q-65 12 -123 27z" />
<glyph unicode="+" horiz-adv-x="597" d="M341 119h-84v201h-200v83h200v200h84v-200h200v-83h-200v-201z" />
<glyph unicode="," horiz-adv-x="284" d="M142 0h-51v103h102v-103q0 -109 -83 -145l-25 38q54 24 57 107z" />
<glyph unicode="-" horiz-adv-x="340" d="M309 220h-277v91h277v-91z" />
<glyph unicode="." horiz-adv-x="284" d="M195 0h-102v103h102v-103z" />
<glyph unicode="/" horiz-adv-x="284" d="M73 -13h-73l213 758h71z" />
<glyph unicode="0" horiz-adv-x="569" d="M42 362q0 244 107 331q52 43 133 43q117 0 176 -92q63 -96 63 -282q0 -244 -106 -331q-53 -44 -133 -44q-240 0 -240 375zM135 362q0 -121 20 -187q33 -113 127 -113q146 0 146 300q0 121 -20 187q-33 112 -127 112q-63 0 -100 -52q-46 -67 -46 -247z" />
<glyph unicode="1" horiz-adv-x="569" d="M382 736v-736h-91v574q-69 -68 -179 -109v87q156 73 212 184h58z" />
<glyph unicode="2" horiz-adv-x="569" d="M156 86h360v-86h-485v5q0 31 10 58q35 92 178 208q84 69 127 115q76 82 76 149q0 57 -41 93q-39 33 -97 33q-66 0 -104.5 -39.5t-39.5 -106.5l-92 9q11 104 72 158q62 54 166 54q98 0 160 -52q69 -56 69 -151q0 -89 -78 -177q-48 -51 -139 -128q-64 -54 -76 -66 q-44 -41 -66 -76z" />
<glyph unicode="3" horiz-adv-x="569" d="M43 193l90 13q29 -144 144 -144q63 0 107 44t44 109q0 61 -41 102q-40 40 -103 40q-27 0 -63 -10l9 79q6 -1 15 -1q62 0 103 29q46 34 46 93q0 51 -33.5 83t-85.5 32q-114 0 -133 -132l-90 16q16 90 73.5 140t147.5 50q57 0 106 -24q53 -26 81 -72q27 -45 27 -95 q0 -101 -101 -148q66 -15 102 -64q35 -47 35 -116q0 -102 -74 -167q-71 -63 -173 -63q-95 0 -160 56q-64 55 -73 150z" />
<glyph unicode="4" horiz-adv-x="569" d="M421 0h-90v176h-318v82l334 475h74v-475h99v-82h-99v-176zM101 258h230v331z" />
<glyph unicode="5" horiz-adv-x="569" d="M42 192l95 8q9 -62 43 -99q38 -39 98 -39q72 0 115 54q40 50 40 124t-41 120q-42 46 -115 46q-89 0 -134 -71l-84 11l70 377h365v-86h-293l-39 -197q65 46 138 46q102 0 166 -69q63 -67 63 -169q0 -100 -58 -171q-71 -90 -193 -90q-96 0 -161 54q-65 56 -75 151z" />
<glyph unicode="6" horiz-adv-x="569" d="M509 553l-89 -7q-12 55 -34 78q-36 38 -90 38q-97 0 -143 -115q-23 -57 -25 -169q65 98 178 98q96 0 158 -72q59 -68 59 -166q0 -68 -28 -124q-30 -62 -84 -95q-53 -32 -118 -32q-139 0 -204 114q-51 90 -51 242q0 393 263 393q87 0 142 -48.5t66 -134.5zM142 237 q0 -107 75 -153q34 -22 74 -22q66 0 105 54q35 49 35 116q0 70 -36 115q-40 49 -107 49q-66 0 -107 -47q-39 -45 -39 -112z" />
<glyph unicode="7" horiz-adv-x="569" d="M407 637h-359v87h475v-71q-79 -82 -147 -212q-64 -121 -98 -240q-28 -95 -35 -201h-92q1 103 39 229q33 111 88 216q62 114 129 192z" />
<glyph unicode="8" horiz-adv-x="569" d="M181 397q-110 41 -110 150q0 87 63 140q58 49 148 49q88 0 149 -51q63 -53 63 -141q0 -106 -108 -147q139 -45 139 -187q0 -101 -72 -164q-68 -59 -170 -59q-103 0 -171 60q-71 63 -71 165q0 149 140 185zM163 550q0 -53 33.5 -85.5t86.5 -32.5q51 0 85 31.5t34 81.5 t-34.5 83.5t-85.5 33.5q-49 0 -83 -31q-36 -31 -36 -81zM134 212q0 -91 73 -131q34 -19 77 -19q63 0 106 41q43 40 43 106q0 65 -44 107q-43 43 -108 43q-63 0 -105 -42t-42 -105z" />
<glyph unicode="9" horiz-adv-x="569" d="M56 170l86 8q23 -116 122 -116q80 0 124 69q47 76 47 196v18q-29 -45 -75.5 -71t-99.5 -26q-98 0 -160 72q-58 67 -58 168q0 106 62 176q64 72 169 72q74 0 132.5 -39.5t88.5 -108.5q31 -69 31 -206q0 -262 -122 -351q-61 -44 -141 -44q-87 0 -141 48t-65 135zM425 493 q0 68 -36 116q-39 52 -105 52q-68 0 -110 -55q-39 -51 -39 -120q0 -67 40 -113q41 -45 107 -45q68 0 107 49q36 45 36 116z" />
<glyph unicode=":" horiz-adv-x="284" d="M195 429h-103v102h103v-102zM195 0h-103v103h103v-103z" />
<glyph unicode=";" horiz-adv-x="284" d="M193 429h-102v102h102v-102zM142 0h-51v103h102v-103q0 -109 -83 -145l-25 38q54 24 57 107z" />
<glyph unicode="&#x3c;" horiz-adv-x="597" d="M541 113l-485 208v83l485 205v-89l-384 -158l384 -160v-89z" />
<glyph unicode="=" horiz-adv-x="597" d="M541 515v-84h-484v84h484zM541 292v-83h-484v83h484z" />
<glyph unicode="&#x3e;" horiz-adv-x="597" d="M541 404v-83l-485 -208v89l384 160l-384 158v89z" />
<glyph unicode="?" horiz-adv-x="569" d="M323 180h-87q-1 12 -1 28q0 52 15 91q12 29 36 58q12 15 66 64q47 42 59 64q15 25 15 54q0 56 -44 95q-41 38 -98 38q-123 0 -147 -149l-92 11q13 102 74 156.5t163 54.5q96 0 163 -50q73 -55 73 -150q0 -55 -33 -105q-23 -33 -78 -81q-38 -35 -46 -45q-24 -27 -31 -55 q-5 -23 -7 -79zM333 0h-103v103h103v-103z" />
<glyph unicode="@" horiz-adv-x="1039" d="M581 81q-74 -83 -154 -83q-102 0 -155 107q-26 55 -26 118q0 77 39 156q41 81 103 123q59 40 117 40q95 0 151 -92l18 78h89l-72 -336q-15 -71 -15 -77q0 -15 10 -24.5t25 -9.5q27 0 70 31q56 40 91 108q32 67 32 138q0 90 -46 161q-43 70 -124 111q-86 44 -188 44 q-118 0 -212 -54q-98 -56 -152 -158q-53 -103 -53 -220q0 -118 50 -204q52 -93 158 -137q101 -42 223 -42q108 0 195 33q102 39 157 118h90q-30 -64 -99 -118q-62 -49 -136 -76q-87 -32 -206 -32q-233 0 -364 115q-141 123 -141 335q0 121 50 233q126 279 445 279 q123 0 219 -48q102 -52 160 -154q48 -85 48 -188q0 -144 -102 -257q-92 -101 -199 -101q-66 0 -87 40q-6 14 -9 43zM338 217q0 -55 26 -96q28 -48 81 -48q62 0 119 66q64 74 64 186q0 58 -28 98q-32 45 -88 45q-66 0 -115 -69q-59 -80 -59 -182z" />
<glyph unicode="A" horiz-adv-x="683" d="M101 0h-103l282 733h104l301 -733h-111l-86 222h-306zM290 516l-80 -215h248l-76 203q-35 92 -52 152q-12 -66 -40 -140z" />
<glyph unicode="B" horiz-adv-x="683" d="M354 0h-279v733h275q159 0 214 -91q29 -47 29 -97q0 -104 -103 -155q66 -20 101 -64q38 -47 38 -113q0 -108 -76 -165q-65 -48 -199 -48zM172 646v-221h159q63 0 92 9q74 23 74 100q0 81 -67 102q-31 10 -111 10h-147zM172 338v-252h182q50 0 67 4q66 12 93 61 q14 28 14 62q0 88 -79 113q-37 12 -108 12h-169z" />
<glyph unicode="C" horiz-adv-x="739" d="M602 257l97 -25q-28 -115 -106 -179q-79 -66 -198 -66q-225 0 -305 189q-39 91 -39 196q0 238 168 329q82 44 178 44q108 0 183.5 -55.5t106.5 -157.5l-96 -23q-49 153 -196 153q-80 0 -136 -37q-61 -39 -85 -112q-23 -69 -23 -140q0 -201 112 -268q58 -34 124 -34 q175 0 215 186z" />
<glyph unicode="D" horiz-adv-x="739" d="M343 0h-264v733h253q87 0 130 -10q139 -33 194 -178q29 -78 29 -174q0 -159 -69 -255q-60 -81 -155 -103q-49 -13 -118 -13zM176 646v-560h157q127 0 179 52q73 73 73 234q0 209 -130 260q-39 14 -125 14h-154z" />
<glyph unicode="E" horiz-adv-x="683" d="M628 0h-547v733h530v-87h-433v-224h406v-86h-406v-250h450v-86z" />
<glyph unicode="F" horiz-adv-x="625" d="M181 0h-97v733h495v-87h-398v-226h344v-87h-344v-333z" />
<glyph unicode="G" horiz-adv-x="796" d="M638 287h-216v87h311v-272q-143 -115 -304 -115q-105 0 -191 44q-92 46 -139 137q-44 88 -44 195q0 105 41 193q46 98 132 144q84 45 194 45q168 0 244 -97q37 -47 56 -120l-88 -24q-31 104 -111 139q-44 19 -101 19q-127 0 -193 -73q-74 -83 -74 -220q0 -196 131 -262 q66 -32 138 -32q51 0 113 20q64 24 101 56v136z" />
<glyph unicode="H" horiz-adv-x="739" d="M179 0h-97v733h97v-301h381v301h97v-733h-97v345h-381v-345z" />
<glyph unicode="I" horiz-adv-x="284" d="M192 0h-97v733h97v-733z" />
<glyph unicode="J" horiz-adv-x="512" d="M29 200v8l88 12q3 -69 22 -101q25 -45 87 -45q77 0 100 62q9 28 9 92v505h98v-500q0 -168 -93 -219q-50 -27 -113 -27q-198 0 -198 213z" />
<glyph unicode="K" horiz-adv-x="683" d="M172 0h-97v733h97v-363l364 363h132l-308 -297l321 -436h-128l-261 371l-120 -117v-254z" />
<glyph unicode="L" horiz-adv-x="569" d="M533 0h-458v733h97v-647h361v-86z" />
<glyph unicode="M" horiz-adv-x="852" d="M170 0h-94v733h146l173 -519q23 -64 36 -108q13 45 39 117l175 510h131v-733h-94v613l-213 -613h-87l-212 624v-624z" />
<glyph unicode="N" horiz-adv-x="739" d="M171 0h-93v733h100l384 -575v575h93v-733h-99l-385 576v-576z" />
<glyph unicode="O" horiz-adv-x="796" d="M49 357q0 169 89 276q95 113 262 113q101 0 181 -47q82 -48 125.5 -134.5t43.5 -198.5q0 -108 -40 -192q-46 -94 -132 -141q-82 -46 -178 -46q-101 0 -182 48q-83 50 -127 139q-42 87 -42 183zM149 355q0 -122 64 -199q67 -85 186 -85q124 0 191 88q60 79 60 207 q0 185 -118 260q-58 36 -131 36q-130 0 -194 -91q-58 -80 -58 -216z" />
<glyph unicode="P" horiz-adv-x="683" d="M176 0h-97v733h276q74 0 112 -7q107 -20 149 -105q23 -46 23 -100q0 -223 -275 -223h-188v-298zM176 646v-262h190q172 0 172 134q0 43 -21 76q-23 36 -63 46q-24 6 -90 6h-188z" />
<glyph unicode="Q" horiz-adv-x="796" d="M635 78q41 -14 124 -41l-28 -68q-122 28 -158 64q-82 -46 -180 -46q-99 0 -179 48q-81 48 -125.5 135.5t-44.5 196.5q0 106 40 190q45 94 129 142q82 47 182 47q99 0 181 -47t125.5 -134.5t43.5 -197.5q0 -182 -110 -289zM397 132l24 70q82 -22 138 -70q86 80 86 235 q0 184 -119 259q-58 36 -131 36q-123 0 -191 -87q-60 -79 -60 -208t60 -208q67 -88 191 -88q53 0 98 19q-45 30 -96 42z" />
<glyph unicode="R" horiz-adv-x="739" d="M178 0h-98v733h325q87 0 130 -13q66 -20 101 -77q31 -49 31 -110q0 -172 -207 -200q40 -18 59 -36q43 -40 80 -98l128 -199h-123l-97 152q-31 52 -54 81q-37 52 -65 69q-24 16 -44 20q-13 4 -54 4h-112v-326zM178 652v-243h208q124 0 161 58q20 31 20 66q0 119 -158 119 h-231z" />
<glyph unicode="S" horiz-adv-x="683" d="M46 235l91 8q14 -107 104 -147q49 -21 113 -21q118 0 161 61q21 28 21 63q0 71 -86 103q-40 16 -138 37q-87 21 -134 45q-104 56 -104 159q0 59 33 106.5t90 71.5q61 24 135 24q171 0 240 -103q34 -52 35 -115l-92 -7q-17 140 -179 140q-67 0 -110 -22q-58 -28 -58 -88 q0 -56 63 -85q22 -12 111 -32q116 -26 162 -47q126 -57 126 -179q0 -63 -37 -115q-34 -49 -93 -76q-64 -29 -141 -29q-197 0 -273 117q-39 60 -40 131z" />
<glyph unicode="T" horiz-adv-x="625" d="M363 0h-97v646h-242v87h581v-87h-242v-646z" />
<glyph unicode="U" horiz-adv-x="739" d="M560 310v423h97v-423q0 -102 -19 -159q-26 -79 -96 -123q-65 -41 -171 -41q-205 0 -262 139q-29 69 -29 184v423h98v-423q0 -80 10 -119q17 -63 68 -92q44 -24 106 -24q118 0 161 60q37 50 37 175z" />
<glyph unicode="V" horiz-adv-x="683" d="M388 0h-100l-283 733h105l190 -533q25 -71 38 -120q13 47 40 120l198 533h99z" />
<glyph unicode="W" horiz-adv-x="966" d="M306 0h-99l-194 733h99l112 -481q19 -81 30 -149l33 135l140 495h117l105 -371q41 -141 57 -259q12 57 36 159l115 471h98l-201 -733h-94l-154 558q-5 20 -11 41t-8.5 31l-3.5 14q-11 -50 -21 -86z" />
<glyph unicode="X" horiz-adv-x="683" d="M121 0h-116l283 382l-250 351h115l133 -188q44 -61 59 -90q19 31 58 83l148 195h105l-257 -346l278 -387h-121l-184 262q-23 35 -32 49q-17 -29 -35 -56z" />
<glyph unicode="Y" horiz-adv-x="683" d="M383 0h-98v311l-282 422h118l145 -221q42 -67 74 -124q30 52 80 130l142 215h113l-292 -422v-311z" />
<glyph unicode="Z" horiz-adv-x="625" d="M600 0h-579v90l375 469q43 53 76 87h-409v87h525v-87l-456 -560h468v-86z" />
<glyph unicode="[" horiz-adv-x="284" d="M268 -203h-198v936h198v-75h-108v-787h108v-74z" />
<glyph unicode="\" horiz-adv-x="284" d="M284 -13h-71l-213 758h73z" />
<glyph unicode="]" horiz-adv-x="284" d="M218 733v-936h-198v74h108v787h-108v75h198z" />
<glyph unicode="^" horiz-adv-x="480" d="M239 643l-119 -298h-93l176 400h73l177 -400h-90z" />
<glyph unicode="_" horiz-adv-x="569" d="M581 -203h-597v65h597v-65z" />
<glyph unicode="`" horiz-adv-x="340" d="M165 737l67 -140h-72l-116 140h121z" />
<glyph unicode="a" horiz-adv-x="569" d="M414 66q-92 -78 -195 -78q-77 0 -127 36q-55 40 -55 116q0 80 64 123q29 20 65 29q19 5 80 14q111 14 160 31q1 12 1 24q0 55 -25 77q-34 31 -103 31q-61 0 -92 -22q-30 -22 -47 -79l-87 12q22 109 119 144q51 19 120 19q126 0 173 -56q21 -27 28 -61q4 -20 4 -84v-119 q0 -109 1 -114q5 -68 28 -109h-94q-14 28 -18 66zM406 233v34q-52 -22 -146 -35q-45 -6 -63 -12q-35 -10 -52 -35q-12 -19 -12 -43q0 -42 34 -64q28 -19 73 -19q112 0 152 84q14 33 14 90z" />
<glyph unicode="b" horiz-adv-x="569" d="M150 67v-67h-83v733h90v-261q57 71 145 71q106 0 166 -76q60 -77 60 -193t-56 -196q-63 -90 -174 -90q-94 0 -148 79zM149 270q0 -96 27 -139q42 -69 114 -69q75 0 114 68q31 55 31 136q0 80 -29 135q-38 68 -112 68q-72 0 -112 -67q-33 -56 -33 -132z" />
<glyph unicode="c" horiz-adv-x="512" d="M414 194l88 -11q-13 -89 -72 -142t-148 -53q-119 0 -184 80q-58 73 -58 196q0 183 115 247q59 32 127 32q84 0 140 -42q56 -43 72 -126l-88 -13q-26 107 -121 107q-153 0 -153 -203q0 -204 149 -204q113 0 133 132z" />
<glyph unicode="d" horiz-adv-x="569" d="M495 0h-83v67q-49 -79 -148 -79q-67 0 -120 37q-109 74 -109 240q0 174 106 243q53 35 119 35q94 0 146 -73v263h89v-733zM128 265q0 -80 31 -135q38 -68 113 -68q74 0 111 64q31 52 31 132q0 84 -30 140q-38 71 -116 71q-76 0 -112 -68q-28 -52 -28 -136z" />
<glyph unicode="e" horiz-adv-x="569" d="M431 171l93 -11q-46 -172 -234 -172q-121 0 -189 77q-64 71 -64 196q0 122 62 199q68 83 186 83q117 0 183 -81q59 -76 59 -195v-25h-397q4 -75 43 -126q43 -54 118 -54q101 0 140 109zM135 317h297q-6 66 -34 100q-43 52 -112 52q-64 0 -105 -42.5t-46 -109.5z" />
<glyph unicode="f" horiz-adv-x="284" d="M179 0h-90v461h-79v70h79v57q0 54 9 79q28 78 138 78q34 0 84 -8l-14 -79q-30 5 -53 5q-43 0 -60 -20q-14 -19 -14 -63v-49h103v-70h-103v-461z" />
<glyph unicode="g" horiz-adv-x="569" d="M51 -61v5l87 -1q6 -40 31 -59q32 -25 92 -25q116 0 142 95q6 24 6 95v21q-58 -70 -146 -70q-110 0 -173 82q-57 74 -57 187q0 167 107 239q53 35 123 35q94 0 155 -76v64h83v-459q0 -99 -15 -147q-23 -71 -90 -110q-55 -31 -135 -31q-93 0 -148 39q-62 44 -62 116z M126 275q0 -83 30 -136q37 -64 115 -64q77 0 115 63q31 52 31 134q0 79 -33 133q-40 64 -114 64q-75 0 -112 -64q-32 -53 -32 -130z" />
<glyph unicode="h" horiz-adv-x="569" d="M158 0h-90v733h90v-263q63 73 159 73q124 0 164 -88q19 -39 19 -119v-336h-90v336q0 130 -112 130q-40 0 -74 -21q-36 -21 -51 -56t-15 -99v-290z" />
<glyph unicode="i" horiz-adv-x="227" d="M158 630h-90v103h90v-103zM158 0h-90v531h90v-531z" />
<glyph unicode="j" horiz-adv-x="227" d="M157 629h-90v104h90v-104zM-47 -206l17 77q25 -7 43 -7q38 0 49 38q5 20 5 71v558h90v-560q0 -97 -26 -137q-32 -50 -107 -50q-38 0 -71 10z" />
<glyph unicode="k" horiz-adv-x="512" d="M158 0h-90v733h90v-418l213 216h116l-203 -197l224 -334h-111l-175 272l-64 -61v-211z" />
<glyph unicode="l" horiz-adv-x="227" d="M156 0h-90v733h90v-733z" />
<glyph unicode="m" horiz-adv-x="852" d="M158 0h-90v531h80v-75q56 87 161 87q117 0 150 -93q63 93 164 93q164 0 164 -178v-365h-90v334q0 48 -4 65q-9 35 -36 51q-23 15 -54 15q-67 0 -101 -46q-29 -41 -29 -110v-309h-90v345q0 120 -94 120q-89 0 -117 -79q-14 -39 -14 -110v-276z" />
<glyph unicode="n" horiz-adv-x="569" d="M158 0h-90v531h80v-76q58 88 170 88q103 0 148 -62q21 -30 28 -67q5 -27 5 -87v-327h-90v323q0 97 -48 126q-26 16 -63 16q-140 0 -140 -175v-290z" />
<glyph unicode="o" horiz-adv-x="569" d="M34 266q0 148 82 218q68 59 167 59q117 0 185 -77q64 -73 64 -193q0 -186 -121 -252q-59 -33 -128 -33q-120 0 -188 80q-61 73 -61 198zM127 266q0 -87 34 -140q40 -64 122 -64q81 0 122 66q34 53 34 141q0 82 -36 136q-40 64 -120 64q-81 0 -122 -65q-34 -52 -34 -138z " />
<glyph unicode="p" horiz-adv-x="569" d="M158 -203h-90v734h81v-69q58 81 154 81q143 0 199 -134q27 -65 27 -139q0 -177 -115 -247q-56 -35 -117 -35q-87 0 -139 67v-258zM149 263q0 -81 30 -135q37 -66 112 -66q77 0 115 69q30 56 30 139q0 78 -30 134q-38 69 -111 69q-74 0 -114 -73q-32 -59 -32 -137z" />
<glyph unicode="q" horiz-adv-x="569" d="M496 -203h-90v260q-50 -69 -139 -69q-109 0 -174 89q-57 80 -57 194q0 171 108 239q53 33 116 33q99 0 155 -83v71h81v-734zM128 267q0 -81 32 -137q39 -68 115 -68q72 0 110 65q30 53 30 132q0 82 -31 140q-40 73 -115 73q-76 0 -112 -69q-29 -55 -29 -136z" />
<glyph unicode="r" horiz-adv-x="340" d="M157 0h-90v531h80v-81q51 93 116 93q45 0 92 -29l-31 -83q-32 19 -66 19q-67 0 -86 -67q-15 -48 -15 -105v-278z" />
<glyph unicode="s" horiz-adv-x="512" d="M31 159l90 14q15 -111 137 -111q48 0 81 18q41 23 41 66q0 32 -27 48q-17 13 -91 31q-84 21 -108 30q-64 25 -88 64q-20 32 -20 71q0 73 61 116q50 37 135 37q131 0 180 -67q23 -32 30 -82l-87 -12q-13 87 -117 87q-115 0 -115 -69q0 -37 46 -55q25 -8 80 -23 q85 -23 104 -30q62 -22 88 -59q22 -31 22 -77q0 -101 -102 -146q-48 -22 -112 -22q-197 0 -228 171z" />
<glyph unicode="t" horiz-adv-x="284" d="M264 80l13 -79q-40 -8 -68 -8q-88 0 -114 56q-11 27 -11 107v305h-66v70h66v131l90 54v-185h90v-70h-90v-311q0 -38 6 -52q10 -21 45 -21q13 0 39 3z" />
<glyph unicode="u" horiz-adv-x="569" d="M496 0h-80v78q-63 -90 -169 -90q-43 0 -81 16q-44 16 -67 47q-21 29 -28 67q-5 30 -5 84v329h90v-295q0 -68 5 -95q18 -75 104 -75q41 0 75 19q36 22 51 58t15 103v285h90v-531z" />
<glyph unicode="v" horiz-adv-x="512" d="M299 0h-84l-202 531h95l114 -318q19 -50 34 -107q13 44 33 101l118 324h93z" />
<glyph unicode="w" horiz-adv-x="739" d="M260 0h-94l-163 531h93l116 -420q4 18 27 109l85 311h93l106 -409l121 409h88l-166 -531h-94l-85 318l-20 90z" />
<glyph unicode="x" horiz-adv-x="512" d="M117 0h-109l193 276l-179 255h112l82 -125q11 -17 37 -59q5 7 18.5 26.5t21.5 31.5l90 126h107l-183 -250l197 -281h-110l-138 210z" />
<glyph unicode="y" horiz-adv-x="512" d="M64 -204l-10 84q30 -8 51 -8q54 0 77 38q7 11 28 67q3 7 8 22l-201 532h97l110 -307q23 -66 39 -124q14 62 36 122l114 309h90l-202 -540q-33 -89 -51 -120q-46 -87 -128 -87q-26 0 -58 12z" />
<glyph unicode="z" horiz-adv-x="512" d="M490 0h-470v73l338 388q-58 -3 -101 -3h-217v73h434v-59l-343 -399q53 4 113 4h246v-77z" />
<glyph unicode="{" horiz-adv-x="341" d="M28 225v81q80 2 96 75q6 29 8 118q0 37 3 110q11 109 93 132q16 4 62 4h28v-78h-16q-56 0 -72 -24q-13 -19 -13 -78q0 -133 -6 -166q-9 -52 -30.5 -81.5t-68.5 -52.5q67 -29 89 -92q16 -44 16 -133q0 -94 2 -116q5 -38 25 -51q16 -10 58 -10h16v-79h-28q-47 0 -71 8 q-68 26 -80 103q-6 36 -6 129q-2 86 -9 125q-17 75 -96 76z" />
<glyph unicode="|" horiz-adv-x="266" d="M173 -216h-79v961h79v-961z" />
<glyph unicode="}" horiz-adv-x="341" d="M313 306v-81q-78 -2 -95 -76q-9 -39 -9 -113q0 -80 -2 -114q-12 -108 -93 -132q-19 -6 -62 -6h-28v79h15q57 0 73 24q13 19 13 79q0 130 4 159q15 104 101 140q-68 31 -90 93q-15 42 -15 132q0 87 -2 117q-5 38 -26 50q-16 10 -58 10h-15v78h28q50 0 71 -7 q67 -25 80 -103q5 -35 5 -103v-25q0 -85 10 -126q16 -73 95 -75z" />
<glyph unicode="~" horiz-adv-x="597" d="M43 279v102q52 60 139 60q54 0 157 -44q57 -23 87 -23q66 0 129 68v-106q-62 -56 -138 -56q-54 0 -144 40q-60 26 -99 26q-61 0 -131 -67z" />
<glyph unicode="&#xb8;" horiz-adv-x="256" />
<glyph unicode="&#xba;" horiz-adv-x="356" d="M100 218v170h126q84 0 111 -31q19 -20 19 -88l-6 -316q-1 -113 -29 -199q-29 -90 -71 -103q-24 -8 -56 -34l-2 -3q-2 -3 -6.5 -9.5t-9.5 -12.5q-10 -16 -26 -16q-24 0 -24 82v78q6 55 34 55q5 0 15 -4.5t13 -4.5q10 0 36 9q11 4 18 13q10 14 12 15q12 12 19 135 q7 94 7 178q0 53 -10 63q-20 23 -102 23h-68z" />
<glyph unicode="&#xd6;" horiz-adv-x="796" d="M32 357q0 169 89 276q95 113 262 113q101 0 181 -47q82 -48 125.5 -134.5t43.5 -198.5q0 -108 -40 -192q-47 -94 -132 -141q-82 -46 -178 -46q-101 0 -182 48q-83 50 -127 139q-42 87 -42 183zM132 355q0 -122 64 -199q67 -85 186 -85q124 0 191 88q60 79 60 207 q0 185 -118 260q-59 36 -131 36q-130 0 -194 -91q-58 -80 -58 -216zM350 792h-94v102h94v-102zM536 792h-94v102h94v-102z" />
<glyph unicode="&#xdc;" horiz-adv-x="569" d="M327 782h-95v102h95v-102zM513 782h-94v102h94v-102zM560 310v423h97v-423q0 -102 -19 -159q-26 -79 -96 -123q-65 -41 -171 -41q-205 0 -262 139q-29 69 -29 184v423h98v-423q0 -80 10 -119q17 -63 68 -92q44 -24 106 -24q118 0 161 60q37 50 37 175z" />
<glyph unicode="&#xf6;" horiz-adv-x="569" d="M34 266q0 148 82 218q68 59 167 59q117 0 185 -77q64 -73 64 -193q0 -186 -121 -252q-59 -33 -128 -33q-120 0 -188 80q-61 73 -61 198zM127 266q0 -87 34 -140q40 -64 122 -64q81 0 122 66q34 53 34 141q0 82 -36 136q-40 64 -120 64q-81 0 -122 -65q-34 -52 -34 -138z M241 615h-95v103h95v-103zM427 615h-94v103h94v-103z" />
<glyph unicode="&#xfc;" horiz-adv-x="569" d="M241 615h-95v103h95v-103zM427 615h-94v103h94v-103zM496 0h-80v78q-63 -90 -169 -90q-43 0 -81 16q-44 16 -67 47q-21 29 -28 67q-5 30 -5 84v329h90v-295q0 -68 5 -95q18 -75 104 -75q41 0 75 19q36 22 51 58t15 103v285h90v-531z" />
<glyph unicode="&#x10c;" horiz-adv-x="340" d="M343 909l57 -85l55 85h102l-113 -140h-96l-108 140h103zM602 257l97 -25q-28 -115 -106 -179q-79 -66 -198 -66q-225 0 -305 189q-39 91 -39 196q0 238 168 329q82 44 178 44q108 0 183.5 -55.5t106.5 -157.5l-96 -23q-49 153 -196 153q-80 0 -136 -37q-61 -39 -85 -112 q-23 -69 -23 -140q0 -201 112 -268q58 -34 124 -34q175 0 215 186z" />
<glyph unicode="&#x10d;" horiz-adv-x="340" d="M226 737l56 -85l55 85h102l-112 -140h-96l-108 140h103zM414 194l88 -11q-13 -89 -72 -142t-148 -53q-119 0 -184 80q-58 73 -58 196q0 183 115 247q59 32 127 32q84 0 140 -42q56 -43 72 -126l-88 -13q-26 107 -121 107q-153 0 -153 -203q0 -204 149 -204q113 0 133 132 z" />
<glyph unicode="&#x14a;" horiz-adv-x="740" d="M82 0v733h98v-91q49 57 104 81q51 22 130 22q168 0 238 -157q35 -78 35 -211q0 -154 -44 -254q-61 -136 -197 -136q-64 0 -123 37l43 76q49 -26 80 -26q86 0 123 130q19 64 19 171q0 289 -203 289q-61 0 -110 -27q-53 -31 -76 -84q-19 -47 -19 -153v-400h-98z" />
<glyph unicode="&#x14b;" horiz-adv-x="569" d="M501 327v-356q0 -91 -22 -131q-32 -56 -111 -56q-38 0 -71 10l17 77q24 -7 42 -7q39 0 50 38q5 18 5 71v350q0 68 -21 101q-26 41 -91 41q-139 0 -139 -175v-290h-90v531h80v-76q58 88 170 88q54 0 100 -23q51 -26 67 -74q14 -44 14 -119z" />
<glyph unicode="&#x160;" horiz-adv-x="340" d="M279 909l56 -85l55 85h102l-112 -140h-96l-108 140h103zM46 235l91 8q14 -107 104 -147q49 -21 113 -21q118 0 161 61q21 28 21 63q0 71 -86 103q-40 16 -138 37q-87 21 -134 45q-104 56 -104 159q0 59 33 106.5t90 71.5q61 24 135 24q171 0 240 -103q34 -52 35 -115 l-92 -7q-17 140 -179 140q-67 0 -110 -22q-58 -28 -58 -88q0 -56 63 -85q22 -12 111 -32q116 -26 162 -47q126 -57 126 -179q0 -63 -37 -115q-34 -49 -93 -76q-64 -29 -141 -29q-197 0 -273 117q-39 60 -40 131z" />
<glyph unicode="&#x161;" horiz-adv-x="340" d="M194 728l57 -85l55 85h102l-113 -140h-96l-108 140h103zM31 159l90 14q15 -111 137 -111q48 0 81 18q41 23 41 66q0 32 -27 48q-17 13 -91 31q-84 21 -108 30q-64 25 -88 64q-20 32 -20 71q0 73 61 116q50 37 135 37q131 0 180 -67q23 -32 30 -82l-87 -12q-13 87 -117 87 q-115 0 -115 -69q0 -37 46 -55q25 -8 80 -23q85 -23 104 -30q62 -22 88 -59q22 -31 22 -77q0 -101 -102 -146q-48 -22 -112 -22q-197 0 -228 171z" />
<glyph unicode="&#x1f0;" horiz-adv-x="238" d="M-47 -206l17 77q25 -7 43 -7q38 0 49 38q5 20 5 71v558h90v-560q0 -97 -26 -137q-32 -50 -107 -50q-38 0 -71 10zM71 767l56 -84l55 84h102l-112 -139h-96l-108 139h103z" />
<glyph unicode="&#x393;" horiz-adv-x="564" d="M82 0v733h458v-87h-361v-646h-97z" />
<glyph unicode="&#x3b3;" horiz-adv-x="512" d="M210 0l-197 531h94l148 -418l152 418h92l-198 -531v-203h-91v203z" />
<glyph unicode="&#x401;" horiz-adv-x="683" d="M628 0h-547v733h530v-87h-433v-224h406v-86h-406v-250h450v-86zM286 792h-94v102h94v-102zM473 792h-94v102h94v-102z" />
<glyph unicode="&#x410;" horiz-adv-x="683" d="M101 0h-103l282 733h104l301 -733h-111l-86 222h-306zM290 516l-80 -215h248l-76 203q-35 92 -52 152q-12 -66 -40 -140z" />
<glyph unicode="&#x411;" horiz-adv-x="672" d="M83 0v733h476v-87h-379v-225h175q86 0 137 -14q71 -19 109 -75q35 -52 35 -119q0 -121 -98 -183q-50 -30 -167 -30h-288zM180 337v-255h195q157 0 157 129q0 95 -86 116q-39 10 -136 10h-130z" />
<glyph unicode="&#x412;" horiz-adv-x="683" d="M354 0h-279v733h275q159 0 214 -91q29 -47 29 -97q0 -104 -103 -155q66 -20 101 -64q38 -47 38 -113q0 -108 -76 -165q-65 -48 -199 -48zM172 646v-221h159q63 0 92 9q74 23 74 100q0 81 -67 102q-31 10 -111 10h-147zM172 338v-252h182q50 0 67 4q66 12 93 61 q14 28 14 62q0 88 -79 113q-37 12 -108 12h-169z" />
<glyph unicode="&#x413;" horiz-adv-x="554" d="M80 0v733h474v-87h-376v-646h-98z" />
<glyph unicode="&#x414;" horiz-adv-x="693" d="M145 626v107h446v-647h66v-257h-86v171h-485v-171h-86v257h57q88 133 88 540zM494 86v560h-255v-37q0 -347 -82 -523h337z" />
<glyph unicode="&#x415;" horiz-adv-x="683" d="M628 0h-547v733h530v-87h-433v-224h406v-86h-406v-250h450v-86z" />
<glyph unicode="&#x416;" horiz-adv-x="945" d="M423 733h100v-321q75 0 110 39q19 22 56 110q30 70 40 86q27 43 66 66q37 21 81 21q51 0 59 -1v-85q-5 0 -20 0.5t-19 0.5q-51 0 -80 -35q-15 -18 -41 -83q-29 -67 -45 -93q-28 -41 -79 -63q71 -20 140 -131l151 -244h-120l-123 199q-45 74 -70 99q-43 45 -106 45v-343 h-100v343q-59 0 -103 -41q-28 -27 -68 -93l-6 -10l-122 -199h-120l151 244q69 112 139 131q-50 20 -79 62q-17 26 -44 94q-31 77 -55 99q-20 19 -60 19h-7l-38 -1v85q3 1 56 1q92 0 138 -70q20 -29 52 -103q37 -90 56 -110q35 -38 110 -39v321z" />
<glyph unicode="&#x417;" horiz-adv-x="618" d="M39 207l92 24q13 -67 61 -112q51 -48 117 -48q67 0 114 33q52 37 52 102q0 67 -56 102q-47 29 -119 29h-47v85q62 0 90 5q46 9 74.5 41t28.5 73q0 55 -43 89q-39 30 -95 30q-54 0 -92 -25q-41 -27 -57 -76q-15 -45 -15 -68l-93 21q35 233 258 233q93 0 161 -51 q72 -56 72 -148q0 -104 -97 -159q60 -17 96 -66t36 -111q0 -106 -84 -167q-74 -56 -183 -56q-210 0 -271 220z" />
<glyph unicode="&#x418;" horiz-adv-x="736" d="M80 0v733h89v-581l389 581h98v-733h-88v579l-390 -579h-98z" />
<glyph unicode="&#x419;" horiz-adv-x="736" d="M80 0v733h89v-581l389 581h98v-733h-88v579l-390 -579h-98zM453 857h62q-17 -129 -148 -129q-133 0 -148 129h61q13 -67 84 -67q76 0 89 67z" />
<glyph unicode="&#x41a;" horiz-adv-x="596" d="M80 0v733h98v-321q71 0 107 41q19 24 55 108q30 70 40 86q27 43 66 66q38 21 81 21q57 0 59 -1v-85q-4 0 -19.5 0.5t-19.5 0.5q-51 0 -80 -35q-15 -18 -41 -83q-28 -69 -45 -94q-29 -41 -79 -62q71 -20 140 -131l151 -244h-120l-123 199q-47 76 -68 97q-45 47 -104 47 v-343h-98z" />
<glyph unicode="&#x41b;" horiz-adv-x="672" d="M132 217v516h459v-733h-97v646h-264v-377q0 -95 -5 -133q-11 -85 -51 -119q-35 -30 -88 -30q-32 0 -77 12l17 86q23 -9 41 -9q47 0 60 51q5 27 5 90z" />
<glyph unicode="&#x41c;" horiz-adv-x="852" d="M170 0h-94v733h146l173 -519q23 -64 36 -108q13 45 39 117l175 510h131v-733h-94v613l-213 -613h-87l-212 624v-624z" />
<glyph unicode="&#x41d;" horiz-adv-x="739" d="M179 0h-97v733h97v-301h381v301h97v-733h-97v345h-381v-345z" />
<glyph unicode="&#x41e;" horiz-adv-x="796" d="M49 357q0 169 89 276q95 113 262 113q101 0 181 -47q82 -48 125.5 -134.5t43.5 -198.5q0 -108 -40 -192q-46 -94 -132 -141q-82 -46 -178 -46q-101 0 -182 48q-83 50 -127 139q-42 87 -42 183zM149 355q0 -122 64 -199q67 -85 186 -85q124 0 191 88q60 79 60 207 q0 185 -118 260q-58 36 -131 36q-130 0 -194 -91q-58 -80 -58 -216z" />
<glyph unicode="&#x41f;" horiz-adv-x="736" d="M80 0v733h576v-733h-97v646h-382v-646h-97z" />
<glyph unicode="&#x420;" horiz-adv-x="683" d="M176 0h-97v733h276q74 0 112 -7q107 -20 149 -105q23 -46 23 -100q0 -223 -275 -223h-188v-298zM176 646v-262h190q172 0 172 134q0 43 -21 76q-23 36 -63 46q-24 6 -90 6h-188z" />
<glyph unicode="&#x421;" horiz-adv-x="739" d="M602 257l97 -25q-28 -115 -106 -179q-79 -66 -198 -66q-225 0 -305 189q-39 91 -39 196q0 238 168 329q82 44 178 44q108 0 183.5 -55.5t106.5 -157.5l-96 -23q-49 153 -196 153q-80 0 -136 -37q-61 -39 -85 -112q-23 -69 -23 -140q0 -201 112 -268q58 -34 124 -34 q175 0 215 186z" />
<glyph unicode="&#x422;" horiz-adv-x="625" d="M363 0h-97v646h-242v87h581v-87h-242v-646z" />
<glyph unicode="&#x423;" horiz-adv-x="650" d="M302 194l-297 539h98l239 -449l209 449h96l-274 -570q-43 -90 -65 -118q-45 -55 -115 -55q-37 0 -92 18v82q38 -22 83 -22q46 0 78 42q18 25 40 84z" />
<glyph unicode="&#x424;" horiz-adv-x="778" d="M344 645v94h91v-94q128 -7 211 -75q91 -76 91 -200q0 -127 -90 -200q-82 -69 -212 -76v-94h-91v94q-127 4 -212 76q-91 75 -91 200t91 201q83 70 212 74zM435 562v-384q93 5 145 52q57 50 57 140q0 91 -57 140q-54 48 -145 52zM344 179v382q-91 -4 -145 -51 q-58 -51 -58 -140t58 -140q54 -48 145 -51z" />
<glyph unicode="&#x425;" horiz-adv-x="683" d="M121 0h-116l283 382l-250 351h115l133 -188q44 -61 59 -90q19 31 58 83l148 195h105l-257 -346l278 -387h-121l-184 262q-23 35 -32 49q-17 -29 -35 -56z" />
<glyph unicode="&#x426;" horiz-adv-x="757" d="M79 0v733h98v-647h381v647h98v-647h67v-289h-86v203h-558z" />
<glyph unicode="&#x427;" horiz-adv-x="682" d="M602 733v-733h-97v295q-131 -48 -228 -48q-70 0 -128 31q-63 34 -86 96q-20 57 -20 144v215h97v-206q0 -91 29 -138q34 -58 120 -58q105 0 216 46v356h97z" />
<glyph unicode="&#x428;" horiz-adv-x="938" d="M80 0v733h98v-647h243v647h97v-647h243v647h97v-733h-778z" />
<glyph unicode="&#x429;" horiz-adv-x="959" d="M80 0v733h98v-647h243v647h97v-647h243v647h97v-647h67v-289h-86v203h-759z" />
<glyph unicode="&#x42a;" horiz-adv-x="810" d="M0 646v87h320v-313h175q281 0 281 -208q0 -212 -275 -212h-278v646h-223zM320 336v-254h177q81 0 122 24q52 30 52 105q0 43 -23 75q-24 33 -65 41q-41 9 -134 9h-129z" />
<glyph unicode="&#x42b;" horiz-adv-x="906" d="M84 0v733h97v-313h175q281 0 281 -207q0 -213 -274 -213h-279zM181 336v-254h178q81 0 121 24q53 32 53 106q0 43 -24.5 75t-65.5 41q-43 8 -132 8h-130zM725 0v733h97v-733h-97z" />
<glyph unicode="&#x42c;" horiz-adv-x="672" d="M82 0v733h97v-313h175q91 0 147 -17q78 -24 110 -89q24 -50 24 -101q0 -213 -274 -213h-279zM179 336v-254h178q82 0 122 25q52 30 52 106q0 41 -24 73q-23 32 -63 41q-41 9 -134 9h-131z" />
<glyph unicode="&#x42d;" horiz-adv-x="736" d="M326 335v87l72 11l118 -28l78 17q-4 108 -64 172q-61 66 -170 66q-160 0 -200 -153l-95 25q29 105 108 160q77 53 187 53q101 0 179 -48q81 -50 122 -140q37 -79 38 -182v-12q0 -158 -79 -264q-85 -112 -258 -112q-243 0 -306 243l93 25q43 -186 220 -186q107 0 169 81 q55 72 60 185l-82 -17l-120 28z" />
<glyph unicode="&#x42e;" horiz-adv-x="1034" d="M82 0v733h97v-329h141q11 148 95 241q91 100 235 100q157 0 248 -111q85 -103 85 -263q0 -165 -84 -270q-91 -114 -251 -114q-141 0 -230 96q-81 88 -96 235h-143v-318h-97zM418 363q0 -122 53 -201q61 -91 178 -91q120 0 182 92q52 79 52 206q0 123 -53 203 q-61 91 -179 91q-119 0 -181 -93q-52 -79 -52 -207z" />
<glyph unicode="&#x42f;" horiz-adv-x="739" d="M727 733v-733h-97v326h-113q-41 0 -54 -4q-20 -4 -44 -20q-27 -16 -66 -69q-21 -29 -54 -81l-97 -152h-122l128 199q37 58 80 98q19 18 59 36q-207 28 -207 200q0 61 31 110q35 57 101 77q43 13 129 13h326zM421 409h209v243h-233q-157 0 -157 -119q0 -35 20 -66 q37 -58 161 -58z" />
<glyph unicode="&#x430;" horiz-adv-x="569" d="M414 66q-92 -78 -195 -78q-77 0 -127 36q-55 40 -55 116q0 80 64 123q29 20 65 29q19 5 80 14q111 14 160 31q1 12 1 24q0 55 -25 77q-34 31 -103 31q-61 0 -92 -22q-30 -22 -47 -79l-87 12q22 109 119 144q51 19 120 19q126 0 173 -56q21 -27 28 -61q4 -20 4 -84v-119 q0 -109 1 -114q5 -68 28 -109h-94q-14 28 -18 66zM406 233v34q-52 -22 -146 -35q-45 -6 -63 -12q-35 -10 -52 -35q-12 -19 -12 -43q0 -42 34 -64q28 -19 73 -19q112 0 152 84q14 33 14 90z" />
<glyph unicode="&#x431;" horiz-adv-x="586" d="M456 750l80 -1q-9 -87 -71 -101q-29 -6 -113 -6t-123 -11q-65 -20 -87 -79q-18 -51 -19 -122q68 101 181 101t179 -78q63 -74 63 -188q0 -164 -116 -244q-46 -33 -129 -33q-164 0 -227 154q-29 69 -29 235q0 181 54 261q66 96 237 96q75 0 75 -1q-4 0 -11 -1q52 2 56 18z M452 268q0 77 -35 129q-41 59 -115 59q-80 0 -121 -65q-35 -55 -35 -140q0 -79 37 -131q42 -59 118 -59t117 68q34 56 34 139z" />
<glyph unicode="&#x432;" horiz-adv-x="543" d="M68 0v531h208q63 0 97 -8q50 -14 80 -51q27 -34 27 -82q0 -76 -63 -113q37 -13 62 -47t25 -76v-6q-3 -75 -54 -112q-49 -36 -142 -36h-240zM158 456v-148h96q41 0 63 2q34 6 55 28q16 17 16 44q0 48 -44 65q-27 9 -87 9h-99zM158 233v-159h119q63 0 89 10q44 16 46 69 q0 25 -17 47q-17 21 -41.5 27t-86.5 6h-109z" />
<glyph unicode="&#x433;" horiz-adv-x="373" d="M68 0v531h306v-75h-216v-456h-90z" />
<glyph unicode="&#x434;" horiz-adv-x="597" d="M138 505v26h370v-457h58v-224h-74v150h-418v-150h-74v224h47q91 124 91 431zM419 456h-205q-10 -257 -81 -382h286v382z" />
<glyph unicode="&#x435;" horiz-adv-x="569" d="M431 171l93 -11q-46 -172 -234 -172q-121 0 -189 77q-64 71 -64 196q0 122 62 199q68 83 186 83q117 0 183 -81q59 -76 59 -195v-25h-397q4 -75 43 -126q43 -54 118 -54q101 0 140 109zM135 317h297q-6 66 -34 100q-43 52 -112 52q-64 0 -105 -42.5t-46 -109.5z" />
<glyph unicode="&#x436;" horiz-adv-x="685" d="M296 531h92v-230q50 0 75 33q8 11 37 79t46 87q30 31 89 31h33v-75l-25 1h-4q-36 0 -49 -19q-5 -6 -25 -57q-21 -51 -32 -65q-21 -27 -58 -43q59 -17 114 -108l99 -165h-99l-97 165q-21 38 -41 56q-25 24 -63 24v-245h-92v245q-36 0 -62 -24q-17 -15 -41 -56l-97 -165 h-99l99 165q56 92 115 108q-45 19 -68 58q-9 16 -36 86q-11 25 -23 32.5t-40 7.5q-13 0 -26 -1v75h12q44 0 61 -3q31 -6 51 -30q18 -22 43 -84q30 -68 38 -80q24 -33 73 -33v230z" />
<glyph unicode="&#x437;" horiz-adv-x="469" d="M206 240h-21v71q49 0 63 2q35 5 54 26q19 19 19 50q0 36 -26 59q-23 21 -62 21q-74 0 -106 -89l-86 13q41 150 193 150q77 0 127 -40q55 -43 55 -118q0 -64 -63 -103q80 -44 80 -134q0 -79 -61 -122q-53 -38 -137 -38q-181 0 -210 161l85 19q10 -49 44 -78t83 -29 q42 0 74 23q32 26 32 68q0 28 -17 52t-43 31q-23 5 -77 5z" />
<glyph unicode="&#x438;" horiz-adv-x="572" d="M68 0v531h90v-405l249 405h97v-531h-90v402l-249 -402h-97z" />
<glyph unicode="&#x439;" horiz-adv-x="572" d="M68 0v531h90v-405l249 405h97v-531h-90v402l-249 -402h-97zM391 728h62q-17 -129 -148 -129q-132 0 -147 129h61q14 -68 83 -68q75 0 89 68z" />
<glyph unicode="&#x43a;" horiz-adv-x="447" d="M67 0v531h90v-230q50 0 74 33q9 13 37 80q19 47 30 64q22 37 51 46q21 7 69 7h18v-75l-25 1h-3q-35 0 -50 -20q-6 -8 -25 -56q-18 -46 -32 -65q-21 -27 -58 -43q59 -17 114 -108l99 -165h-99l-96 165q-23 39 -41 56q-27 24 -63 24v-245h-90z" />
<glyph unicode="&#x43b;" horiz-adv-x="597" d="M112 181v350h418v-531h-90v456h-239v-264q0 -87 -1 -93q-6 -55 -37 -80q-29 -23 -79 -23q-27 0 -72 5v75h40q48 0 56 23q4 12 4 82z" />
<glyph unicode="&#x43c;" horiz-adv-x="703" d="M70 0v531h140l139 -425l155 425h130v-531h-90v428l-157 -428h-81l-148 448v-448h-88z" />
<glyph unicode="&#x43d;" horiz-adv-x="565" d="M68 0v531h90v-221h249v221h90v-531h-90v235h-249v-235h-90z" />
<glyph unicode="&#x43e;" horiz-adv-x="569" d="M34 266q0 148 82 218q68 59 167 59q117 0 185 -77q64 -73 64 -193q0 -186 -121 -252q-59 -33 -128 -33q-120 0 -188 80q-61 73 -61 198zM127 266q0 -87 34 -140q40 -64 122 -64q81 0 122 66q34 53 34 141q0 82 -36 136q-40 64 -120 64q-81 0 -122 -65q-34 -52 -34 -138z " />
<glyph unicode="&#x43f;" horiz-adv-x="554" d="M68 0v531h419v-531h-90v456h-239v-456h-90z" />
<glyph unicode="&#x440;" horiz-adv-x="569" d="M158 -203h-90v734h81v-69q58 81 154 81q143 0 199 -134q27 -65 27 -139q0 -177 -115 -247q-56 -35 -117 -35q-87 0 -139 67v-258zM149 263q0 -81 30 -135q37 -66 112 -66q77 0 115 69q30 56 30 139q0 78 -30 134q-38 69 -111 69q-74 0 -114 -73q-32 -59 -32 -137z" />
<glyph unicode="&#x441;" horiz-adv-x="512" d="M414 194l88 -11q-13 -89 -72 -142t-148 -53q-119 0 -184 80q-58 73 -58 196q0 183 115 247q59 32 127 32q84 0 140 -42q56 -43 72 -126l-88 -13q-26 107 -121 107q-153 0 -153 -203q0 -204 149 -204q113 0 133 132z" />
<glyph unicode="&#x442;" horiz-adv-x="469" d="M19 456v75h431v-75h-170v-456h-90v456h-171z" />
<glyph unicode="&#x443;" horiz-adv-x="512" d="M64 -204l-10 84q30 -8 51 -8q54 0 77 38q7 11 28 67q3 7 8 22l-201 532h97l110 -307q23 -66 39 -124q14 62 36 122l114 309h90l-202 -540q-33 -89 -51 -120q-46 -87 -128 -87q-26 0 -58 12z" />
<glyph unicode="&#x444;" horiz-adv-x="842" d="M377 480v253h90v-253q55 63 133 63q103 0 158 -91q47 -77 47 -186t-49 -186q-57 -92 -159 -92q-71 0 -130 58v-249h-90v249q-54 -58 -131 -58q-104 0 -161 94q-48 80 -48 189q0 107 50 184q57 88 159 88q80 0 131 -63zM466 264q0 -203 116 -203q72 0 106 73q26 57 26 136 q0 78 -24 130q-33 70 -103 70q-121 0 -121 -206zM129 274q0 -86 24 -138q33 -74 108 -74q116 0 116 197q0 210 -123 210q-67 0 -99 -68q-26 -54 -26 -127z" />
<glyph unicode="&#x445;" horiz-adv-x="512" d="M117 0h-109l193 276l-179 255h112l82 -125q11 -17 37 -59q5 7 18.5 26.5t21.5 31.5l90 126h107l-183 -250l197 -281h-110l-138 210z" />
<glyph unicode="&#x446;" horiz-adv-x="586" d="M69 0v531h90v-457h249v457h90v-457h58v-224h-74v150h-413z" />
<glyph unicode="&#x447;" horiz-adv-x="533" d="M34 392v139h91v-100q0 -61 4 -80q7 -42 41 -66q28 -21 73 -21q49 0 133 26v241h90v-531h-90v214q-86 -26 -155 -26q-55 0 -102 27q-50 31 -68 79q-17 45 -17 98z" />
<glyph unicode="&#x448;" horiz-adv-x="821" d="M71 0v531h90v-456h205v456h89v-456h206v456h89v-531h-679z" />
<glyph unicode="&#x449;" horiz-adv-x="842" d="M71 0v531h90v-457h205v457h89v-457h206v457h89v-457h60v-224h-74v150h-665z" />
<glyph unicode="&#x44a;" horiz-adv-x="640" d="M20 456v75h238v-207h114q96 0 155 -34q76 -42 76 -129q0 -84 -66 -126q-56 -35 -144 -35h-225v456h-148zM258 248v-175h94q69 0 102 12q56 20 56 76q0 54 -50 74q-30 13 -96 13h-106z" />
<glyph unicode="&#x44b;" horiz-adv-x="736" d="M573 0v531h90v-531h-90zM70 0v531h90v-207h114q96 0 155 -34q76 -42 76 -129q0 -84 -66 -126q-56 -35 -145 -35h-224zM160 249v-175h94q159 0 159 87q0 88 -147 88h-106z" />
<glyph unicode="&#x44c;" horiz-adv-x="533" d="M66 0v531h90v-207h114q95 0 156 -34q76 -42 76 -129q0 -84 -67 -126q-56 -35 -144 -35h-225zM156 249v-175h94q159 0 159 87q0 88 -146 88h-107z" />
<glyph unicode="&#x44d;" horiz-adv-x="522" d="M221 235v74l49 19l82 -31l56 12q-7 66 -42 110q-39 50 -102 50q-105 0 -127 -109l-88 14q13 80 72 126q55 43 140 43q111 0 175 -73q65 -76 65 -208q0 -126 -59 -202q-57 -72 -164 -72h-11q-99 3 -154 53q-58 53 -73 141l88 12q21 -132 135 -132q128 0 145 173l-56 -12 l-84 31z" />
<glyph unicode="&#x44e;" horiz-adv-x="768" d="M69 0v531h90v-222h109q10 104 64 167q58 67 160 67q139 0 204 -122q31 -56 31 -153q0 -123 -53 -197q-62 -83 -180 -83q-105 0 -165 73q-53 64 -61 174h-109v-235h-90zM497 467q-74 0 -110 -63q-29 -52 -29 -130q0 -212 136 -212q140 0 140 200q0 205 -137 205z" />
<glyph unicode="&#x44f;" horiz-adv-x="554" d="M239 531h247v-531h-90v207h-52q-56 0 -83 -21q-19 -16 -55 -70l-79 -116h-111l97 143q44 66 88 74q-69 9 -109 49q-43 43 -43 110q0 78 59 119q50 36 131 36zM396 281v175h-128q-127 0 -127 -83q0 -58 52 -79q33 -13 103 -13h100z" />
<glyph unicode="&#x451;" horiz-adv-x="562" d="M241 635h-95v103h95v-103zM427 635h-94v103h94v-103zM431 171l93 -11q-46 -172 -234 -172q-121 0 -189 77q-64 71 -64 196q0 122 62 199q68 83 186 83q117 0 183 -81q59 -76 59 -195v-25h-397q4 -75 43 -126q43 -54 118 -54q101 0 140 109zM135 317h297q-6 66 -34 100 q-43 52 -112 52q-64 0 -105 -42.5t-46 -109.5z" />
<glyph unicode="&#x4ae;" horiz-adv-x="569" d="M459 733h108l-238 -420v-313h-91v313l-240 420h100l145 -258q27 -46 39 -77q10 25 41 82z" />
<glyph unicode="&#x4af;" horiz-adv-x="512" d="M405 531h97l-201 -531v-203h-89v203l-202 531h97l111 -307q25 -73 38 -124q16 60 39 124z" />
<glyph unicode="&#x4e8;" horiz-adv-x="796" d="M749 366q0 -165 -92 -269q-98 -110 -259 -110q-104 0 -186 52q-88 52 -127 146q-37 86 -37 172q0 170 89 276q95 113 262 113q163 0 259 -110q91 -104 91 -270zM500 382l147 27q-9 109 -68 176q-71 77 -180 77q-107 0 -179 -73q-60 -61 -70 -180l134 23zM647 324 l-147 -27l-222 50l-129 -23q7 -102 67 -174q67 -79 182 -79q110 0 177 73q63 68 72 180z" />
<glyph unicode="&#x4e9;" horiz-adv-x="569" d="M532 273q0 -186 -120 -252q-58 -33 -129 -33q-122 0 -188 80q-61 73 -61 198q0 148 82 218q68 59 167 59q117 0 185 -77q64 -73 64 -193zM350 299l86 18q-7 60 -42 101q-44 51 -111 51t-112 -51q-33 -38 -42 -101l98 9zM438 242l-90 -18l-125 27l-96 -9q5 -78 40 -125 q42 -55 116 -55q73 0 115 55q35 47 40 125z" />
<glyph unicode="&#x1800;" horiz-adv-x="540" d="M490 441q0 -67 -105 -281q-111 -226 -125 -306q-1 -13 -10 -32t-17 -19q-9 0 -16 54q-5 43 -5 61v7q3 68 81 242q78 173 78 223q0 45 -35 75q-34 31 -79 31q-52 0 -81 -50q-25 -43 -25 -98q0 -46 61 -125l-58 -6q-43 32 -72 80q-32 53 -32 103q0 102 50 169q56 72 155 72 q96 0 162 -51q73 -55 73 -149z" />
<glyph unicode="&#x1801;" horiz-adv-x="902" d="M852 344q0 -26 -24 -43q-22 -16 -49 -16q-29 0 -49 16q-25 16 -25 43q0 26 24 43q21 15 49 15q26 0 49 -15q25 -16 25 -43zM641 344q0 -26 -24 -43q-22 -16 -50 -16q-27 0 -49 16q-23 17 -23 43t23 43q22 15 49 15t49 -15q25 -16 25 -43zM423 345q0 -26 -25 -44 q-21 -15 -49 -15q-25 0 -48 15q-24 16 -24 43q0 26 24 43q22 16 48 16q28 0 49 -15q25 -16 25 -43zM197 340q0 -24 -23 -41q-21 -15 -47 -15q-29 0 -52 15q-25 18 -25 45q0 26 23 43q21 15 48 15q30 0 52 -16q24 -18 24 -46z" />
<glyph unicode="&#x1802;" horiz-adv-x="293" d="M243 303q-29 -6 -60 -52q-28 -40 -36 -76q-9 36 -36 77q-32 47 -61 51q30 6 62 50q28 42 35 78q8 -39 35 -78q29 -42 61 -50z" />
<glyph unicode="&#x1803;" horiz-adv-x="549" d="M499 303q-29 -6 -60 -52q-28 -40 -36 -76q-9 36 -36 77q-31 46 -60 51q29 6 61 50q28 42 35 78q8 -39 35 -78q29 -42 61 -50zM243 303q-29 -6 -60 -52q-28 -40 -36 -76q-9 36 -36 77q-32 47 -61 51q30 6 62 50q28 42 35 78q8 -39 35 -78q29 -42 61 -50z" />
<glyph unicode="&#x1804;" horiz-adv-x="265" d="M215 446q0 -30 -28 -49q-25 -17 -55 -17t-54 18q-27 20 -27 48q0 30 27 48q23 17 54 17q30 0 55 -17q28 -18 28 -48zM215 223q0 -29 -27 -48q-25 -17 -55 -17t-55 17q-28 19 -28 49q0 29 28 48q22 16 54 16t55 -16q28 -19 28 -49z" />
<glyph unicode="&#x1805;" horiz-adv-x="677" d="M435 495q-29 -6 -60 -52q-28 -40 -36 -76q-9 37 -37 77q-30 46 -59 51q30 6 60 50q29 41 36 78q8 -39 35 -78q29 -42 61 -50zM627 303q-29 -6 -60 -52q-28 -40 -36 -76q-9 36 -36 77q-31 46 -60 51q29 6 61 50q28 42 35 78q8 -39 35 -78q29 -42 61 -50zM435 111 q-29 -6 -60 -51q-28 -42 -36 -77q-9 37 -37 77q-30 46 -59 51q30 6 60 50q29 41 36 78q8 -40 35 -77q30 -44 61 -51zM243 303q-29 -6 -60 -52q-30 -42 -37 -76q-7 35 -35 77q-32 47 -61 51q30 6 62 50q26 39 34 78q8 -37 36 -78q29 -42 61 -50z" />
<glyph unicode="&#x1806;" horiz-adv-x="554" d="M555 323v-105h-555v105h555z" />
<glyph unicode="&#x1807;" horiz-adv-x="341" d="M341 388v-170h-123v-139h-94v139h-124v170h341z" />
<glyph unicode="&#x1808;" horiz-adv-x="343" d="M293 346q0 -128 -178 -240h-65q150 120 150 240q0 87 -69 165q-19 24 -81 75h65q178 -118 178 -240z" />
<glyph unicode="&#x1809;" horiz-adv-x="543" d="M493 346q0 -128 -177 -240h-65q150 120 150 240q0 87 -69 165q-21 24 -81 75h65q177 -118 177 -240zM293 346q0 -128 -178 -240h-65q150 120 150 240q0 87 -69 165q-19 24 -81 75h65q178 -118 178 -240z" />
<glyph unicode="&#x180a;" horiz-adv-x="150" d="M150 388v-170h-150v170h150z" />
<glyph unicode="&#x180b;" horiz-adv-x="1038" d="M996 777v-91h-30v60h-59v31h89zM848 777v-31h-120v31h120zM996 627v-121h-30v121h30zM669 777v-31h-120v31h120zM996 447v-120h-30v120h30zM490 777v-31h-120v31h120zM996 268v-120h-30v120h30zM919 501v-45h-286q34 -34 54 -89h-44q-38 78 -92 106v28h368zM311 777v-31 h-121v31h121zM996 89v-120h-30v120h30zM927 186q0 -98 -59 -137q-28 -17 -66 -19l-4 45q55 8 74 52q11 27 11 57q0 58 -31 80q-14 11 -31 11q-36 0 -52 -43q-6 -14 -19 -69q-11 -48 -22 -68q-27 -52 -80 -52q-62 0 -88 63q-13 27 -13 67q0 86 52 119q27 18 58 19l3 -47 q-70 -7 -70 -89q0 -85 55 -85q28 0 43 32q5 12 16 56q14 63 23 81q29 62 89 62q66 0 96 -64q15 -32 15 -71zM131 777v-31h-58v-60h-30l-1 91h89zM996 -90v-90l-89 1v30l59 -1v60h30zM493 500v-50l-366 -141v52l266 95q39 14 60 20q-14 4 -60 19l-266 99v50zM73 627v-121h-30 v121h30zM848 -149v-30h-120v30h120zM73 447v-120h-30v120h30zM669 -149v-30h-120v30h120zM493 17v-48h-366v247h43v-199h114v172h43v-172h166zM73 268v-120h-30v120h30zM490 -149v-30h-120v30h120zM73 89v-120h-30v120h30zM311 -149v-30h-121v30h121zM131 -149v-30h-88v89 h30v-60z" />
<glyph unicode="&#x180c;" horiz-adv-x="1038" d="M996 777v-91h-30v60h-59v31h89zM848 777v-31h-120v31h120zM996 627v-121h-30v121h30zM669 777v-31h-120v31h120zM996 447v-120h-30v120h30zM919 590v-242h-2q-35 0 -78 35q-21 17 -55 59q-84 102 -132 102q-28 0 -45.5 -19.5t-17.5 -49.5q0 -72 73 -72l-5 -47 q-106 10 -106 120q0 48 27 80q28 34 75 34q45 0 88 -39q22 -19 64 -69q29 -34 33 -39q20 -21 38 -32v179h43zM490 777v-31h-120v31h120zM996 268v-120h-30v120h30zM311 777v-31h-121v31h121zM996 89v-120h-30v120h30zM927 135q0 -98 -59 -137q-27 -18 -66 -20l-4 46 q55 6 74 52q11 27 11 56q0 59 -31 81q-13 10 -31 10q-36 0 -52 -43q-6 -14 -19 -68q-11 -48 -22 -68q-27 -52 -80 -52q-62 0 -88 62q-13 29 -13 67q0 86 52 120q25 16 58 18l3 -46q-70 -7 -70 -90q0 -84 55 -84q28 0 43 32q5 12 16 55q14 63 23 82q29 62 89 62q66 0 96 -65 q15 -32 15 -70zM131 777v-31h-58v-60h-30v91h88zM996 -90v-90l-89 1v30l59 -1v60h30zM493 500v-50l-366 -141v52l266 95q39 14 60 20q-14 4 -60 19l-266 99v50zM73 627v-121h-30v121h30zM848 -149v-30h-120v30h120zM73 447v-120h-30v120h30zM669 -149v-30h-120v30h120z M493 17v-48h-366v247h43v-199h114v172h43v-172h166zM73 268v-120h-30v120h30zM490 -149v-30h-120v30h120zM73 89v-120h-30v120h30zM311 -149v-30h-121v30h121zM131 -149v-30h-88v89h30v-60z" />
<glyph unicode="&#x180d;" horiz-adv-x="1038" d="M996 777v-91h-30v60h-59v31h89zM848 777v-31h-120v31h120zM996 627v-121h-30v121h30zM669 777v-31h-120v31h120zM996 447v-120h-30v120h30zM929 467q0 -48 -28 -80t-75 -37l-6 45q72 15 72 72q0 32 -22 54t-55 22q-31 0 -51 -20.5t-20 -51.5q0 -10 5 -32l-40 5q1 3 1 7 q0 33 -15 52q-17 23 -46 23q-26 0 -41.5 -16.5t-15.5 -43.5q0 -55 65 -66l-7 -45q-96 17 -96 111q0 64 48 93q23 14 48 14q52 0 74 -51q16 69 90 69q51 0 84 -37q31 -35 31 -87zM490 777v-31h-120v31h120zM996 268v-120h-30v120h30zM311 777v-31h-121v31h121zM996 89v-120 h-30v120h30zM927 135q0 -98 -59 -137q-27 -18 -66 -20l-4 46q55 6 74 52q11 27 11 56q0 59 -31 81q-13 10 -31 10q-36 0 -52 -43q-6 -14 -19 -68q-11 -48 -22 -68q-27 -52 -80 -52q-62 0 -88 62q-13 29 -13 67q0 86 52 120q25 16 58 18l3 -46q-70 -7 -70 -90q0 -84 55 -84 q28 0 43 32q5 12 16 55q14 63 23 82q29 62 89 62q66 0 96 -65q15 -32 15 -70zM131 777v-31h-58v-60h-30v91h88zM996 -90v-90l-89 1v30l59 -1v60h30zM493 500v-50l-366 -141v52l266 95q39 14 60 20q-14 4 -60 19l-266 99v50zM73 627v-121h-30v121h30zM848 -149v-30h-120v30 h120zM73 447v-120h-30v120h30zM669 -149v-30h-120v30h120zM493 17v-48h-366v247h43v-199h114v172h43v-172h166zM73 268v-120h-30v120h30zM490 -149v-30h-120v30h120zM73 89v-120h-30v120h30zM311 -149v-30h-121v30h121zM131 -149v-30h-88v89h30v-60z" />
<glyph unicode="&#x180e;" horiz-adv-x="1038" d="M996 777v-91h-30v60h-59v31h89zM848 777v-31h-120v31h120zM996 627v-121h-30v121h30zM669 777v-31h-120v31h120zM996 447v-120h-30v120h30zM927 510q0 -98 -59 -136q-27 -18 -66 -20l-4 45q55 8 74 52q11 27 11 57q0 58 -31 80q-14 11 -31 11q-36 0 -52 -43 q-6 -14 -19 -69q-11 -47 -22 -67q-27 -52 -80 -52q-62 0 -88 62q-13 29 -13 67q0 86 52 120q25 16 58 18l3 -47q-70 -7 -70 -89q0 -84 55 -84q28 0 43 31q5 12 16 56q14 63 23 81q29 63 89 63q66 0 96 -65q15 -32 15 -71zM490 777v-31h-120v31h120zM996 268v-120h-30v120h30 zM311 777v-31h-121v31h121zM996 89v-120h-30v120h30zM929 159v-50l-367 -142v53l267 95q25 10 59 19q-26 7 -59 20l-267 99v49zM131 777v-31h-58v-60h-30v91h88zM996 -90v-90l-89 1v30l59 -1v60h30zM498 183v-47h-366v73l259 87l54 18l-25.5 8.5t-32.5 10.5l-255 88v65h366 v-47h-307l307 -106v-44l-312 -106h312zM73 627v-121h-30v121h30zM848 -149v-30h-120v30h120zM73 447v-120h-30v120h30zM669 -149v-30h-120v30h120zM73 268v-120h-30v120h30zM490 -149v-30h-120v30h120zM73 89v-120h-30v120h30zM311 -149v-30h-121v30h121zM131 -149v-30h-88 v89h30v-60z" />
<glyph unicode="&#x1810;" horiz-adv-x="914" d="M864 306q0 -128 -206 -179q-94 -24 -195 -24q-71 0 -138 9q-275 38 -275 194q0 120 175 175q40 13 94 22q72 13 151 13q82 0 159 -15q235 -46 235 -195zM755 299q0 61 -99 96q-90 33 -196 33q-65 0 -141 -14q-25 -5 -88 -23q-68 -30 -68 -79q0 -62 109 -95 q53 -15 105 -22q52 -5 83 -5q28 0 64 3q20 1 87 12q44 8 71 20q73 28 73 74z" />
<glyph unicode="&#x1811;" horiz-adv-x="920" d="M870 266q0 -88 -33 -157q-13 -29 -28 -43q-21 -21 -48 -21q-17 0 -34 11q-21 12 -21 28q0 23 11 61q7 20 20 60q8 30 8 51q0 60 -70 91q-65 29 -176 33h-32q-21 0 -79 -6q-205 -24 -205 -102q0 -67 91 -101q49 -19 110 -26q33 -4 72 -4q46 0 114 18q41 -38 41 -60 t-110 -34q-32 -4 -53 -4q-90 0 -174 18q-122 25 -177 81q-47 44 -47 106q0 83 88 137q49 30 89 43q66 21 163 29q37 3 77 3q28 0 64 -4q116 -10 206 -49q54 -24 82 -49q51 -46 51 -110z" />
<glyph unicode="&#x1812;" horiz-adv-x="904" d="M854 265l-39 -2h-9q-92 0 -245 58q-168 62 -252 62q-48 0 -80 -25q-37 -28 -37 -72q0 -54 74 -86q70 -28 207 -33q17 -1 65 -1q186 0 254 15l55 -55q-16 -21 -127 -31q-46 -5 -135 -10q-78 -3 -142 -3q-108 0 -199 25q-194 50 -194 178q0 62 23 103q29 56 102 75 q47 12 117 12q90 0 228 -52l71 -26q22 -10 74 -27q40 -11 84 -16h39l5 1q0 50 -19 91q-23 49 -62 69l141 -40q-21 -37 -21 -63q0 -22 11 -74t11 -73z" />
<glyph unicode="&#x1813;" horiz-adv-x="840" d="M661 612l129 -37q-45 -136 -57 -215q-81 0 -242 53q-159 53 -242 53q-27 0 -46 -15.5t-19 -39.5q0 -27 32 -50q46 -33 131 -55q48 -11 143 -32l-7 -38l-6 -1q-19 0 -60 11q-39 12 -59 12q-55 0 -97 -16q-66 -24 -66 -74q0 -30 38 -48q36 -17 104 -25q33 -4 76 -4 q40 0 134 8q90 9 134 9q14 0 37 -29q21 -25 24 -42q-12 -13 -151 -25q-109 -10 -168 -10q-128 0 -213 17q-156 33 -156 124q0 43 21.5 79.5t59.5 53.5q24 10 53 10h9l1 3q-1 8 -33 28q-49 28 -62 38q-26 19 -36 31q-17 20 -17 39q0 46 19 77q10 21 32 37q25 19 44 25 q44 11 128 11q26 0 61 -5q61 -10 150 -43q49 -20 147 -58q17 -7 58 -16q6 -1 12 -2.5t9 -2.5h3q2 0 2 3q1 6 6 12q11 14 11 31q0 10 -3 20q-16 69 -68 98z" />
<glyph unicode="&#x1814;" horiz-adv-x="914" d="M864 299q0 -59 -51 -100q-6 -6 -12.5 -12t-15 -14t-13.5 -12q-27 -25 -48 -33q-70 -22 -177 -30q-46 -2 -70 -2q-43 0 -109 8q-102 14 -141 42q-21 16 -23 33l69 52q22 -33 150 -44q30 -3 55 -3q80 0 145 14q45 11 67 26q12 9 19 31q7 20 7 36q0 55 -78 86 q-48 20 -115 27q-28 4 -58 4q-78 0 -145 -22q-25 -7 -103 -35q-14 -11 -56 -37q-9 -6 -19 -18q-8 -11 -17 -20q-23 -17 -43 -23h-5q-23 0 -26 16q-1 5 -1 15q0 16 8 34q18 36 41 59q65 62 206 97q91 21 171 21q111 0 211 -31q59 -18 101 -44q76 -49 76 -121z" />
<glyph unicode="&#x1815;" horiz-adv-x="884" d="M51 392l783 93l-33 -116l-590 -56q83 -16 354 -64q84 -14 130 -31q32 -12 52 -26q3 -1 26 -32t23 -39q0 -34 -4 -41q-14 -26 -39 -45q-29 -21 -54 -21q-23 0 -47 7q33 25 52 47q14 17 14 29q0 17 -55 35q-80 27 -175 45q-16 5 -55 12q-43 6 -88 12q-19 1 -83 8 q-62 10 -87 13q-80 8 -125 14z" />
<glyph unicode="&#x1816;" horiz-adv-x="899" d="M849 285q0 -96 -93 -153q-110 -69 -294 -69q-41 0 -89 6q-56 8 -91 16q-66 16 -116 42q-54 28 -80 77q-12 24 -19 36q-10 18 -14 37q0 15 -3 45q22 25 23 26q11 8 34 8q31 0 41 -6q16 -7 16 -38q0 -55 41 -93q10 -10 91 -39q52 -18 111 -22q34 -2 52 -2q31 0 60 4 q45 4 88 17q16 3 64 19q23 13 53 36q15 21 15 46q0 32 -21 53q-18 20 -73 36q-34 11 -74 11q-49 0 -89 -21q-48 -25 -48 -70q0 -8 27 -17q19 -7 34 -11q-19 -9 -48 -9q-135 0 -157 2v24q0 31 1 34q13 1 34 1q19 0 27 -2q10 29 46 92q46 69 169 69q61 0 126 -20 q68 -22 110 -62q46 -43 46 -103z" />
<glyph unicode="&#x1817;" horiz-adv-x="893" d="M50 289q0 254 432 254q146 0 265 -57q96 -50 96 -125q0 -106 -187 -115h-37l-144 5q-12 0 -25 -12t-13 -24q0 -48 62 -59q42 -9 43 -9h3q24 0 103 14l83 20q108 25 108 -5q0 -25 -30 -49q-28 -24 -97 -45q-68 -21 -119 -21q-243 0 -243 165q0 91 160 91l148 -8 q55 0 55 48q0 53 -142 77q-108 18 -209 6q-194 -24 -194 -132q0 -50 21 -94q23 -32 52 -89q-8 -17 -35 -36q-27 -18 -46 -18q-71 0 -98 129v3q-7 30 -8 44l-2 28q-2 12 -2 14z" />
<glyph unicode="&#x1818;" horiz-adv-x="892" d="M842 255q0 -63 -9 -89q-16 -46 -66 -46q-250 0 -586 69q-21 3 -63 8q-36 4 -59 18q-7 5 -9 15v5q0 9 1 15q1 11 1 19q0 18 23 30q20 11 39 11q96 0 274 -39l68 -14q68 -15 127 -22q15 -4 47 -9q14 -1 42 -1q16 0 26 10q4 4 12 37q6 29 6 41q0 43 -6 54q-4 6 -17.5 15 t-50 24t-85.5 25q-95 19 -95 20q-66 19 -66 46q0 21 8 43q10 28 28 28q35 0 197 -47q167 -50 186 -73q10 -14 18 -35q9 -28 9 -158z" />
<glyph unicode="&#x1819;" horiz-adv-x="874" d="M809 412q15 -62 15 -87q0 -21 -8 -61q-8 -38 -10 -43q-17 -49 -107 -83q-16 -9 -62 -24q-88 -20 -173 -20q-89 0 -216 31q-130 32 -176 91q-22 25 -22 54q0 28 13 59.5t31 45.5l40 31q24 19 54 28q74 20 174 20q82 0 100 -15t33 -21l47 80q21 -10 21 -39l-2 -4 q-1 -1 -21 -49q-20 -47 -35 -59q-11 3 -37 18q-43 26 -105 26q-61 0 -89 -5q-17 -3 -58 -16q-52 -25 -52 -76t68 -74q24 -9 89 -23q74 -13 135 -13q118 0 196 38q34 16 45 27q12 14 19 43q8 34 8 44q0 24 -43 104q-5 11 -5 25q4 35 21 46q9 6 31 6q56 0 81 -105z" />
<glyph unicode="&#x1820;" d="M939 815q-85 -124 -151 -284q-49 -117 -104 -303q-29 -103 -86 -309l-87 299h-84l-86 -299q-38 171 -74 344q-30 143 -41 175q-18 47 -45 47h-1q-38 -1 -98 -37q-47 -28 -82 -60q5 80 57 164q59 93 124 93q66 0 100 -109q21 -69 25 -148h206q45 -174 61 -261 q13 175 36 324q59 353 159 500l-26 120q65 -90 197 -256z" />
<glyph unicode="&#x1822;" horiz-adv-x="982" d="M982 455q0 -25 -16 -79q-15 -56 -27 -75q-7 40 -23 120q-14 69 -41 99q-37 40 -118 40q-97 0 -153 -74q-50 -67 -50 -167q0 -91 22 -148q17 -49 60 -101l90 -108l-86 -128q-23 63 -68 190q-37 108 -60 194h-85l-86 -299q-38 171 -74 344q-30 143 -41 175q-18 47 -45 47 h-1q-38 -1 -98 -37q-47 -28 -82 -60q5 80 57 164q59 93 124 93q66 0 100 -109q21 -67 25 -148h206q32 171 65 229q60 113 191 113q100 0 161 -91q53 -80 53 -184z" />
<glyph unicode="&#x1823;" horiz-adv-x="854" d="M853 388l1 -200q0 -313 -149 -313q-88 0 -146 133q-47 109 -47 210h-85l-86 -299q-38 171 -74 344q-30 143 -41 175q-18 47 -45 47h-1q-38 -1 -98 -37q-47 -28 -82 -60q5 80 57 164q59 93 124 93q66 0 100 -109q21 -67 25 -148h547zM811 218h-256v-9v-5q0 -56 39 -107 q43 -55 101 -55q69 0 96 57q18 38 20 119z" />
<glyph unicode="&#x1824;" d="M939 388v-170h-85v-30v-4q0 -309 -149 -309q-88 0 -146 133q-47 109 -47 210h-85l-86 -299q-38 171 -74 344q-30 143 -41 175q-18 47 -45 47h-1q-38 -1 -98 -37q-47 -28 -82 -60q5 80 57 164q59 93 124 93q66 0 100 -109q21 -67 25 -148h633zM811 218h-256v-9v-5 q0 -56 39 -107q43 -55 101 -55q69 0 96 57q18 38 20 119z" />
<glyph unicode="&#x1825;" horiz-adv-x="1153" d="M1152 290l1 -166v-44q-3 -34 -17 -34t-23 65q-1 14 -4 40.5t-5 39.5q-7 28 -89 28h-6l-155 -1v-30v-4q0 -309 -149 -309q-88 0 -146 133q-47 109 -47 210h-85l-86 -299q-38 171 -74 344q-30 143 -41 175q-18 47 -45 47h-1q-38 -1 -98 -37q-47 -28 -82 -60q5 80 57 164 q59 93 124 93q66 0 100 -109q21 -67 25 -148h734q112 0 112 -98zM811 218h-256v-9v-5q0 -56 39 -107q43 -55 101 -55q69 0 96 57q18 38 20 119z" />
<glyph unicode="&#x1826;" horiz-adv-x="1280" d="M1280 388v-170h-298l170 -342l-128 -127l-128 469h-42v-30v-4q0 -309 -149 -309q-88 0 -146 133q-47 109 -47 210h-85l-86 -299q-38 171 -74 344q-30 143 -41 175q-18 47 -45 47h-1q-38 -1 -98 -37q-47 -28 -82 -60q5 80 57 164q59 93 124 93q66 0 100 -109 q21 -67 25 -148h974zM811 218h-256v-9v-5q0 -56 39 -107q43 -55 101 -55q69 0 96 57q18 38 20 119z" />
<glyph unicode="&#x1827;" horiz-adv-x="1068" d="M1068 289v-165q0 -78 -18 -78q-13 0 -22 65q-3 27 -10 80q-4 19 -43 23l-51 3l-327 1q21 -51 64 -153q53 -101 110 -101q23 0 40 30q13 25 14 53q27 -104 27 -157q0 -36 -17 -65q-21 -34 -56 -34q-69 0 -157 181q-37 82 -110 246h-85l-86 -299q-38 171 -74 344 q-30 143 -41 175q-18 47 -45 47h-1q-38 -1 -98 -37q-47 -28 -82 -60q5 80 57 164q59 93 124 93q66 0 100 -109q21 -67 25 -148h649q34 -1 67 -22q46 -28 46 -77z" />
<glyph unicode="&#x1828;" horiz-adv-x="512" d="M306 388h206v-170h-85l-86 -299q-38 171 -74 344q-30 143 -41 175q-18 47 -45 47h-1q-38 -1 -98 -37q-47 -28 -82 -60q5 80 57 164q59 93 124 93q66 0 100 -109q21 -67 25 -148zM437 -252q-30 -8 -60 -52q-28 -40 -36 -76q-9 36 -35 76q-30 46 -61 52q33 8 63 52 q26 39 33 76q7 -35 34 -76q31 -45 62 -52z" />
<glyph unicode="&#x1829;" horiz-adv-x="632" d="M632 391v-164q-32 117 -58 182q-52 127 -113 127q-75 0 -125 -81q-43 -68 -43 -151q0 -134 146 -229l-76 -115q-73 121 -107 258h-85l-86 -299l-85 299v170h256q57 301 205 301q59 0 118 -122q53 -111 53 -176z" />
<glyph unicode="&#x182a;" horiz-adv-x="455" d="M282 218h-239v-7v-8q17 -69 21 -76q22 -38 56.5 -61.5t70.5 -23.5q77 0 88 111q2 24 3 65zM455 388h57v-170h-84v-3l-1 3h1q0 47 -25 203q-31 139 -158 139q-103 0 -159 -68q-35 -44 -38 -104h242q15 -40 27 -149l12 -108q0 -83 -15 -142q-30 -114 -112 -114 q-57 0 -107 56q-39 49 -67 126q-28 80 -28 148v183q0 137 59 232q69 110 197 110q117 0 170 -152q29 -87 29 -190z" />
<glyph unicode="&#x182b;" horiz-adv-x="437" d="M455 388h57v-170h-85l1 -3v5l-1 11l-4 36q-5 43 -16 130q-14 78 -44 114q-40 49 -118 49q-81 0 -135 -45q-57 -46 -62 -127h242q39 -115 39 -257q0 -256 -127 -256q-32 0 -51 28q-9 17 -27 52q-16 28 -45 28q-13 0 -39 -9q-23 -9 -38 -11l-2 3q11 13 24 49q14 37 24 49 q18 21 49 21q8 0 33 -22q26 -21 61 -21q58 0 79 64q11 35 12 112h-282v170q0 137 58 231q69 111 198 111q107 0 160 -125q38 -92 39 -217z" />
<glyph unicode="&#x182d;" horiz-adv-x="726" d="M726 388v-170h-86l-85 -299q-5 34 -11.5 84t-17 127.5t-18.5 136.5q-5 43 -16 130q-14 77 -45 114q-40 49 -117 49q-70 0 -115 -61q-39 -53 -44 -128q77 -58 106 -123q23 -57 23 -152v-8l-1 -169l-11 -6l-5 6q-32 160 -57 212q-54 115 -167 115q-31 0 -42 6q-17 9 -17 36 q0 47 42 73q36 22 86 24q4 156 35 228q48 117 179 117q107 0 160 -125q38 -90 39 -217h185zM646 -252q-29 -7 -61 -52q-28 -42 -35 -76q-9 39 -34 77q-30 45 -62 51q32 7 63 52q25 37 33 76q7 -37 34 -76q28 -43 62 -52zM390 -252q-29 -7 -61 -52q-28 -42 -35 -76 q-9 39 -34 77q-30 45 -62 51q32 7 63 52q25 37 33 76q7 -37 34 -76q28 -43 62 -52z" />
<glyph unicode="&#x182e;" horiz-adv-x="512" d="M554 943l1 -128l-43 -85h-264l-31 -94q75 -43 89 -248h206v-170h-85l-86 -299q-38 171 -74 344q-30 143 -41 175q-18 47 -45 47h-1q-38 -1 -98 -37q-47 -28 -82 -60q4 78 56 161q56 91 120 96l55 213h281z" />
<glyph unicode="&#x182f;" horiz-adv-x="512" d="M386 865q0 -36 -52 -150l-72 -154l42 253l-417 -1q70 32 211 78q159 52 209 52q33 0 56 -22.5t23 -55.5zM512 388h-206q-4 81 -25 148q-34 109 -100 109q-65 0 -124 -93q-52 -84 -57 -164q35 32 82 60q60 36 98 37h1q27 0 45 -47q11 -32 41 -175q36 -173 74 -344l86 299 h85v170z" />
<glyph unicode="&#x1830;" horiz-adv-x="597" d="M597 388v-170h-125l-86 -342l-107 512q-71 -176 -151 -176q-68 0 -128 185q2 58 4 85q9 84 30 86h1q36 0 52 -46l28 -87q19 -48 60 -48q64 0 109 428l66 -427h247z" />
<glyph unicode="&#x1831;" horiz-adv-x="615" d="M615 773q-30 -8 -62 -53q-26 -39 -34 -76q-10 37 -36 76q-29 45 -60 53q30 6 62 51q27 41 34 76q7 -37 33 -76q30 -44 63 -51zM474 773q-29 -7 -61 -53q-27 -38 -35 -76q-9 36 -35 76q-31 45 -61 53q32 6 62 51q27 41 34 76q8 -38 34 -76q28 -43 62 -51zM597 388v-170 h-125l-86 -342l-107 512q-71 -176 -151 -176q-68 0 -128 185q2 58 4 85q9 84 30 86h1q36 0 52 -46l28 -87q19 -48 60 -48q64 0 109 428l66 -427h247z" />
<glyph unicode="&#x1832;" horiz-adv-x="683" d="M683 388v-170h-86l-86 -299l-85 299q-36 -87 -137 -87q-16 0 -25 1q-92 11 -264 256q203 251 304 258h6q62 0 135 -100q72 -98 71 -158h167zM435 380q1 6 1 17q0 51 -45 86q-44 33 -100 33q-43 0 -99 -41l-108 -86q24 -36 47 -61q59 -64 129 -85q35 -9 59 -9 q93 0 116 146z" />
<glyph unicode="&#x1834;" horiz-adv-x="726" d="M726 388v-170h-129v-28q0 -58 3 -123q3 -85 3 -100q0 -61 -21 -79q-19 -19 -89 -19q-31 0 -118 4q-98 3 -179 3q-36 0 -49 -27q-3 -9 -10 -28t-10 -29v149q0 106 89 106h295q43 0 43 171h-554v170h726z" />
<glyph unicode="&#x1836;" horiz-adv-x="341" d="M341 388v-170h-215q126 -277 126 -334q0 -20 -87 -59q-84 -38 -110 -38q-4 1 -12 4q-5 19 99 171l-99 256h-43v170h341z" />
<glyph unicode="&#x1837;" horiz-adv-x="470" d="M470 388v-170h-385l225 -256l-86 -128l-85 129l-75 -130l-50 172l74 84l-88 129v170h470z" />
<glyph unicode="&#x1838;" horiz-adv-x="470" d="M470 388v-170h-385q21 -51 64 -153q53 -101 110 -101q23 0 40 30q13 25 14 53q27 -104 27 -157q0 -36 -17 -65q-21 -34 -56 -34q-59 0 -166 185q-101 176 -101 242v170h470z" />
<glyph unicode="&#x1839;" horiz-adv-x="427" d="M429 218l1 -1v-1q-1 -1 -2 -1l-1 3h2zM455 388h57v-170h-83q-9 19 -17 124q-8 103 -32 147q-39 71 -135 71q-81 0 -135 -45q-57 -46 -62 -127h242q39 -108 39 -257q0 -227 -102 -254q20 -40 20 -69q0 -75 -46 -93q-22 -8 -110 -8q-31 0 -45 -6q-11 -5 -38 -29q-2 2 -2 19 q0 65 33 89q22 16 72 16h26q58 0 58 36q0 28 -35 51q-77 47 -120 140q-40 84 -40 182v183q0 137 58 231q69 111 198 111q107 0 160 -125q38 -92 39 -217zM282 218h-239v-9v-5q0 -58 43 -108q46 -54 105 -54q58 0 79 64q11 35 12 112z" />
<glyph unicode="&#x183a;" horiz-adv-x="425" d="M470 455q0 -25 -16 -79q-15 -56 -27 -75q-7 40 -23 120q-14 69 -41 99q-37 40 -118 40q-101 0 -155 -82q-47 -71 -47 -176q0 -142 171 -255l-86 -128q-3 5 -16 27t-19 34l-1 2q0 1 -0.5 3t-0.5 5q-2 5 -5 5q-10 0 -63 -71l-23 121l48 31q-48 112 -48 142v170q0 15 21 102 q25 114 71 169q59 71 164 71q100 0 161 -91q53 -80 53 -184z" />
<glyph unicode="&#x183b;" horiz-adv-x="425" d="M470 455q0 -25 -16 -79q-15 -56 -27 -75q-7 40 -23 120q-14 69 -41 99q-37 40 -118 40q-74 0 -127 -50q-50 -45 -66 -121l119 -1v-170h-111q41 -98 154 -171l-86 -128q-33 55 -75 147q-53 115 -53 152v170q0 12 20 100q27 116 72 170q59 72 164 72q100 0 161 -91 q53 -80 53 -184z" />
<glyph unicode="&#x183c;" horiz-adv-x="768" d="M768 388v-170h-290q-1 -22 -4.5 -83t-4.5 -90h11h3q107 0 140 -62q21 -42 21 -164q0 -104 -56 -104q-52 0 -98 30q-46 29 -64 77q-3 18 -12 54h-218q-34 0 -49 -28l-20 -56v255h291l9 171h-427v170h768zM591 -171q0 54 -98 54q-34 0 -34 -17q0 -42 22 -70q23 -33 63 -33 q22 0 36 23q11 20 11 43z" />
<glyph unicode="&#x183d;" horiz-adv-x="768" d="M768 388v-170h-239q-22 -280 -22 -340q0 -28 20.5 -52t47.5 -24q26 0 44.5 18t22.5 45q0 -43 -20 -97q-24 -65 -61 -65q-42 0 -63 45q-6 12 -25 83q-11 45 -30 45h-247q-35 0 -48 -28q-3 -9 -10 -28t-11 -28v255h346l13 171h-486v170h768z" />
<glyph unicode="&#x183e;" d="M725 388h214v-170h-208q63 -51 86 -81q38 -50 38 -109q0 -136 -30 -195q-19 -35 -69 -64q-52 -29 -71 -63q-7 79 -57 241q-58 195 -116 271h-85l-86 -299q-38 171 -74 344q-30 143 -41 175q-18 47 -45 47h-1q-38 -1 -98 -37q-47 -28 -82 -60q5 80 57 164q59 93 124 93 q66 0 100 -109q21 -67 25 -148h292q2 -111 30 -265q38 -210 95 -210q50 0 63 31q9 20 9 74q0 34 -57 101q-57 68 -57 92q0 6 44 177z" />
<glyph unicode="&#x183f;" horiz-adv-x="683" d="M478 388h206v-170h-86l-85 -299q-25 107 -74 344q-28 137 -42 175q-17 47 -45 47h-1q-37 -1 -97 -37q-48 -28 -82 -60q5 80 57 164q59 93 123 93q25 0 47 -17q-32 188 -149 188q-97 0 -156 -200q-45 -154 -45 -296q0 -108 80 -191q41 -42 172 -124l-42 -129q-4 5 -70 77 t-100 108q-89 112 -88 224l2 103q1 170 56 320q71 192 191 192q100 0 160 -90q53 -80 53 -184q0 -20 -12 -67h-7q26 -66 34 -171z" />
<glyph unicode="&#x1840;" d="M386 865q0 -36 -52 -150l-72 -154l42 253l-417 -1q70 32 211 78q159 52 209 52q33 0 56 -22.5t23 -55.5zM939 388h-214q-44 -171 -44 -177q0 -25 57 -92t57 -101q0 -54 -9 -74q-13 -31 -63 -31q-57 0 -95 210q-28 154 -30 265h-292q-4 81 -25 148q-34 109 -100 109 q-65 0 -124 -93q-52 -84 -57 -164q35 32 82 60q60 36 98 37h1q27 0 45 -47q11 -32 41 -175q36 -173 74 -344l86 299h85q58 -76 116 -271q50 -162 57 -241q19 34 71 63q50 29 69 64q30 59 30 195q0 59 -38 109q-23 30 -86 81h208v170z" />
<glyph unicode="&#x1841;" horiz-adv-x="427" d="M213 388h214v-170h-208q61 -48 86 -80q38 -50 38 -110q0 -133 -32 -195q-19 -39 -70 -68q-51 -30 -68 -59q-11 111 -59 282q-62 226 -114 230v170h86q0 -99 29 -261q37 -214 96 -214q49 0 63 30q9 19 9 75q0 32 -57 101q-56 70 -56 85q0 27 43 184z" />
<glyph unicode="&#x1842;" horiz-adv-x="811" d="M0 388h811l-1 -170h-84v-30q1 -313 -148 -313q-92 0 -149 131q-45 105 -45 212h-42v-30q1 -313 -149 -313q-87 0 -146 126q-47 105 -47 204v183zM683 218h-256v-9v-5q0 -56 39 -107q43 -55 101 -55q69 0 96 57q18 38 20 119zM299 218h-256v-9v-5q0 -56 39 -107 q43 -55 101 -55q69 0 96 57q18 38 20 119z" />
<glyph unicode="&#x1843;" horiz-adv-x="200" d="M200 389v-171h-200v304h107v-133h93z" />
<glyph unicode="&#x1844;" horiz-adv-x="896" d="M896 388v-170h-299q1 -100 39 -154q40 -59 133 -79q30 -3 85 -15v-136q-184 52 -253 121q-87 85 -89 263h-85l-86 -299q-38 171 -74 344q-30 143 -41 175q-18 47 -45 47h-1q-38 -1 -98 -37q-47 -28 -82 -60q5 80 57 164q59 93 124 93q66 0 100 -109q21 -67 25 -148h590z " />
<glyph unicode="&#x1845;" horiz-adv-x="896" d="M896 374v-142q0 -54 -52 -197q-12 -34 -37.5 -101t-38.5 -100l-41 128q79 142 90 173q19 56 19 198q0 116 -50 193q-58 87 -169 87q-59 0 -59 -86q0 -7 0.5 -29t0.5 -27l1 -509h-47l-1 256h-85l-86 -299q-38 171 -74 344q-30 143 -41 175q-18 47 -45 47h-1 q-38 -1 -98 -37q-47 -28 -82 -60q5 80 57 164q59 93 124 93q66 0 100 -109q21 -67 25 -148h206l-1 23v168q0 105 15 124q20 27 114 27q133 0 200 -118q56 -98 56 -238z" />
<glyph unicode="&#x1846;" horiz-adv-x="913" d="M913 388v-547q-178 9 -285 101q-116 101 -116 276h-85l-86 -299q-38 171 -74 344q-30 143 -41 175q-18 47 -45 47h-1q-38 -1 -98 -37q-47 -28 -82 -60q5 80 57 164q59 93 124 93q66 0 100 -109q21 -67 25 -148h607zM836 -17v235h-239q2 -133 56 -183q50 -47 183 -52z" />
<glyph unicode="&#x1847;" horiz-adv-x="976" d="M976 382q0 -123 -19 -123q-8 0 -10 8q-4 22 -11 65t-10 65q-17 78 -47 114q-40 49 -122 49q-80 0 -135 -44q-57 -47 -62 -128h242q39 -108 39 -257q0 -256 -127 -256q-8 0 -24 2l-4 6v-5q-77 21 -129 145q-45 103 -45 195h-85l-86 -299q-38 171 -74 344q-30 143 -41 175 q-18 47 -45 47h-1q-38 -1 -98 -37q-47 -28 -82 -60q5 80 57 164q59 93 124 93q66 0 100 -109q21 -67 25 -148h206q0 137 59 231q67 111 197 111q111 0 166 -127q42 -96 42 -221zM836 -224q-8 -34 -23 -57q-21 -33 -47 -33q-47 0 -82 57q-30 50 -30 101q0 2 2 36q1 15 1 37 l5 -2q33 -45 71 -88q19 -19 60 -30q37 -10 43 -21zM793 186l1 32h-239v-9q-2 -58 43 -111q48 -56 105 -56q87 0 90 144z" />
<glyph unicode="&#x1848;" horiz-adv-x="913" d="M654 526q0 -77 -50 -147q-7 1 -32 1h-24l-13 115l-200 156q18 -2 56.5 -6.5t58.5 -7.5q90 -12 138 -33q66 -28 66 -78zM913 -159v547h-607q-4 81 -25 148q-34 109 -100 109q-65 0 -124 -93q-52 -84 -57 -164q35 32 82 60q60 36 98 37h1q27 0 45 -47q11 -32 41 -175 q36 -173 74 -344l86 299h85q0 -175 116 -276q107 -92 285 -101zM836 -17q-133 5 -183 52q-54 50 -56 183h239v-235z" />
<glyph unicode="&#x184a;" d="M939 269l-6 -316q-1 -113 -29 -199q-29 -90 -72 -103q-25 -8 -55 -34q-3 -2 -19 -25q-10 -16 -26 -16q-24 0 -24 82v78q6 55 34 55q5 0 15 -4.5t14 -4.5q9 0 35 9q10 4 19 13q3 4 5.5 7.5t3.5 5.5l2 2q11 10 19 135q7 94 7 178q0 52 -9 63q-20 23 -102 23h-410 q1 -197 167 -232q35 -3 90 -16v-136q-183 53 -253 121q-88 85 -89 263h-85l-86 -299l-85 299v170h808q86 0 111 -31q20 -22 20 -88z" />
<glyph unicode="&#x184c;" horiz-adv-x="601" d="M601 455q0 -27 -15 -79q-13 -50 -28 -75q-6 33 -23 122q-14 68 -41 97q-37 40 -118 40q-89 0 -140 -64q-34 -45 -63 -146l10 38q-6 -54 -6 -105q0 -43 6 -65q9 -41 68 -133q60 -94 94 -115q-173 12 -214 12q-25 0 -114 -12v53l26 3l-5 193l-38 -1v170h34v256h53l-1 -256 h45q32 167 65 229q62 113 191 113q101 0 161 -91q53 -80 53 -184zM191 22q-17 53 -60 196h-41l-5 -196q35 9 46 9q19 0 60 -9z" />
<glyph unicode="&#x184d;" horiz-adv-x="768" d="M306 388h462v-170h-85l-86 -299l-85 299h-85l-86 -299q-38 171 -74 344q-30 143 -41 175q-18 47 -45 47h-1q-38 -1 -98 -37q-47 -28 -82 -60q5 80 57 164q59 93 124 93q66 0 100 -109q21 -67 25 -148zM690 -252q-30 -7 -61 -52q-27 -38 -35 -76q-9 36 -35 76 q-31 46 -61 52q32 8 62 52q26 38 34 76q8 -38 34 -76q31 -45 62 -52zM442 -252q-29 -8 -60 -52q-28 -40 -36 -76q-9 38 -34 76q-31 46 -62 52q33 8 63 52q26 39 33 76q7 -35 34 -76q31 -45 62 -52z" />
<glyph unicode="&#x184e;" horiz-adv-x="768" d="M306 388h462v-170h-85l-86 -299l-85 299h-85l-86 -299q-38 171 -74 344q-30 143 -41 175q-18 47 -45 47h-1q-38 -1 -98 -37q-47 -28 -82 -60q5 80 57 164q59 93 124 93q66 0 100 -109q21 -67 25 -148zM509 -250q0 -50 -36 -86q-35 -36 -85 -36t-86 36t-36 86q0 48 35 85 q36 36 86 36q49 0 86 -35q36 -36 36 -86zM446 -250q0 23 -17 40.5t-41 17.5t-41 -17.5t-17 -40.5q0 -24 17 -41.5t41 -17.5t41 17.5t17 41.5z" />
<glyph unicode="&#x184f;" horiz-adv-x="513" d="M513 731q-51 -133 -153 -401q-88 -250 -105 -408l-215 -48l48 90q-68 143 -82 238q-6 46 -6 254q0 118 22 177q36 96 132 96q61 0 103 -142q9 -29 41 -197q78 173 215 341zM242 339q0 68 -16 129q-26 89 -72 89q-90 0 -90 -239q0 -62 12 -156q17 -127 41 -128 q13 13 69 148q56 136 56 157z" />
<glyph unicode="&#x1850;" horiz-adv-x="426" d="M426 387v-142v-27h-102q-17 -229 -31 -346l-37 -1v689h-11h-5q-92 0 -148 -72q-50 -68 -50 -169q0 -116 59 -193q46 -59 155 -130v-128l-155 162q-101 119 -101 188v170q0 136 60 230q70 112 196 112q89 0 89 -203q0 -67 -6 -140h87z" />
<glyph unicode="&#x1851;" horiz-adv-x="513" d="M513 388v-170h-345l260 -296l-171 -217q-70 135 -257 513v170h513zM257 -109l61 67l-175 260h-56q56 -104 170 -327z" />
<glyph unicode="&#x1852;" horiz-adv-x="640" d="M640 388v-170h-129q-1 -26 -2.5 -78t-1.5 -77q-7 -119 -30 -136q-36 -25 -171 -42q42 -21 49 -28q18 -17 18 -52q0 -44 -35 -76t-78 -32q-65 0 -100 44q-33 41 -33 108q0 114 43 157q31 33 110 43q126 16 155 24q35 11 35 105v5l-1 35h-469v170h640zM318 -182 q0 23 -17.5 40.5t-40.5 17.5q-24 0 -41.5 -17.5t-17.5 -40.5q0 -24 17.5 -41t41.5 -17q23 0 40.5 17t17.5 41z" />
<glyph unicode="&#x1853;" horiz-adv-x="683" d="M683 388v-170h-129q-16 -57 -16 -122q0 -34 15 -102t15 -101q0 -17 -14 -17h-324q-40 0 -40 -20q0 -24 17.5 -41.5t41.5 -17.5q21 0 68 9q50 8 69 8q30 0 47 -35q13 -26 13 -62q0 -25 -12 -42q-14 -20 -37 -20q-27 0 -77 30q-24 17 -72 49q-68 46 -84 64q-37 38 -37 96 v47q0 106 89 106h227q40 0 40 39q0 6 -2.5 30t-2.5 30q0 34 8 72h-486v170h683z" />
<glyph unicode="&#x1854;" horiz-adv-x="640" d="M640 388v-170h-129q-1 -26 -2.5 -78t-1.5 -77q-8 -120 -30 -136q-27 -20 -109 -36q-76 -14 -120 -14q-32 0 -45 -54t-38 -54q-38 0 -38 80q0 112 42 157q31 34 110 44q148 21 156 23q35 9 35 105v5l-1 35h-469v170h640z" />
<glyph unicode="&#x1855;" horiz-adv-x="384" d="M384 388v-170h-299l-1 -92l172 -335l-128 -128l-128 469v257z" />
<glyph unicode="&#x1856;" horiz-adv-x="512" d="M512 388v-170h-436q41 -111 45 -119q28 -70 55 -114q58 70 113 70q59 0 100 -35q43 -37 43 -95q0 -59 -42 -97q-43 -38 -101 -38q-101 0 -161 121q-28 54 -128 307v170h512zM387 -72q0 36 -28 61q-28 24 -64 24q-35 0 -63 -24q-28 -25 -28 -61q0 -35 27.5 -59.5 t63.5 -24.5q37 0 64.5 24.5t27.5 59.5z" />
<glyph unicode="&#x1857;" horiz-adv-x="425" d="M470 455q0 -25 -16 -79q-15 -56 -27 -75q-7 40 -23 120q-14 69 -41 99q-37 40 -118 40q-101 0 -155 -82q-47 -71 -47 -176q0 -82 52 -187q52 -109 119 -153h-214l60 109q-60 141 -60 147v170q0 10 18 90q25 120 71 176q58 76 167 76q100 0 161 -91q53 -80 53 -184z" />
<glyph unicode="&#x1858;" horiz-adv-x="470" d="M512 455q0 -23 -15 -79t-27 -75q-16 80 -23 120q-14 69 -41 99q-37 40 -119 40q-100 0 -154 -82q-48 -70 -48 -176q0 -142 171 -255l-85 -128q-35 61 -43 76l-128 -4l90 85q-30 73 -47 142h-43v171l43 -1q32 171 65 229q60 113 191 113q100 0 160 -91q53 -80 53 -184z " />
<glyph unicode="&#x1859;" horiz-adv-x="897" d="M896 290l1 -166v-43q-3 -35 -17 -35t-22 65q-3 27 -10 80q-8 27 -97 27h-276q64 -52 86 -81q38 -50 38 -109q0 -136 -30 -195q-19 -35 -69 -64q-52 -29 -71 -63q-9 94 -63 283q-64 229 -110 229h-85l-86 -299l-85 299v170h342q1 -109 30 -265q38 -210 95 -210q48 0 63 31 q9 20 9 74q0 34 -57 101q-57 68 -57 92q0 4 44 177h315q112 0 112 -98z" />
<glyph unicode="&#x185a;" horiz-adv-x="512" d="M455 388h57v-170h-33l-8 -65q-15 -123 -24 -159q-19 -84 -69 -141q0 -1 -34 -44q-13 -19 -20 -19q15 -2 61 -21q0 -10 -8 -40q-59 0 -187 45q118 27 174 159q41 99 54 283q3 39 3 71q0 273 -176 273q-79 0 -135 -45q-57 -46 -62 -127h242q39 -110 39 -257 q0 -256 -127 -256q-88 0 -150 125q-52 105 -52 205v183q0 136 59 231q69 111 197 111q107 0 160 -125q38 -90 39 -217zM282 218h-239v-9v-5q0 -58 42 -108q47 -54 106 -54q58 0 79 64q10 34 12 112z" />
<glyph unicode="&#x185b;" horiz-adv-x="470" d="M470 388v-170h-385q22 -65 66 -196q54 -144 108 -144q24 0 40 31q13 23 14 53q27 -104 27 -157q0 -37 -17 -66q-21 -33 -56 -33q-41 0 -108 114q-55 92 -110 228q-49 126 -49 170v355q28 -22 84 -22q98 0 170 24v-187h216zM210 389v133q-80 -23 -94 -23q-27 0 -66 13 l-1 -123h161z" />
<glyph unicode="&#x185c;" horiz-adv-x="726" d="M726 388v-170h-129q0 -4 -23 -39q-21 -31 -23 -75v-6q0 -46 25 -118q27 -77 29 -102q-2 -116 -5 -126q-8 -26 -57 -26q-3 0 -10 0.5t-20 1t-25 0.5q-29 1 -80 1q-4 0 -8 -1t-7 -4l-5 -5t-4 -7l-3 -7.5t-3 -8.5t-3 -8v73q0 52 44 52h144q18 0 21 63h-346q-34 0 -48 -27 q-4 -9 -10.5 -28t-9.5 -29v149q0 106 89 106h235q7 0 7 8q0 7 -7 28q-6 22 -6 38q0 23 20 58q21 35 21 39h-529v170h726z" />
<glyph unicode="&#x185d;" horiz-adv-x="516" d="M516 815q-85 -124 -151 -284q-49 -120 -103 -303q-29 -103 -86 -309l-88 299h-84v170h85q45 -174 61 -261q14 181 37 324q57 352 158 500l-25 120q74 -103 196 -256zM182 612q-4 -9 -43 -20q-41 -12 -60 -31q-25 -25 -77 -96v39q0 8 -0.5 17t-1 14t-0.5 8q0 53 30 102 q35 57 83 57q26 0 47 -33q14 -24 22 -57z" />
<glyph unicode="&#x185e;" horiz-adv-x="640" d="M640 388v-170h-299l171 -342l-128 -127l-128 469h-85l-86 -299l-85 299v170h640z" />
<glyph unicode="&#x185f;" horiz-adv-x="307" d="M306 614l-146 -229l-154 229l51 34l99 -150l99 150zM307 388h-307v-170h42l86 -299l85 299h94v170z" />
<glyph unicode="&#x1860;" horiz-adv-x="854" d="M843 586q-5 -10 -42 -20q-43 -12 -60 -31q-25 -25 -77 -96v40q-2 38 -2 39q0 52 29 102q35 56 83 56q28 0 47 -33q16 -23 22 -57zM853 388l1 -200q0 -313 -149 -313q-88 0 -146 133q-47 109 -47 210h-85l-86 -299q-38 171 -74 344q-30 143 -41 175q-18 47 -45 47h-1 q-38 -1 -98 -37q-47 -28 -82 -60q5 80 57 164q59 93 124 93q66 0 100 -109q21 -67 25 -148h547zM811 218h-256v-9v-5q0 -56 39 -107q43 -55 101 -55q69 0 96 57q18 38 20 119z" />
<glyph unicode="&#x1861;" horiz-adv-x="768" d="M768 388v-170h-298l170 -342l-128 -127l-128 469h-42v-30q1 -313 -149 -313q-88 0 -146 133q-47 109 -47 210v170h602h4h162zM299 218h-256v-9v-5q0 -56 39 -107q43 -55 101 -55q69 0 97 57q17 39 19 119z" />
<glyph unicode="&#x1862;" horiz-adv-x="818" d="M427 218l-86 -299l-85 299h-85l-86 -299l-85 299v170h638q84 0 111 -31q19 -20 19 -88l-6 -316q-1 -113 -29 -199q-29 -90 -72 -103q-25 -8 -55 -34l-2 -3q-2 -3 -6.5 -9.5t-9.5 -12.5q-10 -16 -27 -16q-24 0 -24 82q0 74 1 78q6 55 34 55q5 0 14.5 -4.5t13.5 -4.5 q10 0 36 9q11 4 18 13q3 4 5.5 7.5t4.5 5.5l1 2q13 11 20 135q6 100 6 178q0 52 -9 63q-20 23 -102 23h-153z" />
<glyph unicode="&#x1863;" horiz-adv-x="428" d="M428 815q-85 -124 -151 -284q-49 -117 -104 -303q-29 -103 -86 -309l-87 299h1v170q45 -174 61 -261q14 175 36 324q59 353 159 500l-26 120q65 -90 197 -256zM409 -252q-30 -8 -61 -52q-26 -39 -34 -76q-10 37 -36 76q-30 46 -61 52q32 8 63 52q27 41 34 76 q7 -37 33 -76q31 -45 62 -52zM196 -252q-30 -8 -61 -52q-27 -41 -35 -76q-9 36 -35 76q-31 46 -61 52q32 8 62 52q27 41 34 76q7 -35 34 -76q31 -45 62 -52z" />
<glyph unicode="&#x1864;" horiz-adv-x="726" d="M714 626l10 -74q-3 -7 -12 -7q-1 0 -14 2.5t-18 2.5q-18 0 -33 -15q-27 -27 -76 -96v11q0 18 -1 29q-2 38 -2 39q0 52 29 102q35 56 83 56q25 0 34 -50zM726 388v-170h-86l-85 -299q-3 26 -47 348l-16 130q-14 78 -44 114q-40 49 -118 49q-70 0 -115 -61 q-39 -53 -44 -128q78 -59 105 -123q24 -56 24 -152v-8l-1 -169l-11 -6l-5 6q-32 161 -57 212q-54 115 -167 115q-31 0 -42 6q-17 9 -17 36q0 47 42 73q36 22 86 24q6 158 35 228q48 117 179 117q106 0 159 -125q38 -90 40 -217h185z" />
<glyph unicode="&#x1865;" horiz-adv-x="726" d="M720 582q0 -38 -28 -66.5t-66 -28.5t-66 28.5t-28 67.5q0 38 28 66t67 28q36 0 65 -29q28 -28 28 -66zM726 388v-170h-86l-85 -299q-3 26 -47 348q-5 43 -16 130q-14 78 -44 114q-40 49 -118 49q-70 0 -115 -61q-39 -53 -44 -128q78 -59 105 -123q24 -56 24 -152v-8 l-1 -169l-11 -6l-5 6q-32 161 -57 212q-54 115 -167 115q-31 0 -42 6q-17 9 -17 36q0 47 42 73q36 22 86 24q6 158 35 228q48 117 179 117q106 0 159 -125q38 -90 40 -217h185zM682 583q0 23 -17 40t-39 17q-23 0 -40 -17t-17 -39q0 -23 16.5 -40t39.5 -17t40 16.5t17 39.5z " />
<glyph unicode="&#x1866;" horiz-adv-x="464" d="M464 382v-25q0 -89 -19 -98l-10 8q-3 57 -9 172q-11 131 -58 131q-35 0 -64 -26q-15 -17 -47 -51q-35 43 -50 55q-29 25 -68 25t-67 -76q-21 -57 -24 -109h242q39 -110 39 -257q0 -256 -127 -256q-88 0 -150 125q-52 104 -52 205v183q0 103 28 202q39 141 111 141 q63 0 92 -72q16 -39 25 -126q10 87 24 125q27 73 89 73q65 0 86 -149q9 -65 9 -200zM282 218h-239v-9v-5q0 -58 43 -108q46 -54 105 -54q58 0 79 64q11 35 12 112z" />
<glyph unicode="&#x1867;" horiz-adv-x="597" d="M597 388v-170h-125l-86 -342l-107 512q-71 -176 -151 -176q-68 0 -128 185q2 58 4 85q9 84 30 86h1q36 0 52 -46l28 -87q19 -48 60 -48q64 0 109 428l66 -427h247zM323 -182q0 -3 -0.5 -8t-1 -14t-0.5 -17q-1 -24 0 -40q-52 71 -77 96q-19 21 -60 31q-39 11 -43 21 q8 34 23 56q19 34 47 34q49 0 82 -57q30 -50 30 -102z" />
<glyph unicode="&#x1868;" horiz-adv-x="768" d="M768 388v-170h-85l-86 -299l-85 299h-512l1 170h240l-155 86q62 77 192 145q133 70 231 70q92 0 92 -272v-29h167zM336 387l210 2q-1 72 -9 104q-17 65 -66 65q-187 0 -301 -84z" />
<glyph unicode="&#x1869;" horiz-adv-x="690" d="M690 578q-4 -9 -34 -17q-34 -8 -52 -26q-27 -27 -76 -96v11q0 18 -1 29q-1 19 -1 39q0 52 29 102q35 56 83 56q25 0 38 -37q2 -7 14 -61zM683 388v-170h-86l-86 -299l-85 299q-36 -87 -137 -87q-16 0 -25 1q-92 11 -264 256q203 251 304 258h6q62 0 135 -100 q72 -98 71 -158h167zM435 380q1 6 1 17q0 51 -45 86q-44 33 -100 33q-43 0 -99 -41l-108 -86q24 -36 47 -61q59 -64 129 -85q35 -9 59 -9q93 0 116 146z" />
<glyph unicode="&#x186a;" horiz-adv-x="427" d="M427 388v-170h-344q29 -35 127 -106q102 -75 144 -119q68 -71 68 -136q0 -110 -187 -110q-76 0 -86 19q77 20 77 62q0 19 -101 188q-86 142 -125 202v169z" />
<glyph unicode="&#x186b;" horiz-adv-x="709" d="M709 388v-170h-384q21 -51 65 -153q51 -101 109 -101q25 0 40 30q13 25 14 53q28 -102 28 -157q0 -36 -18 -65q-21 -34 -56 -34q-66 0 -156 177l-147 327q-79 177 -122 177q-53 0 -55 -32q-27 102 -27 133q0 35 18 64q21 33 55 33q78 0 144 -196q11 -41 26 -82q1 -1 3 -4 h463z" />
<glyph unicode="&#x186c;" horiz-adv-x="470" d="M417 902q-4 -9 -43 -20q-42 -12 -59 -31q-30 -30 -77 -96q0 23 -1 39l-2 40q0 52 30 102q33 56 82 56q27 0 47 -33q15 -23 23 -57zM470 455q0 -25 -16 -79q-15 -56 -27 -75q-7 40 -23 120q-14 69 -41 99q-37 40 -118 40q-101 0 -155 -82q-47 -71 -47 -176 q0 -142 171 -255l-86 -128q-3 5 -16 27t-19 34l-1 2q0 1 -0.5 3t-0.5 5q-2 5 -5 5q-10 0 -63 -71l-23 121l48 31q-48 112 -48 142v170q0 15 21 102q25 114 71 169q59 71 164 71q100 0 161 -91q53 -80 53 -184z" />
<glyph unicode="&#x186d;" horiz-adv-x="470" d="M461 882q0 -38 -28 -66.5t-66 -28.5q-39 0 -67 28t-28 68q0 37 28 65q29 29 68 29q36 0 65 -29q28 -28 28 -66zM470 455q0 -25 -16 -79q-15 -56 -27 -75q-7 40 -23 120q-14 69 -41 99q-37 40 -118 40q-101 0 -155 -82q-47 -71 -47 -176q0 -142 171 -255l-86 -128 q-3 5 -16 27t-19 34l-1 2q0 1 -0.5 3t-0.5 5q-2 5 -5 5q-10 0 -63 -71l-23 121l48 31q-48 112 -48 142v170q0 15 21 102q25 114 71 169q59 71 164 71q100 0 161 -91q53 -80 53 -184zM423 883q0 23 -17 40t-40 17t-39.5 -17t-16.5 -39q0 -23 16.5 -40t39.5 -17t40 16.5 t17 39.5z" />
<glyph unicode="&#x186e;" horiz-adv-x="597" d="M453 772l-342 1v84h128v127h86v-127h128v-85zM597 218v170h-247l-66 427q-45 -428 -109 -428q-41 0 -60 48l-28 87q-16 46 -52 46h-1q-21 -2 -30 -86q-2 -27 -4 -85q60 -185 128 -185q80 0 151 176l107 -512l86 342h125z" />
<glyph unicode="&#x186f;" horiz-adv-x="597" d="M462 857v-85l-342 1v84h342zM597 388v-170h-125l-86 -342l-107 512q-71 -176 -151 -176q-68 0 -128 185q2 58 4 85q9 84 30 86h1q36 0 52 -46l28 -87q19 -48 60 -48q64 0 109 428l66 -427h247z" />
<glyph unicode="&#x1870;" horiz-adv-x="221" d="M221 388v-170h-143v-206h-78v577h78v-201h143z" />
<glyph unicode="&#x1871;" horiz-adv-x="726" d="M546 537q0 -38 -28 -66t-66 -28q-39 0 -67 28t-28 67q0 37 29 66q28 28 67 28q38 0 65.5 -28.5t27.5 -66.5zM726 388v-170h-129q-6 -76 -6 -162v-34q1 -15 1 -31q0 -79 -18 -98q-19 -22 -101 -22q-21 0 -112 3q-122 2 -165 2q-36 0 -49 -27q-3 -9 -10 -28t-10 -29v149 q0 106 89 106h295q43 0 43 171h-554v170h726zM508 538q0 23 -17 40t-40 17q-22 0 -39 -17t-17 -39q0 -23 17 -40t39 -17q23 0 40 17t17 39z" />
<glyph unicode="&#x1872;" horiz-adv-x="427" d="M290 537q0 -38 -28 -66t-66 -28q-39 0 -67 28t-28 67q0 37 29 66q28 28 67 28q36 0 65 -29q28 -28 28 -66zM427 388v-170h-344q33 -38 127 -106q102 -75 144 -119q68 -71 68 -136q0 -110 -187 -110q-71 0 -86 19q77 17 77 62q0 21 -101 188q-70 117 -125 202v170h427z M252 538q0 23 -17 40t-40 17q-22 0 -39 -17t-17 -39q0 -23 17 -40t39 -17q23 0 40 17t17 39z" />
<glyph unicode="&#x1873;" horiz-adv-x="726" d="M726 388v-170h-299l170 -342l-127 -127l-129 469h-256l171 -342l-128 -127q-12 41 -35 124.5t-35 124.5q-58 207 -58 220v171z" />
<glyph unicode="&#x1874;" horiz-adv-x="683" d="M683 815q-85 -124 -151 -284q-49 -117 -104 -303q-29 -103 -86 -309l-87 299h-84l-86 -299l-85 299v170h256l61 -261q13 175 36 324q59 353 159 500l-26 120q65 -90 197 -256zM629 -252q-29 -8 -60 -52q-28 -40 -36 -76q-9 36 -35 76q-30 46 -61 52q33 8 63 52 q26 39 33 76q7 -35 34 -76q31 -45 62 -52zM373 -252q-29 -8 -60 -52q-28 -40 -36 -76q-9 36 -35 76q-30 46 -61 52q33 8 63 52q26 39 33 76q7 -35 34 -76q31 -45 62 -52z" />
<glyph unicode="&#x1875;" horiz-adv-x="648" d="M597 290l1 -166v-44q-3 -34 -17 -34q-13 0 -22 65q-3 27 -10 80q-7 28 -77 28h-18l-27 -1h-342l225 -256l-86 -128l-85 129l-75 -130l-50 172l74 84l-88 129v170h485h7q39 0 68 -20q37 -27 37 -78z" />
<glyph unicode="&#x1876;" horiz-adv-x="709" d="M709 388v-170h-384q21 -51 65 -153q51 -101 109 -101q25 0 40 30q13 25 14 53q28 -102 28 -157q0 -36 -18 -65q-21 -34 -56 -34q-61 0 -137 141q-36 67 -132 287l-238 -1l1 170l158 1q-4 6 -41 95q-23 56 -36 56q-53 0 -55 -32q-27 102 -27 133q0 35 18 64q21 34 55 34 q75 0 126 -197q21 -80 44 -150q1 -1 3 -4h463z" />
<glyph unicode="&#x1877;" horiz-adv-x="384" d="M321 547q0 -38 -28 -66t-66 -28q-39 0 -67 28t-28 67q0 38 28.5 66t66.5 28q39 0 66.5 -28t27.5 -67zM384 388v-170h-299l171 -342l-128 -127l-128 469v171zM283 549q0 23 -17 39.5t-40 16.5t-40 -16.5t-17 -39.5t17 -40t40 -17t40 17t17 40z" />
<glyph unicode="&#x1880;" horiz-adv-x="645" d="M603 331q0 -165 -177 -309h-65q150 153 150 308q0 85 -44 167q-36 64 -106 140h65q177 -150 177 -306zM371 333q0 -72 -49 -122q-50 -50 -120 -50q-75 0 -119 48q-41 46 -41 122q0 79 40 125q42 50 119 50q71 0 120 -51q50 -52 50 -122zM302 334q0 42 -28.5 72.5 t-70.5 30.5q-41 0 -70.5 -30t-29.5 -71q0 -43 29 -74t71 -31t70 31q29 32 29 72z" />
<glyph unicode="&#x1881;" horiz-adv-x="789" d="M747 357q0 -85 -51 -146q-54 -64 -138 -64q-54 0 -103 29q-49 31 -67 81q-18 -49 -61 -79.5t-95 -30.5q-84 0 -138 64q-52 61 -52 146q0 86 53 148q55 66 139 66q51 0 95 -30t63 -78q18 48 65 78q45 30 98 30q85 0 140 -66q52 -61 52 -148zM673 359q0 48 -35 83 q-35 36 -82 36q-49 0 -81 -34t-32 -84q0 -53 32.5 -87t84.5 -34q48 0 80 35q33 36 33 85zM347 360q0 49 -32.5 83.5t-80.5 34.5t-83 -36q-34 -34 -34 -83q0 -48 32 -85q32 -35 80 -35q52 0 85 34t33 87z" />
<glyph unicode="&#x1882;" horiz-adv-x="639" d="M596 518v-588l-278 312l-275 -302v138q133 140 201 234q-85 97 -180 214v-386h-20q2 262 2 528l267 -299l283 339v-133l-198 -267l180 -221v431h18z" />
<glyph unicode="&#x1883;" horiz-adv-x="524" d="M482 140q0 -71 -43 -117q-43 -49 -114 -49q-52 0 -140 11q-92 12 -139 19v90q41 -7 125 -19q77 -11 125 -11q46 0 76 24q31 27 31 72q0 135 -212 135q-29 0 -81 -3q-51 -3 -68 -3v91h242q119 0 119 94q0 43 -35 73q-34 30 -78 30q-54 0 -124 -16q-41 -9 -124 -28v83 q183 33 255 33q76 0 130 -60q55 -58 55 -135q0 -116 -93 -150q93 -63 93 -164z" />
<glyph unicode="&#x1884;" horiz-adv-x="524" d="M482 117v-84q-182 -33 -255 -33q-76 0 -131 61q-54 59 -54 134q0 117 94 151q-94 61 -94 163q0 71 44 118q43 48 113 48q54 0 140 -11q47 -6 140 -18v-90q-84 12 -125 19q-77 11 -125 11t-77 -25q-31 -25 -31 -71q0 -136 212 -136q30 0 81 3q52 3 68 3v-90h-241 q-120 0 -120 -94q0 -42 36 -74q35 -30 77 -30q55 0 125 16q82 20 123 29z" />
<glyph unicode="&#x1885;" horiz-adv-x="947" d="M905 552q0 -92 -27 -229q-15 -76 -46 -227l-62 -53q-1 44 -4 132q-8 92 -32 136q-34 63 -104 63q-48 0 -107 -40q-65 -44 -65 -87q0 -51 66 -108q51 -44 113 -70h-108q-19 0 -60 26q-36 23 -52 42q-21 27 -39 95q-19 71 -36 97q-28 45 -89 45q-39 0 -79 -33 q-41 -35 -41 -73q0 -43 32 -75q23 -23 72 -46q26 -11 78 -32l-85 -23q-188 60 -188 154q0 91 73 157q71 65 162 65q140 0 180 -112q76 112 197 112q100 0 150 -54l27 99q22 76 47 76q27 0 27 -37z" />
<glyph unicode="&#x1886;" horiz-adv-x="972" d="M896 761l-57 -134q-17 -40 -32.5 -77t-23.5 -56.5t-10 -23.5l-30 87q-15 39 -38 58q-26 20 -77 20q-38 0 -97 -25q-71 -30 -71 -65q0 -22 53 -69l-93 -9q-26 26 -46 77q-19 52 -31 64q-25 27 -82 27q-31 0 -71 -20q-47 -23 -47 -55q0 -46 73 -76l105 -33q-77 -15 -84 -15 q-39 0 -106 33q-76 37 -76 77q0 76 87 121q70 35 142 35q135 0 175 -79q75 79 192 79q25 0 73 -20q47 -19 72 -19q5 0 25 62t48 62q27 0 27 -26zM902 489l28 -20q-3 -24 -78 -141q-68 -106 -96 -141q-28 97 -43 118q-29 42 -97 42q-40 0 -97 -25q-71 -29 -71 -64 q0 -24 52 -70l-92 -8q-26 26 -46 76q-19 52 -31 64q-25 27 -83 27q-32 0 -70 -19q-47 -24 -47 -56q0 -44 72 -76q35 -11 106 -32q-73 -16 -84 -16q-39 0 -106 34q-77 38 -77 77q0 75 88 120q68 35 142 35q135 0 175 -79q75 79 192 79q24 0 73 -20q48 -19 74 -19q18 0 56 56 q38 57 60 58zM899 172l27 -20q-8 -44 -141 -282q-5 18 -15 51t-13 44q-17 47 -39 66q-28 24 -82 24q-38 0 -97 -25q-70 -30 -70 -64q0 -26 50 -67q40 -34 71 -49h-106q-2 0 -55 37q-31 20 -46 68q-17 57 -27 69q-25 31 -87 31q-31 0 -71 -20q-47 -23 -47 -55q0 -46 73 -76 q70 -22 105 -32q-73 -16 -84 -16q-39 0 -106 33q-76 37 -76 77q0 76 87 121q70 35 142 35q135 0 176 -80q74 80 191 80q25 0 74 -20q51 -20 74 -20q15 0 42 44q28 45 50 46z" />
<glyph unicode="&#x1887;" horiz-adv-x="982" d="M982 277q0 -54 -19 -73q-44 -44 -274 -155q20 27 60 80q66 84 63 89h-385l-86 -299q-38 171 -74 344q-30 143 -41 175q-18 47 -45 47h-1q-38 -1 -98 -37q-47 -28 -82 -60q5 80 57 164q59 93 124 93q66 0 100 -109q21 -67 25 -148h624q52 0 52 -111z" />
<glyph unicode="&#x1888;" horiz-adv-x="879" d="M879 477q0 -121 -26 -176q-10 111 -30 164q-36 95 -117 95q-152 0 -152 -228q0 -74 28 -207q34 -165 73 -165q21 0 38 39q3 10 9.5 29t10.5 28q20 -20 20 -70q0 -57 -18 -98q-25 -54 -75 -54q-39 0 -86 170q-36 138 -42 214h-85l-86 -299q-38 171 -74 344 q-30 143 -41 175q-18 47 -45 47h-1q-38 -1 -98 -37q-47 -28 -82 -60q5 80 57 164q59 93 124 93q66 0 100 -109q21 -67 25 -148h206q6 164 30 227q43 115 175 115q162 0 162 -253z" />
<glyph unicode="&#x188a;" horiz-adv-x="888" d="M888 391v-164q-34 124 -57 182q-52 127 -113 127q-77 0 -125 -81q-43 -68 -43 -151q0 -134 146 -229l-76 -115q-73 121 -107 258h-86l-86 -299q-38 171 -74 344q-30 143 -41 175q-18 47 -45 47h-1q-38 -1 -98 -37q-47 -28 -82 -60q5 80 57 164q59 93 124 93 q66 0 100 -109q21 -67 25 -148h206q57 301 206 301q59 0 118 -122q52 -108 52 -176zM438 -252q-30 -7 -61 -52q-27 -41 -35 -76q-9 36 -35 76q-30 46 -61 52q32 8 63 52q26 39 33 76q8 -38 34 -76q31 -45 62 -52z" />
<glyph unicode="&#x188b;" horiz-adv-x="726" d="M726 388v-170h-129q-1 -6 -1 -33v-34q1 -17 1 -39q0 -186 -26 -200q17 -15 83 -60q43 -30 43 -44q0 -6 -12 -46q-10 -37 -68 -37q-18 0 -29 4q-12 4 -33 17q-19 12 -19 17q0 2 3 2t18 -3.5t20 -3.5q28 0 46 21q6 6 6 17q0 16 -30 42q-29 26 -58 38h-345q-34 0 -48 -27 l-21 -57v149q0 106 89 106h295q43 0 43 171h-554v170h726z" />
<glyph unicode="&#x188c;" horiz-adv-x="513" d="M513 388v-170h-345l260 -296l-171 -217q-66 128 -209 338l99 1l110 -153l61 67l-175 260h-143v170h513z" />
<glyph unicode="&#x188d;" horiz-adv-x="811" d="M0 388h811l-1 -170h-67q-62 -220 -140 -386q-85 97 -144 191q-75 121 -75 195h-42v-30q1 -313 -149 -313q-87 0 -146 126q-47 105 -47 204v183zM683 218h-256v-9q-2 -47 73 -162q62 -88 93 -133q33 93 53 173q11 38 23 80.5t14 50.5zM299 218h-256v-9v-5q0 -56 39 -107 q43 -55 101 -55q69 0 96 57q18 38 20 119z" />
<glyph unicode="&#x188e;" horiz-adv-x="470" d="M470 388v-170h-390l110 -221q19 -39 35 -76q28 -55 52 -55q19 0 32.5 11t13.5 28q0 32 -43 79q-42 48 -42 60q0 18 38 18q37 0 96 -8q65 -11 92 -22l5 -23q-14 -16 -23 -22q-24 1 -62 18q-36 18 -61 18q-21 0 -28 -9q3 -5 49 -58q27 -32 27 -75q0 -30 -37 -61 q-37 -32 -65 -32q-35 0 -77 33q-40 32 -54 65q-42 100 -138 332v170h470z" />
<glyph unicode="&#x188f;" horiz-adv-x="470" d="M470 388v-170h-385q8 -75 42 -169q40 -109 82 -143l4 -2q2 0 2 2l-1 4q0 3 -0.5 7.5t-0.5 7.5q0 57 61 57q33 0 56 -20q36 -32 36 -76q0 -38 -31 -66q-32 -29 -68 -29q-59 0 -166 185q-101 176 -101 242v170h470z" />
<glyph unicode="&#x1890;" horiz-adv-x="470" d="M470 388v-170h-390q26 -63 78 -191q62 -138 110 -138q23 0 38.5 14.5t15.5 37.5q0 24 -18 53q-10 15 -62 78q-24 30 -84 100q-12 15 -36 44q178 -123 191 -132q110 -89 110 -151q0 -53 -54 -100q-53 -44 -109 -44q-36 0 -76 32q-35 29 -54 64q-17 32 -74 181 q-56 147 -56 152v170h470z" />
<glyph unicode="&#x1891;" horiz-adv-x="513" d="M513 388v-170h-426q56 -104 170 -327l61 67l-101 141l56 -1l155 -176l-171 -217q-70 135 -257 513v170h513z" />
<glyph unicode="&#x1892;" horiz-adv-x="426" d="M455 388h57v-170h-85l1 -3q-4 150 -28 221q-40 124 -155 124q-79 0 -135 -45q-57 -46 -62 -127h242q39 -110 39 -257q0 -256 -127 -256q-82 0 -142 102q-53 89 -53 179h20h22q3 -51 48 -84q42 -30 95 -30q57 0 78 64q11 36 12 112h-278q-4 156 -4 180q0 134 60 225 q71 107 196 107q107 0 160 -125q38 -92 39 -217z" />
<glyph unicode="&#x1893;" horiz-adv-x="426" d="M455 388h57v-170h-85l1 -3v5l-1 11l-4 36q-5 43 -16 130q-14 78 -44 114q-40 49 -118 49q-81 0 -135 -45q-57 -46 -62 -127h242q39 -115 39 -257q0 -79 -20 -119q-29 -56 -107 -56q-9 0 -32 0.5t-28 0.5q-32 0 -46 -9q-17 -9 -17 -37q0 -34 73 -40q17 -1 50.5 -1.5 t50.5 -0.5q7 0 7 -6q0 -28 -27 -46q-32 -20 -91 -20q-15 0 -22 1q-118 7 -118 144v12q0 40 24 77q28 42 71 42q1 0 33 -0.5t61 -0.5q60 0 79 49q11 27 12 97h-282v170q0 137 58 231q69 111 198 111q107 0 160 -125q38 -92 39 -217z" />
<glyph unicode="&#x1894;" horiz-adv-x="426" d="M339 388h87v-170h-51l-119 -299v641h-11h-5q-91 0 -139 -72q-41 -65 -41 -169q0 -158 43 -400q-68 8 -90 118q-13 59 -13 181v170q0 136 60 230q70 112 196 112q89 0 89 -203q0 -65 -6 -139zM399 -252q-30 -7 -61 -52q-27 -41 -35 -76q-9 36 -35 76q-31 46 -61 52 q32 8 62 52q27 41 34 76q7 -35 34 -76q31 -45 62 -52zM194 -252q-30 -8 -61 -52q-27 -41 -35 -76q-9 36 -35 76q-31 46 -61 52q32 8 63 52q26 39 33 76q7 -35 34 -76q31 -45 62 -52z" />
<glyph unicode="&#x1895;" horiz-adv-x="513" d="M515 388v-170h-86l-85 -299l-13 469q-14 132 -26 164q-32 93 -115 93q-144 0 -144 -250q0 -35 3 -75q25 -367 208 -537q2 -2 3 -2q7 0 20 40q14 39 19 39q15 0 15 -66q0 -47 -9 -92q-3 -18 -8 -54q-9 -28 -38 -28q-28 0 -90 98q-69 107 -114 245q-54 163 -54 311v11 l2 103q1 169 26 235q41 107 161 107q100 0 152 -91q44 -76 44 -184q0 -20 -11 -67h140z" />
<glyph unicode="&#x1896;" horiz-adv-x="725" d="M726 388v-170h-129q-1 -31 -2.5 -91t-1.5 -90q-8 -147 -31 -159q-2 -86 -30 -128q-23 -32 -73 -50l-93 -30q-15 -7 -23 -18q-3 -8 -11 -24v74q0 18 11 31q7 7 33 21l145 76q19 11 20 46h-345q-34 0 -48 -27l-21 -57v149q0 106 89 106h295q43 0 43 171h-554v170h726z" />
<glyph unicode="&#x1897;" horiz-adv-x="362" d="M420 455q0 -22 -14 -75q-16 -58 -30 -58q-11 0 -11 87q0 80 -31 114q-31 37 -110 37q-168 0 -168 -213q0 -309 111 -309q15 0 28 39q14 39 16 39q16 0 16 -66q0 -174 -55 -174q-93 0 -140 161q-32 113 -32 231q0 215 22 293q46 169 202 169q100 0 153 -92q43 -76 43 -183 z" />
<glyph unicode="&#x1898;" horiz-adv-x="512" d="M513 388v-170h-345l231 -255h96v-85h-102l-136 -173q-70 135 -257 513v170h513zM257 -109l61 67l-175 260h-56q56 -104 170 -327z" />
<glyph unicode="&#x1899;" horiz-adv-x="597" d="M597 388v-170l-90 -1q0 -112 -34 -208q-47 -134 -134 -134q-96 0 -136 124q-27 83 -27 204q0 188 224 188q28 0 63 -3q-4 79 -64 127q-57 45 -137 45q-105 0 -161 -104q-42 -81 -42 -198q0 -124 18 -203q21 -95 80 -190q15 -26 100 -63q75 -34 75 -66q0 -27 -37 -27 q-38 0 -96 31q-101 52 -144 135q-39 71 -50 205q-5 75 -5 308q0 115 67 221q76 121 184 121q127 0 197 -112q59 -95 59 -230h90zM435 143q0 49 -24 61q-16 8 -71 8q-46 0 -65 -12q-28 -15 -28 -57q0 -57 22.5 -79t79.5 -22q55 0 73 26q13 19 13 75z" />
<glyph unicode="&#x189a;" horiz-adv-x="1020" d="M979 565q0 -38 -28 -66t-66 -28q-39 0 -67 28.5t-28 66.5t28.5 65.5t66.5 27.5t66 -28t28 -66zM750 586q-7 -10 -43 -20q-43 -12 -60 -31q-27 -27 -76 -96v11q0 18 -1 29q-2 38 -2 39q0 52 29 102q35 56 83 56q28 0 47 -33q15 -22 23 -57zM1020 388v-170h-380l-85 -299 q-3 26 -47 348l-16 130q-14 78 -44 114q-40 49 -118 49q-70 0 -115 -61q-39 -53 -44 -128q78 -59 105 -123q24 -56 24 -152v-8l-1 -169l-11 -6l-5 6q-32 161 -57 212q-54 115 -167 115q-31 0 -42 6q-17 9 -17 36q0 47 42 73q36 22 86 24q6 158 35 228q48 117 179 117 q106 0 159 -125q38 -90 40 -217h479zM940 566q0 23 -16.5 40t-39.5 17t-40 -17t-17 -39q0 -23 17 -40.5t40 -17.5q22 0 39 17t17 40z" />
<glyph unicode="&#x189b;" horiz-adv-x="768" d="M306 388h462v-170h-341l-86 -299q-38 171 -74 344q-30 143 -41 175q-18 47 -45 47h-1q-38 -1 -98 -37q-47 -28 -82 -60q5 80 57 164q59 93 124 93q66 0 100 -109q21 -67 25 -148zM694 40q0 -38 -28 -66t-66 -28q-39 0 -67 28.5t-28 66.5t28.5 66t66.5 28q39 0 66.5 -28 t27.5 -67zM642 41q0 17 -12.5 29t-29.5 12t-29.5 -12t-12.5 -30q0 -17 12.5 -29.5t29.5 -12.5t29.5 13t12.5 30z" />
<glyph unicode="&#x189c;" horiz-adv-x="597" d="M379 953q0 -38 -28 -66t-67 -28q-38 0 -66 28t-28 67q0 38 28 66t67 28q38 0 66 -28t28 -67zM462 857v-85l-342 1v84h342zM597 388v-170h-125l-86 -342l-107 512q-71 -176 -151 -176q-68 0 -128 185q2 58 4 85q9 84 30 86h1q36 0 52 -46l28 -87q19 -48 60 -48 q64 0 109 428l66 -427h247zM326 954q0 17 -12.5 29.5t-29.5 12.5t-29.5 -13t-12.5 -30t12.5 -29.5t29.5 -12.5t29.5 13t12.5 30z" />
<glyph unicode="&#x189d;" horiz-adv-x="597" d="M444 857v-85l-341 1v84h341zM552 565q0 -38 -28 -66t-66 -28t-66 28.5t-28 66.5t28 65.5t66 27.5t66 -28t28 -66zM597 388v-170h-125l-86 -342l-107 512q-71 -176 -151 -176q-68 0 -128 185q2 58 4 85q9 84 30 86h1q36 0 52 -46l28 -87q19 -48 60 -48q64 0 109 428 l66 -427h247zM514 566q0 23 -17 40t-40 17q-22 0 -39.5 -17t-17.5 -39q0 -23 17 -40.5t40 -17.5t40 17t17 40z" />
<glyph unicode="&#x189e;" horiz-adv-x="511" d="M406 565q0 -38 -28 -66t-66 -28t-66 28.5t-28 66.5t28 65.5t67 27.5q37 0 65 -28t28 -66zM511 388v-170h-298l170 -342l-128 -127l-128 469l-127 424h42l85 -253zM368 566q0 23 -17 40t-39 17q-23 0 -40.5 -17t-17.5 -39q0 -23 17 -40.5t40 -17.5t40 17t17 40z" />
<glyph unicode="&#x189f;" horiz-adv-x="555" d="M501 565q0 -38 -28 -66t-67 -28q-38 0 -66 28t-28 67q0 38 28.5 65.5t66.5 27.5t66 -28t28 -66zM245 565q0 -38 -28 -66t-67 -28q-38 0 -66 28t-28 67q0 38 28.5 65.5t66.5 27.5t66 -28t28 -66zM555 388v-170h-470l171 -342l-128 -127l-128 469v171zM463 566q0 23 -17 40 t-40 17t-40 -17t-17 -39q0 -23 17 -40.5t40 -17.5t40 17t17 40zM207 566q0 23 -17 40t-40 17t-40 -17t-17 -39q0 -23 17 -40.5t40 -17.5t40 17t17 40z" />
<glyph unicode="&#x18a0;" horiz-adv-x="513" d="M408 586q-5 -10 -42 -20q-43 -12 -60 -31q-25 -25 -77 -96q2 14 0 40q-2 38 -2 39q0 52 29 102q35 56 83 56q27 0 47 -33q14 -23 22 -57zM513 388v-170h-345l260 -296l-171 -217q-70 135 -257 513v170h513zM257 -109l61 67l-175 260h-56q56 -104 170 -327z" />
<glyph unicode="&#x18a1;" horiz-adv-x="1024" d="M979 565q0 -38 -28 -66t-66 -28q-39 0 -67 28.5t-28 66.5t28.5 65.5t66.5 27.5t66 -28t28 -66zM750 586q-7 -10 -43 -20q-43 -12 -60 -31q-27 -27 -76 -96v11q0 18 -1 29q-2 38 -2 39q0 52 29 102q35 56 83 56q28 0 47 -33q15 -22 23 -57zM1024 388v-170h-427l-86 -299 l-85 299q-36 -87 -137 -87q-16 0 -25 1q-92 11 -264 256q203 251 304 258h6q62 0 135 -100q72 -98 71 -158h508zM940 566q0 23 -16.5 40t-39.5 17t-40 -17t-17 -39q0 -23 17 -40.5t40 -17.5q22 0 39 17t17 40zM435 380q1 6 1 17q0 51 -45 86q-44 33 -100 33q-43 0 -99 -41 l-108 -86q24 -36 47 -61q59 -64 129 -85q35 -9 59 -9q93 0 116 146z" />
<glyph unicode="&#x18a2;" horiz-adv-x="597" d="M597 388v-170h-125l-86 -342l-107 512q-71 -176 -151 -176q-68 0 -128 185q2 58 4 85q9 84 30 86h1q36 0 52 -46l28 -87q19 -48 60 -48q64 0 109 428l66 -427h247zM476 -252q-30 -7 -61 -52q-28 -42 -35 -76q-11 41 -35 77q-30 45 -61 51q33 7 62 52q27 39 34 76 q8 -40 34 -76q28 -43 62 -52zM220 -252q-30 -7 -61 -52q-28 -42 -35 -76q-11 41 -35 77q-30 45 -61 51q33 7 62 52q27 39 34 76q8 -40 34 -76q28 -43 62 -52z" />
<glyph unicode="&#x18a3;" horiz-adv-x="511" d="M511 388v-170h-298l170 -342l-128 -127l-128 469l-127 424h42l85 -253z" />
<glyph unicode="&#x18a4;" horiz-adv-x="597" d="M356 906q0 -37 -29 -66q-28 -28 -65 -28q-39 0 -67 28.5t-28 66.5t28.5 66t66.5 28t66 -28.5t28 -66.5zM597 388v-170h-125l-86 -342l-107 512q-71 -176 -151 -176q-68 0 -128 185q2 58 4 85q9 84 30 86h1q36 0 52 -46l28 -87q19 -48 60 -48q64 0 109 428l66 -427h247z M323 -182q0 -3 -0.5 -8t-1 -14t-0.5 -17q-1 -24 0 -40q-52 71 -77 96q-19 21 -60 31q-39 11 -43 21q8 34 23 56q19 34 47 34q49 0 82 -57q30 -50 30 -102zM317 907q0 23 -16.5 40t-39.5 17t-40 -16.5t-17 -39.5t17 -40t40 -17q22 0 39 17t17 39z" />
<glyph unicode="&#x18a5;" horiz-adv-x="597" d="M356 906q0 -37 -29 -66q-28 -28 -65 -28q-39 0 -67 28.5t-28 66.5t28.5 66t66.5 28t66 -28.5t28 -66.5zM597 388v-170h-125l-86 -342l-107 512q-71 -176 -151 -176q-68 0 -128 185q2 58 4 85q9 84 30 86h1q36 0 52 -46l28 -87q19 -48 60 -48q64 0 109 428l66 -427h247z M317 907q0 23 -16.5 40t-39.5 17t-40 -16.5t-17 -39.5t17 -40t40 -17q22 0 39 17t17 39z" />
<glyph unicode="&#x18a6;" horiz-adv-x="427" d="M0 388h427v-170h-68q-62 -220 -140 -386q-87 98 -143 191q-76 121 -76 195v170zM290 218h-230v-9q73 -141 140 -261q38 106 90 270z" />
<glyph unicode="&#x18a7;" horiz-adv-x="427" d="M213 388h214v-170h-157q49 -40 68 -80q20 -42 22 -110v-7q0 -99 -57 -161q-33 -36 -120 -81q-74 -39 -95 -73q-2 16 20 106q23 100 23 161q0 13 -2 37q-7 75 -54 143q-44 62 -75 65v170h86q0 -8 57 -133q60 -132 67 -219q4 -33 4 -63q0 -63 -35 -139q66 48 82 75 q17 31 22 109v9q0 44 -16 83q-8 20 -35 66q-19 31 -19 45v167z" />
<glyph unicode="&#x18a8;" horiz-adv-x="768" d="M708 537q0 -38 -28 -66t-66 -28t-66 28.5t-28 66.5t28.5 66t66.5 28t65.5 -28.5t27.5 -66.5zM455 388h313v-170h-341l1 -3q0 1 -0.5 6.5t-2 18.5t-2.5 27q-15 129 -15 130q-14 77 -45 114q-40 49 -118 49q-81 0 -135 -45q-57 -46 -62 -127h242q39 -110 39 -257 q0 -256 -127 -256q-88 0 -150 125q-52 105 -52 205v183q0 137 58 231q69 111 198 111q107 0 160 -125q38 -92 39 -217zM670 538q0 23 -16.5 40t-39.5 17t-40 -17t-17 -39q0 -23 17 -40t39 -17q23 0 40 17t17 39zM282 218h-239v-9v-5q0 -58 43 -108q46 -54 105 -54 q58 0 79 64q11 35 12 112z" />
<glyph unicode="&#x18a9;" horiz-adv-x="849" d="M276 586q19 0 19 -21t-19 -21q-18 0 -18 21t18 21zM231 536q19 0 19 -21t-19 -21q-18 0 -18 21t18 21zM326 616q19 0 19 -21t-19 -21q-18 0 -18 21t18 21zM201 486q19 0 19 -21t-19 -21q-18 0 -18 21t18 21zM386 636q19 0 19 -21t-19 -21q-18 0 -18 21t18 21zM176 426 q19 0 19 -21t-19 -21q-18 0 -18 21t18 21zM172 366q18 0 18 -21t-18 -21q-19 0 -19 21t19 21zM454 646q21 0 21 -18q0 -19 -21 -19t-21 19q0 18 21 18zM195 282q0 -18 -21 -18t-21 18q0 19 21 19t21 -19zM514 636q21 0 21 -18q0 -19 -21 -19t-21 19q0 18 21 18zM199 241 q21 0 21 -19q0 -18 -21 -18t-21 18q0 19 21 19zM574 616q21 0 21 -19q0 -18 -21 -18t-21 18q0 19 21 19zM234 191q20 0 20 -19q0 -18 -20 -18q-21 0 -21 18q0 19 21 19zM650 568q0 -19 -21 -19t-21 19q0 18 21 18t21 -18zM0 99l164 1h2q57 0 57 -70q0 -51 -27 -121 q-3 27 -10 46q-18 52 -58 71h-128v73zM300 127q0 -18 -21 -18t-21 18q0 19 21 19t21 -19zM674 541q21 0 21 -18q0 -19 -21 -19t-21 19q0 18 21 18zM334 116q20 0 20 -19q0 -18 -20 -18q-21 0 -21 18q0 19 21 19zM709 491q21 0 21 -18q0 -19 -21 -19t-21 19q0 18 21 18z M394 91q21 0 21 -19q0 -18 -21 -18t-21 18q0 19 21 19zM755 413q0 -19 -21 -19t-21 19q0 18 21 18t21 -18zM459 86q21 0 21 -19q0 -18 -21 -18t-21 18q0 19 21 19zM744 366q20 0 20 -19q0 -18 -20 -18q-21 0 -21 18q0 19 21 19zM736 316q19 0 19 -21t-19 -21q-18 0 -18 21 t18 21zM527 95q18 0 18 -20q0 -21 -18 -21q-19 0 -19 21q0 20 19 20zM711 255q19 0 19 -20q0 -21 -19 -21q-18 0 -18 21q0 20 18 20zM586 121q19 0 19 -21t-19 -21q-18 0 -18 21t18 21zM636 156q19 0 19 -21t-19 -21q-18 0 -18 21t18 21zM682 200q18 0 18 -20q0 -21 -18 -21 q-19 0 -19 21q0 20 19 20z" />
<glyph unicode="&#x202f;" horiz-adv-x="201" />
<glyph unicode="&#x2048;" horiz-adv-x="830" d="M788 607v-103h-102v103h102zM788 243v-103h-102v103h102zM606 585v-58l-388 -27h-163v111h163zM607 233v-87q-11 -1 -26 -1q-54 0 -92 16q-28 10 -58 35q-16 13 -64 67q-42 47 -65 59q-25 14 -54 14q-56 0 -93 -43q-38 -44 -38 -99q0 -123 148 -147l-11 -92 q-102 13 -157 74t-55 163q0 97 51 163q55 73 150 73q55 0 105 -33q30 -21 82 -77q35 -40 44 -47q27 -24 56 -31q22 -5 77 -7z" />
<glyph unicode="&#x2049;" horiz-adv-x="830" d="M788 411v-103h-102v103h102zM788 78v-103h-102v103h102zM607 400v-86q-11 -1 -26 -1q-53 0 -92 15q-29 10 -58 36q-15 12 -64 66q-42 47 -65 59q-25 14 -54 14q-56 0 -93 -43q-38 -43 -38 -98q0 -125 148 -147l-11 -92q-102 12 -157 73.5t-55 163.5q0 96 51 163 q55 72 150 72q55 0 105 -33q34 -23 82 -77q38 -42 44 -47q24 -22 56 -31q22 -5 77 -7zM606 57v-59l-388 -27h-163v111h163z" />
<glyph unicode="&#x25fc;" horiz-adv-x="530" d="M0 530h530v-530h-530v530z" />
<glyph unicode="&#xf300;" horiz-adv-x="692" d="M650 438v-11q0 -62 -31 -109q-30 -42 -104 -102h-65q107 110 107 214v8q-1 58 -24 105q-24 52 -83 116h65q129 -110 135 -221zM482 441q0 -67 -105 -281q-111 -226 -125 -306q-1 -13 -10 -32t-17 -19q-9 0 -16 54q-5 43 -5 61v7q3 68 81 242q78 173 78 223q0 45 -35 75 q-34 31 -79 31q-52 0 -81 -50q-25 -43 -25 -98q0 -46 61 -125l-58 -6q-43 32 -72 80q-32 53 -32 103q0 102 50 169q56 72 155 72q96 0 162 -51q73 -55 73 -149z" />
<glyph unicode="&#xf301;" horiz-adv-x="924" d="M882 289q0 -95 -51 -163q-55 -72 -149 -72q-67 0 -283 105q-225 112 -305 124q-13 1 -32 10t-19 17q0 10 54 17q43 5 61 5h7q69 -3 242 -82q174 -77 224 -77q43 0 75 35q30 33 30 78q0 52 -50 82q-43 25 -98 25q-45 0 -125 -62l-6 59q32 43 80 72q53 31 103 31 q104 0 169 -49q73 -55 73 -155z" />
<glyph unicode="&#xf302;" horiz-adv-x="692" d="M650 182v-11q0 -62 -31 -109q-30 -42 -104 -102h-65q107 110 107 214v8q-1 58 -24 105q-23 49 -83 116q107 110 107 215v8q-1 58 -24 105q-24 52 -83 116h65q129 -110 135 -221v-11q0 -63 -31 -110q-30 -42 -104 -102q129 -110 135 -221zM482 185q0 -71 -105 -281 q-111 -222 -125 -306q-1 -12 -10 -32q-9 -19 -17 -19q-9 0 -16 54q-5 43 -5 61v7q3 73 81 242q78 166 78 223q0 45 -35 75q-34 31 -79 31q-52 0 -81 -50q-25 -43 -25 -98q0 -46 61 -125l-58 -6q-43 32 -72 80q-32 53 -32 103q0 102 50 169q56 72 155 72q7 0 21 2q14 0 30 -6 q65 142 65 197q0 44 -35 76q-35 30 -79 30q-53 0 -81 -51q-25 -41 -25 -97q0 -49 44 -108l-58 -6q-87 63 -87 166t50 168q55 73 155 73q96 0 162 -51q73 -55 73 -149q0 -67 -102 -275q58 -43 74 -66q28 -38 28 -103z" />
<glyph unicode="&#xf303;" horiz-adv-x="692" d="M650 55v-11q0 -64 -31 -110q-31 -45 -104 -103h-65q107 110 107 215v8q-1 52 -24 88q-18 30 -83 99q107 110 107 244v12q-1 51 -24 89q-18 30 -83 99q107 110 107 244v12q-1 55 -24 96q-20 40 -83 109h65q35 -36 66 -74q66 -83 69 -130v-12q0 -136 -135 -245 q78 -65 100 -93q32 -41 35 -94v-12q0 -136 -135 -245q79 -67 100 -94q32 -40 35 -92zM482 58q0 -72 -105 -282q-111 -221 -125 -306q-1 -13 -10 -32q-9 -20 -17 -20q-9 1 -16 55q-5 43 -5 61v7q3 73 81 242q78 167 78 224q0 43 -35 75q-34 30 -79 30q-52 0 -81 -50 q-25 -43 -25 -98q0 -46 61 -125l-58 -6q-43 32 -72 80q-32 55 -32 103q0 102 50 169q55 73 155 73q14 0 21 1h11q13 -4 19 -7q65 144 65 198q0 45 -35 75q-34 31 -79 31q-53 0 -81 -51q-25 -41 -25 -98q0 -49 44 -108l-58 -6q-87 63 -87 167q0 102 50 169q56 72 155 72l27 2 q9 1 27 -6q62 138 62 197q0 45 -35 75q-34 31 -79 31q-53 0 -81 -51q-25 -41 -25 -98q0 -49 44 -108l-58 -6q-87 63 -87 167q0 103 50 168q55 73 155 73q23 0 51 -5q34 -6 82 -26q58 -44 74 -66q28 -38 28 -103q0 -67 -102 -275q55 -26 77 -63q25 -38 25 -106 q0 -67 -102 -275q58 -43 74 -66q28 -38 28 -102z" />
<glyph unicode="&#xf305;" horiz-adv-x="256" d="M0 388h256v-170h-85l-86 -299l-85 299v170z" />
<glyph unicode="&#xf306;" horiz-adv-x="512" d="M306 388h206v-170h-85l-86 -299q-38 171 -74 344q-30 143 -41 175q-18 47 -45 47h-1q-38 -1 -98 -37q-47 -28 -82 -60q5 80 57 164q59 93 124 93q66 0 100 -109q21 -67 25 -148z" />
<glyph unicode="&#xf307;" horiz-adv-x="512" d="M0 388h512v-170h-85l-86 -299l-85 299h-85l-86 -299q-10 37 -47 158q-38 131 -38 141v170z" />
<glyph unicode="&#xf308;" horiz-adv-x="428" d="M428 815q-85 -124 -151 -284q-49 -117 -104 -303q-29 -103 -86 -309l-87 299h1v170q45 -174 61 -261q14 175 36 324q59 353 159 500l-26 120q65 -90 197 -256z" />
<glyph unicode="&#xf30a;" horiz-adv-x="896" d="M896 388v-170h-299l171 -342l-128 -127l-128 469h-85l-86 -299q-38 171 -74 344q-30 143 -41 175q-18 47 -45 47h-1q-38 -1 -98 -37q-47 -28 -82 -60q5 80 57 164q59 93 124 93q66 0 100 -109q21 -67 25 -148h590z" />
<glyph unicode="&#xf30c;" horiz-adv-x="427" d="M0 388h427v-170h-85q0 -134 -15 -200q-33 -143 -134 -143q-87 0 -146 126q-47 105 -47 204v183zM298 186l1 32h-256v-9v-5q0 -55 39 -106q44 -56 101 -56q112 0 115 144z" />
<glyph unicode="&#xf30d;" horiz-adv-x="683" d="M683 388v-170h-85v-30q1 -313 -149 -313q-88 0 -146 133q-47 109 -47 210h-85l-86 -299l-85 299v170h683zM555 218h-256v-9v-5q0 -56 39 -107q43 -55 101 -55q69 0 96 57q18 38 20 119z" />
<glyph unicode="&#xf310;" horiz-adv-x="1024" d="M1024 388v-170h-298l170 -342l-128 -127l-128 469h-42v-30q1 -313 -149 -313q-88 0 -146 133q-47 109 -47 210h-85l-86 -299l-85 299v170h1024zM555 218h-256v-9v-5q0 -56 39 -107q43 -55 101 -55q69 0 96 57q18 38 20 119z" />
<glyph unicode="&#xf312;" d="M939 388v-170h-342q21 -51 64 -153q53 -101 110 -101q23 0 40 30q13 25 14 53q27 -104 27 -157q0 -36 -17 -65q-21 -34 -56 -34q-69 0 -157 181q-37 82 -110 246h-85l-86 -299q-38 171 -74 344q-30 143 -41 175q-18 47 -45 47h-1q-38 -1 -98 -37q-47 -28 -82 -60 q5 80 57 164q59 93 124 93q66 0 100 -109q21 -67 25 -148h633z" />
<glyph unicode="&#xf313;" horiz-adv-x="556" d="M556 289v-165q0 -78 -18 -78q-13 0 -22 65q-3 27 -10 80q-4 19 -43 23l-51 3l-327 1q21 -51 64 -153q53 -101 110 -101q23 0 40 30q13 25 14 53q27 -104 27 -157q0 -36 -17 -65q-21 -34 -56 -34q-69 0 -157 181q-37 82 -110 246v170h443q34 -1 67 -22q46 -28 46 -77z" />
<glyph unicode="&#xf314;" horiz-adv-x="267" d="M11 388h256v-170h-85l-86 -299l-85 299v170zM192 -252q-30 -8 -60 -52q-28 -40 -36 -76q-9 36 -35 76q-30 46 -61 52q33 8 63 52q26 39 33 76q7 -35 34 -76q31 -45 62 -52z" />
<glyph unicode="&#xf316;" horiz-adv-x="341" d="M0 388h341v-170h-85l-85 -299l-86 299h-85v170zM267 -252q-30 -7 -61 -52q-27 -38 -35 -76q-9 36 -35 76q-31 46 -61 52q32 8 62 52q27 41 34 76q7 -37 33 -76q31 -45 63 -52z" />
<glyph unicode="&#xf317;" horiz-adv-x="853" d="M853 269l-6 -316q-1 -113 -29 -199q-29 -90 -71 -103q-24 -8 -56 -34l-2 -3q-2 -3 -6.5 -9.5t-9.5 -12.5q-10 -16 -26 -16q-24 0 -24 82v78q6 55 34 55q5 0 15 -4.5t13 -4.5q11 0 36 9q11 4 18 13q11 14 12 15q12 12 19 135q7 94 7 178q0 53 -10 63q-20 23 -102 23h-324 l171 -342l-128 -127l-128 469h-85l-86 -299l-85 299v170h723q84 0 111 -31q19 -20 19 -88z" />
<glyph unicode="&#xf318;" horiz-adv-x="512" d="M245 560q-79 0 -135 -45q-57 -46 -62 -127h242q39 -110 39 -257q0 -256 -127 -256q-88 0 -150 125q-52 104 -52 205v183q0 136 59 231q69 111 197 111t189 -129q36 -77 61 -244q6 -35 6 -88l-6 -401q-1 -113 -29 -200q-29 -88 -72 -102q-23 -8 -55 -35q-3 -3 -18 -25 q-10 -15 -27 -15q-24 0 -24 82q0 74 1 78q6 55 34 55q5 0 14.5 -4.5t13.5 -4.5q10 0 36 9q12 4 18 12q3 4 5.5 8t4.5 6l1 2q12 11 20 134q6 100 6 179q0 139 -6 220q-17 150 -34 192q-41 101 -150 101zM282 218h-239v-9v-5q0 -58 42 -108q47 -54 106 -54q58 0 79 64 q10 34 12 112z" />
<glyph unicode="&#xf319;" horiz-adv-x="512" d="M512 269l-6 -401q-1 -113 -29 -200q-29 -88 -72 -102q-23 -8 -55 -35q-3 -3 -18 -25q-10 -15 -27 -15q-24 0 -24 82q0 74 1 78q6 55 34 55q5 0 14.5 -4.5t13.5 -4.5q10 0 36 9q12 4 18 12q3 4 5.5 8t4.5 6l1 2q12 11 20 134q6 100 6 179q0 139 -6 220q-17 150 -34 192 q-41 101 -150 101q-81 0 -135 -45q-57 -46 -62 -127h242q39 -115 39 -257q0 -256 -127 -256q-32 0 -51 28q-9 17 -27 52q-16 28 -45 28q-13 0 -39 -9q-23 -9 -38 -11l-2 3q11 13 24 49q14 37 24 49q18 21 49 21q8 0 33 -22q26 -21 61 -21q58 0 79 64q11 35 12 112h-282v170 q0 137 58 231q70 111 198 111t189 -129q36 -77 61 -244q6 -35 6 -88z" />
<glyph unicode="&#xf31a;" horiz-adv-x="512" d="M0 388h512v-170h-85l-86 -299l-85 299h-85l-86 -299l-85 299v170zM441 -252q-29 -7 -61 -52q-28 -42 -35 -76q-11 41 -35 77q-30 45 -61 51q33 7 62 52q27 39 34 76q8 -39 33 -76q30 -43 63 -52zM202 -252q-30 -7 -61 -52q-28 -42 -35 -76q-11 41 -35 77q-30 45 -61 51 q31 7 62 52q27 39 34 76q8 -39 33 -76q30 -43 63 -52z" />
<glyph unicode="&#xf31c;" horiz-adv-x="597" d="M597 601q-116 -170 -164 -326q-30 -119 -91 -356l-87 299h-84l-86 -299l-85 299v170h256q45 -174 61 -261q9 98 24 193q38 229 103 392l-43 145q58 -81 196 -256z" />
<glyph unicode="&#xf31d;" horiz-adv-x="431" d="M470 455q0 -67 -3 -74l-40 -164q-2 7 -21 142q-14 96 -41 138q-41 63 -120 63q-96 0 -152 -74q-51 -68 -51 -167q0 -80 17 -123q13 -36 54 -71q34 -26 101 -78l-86 -128q-8 14 -37 65.5t-45 79.5q-46 85 -46 154v170q0 136 59 231q69 111 197 111q99 0 160 -91 q54 -79 54 -184zM442 -252q-30 -7 -61 -52q-29 -41 -36 -76q-9 39 -34 77q-30 45 -62 51q32 7 63 52q25 37 33 76q7 -37 34 -76q30 -43 63 -52zM220 -252q-30 -7 -61 -52q-28 -42 -35 -76q-11 41 -35 77q-30 45 -61 51q33 7 62 52q27 39 34 76q8 -40 34 -76q28 -43 62 -52z " />
<glyph unicode="&#xf320;" horiz-adv-x="256" d="M298 773l1 -129l-43 -85h-153l-39 -171h192v-170h-85l-86 -299l-85 299v170h21l65 299h170z" />
<glyph unicode="&#xf321;" horiz-adv-x="514" d="M514 731q-51 -133 -153 -401q-87 -246 -104 -408l-216 -48l48 90q-50 104 -66 163q-22 77 -23 172v67v107q0 112 23 169q36 87 132 87q61 0 103 -142q9 -29 41 -197q78 173 215 341zM244 339q0 64 -17 129q-26 89 -72 89q-89 0 -89 -239q0 -57 11 -156q17 -127 41 -128 q14 12 70 148t56 157z" />
<glyph unicode="&#xf322;" horiz-adv-x="256" d="M249 823q0 -40 -52 -214q-49 -169 -72 -219l43 382l-418 -1q63 29 211 77q159 52 210 52q33 0 55.5 -22t22.5 -55zM0 387l256 1v-170h-85l-86 -299l-85 299v169z" />
<glyph unicode="&#xf323;" horiz-adv-x="548" d="M492 772l-454 1q77 32 216 76q166 51 216 51q33 0 55.5 -22t22.5 -55q0 -39 -53 -296q-46 -224 -70 -311l-84 -297l-85 299h-256v170h256l88 -257q42 116 148 641z" />
<glyph unicode="&#xf324;" horiz-adv-x="597" d="M597 388v-170h-125l-86 -342l-149 512l-150 -512l-87 342v169l49 1l124 427l135 -427h289z" />
<glyph unicode="&#xf325;" horiz-adv-x="597" d="M597 815l-125 -597l-86 -342l-149 512l-150 -512l-87 342v169l49 1l124 427l135 -427q8 31 21 62q30 75 80 159q88 148 188 206z" />
<glyph unicode="&#xf328;" horiz-adv-x="597" d="M595 730q-29 -8 -60 -53q-29 -41 -36 -75q-9 38 -34 76q-31 46 -62 52q31 8 63 51q25 39 33 77q8 -38 34 -76q31 -45 62 -52zM399 730q-31 -8 -61 -53q-28 -42 -35 -75q-9 36 -35 76q-31 46 -61 52q32 8 62 51q27 41 34 77q7 -35 34 -76q31 -45 62 -52zM597 388v-170 h-125l-86 -342l-149 512l-150 -512l-87 342v169l49 1l124 427l135 -427h289z" />
<glyph unicode="&#xf329;" horiz-adv-x="597" d="M544 841q-31 -8 -61 -53q-27 -38 -35 -76q-8 35 -35 77q-31 46 -61 52q32 6 63 51q26 39 33 76q8 -38 34 -76q30 -43 62 -51zM365 841q-30 -8 -61 -53q-27 -41 -35 -76q-8 35 -35 77q-31 46 -61 52q32 6 62 51q26 38 34 76q7 -37 33 -76q32 -44 63 -51zM597 815 l-125 -597l-86 -342l-149 512l-150 -512l-87 342v169l49 1l124 427l135 -427q8 31 21 62q30 75 80 159q88 148 188 206z" />
<glyph unicode="&#xf32b;" horiz-adv-x="998" d="M998 289v-165q0 -78 -17 -78q-14 0 -23 65q-2 13 -5 40t-4 40q-4 19 -44 24q-17 1 -52 3h-256l-86 -299l-85 299q-36 -87 -137 -87q-16 0 -25 1q-92 11 -264 256q203 251 304 258h6q62 0 135 -100q72 -98 71 -158h337h12q67 0 99 -21q34 -22 34 -78zM435 380q1 6 1 17 q0 51 -45 86q-44 33 -100 33q-43 0 -99 -41l-108 -86q24 -36 47 -61q59 -64 129 -85q35 -9 59 -9q93 0 116 146z" />
<glyph unicode="&#xf32c;" horiz-adv-x="683" d="M0 388h683v-170h-86l-85 -299l-85 299h-85q0 -134 -15 -200q-33 -143 -134 -143q-87 0 -146 126q-47 105 -47 204v183zM298 186l1 32h-256v-9v-5q0 -55 39 -106q44 -56 101 -56q112 0 115 144z" />
<glyph unicode="&#xf32d;" d="M939 815q-85 -124 -151 -284q-49 -117 -104 -303q-29 -103 -86 -309l-87 299h-169q0 -134 -15 -200q-33 -143 -134 -143q-87 0 -146 126q-47 105 -47 204v183h512q45 -174 61 -261q13 175 36 324q59 353 159 500l-26 120q65 -90 197 -256zM298 186l1 32h-256v-9v-5 q0 -55 39 -106q44 -56 101 -56q112 0 115 144z" />
<glyph unicode="&#xf32f;" horiz-adv-x="598" d="M598 388v-170h-128v-20q0 -42 3 -116q3 -77 3 -115q0 -64 -26 -84q-20 -14 -84 -14q-61 0 -149 4q-99 3 -148 3q-35 0 -49 -27q-7 -19 -20 -57v149q0 106 88 106h296q43 0 43 171h-426v170h597z" />
<glyph unicode="&#xf330;" horiz-adv-x="731" d="M728 118q0 -72 -18 -72q-14 0 -22 65q-10 76 -10 80q-10 27 -80 27h-128v-20q0 -42 3 -116q3 -77 3 -115q0 -64 -26 -84q-20 -14 -84 -14q-61 0 -149 4q-99 3 -148 3q-35 0 -49 -27q-7 -19 -20 -57v149q0 106 88 106h296q43 0 43 171h-426v170l614 1q116 0 116 -164 q0 -9 -2 -57q-1 -24 -1 -50z" />
<glyph unicode="&#xf331;" horiz-adv-x="554" d="M554 388v-170h-128v-72q0 -15 0.5 -32t1 -26.5t0.5 -13.5q0 -152 -31 -170q-47 -27 -234 -27q-4 0 -22.5 -0.5t-24.5 -0.5q-74 0 -74 58q0 49 81 70l150 37q81 33 81 110q0 24 -4 67h-350v170h554z" />
<glyph unicode="&#xf332;" horiz-adv-x="773" d="M770 124q0 -78 -18 -78q-14 0 -22 65q-10 76 -10 80q-10 27 -105 27h-189v-15v-99q1 -47 1 -77q0 -70 -15 -97q-18 -32 -74 -43q-47 -10 -175 -10q-4 0 -22.5 -0.5t-24.5 -0.5q-74 0 -74 58q0 49 81 73l150 40q81 35 81 113q0 15 -4 58h-350v170h657q116 0 116 -160 q0 -8 -2 -54q-1 -23 -1 -50z" />
<glyph unicode="&#xf333;" horiz-adv-x="498" d="M497 296q-68 158 -104 202q-48 58 -131 58q-82 0 -145 -72t-63 -159q0 -254 86 -334q57 58 119 58q61 0 100 -73q32 -62 32 -132q0 -30 -4 -53q-19 18 -58 54q-39 33 -67 33q-36 0 -73 -29q-33 -27 -49 -60q-45 17 -96 228q-44 187 -44 263q0 156 57 285q73 166 205 166 q129 0 183 -91q53 -88 53 -290q0 -35 -1 -54z" />
<glyph unicode="&#xf334;" horiz-adv-x="512" d="M512 269l-6 -401q-1 -113 -29 -200q-29 -88 -72 -102q-23 -8 -55 -35q-3 -3 -18 -25q-10 -15 -27 -15q-24 0 -24 82q0 74 1 78q6 55 34 55q5 0 14.5 -4.5t13.5 -4.5q10 0 36 9q12 4 18 12q3 4 5.5 8t4.5 6l1 2q12 11 20 134q6 100 6 179q0 139 -6 220q-17 150 -34 192 q-41 101 -150 101q-79 0 -135 -45q-57 -47 -62 -127h242q39 -110 39 -257q0 -73 -15 -135q-21 -81 -65 -113q1 -2 1 -8q0 -9 -3 -24q-14 -62 -37 -81q-25 -20 -85 -20q-59 0 -64 -1q-20 -4 -53 -34q0 5 -0.5 9.5t-1.5 7.5v2q0 57 24 80.5t81 23.5q44 0 54 2q32 6 30 35 q-86 5 -146 128q-49 102 -49 202v183q0 136 59 231q69 111 197 111t189 -129q36 -77 61 -244q6 -35 6 -88zM282 218h-239v-9v-5q0 -58 42 -108q47 -54 106 -54q58 0 79 64q10 34 12 112z" />
<glyph unicode="&#xf335;" horiz-adv-x="512" d="M512 269l-6 -401q-1 -113 -29 -200q-29 -88 -72 -102q-23 -8 -55 -35q-3 -3 -18 -25q-10 -15 -27 -15q-24 0 -24 82q0 74 1 78q6 55 34 55q5 0 14.5 -4.5t13.5 -4.5q10 0 36 9q12 4 18 12q3 4 5.5 8t4.5 6l1 2q12 11 20 134q6 100 6 179q0 139 -6 220q-17 150 -34 192 q-41 101 -150 101q-100 0 -155 -82q-47 -71 -47 -176q0 -142 171 -255l-86 -128q-24 40 -42 76q-13 -4 -63 -71l-23 121l48 31q-48 115 -48 142v170q0 20 21 102q29 117 71 169q59 71 164 71q128 0 189 -129q36 -77 61 -244q6 -35 6 -88z" />
<glyph unicode="&#xf336;" horiz-adv-x="512" d="M512 269l-6 -401q-1 -113 -29 -200q-29 -88 -72 -102q-23 -8 -55 -35q-3 -3 -18 -25q-10 -15 -27 -15q-24 0 -24 82q0 74 1 78q6 55 34 55q5 0 14.5 -4.5t13.5 -4.5q10 0 36 9q12 4 18 12q3 4 5.5 8t4.5 6l1 2q12 11 20 134q6 100 6 179q0 139 -6 220q-17 150 -34 192 q-41 101 -150 101q-74 0 -127 -50q-50 -47 -66 -121l119 -1v-170h-111q41 -98 154 -171l-86 -128q-33 54 -76 149q-52 111 -52 150v170q0 15 20 100q29 116 72 170q59 72 164 72q128 0 189 -129q36 -77 61 -244q6 -35 6 -88z" />
<glyph unicode="&#xf337;" horiz-adv-x="657" d="M657 388v-170h-290q-1 -57 -9 -173h11h3q107 0 139 -62q22 -41 22 -164q0 -104 -56 -104q-51 0 -97 30t-65 77q-3 18 -12 54h-218q-35 0 -48 -28q-3 -9 -10 -28t-11 -28v255h290l10 171h-316v170h657zM481 -171q0 54 -99 54q-34 0 -34 -17q0 -42 22 -70q24 -33 64 -33 q21 0 35 23q12 19 12 43z" />
<glyph unicode="&#xf338;" horiz-adv-x="805" d="M802 125q0 -79 -18 -79q-14 0 -22 66q-3 26 -10 79q-9 27 -95 27h-290q-1 -57 -9 -173h7q110 0 144 -58q24 -42 24 -168q0 -104 -56 -104q-51 0 -97 30t-65 77q-3 18 -12 54h-218q-35 0 -48 -28q-3 -9 -10 -28t-11 -28v255h290l10 171h-316v170h689q116 0 116 -160 q0 -8 -2 -54q-1 -23 -1 -49zM481 -171q0 54 -99 54q-34 0 -34 -17q0 -42 22 -70q24 -33 64 -33q21 0 35 23q12 19 12 43z" />
<glyph unicode="&#xf339;" horiz-adv-x="641" d="M641 388v-170h-240q-21 -287 -21 -340q0 -28 20.5 -52t46.5 -24t44.5 17.5t23.5 45.5q-2 -47 -20 -97q-24 -65 -61 -65q-42 0 -63 45q-6 12 -25 83q-12 45 -30 45h-247q-35 0 -48 -28q-4 -9 -11 -28t-10 -28v255h345l14 171h-358v170h640z" />
<glyph unicode="&#xf33a;" horiz-adv-x="787" d="M786 289l1 -171q0 -72 -18 -72q-14 0 -22 65q-10 76 -10 80q-11 27 -96 27h-240q-21 -287 -21 -340q0 -29 19 -52q32 -35 71.5 -19.5t44.5 58.5q-2 -47 -20 -97q-24 -65 -61 -65q-42 0 -63 45q-6 12 -25 83q-12 45 -30 45h-247q-35 0 -48 -28q-4 -9 -11 -28t-10 -28v255 h345l14 171h-358v170h685q100 0 100 -99z" />
<glyph unicode="&#xf33b;" horiz-adv-x="640" d="M640 289v-165q0 -78 -18 -78q-13 0 -22 65q-3 27 -10 80q-4 19 -36 24q-8 1 -22 2t-22 1h-291q61 -48 86 -80q38 -50 38 -110q0 -133 -32 -195q-19 -39 -70 -68q-51 -30 -68 -59q-11 111 -59 282q-62 226 -114 230v170h86q0 -99 29 -261q37 -214 96 -214q49 0 63 30 q9 19 9 75q0 32 -57 101q-56 70 -56 85q0 27 43 184h314q32 -1 67 -22q46 -28 46 -77z" />
<glyph unicode="&#xf33c;" horiz-adv-x="981" d="M981 289v-165q0 -78 -18 -78q-13 0 -22 65q-2 13 -5 40t-4 40q-4 19 -45 24q-18 1 -53 3h-278l-85 -299l-86 299h-85v170h158q-10 107 -34 164q-40 93 -124 93q-103 0 -181 -114q-71 -104 -71 -211q0 -108 80 -191q41 -42 172 -124l-42 -129q-4 5 -70 77t-100 108 q-89 112 -88 224l2 103q1 136 81 235q87 107 217 107q101 0 161 -91q53 -80 53 -184q0 -24 -13 -67h367q33 -1 68 -22q45 -28 45 -77z" />
<glyph unicode="&#xf33d;" horiz-adv-x="682" d="M249 823q0 -39 -51 -214q-48 -163 -73 -219l43 382l-418 -1q63 29 211 77q159 52 210 52q33 0 55.5 -22t22.5 -55zM469 388h214v-170h-208q63 -51 86 -81q38 -50 38 -109q0 -136 -30 -195q-19 -35 -69 -64q-52 -29 -71 -63q-10 94 -63 283q-64 229 -110 229h-85l-86 -299 l-86 302l1 -3v170h342q2 -111 30 -265q38 -210 95 -210q50 0 63 31q9 20 9 74q0 34 -57 101q-57 68 -57 92q0 6 44 177z" />
<glyph unicode="&#xf33e;" horiz-adv-x="512" d="M512 269l-6 -316q-1 -113 -29 -199q-29 -90 -72 -103q-25 -8 -55 -34l-2 -3q-2 -3 -6.5 -9.5t-9.5 -12.5q-10 -16 -27 -16q-24 0 -24 82q0 74 1 78q6 55 34 55q5 0 14.5 -4.5t13.5 -4.5q10 0 36 9q11 4 18 13q3 4 5.5 7.5t4.5 5.5l1 2q13 11 20 135q6 100 6 178 q0 52 -9 63q-20 23 -102 23h-324v304h107v-133l275 -1q84 0 111 -31q19 -20 19 -88z" />
<glyph unicode="&#xf33f;" horiz-adv-x="384" d="M384 388v-170h-299q1 -100 39 -154q40 -59 133 -79q30 -3 85 -15v-136q-184 52 -253 121q-87 85 -89 263v170h384z" />
<glyph unicode="&#xf340;" horiz-adv-x="640" d="M640 388v-170h-299q1 -100 39 -154q40 -59 133 -79q30 -3 85 -15v-136q-184 52 -253 121q-87 85 -89 263h-85l-86 -299l-85 299v170h640z" />
<glyph unicode="&#xf341;" d="M939 388v-170h-150v-236l64 -12v-114q-189 54 -253 110q-86 76 -88 252h-85l-86 -299q-38 171 -74 344q-30 143 -41 175q-18 47 -45 47h-1q-38 -1 -98 -37q-47 -28 -82 -60q5 80 57 164q59 93 124 93q66 0 100 -109q21 -67 25 -148h291v-170q12 -87 35 -135 q31 -59 93 -85l1 390h213z" />
<glyph unicode="&#xf342;" horiz-adv-x="427" d="M427 388v-170h-150v-236l64 -12v-114q-189 54 -253 110q-86 76 -88 252v170h85v-170q12 -87 35 -135q31 -60 94 -85v390h213z" />
<glyph unicode="&#xf343;" horiz-adv-x="683" d="M683 388v-170h-150v-236l64 -12v-114q-189 54 -253 110q-86 76 -88 252h-85l-86 -299l-85 299v170h341v-170q12 -87 35 -135q31 -59 93 -85l1 390h213z" />
<glyph unicode="&#xf344;" horiz-adv-x="385" d="M385 374v-142q0 -54 -52 -197q-13 -34 -38.5 -101t-37.5 -100l-41 128q79 142 90 173q19 56 19 198q0 116 -51 193q-59 87 -169 87q-58 0 -58 -86q0 -7 0.5 -29t0.5 -27v-509h-46l-2 617q0 105 15 124q19 27 114 27q131 0 200 -118q56 -98 56 -238z" />
<glyph unicode="&#xf345;" horiz-adv-x="997" d="M997 388v-170h-84v-377q-178 9 -285 101q-116 101 -116 276h-85l-86 -299q-38 171 -74 344q-30 143 -41 175q-18 47 -45 47h-1q-38 -1 -98 -37q-47 -28 -82 -60q5 80 57 164q59 93 124 93q66 0 100 -109q21 -67 25 -148h691zM836 -17v235h-239q2 -133 56 -183 q50 -47 183 -52z" />
<glyph unicode="&#xf346;" horiz-adv-x="485" d="M485 388v-170h-84v-377q-178 9 -285 101q-116 101 -116 276v170h485zM324 -17v235h-239q2 -133 56 -183q50 -47 183 -52z" />
<glyph unicode="&#xf347;" horiz-adv-x="741" d="M741 388v-170h-84v-377q-178 9 -285 101q-116 101 -116 276h-85l-86 -299l-85 299v170h741zM580 -17v235h-239q2 -133 56 -183q50 -47 183 -52z" />
<glyph unicode="&#xf348;" horiz-adv-x="408" d="M0 388h408q0 -39 -2 -265t-2 -282q-178 9 -287 101q-117 100 -117 276v170zM324 -17v235h-239q2 -133 56 -183q50 -47 183 -52z" />
<glyph unicode="&#xf349;" horiz-adv-x="860" d="M854 188q0 -313 -149 -313q-88 0 -146 133q-47 109 -47 210h-85l-86 -299q-38 171 -74 344q-30 143 -41 175q-18 47 -45 47h-1q-38 -1 -98 -37q-47 -28 -82 -60q5 80 57 164q59 93 124 93q66 0 100 -109q21 -67 25 -148h547zM860 -225q-4 9 -42 20q-39 10 -60 31 q-37 42 -77 96q1 -16 0 -40q0 -8 -0.5 -17t-1 -14t-0.5 -8q0 -53 30 -102q35 -56 82 -56q26 0 47 33q16 24 22 57zM811 218h-256v-9v-5q0 -56 39 -107q43 -55 101 -55q69 0 96 57q18 38 20 119z" />
<glyph unicode="&#xf34a;" d="M939 218h-85v-30q1 -313 -149 -313q-88 0 -146 133q-47 109 -47 210h-85l-86 -299q-38 171 -74 344q-30 143 -41 175q-18 47 -45 47h-1q-38 -1 -98 -37q-47 -28 -82 -60q5 80 57 164q59 93 124 93q66 0 100 -109q21 -67 25 -148h633v-170zM860 -225q-4 9 -42 20 q-39 10 -60 31q-37 42 -77 96q1 -16 0 -40q0 -8 -0.5 -17t-1 -14t-0.5 -8q0 -53 30 -102q35 -56 82 -56q26 0 47 33q16 24 22 57zM811 218h-256v-9v-5q0 -56 39 -107q43 -55 101 -55q69 0 96 57q18 38 20 119z" />
<glyph unicode="&#xf34b;" horiz-adv-x="427" d="M427 388v-170h-85q0 -134 -15 -200q-33 -143 -134 -143q-87 0 -146 126q-47 105 -47 204v183h427zM348 -225q-4 9 -42 20q-39 10 -60 31q-37 42 -77 96q1 -16 0 -40q0 -8 -0.5 -17t-1 -14t-0.5 -8q0 -53 30 -102q35 -56 82 -56q26 0 47 33q16 24 22 57zM299 218h-256v-9 v-5q0 -55 39 -106q44 -56 101 -56q112 0 115 144z" />
<glyph unicode="&#xf34c;" horiz-adv-x="683" d="M683 218h-85v-30q1 -313 -149 -313q-88 0 -146 133q-47 109 -47 210h-85l-86 -299l-85 299v170h683v-170zM604 -225q-4 9 -42 20q-39 10 -60 31q-37 42 -77 96q1 -16 0 -40q0 -8 -0.5 -17t-1 -14t-0.5 -8q0 -53 30 -102q35 -56 82 -56q26 0 47 33q16 24 22 57zM555 218 h-256v-9v-5q0 -56 39 -107q43 -55 101 -55q69 0 96 57q18 38 20 119z" />
<glyph unicode="&#xf34d;" horiz-adv-x="464" d="M464 382q0 -123 -19 -123q-8 0 -10 8q-4 22 -11 65t-10 65q-17 78 -47 114q-40 49 -122 49q-80 0 -135 -44q-57 -47 -62 -128h242q39 -108 39 -257q0 -256 -127 -256q-88 0 -150 126q-52 104 -52 204v183q0 137 59 231q68 111 197 111q111 0 166 -127q42 -96 42 -221z M348 -225q-4 9 -42 20q-39 10 -60 31q-37 42 -77 96q1 -16 0 -40q0 -8 -0.5 -17t-1 -14t-0.5 -8q0 -53 30 -102q35 -56 82 -56q26 0 47 33q16 24 22 57zM282 218h-239v-9q-2 -58 43 -111q48 -56 105 -56q87 0 90 144z" />
<glyph unicode="&#xf34e;" horiz-adv-x="997" d="M654 535q0 -78 -50 -148q-8 0 -14 -2.5t-7 -2.5q-10 0 -35 7l-13 115l-200 155q18 -2 56.5 -6.5t58.5 -7.5q90 -12 138 -33q66 -28 66 -77zM997 218v170h-691q-4 81 -25 148q-34 109 -100 109q-65 0 -124 -93q-52 -84 -57 -164q35 32 82 60q60 36 98 37h1q27 0 45 -47 q11 -32 41 -175q36 -173 74 -344l86 299h85q0 -175 116 -276q107 -92 285 -101v377h84zM836 -17q-133 5 -183 52q-54 50 -56 183h239v-235z" />
<glyph unicode="&#xf34f;" horiz-adv-x="489" d="M146 527q0 -78 -50 -148q-26 0 -79 -3l10 120l-200 155l116 -14q89 -12 137 -33q66 -28 66 -77zM489 218v170h-484v-170q0 -176 115 -276q107 -92 285 -101v377h84zM329 -17q-134 5 -184 52q-55 51 -55 183h239v-235z" />
<glyph unicode="&#xf350;" horiz-adv-x="741" d="M398 535q0 -77 -50 -147q-33 0 -80 -4l11 120l-200 156q18 -2 56.5 -6.5t58.5 -7.5q90 -12 138 -33q66 -29 66 -78zM741 218v170h-741v-170l85 -299l86 299h85q0 -175 116 -276q107 -92 285 -101v377h84zM580 -17q-133 5 -183 52q-54 50 -56 183h239v-235z" />
<glyph unicode="&#xf351;" horiz-adv-x="408" d="M142 527q0 -78 -50 -148q-28 0 -80 -3l11 120l-200 155l116 -14q89 -12 137 -33q66 -28 66 -77zM408 388h-408v-170q0 -176 117 -276q109 -92 287 -101q0 56 2 282t2 265zM324 -17q-133 5 -183 52q-54 50 -56 183h239v-235z" />
<glyph unicode="&#xf352;" horiz-adv-x="632" d="M632 269l-6 -401q-1 -113 -29 -200q-29 -88 -72 -102q-22 -7 -55 -35q-3 -1 -19 -25q-11 -15 -26 -15q-24 0 -24 82v78q6 55 34 55q5 0 15 -4.5t14 -4.5q10 0 35 9q11 4 19 12q3 4 5.5 8t4.5 6l1 2q12 12 19 134q7 94 7 179q0 139 -6 220q-5 43 -14 128q-12 76 -43 111 q-39 48 -116 48q-90 0 -139 -61q-35 -42 -64 -143l10 38q-6 -54 -6 -105q0 -41 6 -65q9 -40 68 -133q63 -97 94 -115q-171 12 -214 12q-27 0 -114 -12v53l26 3l-5 193l-38 -1v170h34v256h53l-1 -256h45q22 117 29 157q21 87 61 130q49 55 141 55q128 0 196 -129 q42 -80 68 -244q6 -35 6 -88zM191 22q-17 53 -60 196h-41l-5 -196q33 9 46 9q19 0 60 -9z" />
<glyph unicode="&#xf353;" horiz-adv-x="513" d="M1 388h512v-170h-85l-86 -299l-85 299h-85l-86 -299l-86 302l1 -3v170zM254 -250q0 -50 -36 -86t-85 -36q-50 0 -86 36t-36 86q0 48 35 85q36 36 86 36q49 0 86 -35q36 -36 36 -86zM191 -250q0 23 -17 40.5t-41 17.5t-41 -17.5t-17 -40.5q0 -24 17 -41.5t41 -17.5 t41 17.5t17 41.5z" />
<glyph unicode="&#xf354;" horiz-adv-x="513" d="M1 388h512v-170h-85l-86 -299l-85 299h-85l-86 -299l-86 302l1 -3v170zM293 -325q-1 13 -7 33q-12 36 -39 49h-127v91l151 1q29 0 29 -81q0 -45 -7 -93z" />
<glyph unicode="&#xf355;" horiz-adv-x="597" d="M597 601q-116 -170 -164 -326q-30 -119 -91 -356l-87 299h-84l-86 -299l-85 299v170h256q45 -174 61 -261q9 98 24 193q38 229 103 392l-43 145q58 -81 196 -256zM293 -325q-1 13 -7 33q-12 36 -39 49h-127v91l151 1q29 0 29 -81q0 -45 -7 -93z" />
<glyph unicode="&#xf356;" horiz-adv-x="812" d="M812 289v-165q0 -79 -18 -79q-13 1 -22 66q-3 27 -10 80q-5 18 -43 23q-8 0 -25.5 1t-26.5 2l-343 1q-17 -229 -31 -346l-37 -1v689h-11h-5q-92 0 -148 -72q-50 -68 -50 -169q0 -116 59 -193q46 -59 155 -130v-128l-155 162q-101 119 -101 188v170q0 136 60 230 q70 112 196 112q89 0 89 -203q0 -67 -6 -140h360q32 -1 67 -22q46 -28 46 -76z" />
<glyph unicode="&#xf357;" horiz-adv-x="554" d="M554 388v-170h-128q-1 -26 -2.5 -78t-1.5 -77q-7 -119 -30 -136q-36 -25 -171 -42q42 -21 49 -28q17 -17 17 -52q0 -44 -35 -76t-78 -32q-64 0 -100 44q-32 41 -32 108q0 114 42 157q31 32 111 43q127 16 154 24q35 11 35 105v5v35h-384v170h554zM233 -182 q0 23 -17.5 40.5t-41.5 17.5q-23 0 -40.5 -17.5t-17.5 -40.5q0 -24 17.5 -41t41.5 -17q23 0 40.5 17t17.5 41z" />
<glyph unicode="&#xf358;" horiz-adv-x="768" d="M767 289l1 -165q0 -78 -18 -78q-13 0 -22 65q-1 13 -4 40t-5 40q-8 26 -70 26h-9l-214 1q-1 -26 -2.5 -78t-1.5 -77q-7 -119 -30 -136q-36 -25 -171 -42q42 -21 49 -28q17 -17 17 -52q0 -44 -35 -76t-78 -32q-64 0 -100 44q-32 41 -32 108q0 114 42 157q31 32 111 43 q127 16 154 24q35 11 35 105v5v35h-384v170h638q48 0 84 -21q45 -29 45 -78zM233 -182q0 23 -17.5 40.5t-41.5 17.5q-23 0 -40.5 -17.5t-17.5 -40.5q0 -24 17.5 -41t41.5 -17q23 0 40.5 17t17.5 41z" />
<glyph unicode="&#xf359;" horiz-adv-x="597" d="M597 388v-170h-128q-17 -60 -17 -122q0 -34 15 -102q16 -65 16 -101q0 -17 -14 -17h-325q-39 0 -39 -20q0 -24 17.5 -41.5t41.5 -17.5q22 0 67 9q50 8 69 8q30 0 47 -35q14 -28 14 -62q0 -25 -12 -42q-14 -20 -37 -20q-28 0 -78 30q-23 17 -71 49q-68 46 -84 64 q-37 38 -37 96v47q0 106 88 106h227q41 0 41 39q0 6 -3 30t-3 30q0 36 9 72h-401v170h597z" />
<glyph unicode="&#xf35a;" horiz-adv-x="811" d="M810 289l1 -165q0 -78 -18 -78q-13 0 -22 65q-3 27 -10 80q-8 26 -67 26h-9l-216 1q-17 -60 -17 -122q0 -34 15 -102q16 -65 16 -101q0 -17 -14 -17h-325q-39 0 -39 -20q0 -24 17.5 -41.5t41.5 -17.5q22 0 67 9q50 8 69 8q30 0 47 -35q14 -28 14 -62q0 -25 -12 -42 q-14 -20 -37 -20q-28 0 -78 30q-23 17 -71 49q-68 46 -84 64q-37 38 -37 96v47q0 106 88 106h227q41 0 41 39q0 6 -3 30t-3 30q0 36 9 72h-401v170h683q47 0 82 -21q45 -27 45 -78z" />
<glyph unicode="&#xf35b;" horiz-adv-x="725" d="M725 289v-165q0 -78 -18 -78q-13 0 -22 65q-2 13 -5 40t-4 40q-8 26 -68 26h-9l-523 1q41 -111 45 -119q28 -70 55 -114q58 70 113 70q59 0 100 -35q43 -37 43 -95q0 -59 -42 -97q-43 -38 -101 -38q-101 0 -161 121q-28 54 -128 307v170h597q49 0 83 -21q45 -27 45 -78z M387 -72q0 36 -28 61q-28 24 -64 24q-35 0 -63 -24q-28 -25 -28 -61q0 -35 27.5 -59.5t63.5 -24.5q37 0 64.5 24.5t27.5 59.5z" />
<glyph unicode="&#xf35c;" horiz-adv-x="512" d="M512 269l-6 -401q-1 -113 -29 -200q-29 -88 -72 -102q-23 -8 -55 -35q-3 -3 -18 -25q-10 -15 -27 -15q-24 0 -24 82q0 74 1 78q6 55 34 55q5 0 14.5 -4.5t13.5 -4.5q10 0 36 9q12 4 18 12q3 4 5.5 8t4.5 6l1 2q12 11 20 134q6 100 6 179q0 139 -6 220q-17 150 -34 192 q-41 101 -150 101q-100 0 -155 -82q-47 -71 -47 -176q0 -81 51 -188q53 -108 120 -152h-214l60 109q-60 139 -60 147v170q0 15 18 90q29 122 71 176q58 76 167 76q128 0 189 -129q36 -77 61 -244q6 -35 6 -88z" />
<glyph unicode="&#xf35d;" horiz-adv-x="683" d="M469 388h214v-170h-208q63 -51 86 -81q38 -50 38 -109q0 -136 -30 -195q-19 -35 -69 -64q-52 -29 -71 -63q-10 94 -63 283q-64 229 -110 229h-85l-86 -299l-85 299v170h342q2 -111 30 -265q38 -210 95 -210q50 0 63 31q9 20 9 74q0 34 -57 101q-57 68 -57 92q0 6 44 177z " />
<glyph unicode="&#xf35e;" horiz-adv-x="597" d="M597 388v-170h-128q0 -4 -23 -39q-21 -31 -23 -75v-6q0 -46 25 -118q27 -77 29 -102q-2 -116 -5 -126q-8 -26 -56 -26q-3 0 -10 0.5t-20.5 1t-25.5 0.5q-29 1 -79 1q-6 0 -10.5 -2t-7 -4t-5.5 -7.5t-4 -8t-3.5 -10t-3.5 -9.5v73q0 52 43 52h145q18 0 21 63h-345 q-36 0 -48 -27l-21 -57v149q0 106 88 106h236q7 0 7 8q0 7 -7 28q-6 22 -6 38q0 23 20 58q21 35 21 39h-401v170h597z" />
<glyph unicode="&#xf35f;" horiz-adv-x="810" d="M810 289v-165q0 -78 -17 -78q-13 0 -22 65q-3 27 -10 80q-8 26 -67 26h-9l-216 1q0 -4 -23 -39q-21 -31 -23 -75v-6q0 -46 25 -118q27 -77 29 -102q-2 -116 -5 -126q-8 -26 -56 -26q-3 0 -10 0.5t-20.5 1t-25.5 0.5q-29 1 -79 1q-6 0 -10.5 -2t-7 -4t-5.5 -7.5t-4 -8 t-3.5 -10t-3.5 -9.5v73q0 52 43 52h145q18 0 21 63h-345q-36 0 -48 -27l-21 -57v149q0 106 88 106h236q7 0 7 8q0 7 -7 28q-6 22 -6 38q0 23 20 58q21 35 21 39h-401v170h683q47 0 82 -21q45 -27 45 -78z" />
<glyph unicode="&#xf360;" horiz-adv-x="256" d="M195 586q-5 -9 -43 -20q-41 -12 -60 -31q-27 -27 -76 -96v11q0 18 -1 29q-1 19 -1 39q0 52 29 102q35 56 83 56q26 0 47 -33q14 -23 22 -57zM0 388h256v-170h-85l-86 -299l-85 299v170z" />
<glyph unicode="&#xf361;" horiz-adv-x="384" d="M384 388v-170h-299l171 -256l-128 -128q-1 4 -67 202q-61 179 -61 182v171z" />
<glyph unicode="&#xf362;" horiz-adv-x="597" d="M597 289v-165q0 -78 -17 -78q-14 0 -23 65q-1 13 -4 40t-5 40q-8 26 -67 26h-9l-387 1l171 -256l-128 -128q-1 4 -67 202q-61 179 -61 182v171l461 -1q48 0 87 -21q49 -28 49 -78z" />
<glyph unicode="&#xf363;" horiz-adv-x="214" d="M214 290v-204q-1 -40 -17 -40h-1q-12 0 -18 47q-8 69 -13 98q-4 21 -58 25q-22 2 -107 2l1 170h100q113 0 113 -98z" />
<glyph unicode="&#xf364;" horiz-adv-x="683" d="M683 815q-85 -124 -151 -284q-49 -117 -104 -303q-29 -103 -86 -309l-87 299h-255v170h256q45 -174 61 -261q13 175 36 324q59 353 159 500l-26 120q65 -90 197 -256zM306 614l-146 -229l-154 229l51 34l99 -150l99 150z" />
<glyph unicode="&#xf365;" d="M792 586q-5 -10 -42 -20q-43 -12 -60 -31q-30 -30 -77 -96v11q0 18 -1 29q-1 19 -1 39q0 52 29 102q35 56 83 56q26 0 47 -33q16 -23 22 -57zM939 388v-170h-85v-30q1 -313 -149 -313q-88 0 -146 133q-47 109 -47 210h-85l-86 -299q-38 171 -74 344q-30 143 -41 175 q-18 47 -45 47h-1q-38 -1 -98 -37q-47 -28 -82 -60q5 80 57 164q59 93 124 93q66 0 100 -109q21 -67 25 -148h633zM811 218h-256v-9v-5q0 -56 39 -107q43 -55 101 -55q69 0 96 57q18 38 20 119z" />
<glyph unicode="&#xf366;" horiz-adv-x="427" d="M280 586q-5 -10 -42 -20q-43 -12 -60 -31q-30 -30 -77 -96v11q0 18 -1 29q-1 19 -1 39q0 52 29 102q35 56 83 56q26 0 47 -33q16 -23 22 -57zM0 388h427v-170h-85q0 -134 -15 -200q-33 -143 -134 -143q-87 0 -146 126q-47 105 -47 204v183zM298 186l1 32h-256v-9v-5 q0 -55 39 -106q44 -56 101 -56q112 0 115 144z" />
<glyph unicode="&#xf367;" horiz-adv-x="464" d="M195 842q-5 -9 -43 -20q-41 -12 -60 -31q-27 -27 -76 -96v11q0 18 -1 29q-1 19 -1 39q0 52 29 102q35 56 83 56q26 0 47 -33q14 -23 22 -57zM464 382q0 -123 -19 -123q-8 0 -10 8q-4 22 -11 65t-10 65q-17 78 -47 114q-40 49 -122 49q-80 0 -135 -44q-57 -47 -62 -128 h242q39 -108 39 -257q0 -256 -127 -256q-88 0 -150 126q-52 104 -52 204v183q0 137 59 231q68 111 197 111q111 0 166 -127q42 -96 42 -221zM281 186l1 32h-239v-9q-2 -58 43 -111q48 -56 105 -56q87 0 90 144z" />
<glyph unicode="&#xf368;" horiz-adv-x="362" d="M0 388h341v-170h-85l-85 -299l-86 299h-85v170zM362 -252q-29 -7 -62 -52q-27 -43 -34 -76q-11 41 -35 77q-32 45 -62 51q32 7 63 52q27 39 34 76q8 -39 33 -76q30 -43 63 -52zM182 -252q-30 -7 -61 -52q-28 -42 -35 -76q-9 39 -34 77q-32 45 -62 51q32 7 63 52 q25 37 33 76q7 -37 34 -76q28 -43 62 -52z" />
<glyph unicode="&#xf369;" horiz-adv-x="512" d="M451 586q-5 -9 -43 -20q-41 -12 -60 -31q-27 -27 -76 -96v11q0 18 -1 29q-1 19 -1 39q0 52 29 102q35 56 83 56q26 0 47 -33q14 -23 22 -57zM0 388h512v-170h-85l-86 -299l-85 299h-85l-86 -299q-10 37 -47 158q-38 131 -38 141v170z" />
<glyph unicode="&#xf36a;" horiz-adv-x="640" d="M639 578q-4 -9 -35 -17q-33 -8 -51 -26q-27 -27 -76 -96v11q0 18 -1 29q-2 38 -2 39q0 52 30 102q35 56 82 56q26 0 39 -37q2 -7 14 -61zM640 388v-170h-213q-4 96 -25 171q-46 171 -157 171q-96 0 -152 -74q-51 -68 -51 -167q0 -80 17 -123q13 -36 54 -71l101 -78 l-86 -128q-8 14 -37 65.5t-45 79.5q-46 85 -46 154v170q0 136 59 231q69 111 197 111q99 0 160 -91q54 -79 54 -184q0 -59 -3 -67h173z" />
<glyph unicode="&#xf36b;" horiz-adv-x="512" d="M464 582q0 -38 -28 -66.5t-66 -28.5t-66 28.5t-28 67.5q0 38 28 66t67 28q36 0 65 -29q28 -28 28 -66zM0 388h512v-170h-85l-86 -299l-85 299h-85l-86 -299q-10 37 -47 158q-38 131 -38 141v170zM426 583q0 23 -17 40t-39 17q-23 0 -40 -17t-17 -39q0 -23 16.5 -40 t39.5 -17t40 16.5t17 39.5z" />
<glyph unicode="&#xf36c;" horiz-adv-x="640" d="M635 582q0 -38 -28 -66.5t-67 -28.5q-38 0 -66 28.5t-28 67.5q0 38 28.5 66t66.5 28t66 -28.5t28 -66.5zM640 388v-170h-213q-4 96 -25 171q-46 171 -157 171q-96 0 -152 -74q-51 -68 -51 -167q0 -80 17 -123q13 -36 54 -71q34 -26 101 -78l-86 -128q-8 14 -37 65.5 t-45 79.5q-46 85 -46 154v170q0 136 59 231q69 111 197 111q99 0 160 -91q54 -79 54 -184q0 -59 -3 -67h173zM596 583q0 23 -16.5 40t-39.5 17q-22 0 -39.5 -17t-17.5 -39q0 -23 17 -40t40 -17q22 0 39 16.5t17 39.5z" />
<glyph unicode="&#xf36d;" horiz-adv-x="597" d="M597 388v-170h-125l-86 -342l-149 512l-150 -512l-87 342v169l49 1l124 427l135 -427h289zM323 -182q0 -3 -0.5 -8t-1 -14t-0.5 -17q-1 -24 0 -40q-52 71 -77 96q-19 21 -60 31q-39 11 -43 21q8 34 23 56q19 34 47 34q49 0 82 -57q30 -50 30 -102z" />
<glyph unicode="&#xf36e;" horiz-adv-x="726" d="M726 943q-33 -116 -97 -348q-48 -204 -52 -397v-16q0 -86 20 -220l-170 -43v13q0 47 4 128q5 128 5 158h-135l-64 170l-150 -512l-87 342v169l49 1l124 427l135 -427h162q70 230 107 311q48 111 149 244zM323 -182q0 -3 -0.5 -8t-1 -14t-0.5 -17q-1 -24 0 -40 q-52 71 -77 96q-19 21 -60 31q-39 11 -43 21q8 34 23 56q19 34 47 34q49 0 82 -57q30 -50 30 -102z" />
<glyph unicode="&#xf36f;" horiz-adv-x="512" d="M512 388v-170h-427q50 -103 116 -212q34 44 52 62q35 33 71 33q66 0 107 -60q35 -53 35 -123q0 -57 -35.5 -101.5t-90.5 -59.5q-1 0 -1 -1q0 -6 57 -68q58 -61 58 -68q0 -1 -1 -1h-36q-5 1 -80 58q-97 74 -106 80q-59 41 -96 116t-135 345v170h512zM421 -50q0 38 -27 72 q-29 38 -65 38q-35 0 -64 -38q-27 -34 -27 -72q0 -35 27 -60t64 -25t64.5 24.5t27.5 60.5z" />
<glyph unicode="&#xf370;" horiz-adv-x="768" d="M766 561q-4 -9 -16 -9q-1 0 -8.5 0.5t-10.5 0.5q-25 0 -41 -18q-30 -30 -77 -96v11q0 18 -1 29q-1 19 -1 39q0 52 29 102q35 56 83 56q25 0 34 -45q1 -11 4 -35t5 -35zM768 388v-170h-85l-86 -299l-85 299h-512l1 170h240l-155 86q62 77 192 145q133 70 231 70 q92 0 92 -272v-29h167zM336 387l210 2q-1 72 -9 104q-17 65 -66 65q-187 0 -301 -84z" />
<glyph unicode="&#xf371;" horiz-adv-x="512" d="M451 586q-5 -9 -43 -20q-41 -12 -60 -31q-27 -27 -76 -96v11q0 18 -1 29q-1 19 -1 39q0 52 29 102q35 56 83 56q26 0 47 -33q14 -23 22 -57zM512 388v-170h-427q50 -103 116 -212q34 44 52 62q35 33 71 33q66 0 107 -60q35 -53 35 -123q0 -67 -50 -117q-49 -49 -118 -49 q-102 0 -162 120q-42 86 -136 346v170h512zM421 -50q0 38 -27 72q-29 38 -65 38q-35 0 -64 -38q-27 -34 -27 -72q0 -35 27 -60t64 -25t64.5 24.5t27.5 60.5z" />
<glyph unicode="&#xf372;" horiz-adv-x="512" d="M451 586q-5 -9 -43 -20q-41 -12 -60 -31q-27 -27 -76 -96v11q0 18 -1 29q-1 19 -1 39q0 52 29 102q35 56 83 56q26 0 47 -33q14 -23 22 -57zM512 388v-170h-427q50 -103 116 -212q34 44 52 62q35 33 71 33q66 0 107 -60q35 -53 35 -123q0 -57 -35.5 -101.5t-90.5 -59.5 q-1 0 -1 -1q0 -6 57 -68q58 -61 58 -68q0 -1 -1 -1h-36q-5 1 -80 58q-97 74 -106 80q-59 41 -96 116t-135 345v170h512zM421 -50q0 38 -27 72q-29 38 -65 38q-35 0 -64 -38q-27 -34 -27 -72q0 -35 27 -60t64 -25t64.5 24.5t27.5 60.5z" />
<glyph unicode="&#xf373;" horiz-adv-x="597" d="M351 772l-342 1v84h128v127h86v-127h128v-85zM597 218v170h-289l-135 427l-124 -427l-49 -1v-169l87 -342l150 512l149 -512l86 342h125z" />
<glyph unicode="&#xf374;" horiz-adv-x="341" d="M336 772l-333 1v84h333v-85zM341 218v170h-34l-134 427l-173 -597l87 -342l150 512l64 -170h40z" />
<glyph unicode="&#xf375;" horiz-adv-x="597" d="M336 772l-333 1v84h333v-85zM597 218v170h-289l-135 427l-124 -427l-49 -1v-169l87 -342l150 512l149 -512l86 342h125z" />
<glyph unicode="&#xf376;" horiz-adv-x="341" d="M336 772l-333 1v84h333v-85zM341 218v170l-168 427l-124 -427l-49 -1v-169l87 -342l150 512z" />
<glyph unicode="&#xf377;" horiz-adv-x="640" d="M461 537q0 -38 -28 -66t-66 -28q-39 0 -67 28t-28 67q0 38 28.5 66t67.5 28q36 0 65 -29q28 -28 28 -66zM640 388v-170h-129q-5 -85 -5 -162v-34v-31q0 -79 -18 -98q-19 -22 -100 -22q-20 0 -112 3q-122 2 -165 2q-35 0 -49 -27q-4 -9 -10 -28t-10 -29v149q0 106 88 106 h296q43 0 43 171h-469v170h640zM423 538q0 23 -17 40t-40 17t-39.5 -17t-16.5 -39q0 -23 16.5 -40t39.5 -17t40 17t17 39z" />
<glyph unicode="&#xf378;" horiz-adv-x="376" d="M376 429q0 -51 -2 -59l-33 -132q-1 2 -16 114q-11 75 -33 111q-32 50 -96 50q-77 0 -122 -60q-40 -53 -40 -133q0 -90 30 -129q11 -14 107 -88l-68 -103q-22 39 -66 116q-37 67 -37 123v137q0 107 47 183q56 89 158 89q79 0 128 -72q43 -62 43 -147zM365 -167 q-31 -7 -61 -52q-28 -42 -35 -75q-9 36 -35 76q-30 45 -61 51q33 7 62 52q27 39 34 77q8 -40 33 -77q30 -43 63 -52zM177 -167q-31 -7 -61 -52q-28 -42 -35 -75q-9 36 -35 76q-30 45 -61 51q33 7 62 52q27 39 34 77q7 -38 34 -77q28 -43 62 -52z" />
<glyph unicode="&#xf379;" horiz-adv-x="427" d="M427 -423q0 -47 -3 -85l-87 -1h-14q-102 0 -113 14q2 41 36 168l75 266q38 157 38 272q0 112 -30 190q-40 112 -133 112q-77 0 -122 -60q-40 -53 -40 -133q0 -66 13 -99q13 -31 45 -58q42 -34 79 -60l-68 -103q-44 76 -66 115q-37 67 -37 124v137q0 107 47 183 q56 89 158 89q208 0 208 -457q0 -141 -32 -289q-24 -92 -36 -139q-22 -86 -23 -141l18 -7q14 0 35 4q23 3 34 3q18 0 18 -45z" />
<glyph unicode="&#xf37a;" horiz-adv-x="427" d="M427 -423q0 -47 -3 -85l-87 -1h-14q-102 0 -113 14q2 41 36 168l75 266q38 157 38 272q0 112 -30 190q-40 112 -133 112q-77 0 -122 -60q-40 -53 -40 -133q0 -66 13 -99q13 -31 45 -58q42 -34 79 -60l-68 -103q-44 76 -66 115q-37 67 -37 124v137q0 107 47 183 q56 89 158 89q208 0 208 -457q0 -141 -32 -289q-24 -92 -36 -139q-22 -86 -23 -141l18 -7q14 0 35 4q23 3 34 3q18 0 18 -45zM282 -158q-21 -5 -41 -35q-19 -26 -23 -50q-8 25 -24 51q-19 29 -41 34q22 4 42 34q19 26 23 51q4 -22 22 -50q20 -29 42 -35zM128 -158 q-20 -5 -41 -35q-19 -26 -23 -50q-6 24 -23 51q-19 29 -41 34q22 4 42 34q18 28 22 51q4 -22 22 -50q20 -29 42 -35z" />
<glyph unicode="&#xf37b;" horiz-adv-x="554" d="M376 537q0 -38 -28 -66t-67 -28q-38 0 -66 28.5t-28 66.5t28.5 66t66.5 28t66 -28.5t28 -66.5zM554 388v-170h-128v-72q0 -15 0.5 -32t1 -26.5t0.5 -13.5q0 -152 -31 -170q-47 -27 -234 -27q-4 0 -22.5 -0.5t-24.5 -0.5q-74 0 -74 58q0 49 81 70l150 37q81 33 81 110 q0 24 -4 67h-350v170h554zM337 538q0 23 -17 40t-39 17q-23 0 -40 -17t-17 -39q0 -23 17 -40t40 -17q22 0 39 17t17 39z" />
<glyph unicode="&#xf37c;" horiz-adv-x="421" d="M421 375q0 -87 -63 -148q-62 -62 -148 -62t-148 62t-62 148q0 87 62 149t149 62q86 0 148 -62t62 -149zM345 375q0 55 -40 95q-39 40 -94 40t-95 -40q-40 -39 -40 -95q0 -55 39 -95q40 -40 95 -40t95 40t40 95z" />
<glyph unicode="&#xf37d;" horiz-adv-x="896" d="M896 496q0 -45 -65 -152q-64 -104 -142 -185q-87 -91 -137 -91q-49 0 -88 33q-39 32 -52 80q-25 -26 -78 -46q-50 -18 -89 -18q-59 0 -149 63q-96 68 -96 122q0 62 87 125q82 60 146 60q41 0 82 -35q13 -11 58 -62q27 -30 45 -30h2l-35 -53h-4h-1q-14 0 -41 29 q-48 48 -57 55q-38 31 -75 31q-21 0 -77 -50t-56 -69q0 -20 73 -60q71 -39 94 -39q51 0 119 90q20 28 61 83.5t62 82.5q79 90 159 90q95 0 143 -113q8 11 32 66q20 44 39 59q40 -34 40 -66zM752 392q-37 73 -94 73q-53 0 -120 -97q-8 -13 -41 -64.5t-51 -78.5q40 -76 96 -76 q53 0 121 98q17 28 49 80z" />
<glyph unicode="&#xf37e;" horiz-adv-x="684" d="M681 204q0 -80 -53 -248l-50 -164q1 -7 17 -7q6 0 46 5q22 2 24 2q8 0 9 -1q9 -7 10 -68q0 -59 -4 -60h-12q-42 0 -83 1q-30 0 -58 0.5t-41 1t-15 0.5q-6 0 -6 9q0 21 36 115q46 126 67 188q35 119 35 187q0 8 1 18q2 11 0 17q-2 10 -6 18h-513l1 -155q33 16 123 16 q47 0 67 -26q15 -23 15 -73l-4 -33q-3 22 -28 35q-24 11 -45 11q-110 0 -214 -51v446h631q52 0 52 -111q0 -23 -1 -40t-1 -33zM287 -56v1v2v-6v3z" />
<glyph unicode="&#xf37f;" horiz-adv-x="470" d="M470 277q0 -53 -20 -73q-44 -44 -274 -155q20 27 61 80q65 84 63 89l-300 -2v172h417q53 0 53 -111z" />
<glyph unicode="&#xf380;" horiz-adv-x="341" d="M341 601q-116 -170 -164 -326q-30 -119 -91 -356l-87 299l1 170q45 -174 61 -261q7 98 24 193q38 229 103 392l-43 145q58 -81 196 -256z" />
<glyph unicode="&#xf381;" horiz-adv-x="256" d="M254 -169l2 -158q0 -73 -21 -106q-28 -45 -110 -45q-11 0 -26 4q-18 6 -25 6v156q62 34 84 75q23 40 23 106q0 25 -1 39q-2 42 -2 66q-3 86 -3 93q-4 49 -24 76q-30 43 -74 75l-77 1v169h126q85 0 115 -292q12 -121 13 -265z" />
<glyph unicode="&#xf382;" horiz-adv-x="726" d="M726 277q0 -54 -19 -73q-44 -44 -274 -155q20 27 60 80q66 84 63 89h-385l-86 -299l-85 299v170h674q52 0 52 -111z" />
<glyph unicode="&#xf383;" horiz-adv-x="367" d="M367 477q0 -121 -26 -176q-10 111 -30 164q-36 95 -117 95q-152 0 -152 -228q0 -74 28 -207q34 -165 73 -165q21 0 38 39q3 9 10 28t10 29q20 -20 20 -70q0 -57 -18 -98q-25 -54 -75 -54q-39 0 -86 170q-36 138 -42 214v170q6 164 30 227q43 115 175 115q162 0 162 -253z " />
<glyph unicode="&#xf384;" horiz-adv-x="640" d="M640 388v-170h-213q-4 96 -25 171q-46 171 -157 171q-96 0 -152 -74q-51 -68 -51 -167q0 -80 17 -123q13 -36 54 -71q34 -26 101 -78l-86 -128q-8 14 -37 65.5t-45 79.5q-46 85 -46 154v170q0 136 59 231q69 111 197 111q99 0 160 -91q54 -79 54 -184q0 -59 -3 -67h173z " />
<glyph unicode="&#xf385;" horiz-adv-x="733" d="M718 689q15 0 15 -71q0 -82 -14 -82h-1q-14 2 -21 2q-65 0 -109 -84q-38 -73 -38 -150q0 -134 146 -229l-76 -115q-74 122 -108 258h-85l-86 -299q-38 171 -74 344q-30 143 -41 175q-18 47 -45 47h-1q-38 -1 -98 -37q-47 -28 -82 -60q5 80 57 164q59 93 124 93 q66 0 100 -109q21 -67 25 -148h206q57 301 206 301zM438 -252q-30 -7 -61 -52q-27 -41 -35 -76q-9 36 -35 76q-30 46 -61 52q32 8 63 52q26 39 33 76q8 -38 34 -76q31 -45 62 -52z" />
<glyph unicode="&#xf386;" horiz-adv-x="632" d="M632 391v-164q-34 124 -57 182q-52 127 -113 127q-77 0 -125 -81q-43 -68 -43 -151q0 -134 146 -229l-76 -115q-73 121 -107 258h-85l-86 -299l-85 299l-1 170h257q55 301 205 301q59 0 118 -122q52 -108 52 -176zM182 -252q-30 -7 -61 -52q-27 -41 -35 -76q-9 36 -35 76 q-30 46 -61 52q32 8 63 52q26 39 33 76q8 -38 34 -76q31 -45 62 -52z" />
<glyph unicode="&#xf387;" horiz-adv-x="477" d="M462 689q15 0 15 -71q0 -82 -14 -82h-1q-14 2 -21 2q-65 0 -109 -84q-38 -73 -38 -150q0 -134 146 -229l-76 -115q-73 121 -107 258h-85l-86 -299q-7 27 -22 82t-22 83q-5 18 -9 32.5t-7.5 28t-6.5 23.5t-5.5 18.5t-4.5 14.5t-3.5 10t-2.5 6t-2 1l-1 170h257 q57 301 205 301zM182 -252q-30 -7 -61 -52q-27 -41 -35 -76q-9 36 -35 76q-30 46 -61 52q32 8 63 52q26 39 33 76q8 -38 34 -76q31 -45 62 -52z" />
<glyph unicode="&#xf388;" horiz-adv-x="598" d="M598 388v-170h-128q-1 -6 -1 -33v-34v-39q0 -186 -26 -200q18 -16 84 -60q43 -30 43 -44q0 -7 -13 -46q-10 -37 -67 -37q-18 0 -30 4t-33 17q-19 12 -19 17q0 2 4 2q3 0 17.5 -3.5t19.5 -3.5q29 0 47 21l-10 -11l10 11q5 7 5 17q0 16 -30 42t-57 38h-345q-35 0 -49 -27 q-3 -9 -9.5 -28t-10.5 -29v149q0 106 88 106h296q43 0 43 171h-426v170h597z" />
<glyph unicode="&#xf389;" horiz-adv-x="511" d="M425 388h86v-170h-51l-119 -299l43 675h-11h-6q-92 0 -158 -90q-64 -83 -64 -185q0 -158 43 -400q-68 8 -90 118q-13 59 -13 181l-85 -2v171l85 1q0 132 82 247q90 129 217 129q54 0 54 -106q0 -33 -4 -74t-4 -57q0 -57 -5 -139zM467 -252q-30 -8 -61 -52 q-27 -41 -35 -76q-9 36 -35 76q-31 46 -61 52q34 8 62 52q26 38 34 76q7 -35 34 -76q31 -45 62 -52zM254 -252q-30 -7 -61 -52q-27 -41 -35 -76q-9 36 -35 76q-31 46 -61 52q32 8 62 52q27 41 34 76q8 -38 34 -76q31 -45 62 -52z" />
<glyph unicode="&#xf38a;" horiz-adv-x="598" d="M598 388v-170h-128q-1 -31 -2.5 -91t-1.5 -90q-8 -147 -31 -159q-2 -87 -31 -128q-23 -32 -72 -50l-93 -30q-15 -7 -23 -18q-3 -8 -11 -24v74q0 18 11 31q7 7 32 21l145 76q20 11 21 46h-345q-35 0 -49 -27q-3 -9 -9.5 -28t-10.5 -29v149q0 106 88 106h296q43 0 43 171 h-426v170h597z" />
<glyph unicode="&#xf38b;" horiz-adv-x="512" d="M458 565q0 -38 -28 -66t-66 -28t-66 28.5t-28 66.5t28 65.5t67 27.5q37 0 65 -28t28 -66zM229 586q-5 -9 -43 -20q-42 -12 -59 -31q-30 -30 -77 -96v11q0 18 -1 29q-2 38 -2 39q0 52 30 102q35 56 83 56q26 0 47 -33q14 -23 22 -57zM0 388h512v-170h-85l-86 -299l-85 299 h-85l-86 -299q-10 37 -47 158q-38 131 -38 141v170zM420 566q0 23 -17 40t-39 17q-23 0 -40.5 -17t-17.5 -39q0 -23 17 -40.5t40 -17.5t40 17t17 40z" />
<glyph unicode="&#xf38c;" horiz-adv-x="427" d="M0 388h427v-170h-256l-86 -299l-85 299v170zM404 40q0 -38 -28 -66t-66 -28t-66 28.5t-28 66.5t28 66t67 28q38 0 65.5 -28t27.5 -67zM351 41q0 17 -12 29t-29 12t-29.5 -12t-12.5 -30q0 -17 12.5 -29.5t29.5 -12.5t29 13t12 30z" />
<glyph unicode="&#xf38d;" horiz-adv-x="597" d="M268 953q0 -38 -28 -66t-67 -28q-38 0 -66 28t-28 67q0 38 28 66t67 28t66.5 -28t27.5 -67zM351 772l-342 1v84h342v-85zM597 388v-170h-125l-86 -342l-149 512l-150 -512l-87 342v169l49 1l124 427l135 -427h289zM215 954q0 17 -12.5 29.5t-28.5 12.5q-17 0 -30 -13 t-13 -30t13 -29.5t29 -12.5q17 0 29.5 13t12.5 30z" />
<glyph unicode="&#xf38e;" horiz-adv-x="597" d="M552 565q0 38 -28 66t-66 28t-66 -28q-28 -27 -28 -65q0 -39 28 -67q19 -22 48 -26.5t54 6t42 34.5t16 52zM351 772l-342 1v84h342v-85zM597 218v170h-289l-135 427l-124 -427l-49 -1v-169l87 -342l150 512l149 -512l86 342h125zM514 566q0 -23 -17 -40t-40 -17t-40 17.5 t-17 40.5q0 22 17.5 39t39.5 17q23 0 40 -17t17 -40z" />
<glyph unicode="&#xf38f;" horiz-adv-x="598" d="M550 529q0 -38 -28 -66t-66 -28t-66 28t-28 67q0 38 28 66t67 28q38 0 65.5 -28t27.5 -67zM598 387v-169h-253q0 -102 -33 -185q-44 -109 -129 -114q-20 0 -34 1q-16 1 -33 1q-67 0 -88 -43v110q0 89 106 89q55 0 94 36q40 37 40 92l-2 13h-266v169l214 1v167h103v-167z M498 530q0 17 -12.5 29.5t-29.5 12.5t-29.5 -13t-12.5 -30t12.5 -29.5t29.5 -12.5t29.5 13t12.5 30z" />
<glyph unicode="&#xf390;" horiz-adv-x="682" d="M590 557q0 -38 -28 -66t-67 -28q-38 0 -66 28.5t-28 66.5t28 66t67 28q38 0 66 -28t28 -67zM334 557q0 -38 -28 -66t-67 -28q-38 0 -66 28.5t-28 66.5t28 66t67 28q38 0 66 -28t28 -67zM682 389v-172l-337 1q0 -102 -33 -185q-44 -109 -129 -114q-20 0 -34 1q-16 1 -33 1 q-67 0 -88 -43v110q0 89 106 89q55 0 94 36q40 37 40 92l-2 13h-266v171h682zM537 558q0 17 -12 29t-29 12t-30 -12.5t-13 -29.5t13 -29t29 -12q18 0 30 12.5t12 29.5zM281 558q0 17 -12 29t-29 12t-30 -12.5t-13 -29.5t13 -29t29 -12q18 0 30 12.5t12 29.5z" />
<glyph unicode="&#xf391;" horiz-adv-x="512" d="M467 565q0 -38 -28 -66t-66 -28q-39 0 -67 28.5t-28 66.5t28.5 65.5t66.5 27.5t66 -28t28 -66zM238 586q-7 -10 -43 -20q-43 -12 -60 -31q-27 -27 -76 -96v11q0 18 -1 29q-2 38 -2 39q0 52 29 102q35 56 83 56q28 0 47 -33q15 -22 23 -57zM512 388v-170h-427 q50 -103 116 -212q34 44 52 62q35 33 71 33q66 0 107 -60q35 -53 35 -123q0 -67 -50 -117q-49 -49 -118 -49q-102 0 -162 120q-42 86 -136 346v170h512zM428 566q0 23 -16.5 40t-39.5 17t-40 -17t-17 -39q0 -23 17 -40.5t40 -17.5q22 0 39 17t17 40zM421 -50q0 38 -27 72 q-29 38 -65 38q-35 0 -64 -38q-27 -34 -27 -72q0 -35 27 -60t64 -25t64.5 24.5t27.5 60.5z" />
<glyph unicode="&#xf392;" horiz-adv-x="598" d="M598 387v-169h-253q0 -102 -33 -185q-44 -109 -129 -114q-20 0 -34 1q-16 1 -33 1q-67 0 -88 -43v110q0 89 106 89q55 0 94 36q40 37 40 92l-2 13h-266v169l222 1v167h95v-167z" />
<glyph unicode="&#xf393;" horiz-adv-x="597" d="M271 906q0 -38 -28.5 -66t-66.5 -28t-66 28.5t-28 66.5t28.5 66t66.5 28t66 -28.5t28 -66.5zM597 388v-170h-125l-86 -342l-149 512l-150 -512l-87 342l1 170l48 -1l124 428l134 -427h290zM323 -182q0 -3 -0.5 -8t-1 -14t-0.5 -17q-1 -24 0 -40q-52 71 -77 96 q-19 21 -60 31q-39 11 -43 21q8 34 23 56q19 34 47 34q49 0 82 -57q30 -50 30 -102zM232 907q0 23 -17 40t-39 17q-23 0 -40 -16.5t-17 -39.5t16.5 -40t39.5 -17t40 17t17 39z" />
<glyph unicode="&#xf394;" horiz-adv-x="597" d="M271 906q0 -38 -28.5 -66t-66.5 -28t-66 28.5t-28 66.5t28.5 66t66.5 28t66 -28.5t28 -66.5zM597 388v-170h-125l-86 -342l-149 512l-150 -512l-87 342l1 171h48l124 426l134 -427h290zM232 907q0 23 -17 40t-39 17q-23 0 -40 -16.5t-17 -39.5t16.5 -40t39.5 -17t40 17 t17 39z" />
<glyph unicode="&#xf395;" horiz-adv-x="597" d="M597 815l-125 -597l-86 -342l-149 512l-150 -512l-87 342v169l49 1l124 427l135 -427q8 31 21 62q30 75 80 159q88 148 188 206zM476 -294q-31 -7 -61 -53q-28 -40 -35 -76q-11 42 -35 77q-30 46 -61 52q34 8 62 51q27 41 34 76q8 -38 34 -76q28 -43 62 -51zM220 -294 q-31 -7 -61 -53q-28 -40 -35 -76q-11 42 -35 77q-30 46 -61 52q34 8 62 51q27 41 34 76q8 -38 34 -76q28 -43 62 -51z" />
<glyph unicode="&#xf39d;" horiz-adv-x="501" d="M500 388l1 -170h-74q-2 7 -21 142q-14 95 -41 138q-41 62 -120 62q-96 0 -152 -74q-51 -68 -51 -167q0 -80 17 -123q13 -36 54 -71q34 -26 101 -78l-86 -128q-80 141 -82 145q-46 85 -46 154v170q0 136 59 231q69 111 197 111q99 0 160 -91q54 -79 54 -184q0 -31 -12 -67 h42z" />
<glyph unicode="&#xf39f;" horiz-adv-x="0" />
<glyph unicode="&#xf3a0;" horiz-adv-x="512" d="M306 388h206v-170h-85l-86 -299q-38 171 -74 344q-30 143 -41 175q-18 47 -45 47h-1q-38 -1 -98 -37q-47 -28 -82 -60q5 80 57 164q59 93 124 93q66 0 100 -109q21 -67 25 -148z" />
<glyph unicode="&#xf3a1;" horiz-adv-x="256" d="M0 388h256v-170h-85l-86 -299l-85 299v170z" />
<glyph unicode="&#xf3a2;" horiz-adv-x="427" d="M427 815q-85 -124 -151 -284q-49 -117 -104 -303q-29 -103 -86 -309l-87 299h1v170q45 -174 61 -261q13 175 36 324q59 353 159 500l-26 120q65 -90 197 -256z" />
<glyph unicode="&#xf3a3;" horiz-adv-x="256" d="M256 269l-6 -316q-1 -113 -29 -199q-29 -90 -72 -103q-25 -8 -55 -34l-2 -3q-2 -3 -6.5 -9.5t-9.5 -12.5q-10 -16 -27 -16q-24 0 -24 82q0 74 1 78q6 55 34 55q5 0 14.5 -4.5t13.5 -4.5q10 0 36 9q11 4 18 13q3 4 5.5 7.5t4.5 5.5l1 2q13 11 20 135q6 101 6 178 q0 52 -9 63q-20 23 -102 23h-68v170h126q84 0 111 -31q19 -20 19 -88z" />
<glyph unicode="&#xf3a5;" horiz-adv-x="427" d="M0 388h427v-170h-85q0 -134 -15 -200q-33 -143 -134 -143q-87 0 -146 126q-47 105 -47 204v183zM298 186l1 32h-256v-9v-5q0 -55 39 -106q44 -56 101 -56q112 0 115 144z" />
<glyph unicode="&#xf3a7;" horiz-adv-x="1024" d="M1024 388v-170h-298l170 -342l-128 -127l-128 469h-42v-30q1 -313 -149 -313q-88 0 -146 133q-47 109 -47 210h-85l-86 -299l-85 299v170h1024zM555 218h-256v-9v-5q0 -56 39 -107q43 -55 101 -55q69 0 96 57q18 38 20 119z" />
<glyph unicode="&#xf3a8;" horiz-adv-x="464" d="M464 382q0 -123 -19 -123q-8 0 -10 8q-4 22 -11 65t-10 65q-17 78 -47 114q-40 49 -122 49q-80 0 -135 -44q-57 -47 -62 -128h242q39 -108 39 -257q0 -256 -127 -256q-88 0 -150 126q-52 104 -52 204v183q0 137 59 231q68 111 197 111q111 0 166 -127q42 -96 42 -221z M281 186l1 32h-239v-9q-2 -58 43 -111q48 -56 105 -56q87 0 90 144z" />
<glyph unicode="&#xf3a9;" horiz-adv-x="641" d="M640 290l1 -166v-44q-3 -34 -17 -34t-23 65q-2 13 -5 40t-4 40q-7 28 -89 28h-6l-155 -1v-30q1 -313 -149 -313q-88 0 -146 133q-47 109 -47 210v170h528q112 0 112 -98zM299 218h-256v-9v-5q0 -56 39 -107q43 -55 101 -55q69 0 96 57q18 38 20 119z" />
<glyph unicode="&#xf3ac;" horiz-adv-x="427" d="M427 815q-85 -124 -151 -284q-49 -117 -104 -303q-29 -103 -86 -309l-87 299h1v170q45 -174 61 -261q13 175 36 324q59 353 159 500l-26 120q65 -90 197 -256z" />
<glyph unicode="&#xf3ae;" horiz-adv-x="430" d="M470 462v-7q-2 -30 -19 -87q-16 -55 -24 -67l-18 105q-10 68 -38 102q-38 47 -115 52h-13q-82 0 -138 -59q-62 -67 -62 -179v-20q3 -94 34 -162q23 -52 67 -101l70 -77l-86 -128l-9 23q-9 23 -32 84t-48 125q-28 75 -39 152v170q6 137 56 226q65 116 191 116h9 q105 -5 163 -94q51 -76 51 -174z" />
<glyph unicode="&#xf3af;" horiz-adv-x="597" d="M597 601q-116 -170 -164 -326q-30 -119 -91 -356l-87 299h-84l-86 -299l-85 299v170h256q45 -174 61 -261q9 98 24 193q38 229 103 392l-43 145q58 -81 196 -256z" />
<glyph unicode="&#xf3b0;" horiz-adv-x="512" d="M0 388h512v-170h-85l-86 -299l-85 299h-85l-86 -299q-10 37 -47 158q-38 131 -38 141v170z" />
<glyph unicode="&#xf41e;" horiz-adv-x="640" d="M458 388h182v-170h-85l-85 -299q-8 26 -30 224q-20 188 -54 281q-49 136 -140 136h-1q-97 -2 -152 -75q-51 -67 -51 -166q0 -80 17 -123q13 -36 54 -71l101 -78l-86 -128q-8 14 -37 65.5t-45 79.5q-46 85 -46 154v170q0 136 59 231q69 111 197 111q99 0 160 -91 q54 -79 54 -184q0 -31 -12 -67zM476 -252q-30 -7 -61 -52q-28 -42 -35 -76q-11 41 -35 77q-30 45 -61 51q33 7 62 52q27 39 34 76q8 -40 34 -76q28 -43 62 -52zM220 -252q-30 -7 -61 -52q-28 -42 -35 -76q-11 41 -35 77q-30 45 -61 51q33 7 62 52q27 39 34 76q8 -40 34 -76 q28 -43 62 -52z" />
<glyph unicode="&#xf41f;" d="M939 275v-6l-6 -316q-1 -113 -29 -199q-29 -90 -72 -103q-25 -8 -55 -34q-3 -2 -19 -25q-10 -16 -26 -16q-24 0 -24 82v78q6 55 34 55q5 0 15 -4.5t14 -4.5q9 0 35 9q10 4 19 13q3 4 5.5 7.5t3.5 5.5l2 2q11 10 19 135q7 94 7 178q0 52 -9 63q-20 23 -102 23h-196 l-85 -299q-8 26 -30 224q-20 188 -54 281q-49 136 -140 136h-1q-97 -2 -152 -75q-51 -67 -51 -166q0 -80 17 -123q13 -36 54 -71l101 -78l-86 -128q-8 14 -37 65.5t-45 79.5q-46 85 -46 154v170q0 136 59 231q69 111 197 111q99 0 160 -91q54 -79 54 -184q0 -31 -12 -67h350 q86 0 111 -31q20 -23 20 -82zM476 -252q-30 -7 -61 -52q-28 -42 -35 -76q-11 41 -35 77q-30 45 -61 51q33 7 62 52q27 39 34 76q8 -40 34 -76q28 -43 62 -52zM220 -252q-30 -7 -61 -52q-28 -42 -35 -76q-11 41 -35 77q-30 45 -61 51q33 7 62 52q27 39 34 76q8 -40 34 -76 q28 -43 62 -52z" />
<glyph unicode="&#xf420;" horiz-adv-x="810" d="M810 388v-170h-298l171 -342l-128 -127q-47 149 -97 410q-42 222 -72 291q-48 110 -139 110h-2q-97 -2 -152 -75q-51 -67 -51 -166q0 -80 17 -123q13 -36 54 -71l101 -78l-86 -128q-8 14 -37 65.5t-45 79.5q-46 85 -46 154v170q0 136 59 231q69 111 197 111q99 0 160 -91 q54 -79 54 -184q0 -31 -12 -67h352zM476 -252q-30 -7 -61 -52q-28 -42 -35 -76q-11 41 -35 77q-30 45 -61 51q33 7 62 52q27 39 34 76q8 -40 34 -76q28 -43 62 -52zM220 -252q-30 -7 -61 -52q-28 -42 -35 -76q-11 41 -35 77q-30 45 -61 51q33 7 62 52q27 39 34 76 q8 -40 34 -76q28 -43 62 -52z" />
<glyph unicode="&#xf421;" d="M939 290v-204q-1 -40 -16 -40h-1q-13 0 -19 47q-11 90 -12 98q-4 20 -59 25l-107 2h-213l171 -342l-128 -127q-47 149 -97 410q-42 222 -72 291q-48 110 -139 110h-2q-97 -2 -152 -75q-51 -67 -51 -166q0 -80 17 -123q13 -36 54 -71l101 -78l-86 -128q-8 14 -37 65.5 t-45 79.5q-46 85 -46 154v170q0 136 59 231q69 111 197 111q99 0 160 -91q54 -79 54 -184q0 -31 -12 -67h368q113 0 113 -98zM476 -252q-30 -7 -61 -52q-28 -42 -35 -76q-11 41 -35 77q-30 45 -61 51q33 7 62 52q27 39 34 76q8 -40 34 -76q28 -43 62 -52zM220 -252 q-30 -7 -61 -52q-28 -42 -35 -76q-11 41 -35 77q-30 45 -61 51q33 7 62 52q27 39 34 76q8 -40 34 -76q28 -43 62 -52z" />
<glyph unicode="&#xf422;" horiz-adv-x="640" d="M552 388h88v-170h-85q0 -21 1 -46q2 -50 2 -63q0 -234 -126 -234q-85 0 -148 131q-42 89 -62 208q-11 68 -11 121q0 27 3 53h299q-19 49 -50 86q-74 86 -184 86q-98 0 -169 -74q-68 -73 -68 -167q0 -106 52 -173l103 -108l-69 -119q-8 14 -37 65.5t-45 79.5 q-46 85 -46 154v170q0 131 76 231q84 111 214 111q104 0 186 -91q79 -86 79 -184q0 -57 -3 -67zM476 -294q-31 -7 -61 -53q-28 -40 -35 -76q-11 42 -35 77q-30 46 -61 52q34 8 62 51q27 41 34 76q8 -38 34 -76q28 -43 62 -51zM220 -294q-31 -7 -61 -53q-28 -40 -35 -76 q-11 42 -35 77q-30 46 -61 52q34 8 62 51q27 41 34 76q8 -38 34 -76q28 -43 62 -51zM511 186l2 32h-248v-9q35 -77 62 -112q43 -55 95 -55q56 0 76 44q11 27 13 100z" />
<glyph unicode="&#xf423;" horiz-adv-x="556" d="M556 388q0 2 -1 2t-1 -90v-82v-11q0 -2 0.5 -30.5t0.5 -42.5q0 -259 -123 -259q-85 0 -148 131q-42 89 -62 208q-11 68 -11 121q0 27 3 53h299q-19 49 -50 86q-74 86 -184 86q-98 0 -169 -74q-68 -73 -68 -167q0 -106 52 -173l103 -108l-69 -119q-8 14 -37 65.5t-45 79.5 q-46 85 -46 154v170q0 131 76 231q84 111 214 111q103 0 185 -91q77 -88 77 -184q0 -26 4 -67zM476 -294q-31 -7 -61 -53q-28 -40 -35 -76q-11 42 -35 77q-30 46 -61 52q34 8 62 51q27 41 34 76q8 -38 34 -76q28 -43 62 -51zM220 -294q-31 -7 -61 -53q-28 -40 -35 -76 q-11 42 -35 77q-30 46 -61 52q34 8 62 51q27 41 34 76q8 -38 34 -76q28 -43 62 -51zM511 186l2 32h-248v-9q35 -77 62 -112q43 -55 95 -55q56 0 76 44q11 27 13 100z" />
<glyph unicode="&#xf424;" horiz-adv-x="981" d="M981 388v-170h-299l170 -342l-127 -127q-19 68 -128 469h-42q0 -21 1 -46q2 -50 2 -63q0 -234 -126 -234q-85 0 -148 131q-42 89 -62 208q-11 68 -11 121q0 27 3 53h299q-19 49 -50 86q-74 86 -184 86q-98 0 -169 -74q-68 -73 -68 -167q0 -106 52 -173l103 -108l-69 -119 q-8 14 -37 65.5t-45 79.5q-46 85 -46 154v170q0 131 76 231q84 111 214 111q104 0 186 -91q79 -86 79 -184q0 -57 -3 -67h44h385zM476 -294q-31 -7 -61 -53q-28 -40 -35 -76q-11 42 -35 77q-30 46 -61 52q34 8 62 51q27 41 34 76q8 -38 34 -76q28 -43 62 -51zM220 -294 q-31 -7 -61 -53q-28 -40 -35 -76q-11 42 -35 77q-30 46 -61 52q34 8 62 51q27 41 34 76q8 -38 34 -76q28 -43 62 -51zM511 186l2 32h-248v-9q35 -77 62 -112q43 -55 95 -55q56 0 76 44q11 27 13 100z" />
<glyph unicode="&#xf425;" horiz-adv-x="853" d="M853 290v-204q-1 -40 -16 -40h-1q-12 0 -18 47q-8 69 -13 98q-4 21 -55 25q-2 0 -110 2h-85q0 -21 1 -46q2 -50 2 -63q0 -234 -126 -234q-85 0 -148 131q-42 89 -62 208q-11 68 -11 121q0 27 3 53h299q-19 49 -50 86q-74 86 -184 86q-98 0 -169 -74q-68 -73 -68 -167 q0 -106 52 -173l103 -108l-69 -119q-8 14 -37 65.5t-45 79.5q-46 85 -46 154v170q0 131 76 231q84 111 214 111q104 0 186 -91q79 -86 79 -184q0 -57 -3 -67h189q112 0 112 -98zM476 -294q-31 -7 -61 -53q-28 -40 -35 -76q-11 42 -35 77q-30 46 -61 52q34 8 62 51 q27 41 34 76q8 -38 34 -76q28 -43 62 -51zM220 -294q-31 -7 -61 -53q-28 -40 -35 -76q-11 42 -35 77q-30 46 -61 52q34 8 62 51q27 41 34 76q8 -38 34 -76q28 -43 62 -51zM511 186l2 32h-248v-9q35 -77 62 -112q43 -55 95 -55q56 0 76 44q11 27 13 100z" />
<glyph unicode="&#xf426;" horiz-adv-x="811" d="M811 388v-170h-317q18 -51 52 -153q41 -101 97 -101q25 0 40 30q13 25 14 53q28 -102 28 -157q0 -36 -18 -65q-21 -34 -56 -34q-105 0 -166 199q-60 248 -91 371q-57 199 -149 199q-96 0 -152 -74q-51 -68 -51 -167q0 -80 17 -123q13 -36 54 -71q34 -26 101 -78l-86 -128 q-8 14 -37 65.5t-45 79.5q-46 85 -46 154v170q0 136 59 231q69 111 197 111q99 0 160 -91q54 -79 54 -184q0 -31 -12 -67h353zM476 -252q-30 -7 -61 -52q-28 -42 -35 -76q-11 41 -35 77q-30 45 -61 51q33 7 62 52q27 39 34 76q8 -40 34 -76q28 -43 62 -52zM220 -252 q-30 -7 -61 -52q-28 -42 -35 -76q-11 41 -35 77q-30 45 -61 51q33 7 62 52q27 39 34 76q8 -40 34 -76q28 -43 62 -52z" />
<glyph unicode="&#xf427;" horiz-adv-x="1024" d="M1024 290v-204q-1 -40 -16 -40h-1q-12 0 -18 47q-8 69 -13 98q-4 27 -137 27h-28h-317q18 -51 52 -153q41 -101 97 -101q25 0 40 30q13 25 14 53q28 -102 28 -157q0 -36 -18 -65q-21 -34 -56 -34q-105 0 -166 199q-60 248 -91 371q-57 199 -149 199q-96 0 -152 -74 q-51 -68 -51 -167q0 -80 17 -123q13 -36 54 -71l101 -78l-86 -128q-8 14 -37 65.5t-45 79.5q-46 85 -46 154v170q0 136 59 231q69 111 197 111q99 0 160 -91q54 -79 54 -184q0 -31 -12 -67h453q113 0 113 -98zM476 -252q-30 -7 -61 -52q-28 -42 -35 -76q-11 41 -35 77 q-30 45 -61 51q33 7 62 52q27 39 34 76q8 -40 34 -76q28 -43 62 -52zM220 -252q-30 -7 -61 -52q-28 -42 -35 -76q-11 41 -35 77q-30 45 -61 51q33 7 62 52q27 39 34 76q8 -40 34 -76q28 -43 62 -52z" />
<glyph unicode="&#xf446;" horiz-adv-x="811" d="M811 388v-170h-299q2 -101 38 -154q40 -59 134 -79q28 -3 85 -15v-136q-183 51 -253 121q-87 85 -89 263q-1 5 -2 21t-2 28q-15 129 -15 130q-14 77 -45 114q-40 49 -118 49q-81 0 -135 -45q-57 -46 -62 -127h242q39 -110 39 -257q0 -256 -127 -256q-88 0 -150 125 q-52 105 -52 205v183q0 137 58 231q69 111 198 111q107 0 160 -125q38 -92 39 -217h356zM282 218h-239v-9v-5q0 -58 43 -108q46 -54 105 -54q58 0 79 64q11 35 12 112z" />
<glyph unicode="&#xf447;" horiz-adv-x="853" d="M853 388v-170h-150v-236l65 -12v-114q-189 54 -253 110q-86 76 -88 252q-1 5 -2 21t-2 28q-15 129 -15 130q-14 77 -45 114q-40 49 -118 49q-81 0 -135 -45q-57 -46 -62 -127h242q39 -110 39 -257q0 -256 -127 -256q-88 0 -150 125q-52 105 -52 205v183q0 137 58 231 q69 111 198 111q105 0 168 -135q39 -84 56 -207q2 -38 17 -169q36 -109 49 -133q34 -64 94 -88l1 390h212zM282 218h-239v-9v-5q0 -58 43 -108q46 -54 105 -54q58 0 79 64q11 35 12 112z" />
<glyph unicode="&#xf448;" horiz-adv-x="1068" d="M1068 290v-204q-1 -40 -16 -40h-1q-12 0 -18 47q-8 69 -13 98q-4 21 -59 25q-22 2 -108 2h-150v-236l65 -12v-114q-189 54 -253 110q-86 76 -88 252q-1 5 -2 21t-2 28l-11 111q-14 83 -44 124q-43 58 -123 58q-81 0 -135 -45q-57 -46 -62 -127h242q39 -110 39 -257 q0 -256 -127 -256q-88 0 -150 125q-52 105 -52 205v183q0 137 58 231q69 111 198 111q105 0 171 -135q45 -91 60 -207q2 -38 17 -169q15 -173 136 -221l1 390h315q112 0 112 -98zM282 218h-239v-9v-5q0 -58 43 -108q46 -54 105 -54q58 0 79 64q11 35 12 112z" />
<glyph unicode="&#xf449;" horiz-adv-x="726" d="M726 388v-170l-84 -1v-9q0 -333 -141 -333q-91 0 -176 253q-24 -253 -123 -253q-88 0 -150 125q-52 105 -52 205v183q0 132 96 235q98 107 228 107q115 0 208 -112q85 -103 104 -230h90zM639 -225q-8 -34 -23 -57q-21 -33 -46 -33q-48 0 -83 56q-30 49 -30 102q0 3 0.5 8 t1 14t0.5 17q1 24 0 40q40 -54 77 -96q21 -21 60 -31q38 -11 43 -20zM48 388h527q-32 78 -99 124q-68 48 -149 48q-89 0 -174 -42q-101 -51 -105 -130zM598 218h-239v-9v-7q0 -56 43 -105q46 -55 105 -55t78 64q12 36 13 112zM285 218h-239v-9q-2 -61 44 -112 q46 -55 105 -55t78 64q11 33 12 112z" />
<glyph unicode="&#xf44a;" horiz-adv-x="642" d="M640 334q0 -26 1 -55q1 -28 1 -70q0 -334 -141 -334q-91 0 -176 253q-24 -253 -123 -253q-88 0 -150 125q-52 105 -52 205v183q0 132 96 235q98 107 228 107q129 0 227 -137q89 -127 89 -259zM622 -225q-8 -34 -23 -57q-21 -33 -47 -33q-47 0 -82 56q-30 49 -30 102 q0 3 0.5 8t1 14t0.5 17q1 24 0 40q40 -54 77 -96q21 -21 60 -31q39 -11 43 -20zM48 388h527q-32 78 -99 124q-68 48 -149 48q-89 0 -174 -42q-101 -51 -105 -130zM598 218h-239v-9v-7q0 -56 43 -105q46 -55 105 -55t78 64q12 36 13 112zM285 218h-239v-9q-2 -61 44 -112 q46 -55 105 -55t78 64q11 33 12 112z" />
<glyph unicode="&#xf44b;" horiz-adv-x="726" d="M475 859q0 -76 -50 -147q-27 0 -80 -3l10 120l-199 156q19 -2 57.5 -7t58.5 -8q90 -12 136 -33q67 -28 67 -78zM726 218v170h-90q-19 127 -104 230q-93 112 -208 112q-130 0 -228 -107q-96 -103 -96 -235v-183q0 -100 52 -205q62 -125 150 -125q99 0 123 253 q85 -253 176 -253q141 0 141 333v9zM575 388h-527q4 79 105 130q85 42 174 42q81 0 149 -48q67 -46 99 -124zM598 218q-1 -76 -13 -112q-19 -64 -78 -64t-105 55q-43 49 -43 105v7v9h239zM285 218q-1 -79 -12 -112q-19 -64 -78 -64t-105 55q-46 51 -44 112v9h239z" />
<glyph unicode="&#xf44c;" horiz-adv-x="642" d="M467 859q0 -77 -51 -147q-28 0 -80 -3l11 120l-200 156q20 -2 58 -7t58 -8q89 -12 137 -33q67 -28 67 -78zM640 334q0 132 -89 259q-98 137 -227 137q-130 0 -228 -107q-96 -103 -96 -235v-183q0 -100 52 -205q62 -125 150 -125q99 0 123 253q85 -253 176 -253 q141 0 141 334q0 42 -1 70q-1 29 -1 55zM575 388h-527q4 79 105 130q85 42 174 42q81 0 149 -48q67 -46 99 -124zM598 218q-1 -76 -13 -112q-19 -64 -78 -64t-105 55q-43 49 -43 105v7v9h239zM285 218q-1 -79 -12 -112q-19 -64 -78 -64t-105 55q-46 51 -44 112v9h239z" />
<glyph unicode="&#xf44d;" horiz-adv-x="768" d="M586 388h182v-170h-85l-86 -299q-8 32 -26 224q-17 190 -48 281q-46 136 -137 136h-1q-92 0 -144 -64q-41 -49 -68 -146l10 38q-6 -54 -6 -105q0 -43 6 -65q9 -41 68 -138q60 -97 94 -118q-173 12 -214 12q-25 0 -114 -12v53l26 2l-5 202l-38 -1v170h34v256h53l-1 -256 h45q32 167 65 229q62 113 191 113q100 0 157 -91q48 -76 48 -184q0 -47 -6 -67zM191 14q-35 106 -60 204h-41l-5 -204q37 8 46 8q17 0 60 -8z" />
<glyph unicode="&#xf44e;" horiz-adv-x="1067" d="M1067 269l-6 -316q-3 -113 -29 -199q-29 -90 -72 -103q-24 -8 -56 -34q-1 -1 -17 -25q-10 -16 -27 -16q-24 0 -24 82q0 74 1 78q4 55 34 55q4 0 14 -4.5t14 -4.5q11 0 36 9q11 4 18 13q3 4 5.5 7.5t3.5 5.5l2 2q13 11 20 135q6 100 6 178q0 52 -9 63q-20 23 -102 23h-196 l-86 -299q-6 21 -29 224q-21 188 -54 281q-49 136 -140 136h-1q-90 0 -138 -64q-34 -44 -62 -146l10 38q-6 -54 -6 -105q0 -43 6 -65q9 -41 68 -133q60 -94 94 -115q-173 12 -214 12q-25 0 -114 -12v53l26 3l-5 193l-38 -1v170h34v256h53l-1 -256h45q32 167 65 229 q62 113 191 113q101 0 161 -91q53 -80 53 -184q0 -21 -15 -67h351q83 0 111 -31q19 -20 19 -88zM191 22q-17 53 -60 196h-41l-5 -196q35 9 46 9q19 0 60 -9z" />
</font>
</defs>
</svg>
