<?xml version="1.0" standalone="no"?>
<!DOCTYPE svg PUBLIC "-//W3C//DTD SVG 1.1//EN" "http://www.w3.org/Graphics/SVG/1.1/DTD/svg11.dtd" >
<svg xmlns="http://www.w3.org/2000/svg" xmlns:xlink="http://www.w3.org/1999/xlink" version="1.1">
<metadata></metadata>
<defs>
<font id="mongolian_whiteregular" horiz-adv-x="0" >
<font-face units-per-em="2048" ascent="1638" descent="-410" />
<missing-glyph horiz-adv-x="532" />
<glyph unicode="&#xe832;&#xe834;" horiz-adv-x="903" d="M965 901v-201h-430l231 -327v-27l-49 -230h-26l-231 584h-385l230 -327v-27l-48 -230h-27l-230 584v201h965z" />
<glyph unicode="&#xe864;&#xe8e4;" horiz-adv-x="811" d="M30 901v1h337q8 97 34 156.5t58 92.5t66.5 43.5t56.5 10.5q52 0 92.5 -24.5t68.5 -65.5t47.5 -97t28.5 -116h67v-202h-67q-12 0 -26 13t-18 32q-10 46 -20.5 95t-29.5 90.5t-52.5 69.5t-91.5 28q-26 0 -55 -9.5t-53.5 -34.5t-40.5 -68.5t-16 -111.5q0 -40 16.5 -75 t39.5 -67.5t50.5 -61.5t47.5 -53l-30 -185h-15q-5 14 -17.5 31t-25 36.5t-26.5 39.5t-24 37q-12 17 -23 40t-20.5 48t-15.5 52t-6 54h-169q-2 -27 -6.5 -75t-10 -99.5t-13.5 -98.5t-16 -74l-39 -12q-33 84 -53.5 174.5t-29.5 184.5h-30v201h30z" />
<glyph unicode="&#xe86a;&#xe8c4;" horiz-adv-x="1266" d="M1320 901v-201h-194q-2 -27 -6.5 -74t-10 -98.5t-13.5 -97t-16 -72.5l-38 -11q-32 81 -53 171.5t-30 181.5h-106q-2 -27 -7 -68t-14 -88t-22.5 -96t-33.5 -90l-38 -11q-10 18 -17.5 39t-12 48t-6 61.5t-1.5 80.5q0 26 4.5 55t10.5 61t11 68.5t6 77.5q0 20 -2.5 49.5 t-10.5 62.5t-21 65.5t-32.5 58.5t-47 42t-62.5 16q-54 0 -94.5 -34t-66 -84t-38 -108t-12.5 -104q0 -86 39 -181t123 -187l-51 -176h-20q-78 100 -122.5 213t-44.5 229h-105q-3 -27 -7 -74t-9.5 -98.5t-13 -97t-15.5 -72.5l-38 -11q-34 81 -54 171.5t-29 181.5v201h271 q7 88 32 163.5t62.5 129.5t88 84t108.5 30q60 0 104.5 -31t74.5 -85t45 -129t19 -162h516z" />
<glyph unicode="&#xe86a;&#xe8e4;" horiz-adv-x="1262" d="M860 92q0 -11 -7 -19.5t-17 -18t-23.5 -20t-27.5 -24.5q-12 -14 -21 -26t-16 -21.5t-13.5 -15t-14.5 -5.5q-19 0 -31.5 9t-12.5 30q0 25 3.5 46t12.5 46q6 15 14.5 32.5t20 32.5t26 24.5t30.5 9.5q17 0 40 -20q37 -33 37 -60zM1140 92q0 -11 -7 -19.5t-17 -18t-23.5 -20 t-27.5 -24.5q-12 -14 -21 -26t-16 -21.5t-13.5 -15t-14.5 -5.5q-19 0 -31.5 9t-12.5 30q0 25 3.5 46t12.5 46q6 15 14.5 32.5t20 32.5t26 24.5t30.5 9.5q17 0 40 -20q37 -33 37 -60zM1320 901v-201h-194q-2 -27 -6.5 -74t-10 -98.5t-13.5 -97t-16 -72.5l-38 -11 q-32 81 -53 171.5t-30 181.5h-106q-2 -27 -7 -68t-14 -88t-22.5 -96t-33.5 -90l-38 -11q-10 18 -17.5 39t-12 48t-6 61.5t-1.5 80.5q0 26 4.5 55t10.5 61t11 68.5t6 77.5q0 20 -2.5 49.5t-10.5 62.5t-21 65.5t-32.5 58.5t-47 42t-62.5 16q-54 0 -94.5 -34t-66 -84t-38 -108 t-12.5 -104q0 -86 39 -181t123 -187l-51 -176h-20q-78 100 -122.5 213t-44.5 229h-105q-3 -27 -7 -74t-9.5 -98.5t-13 -97t-15.5 -72.5l-38 -11q-34 81 -54 171.5t-29 181.5v201h271q7 88 32 163.5t62.5 129.5t88 84t108.5 30q60 0 104.5 -31t74.5 -85t45 -129t19 -162h516z " />
<glyph unicode="&#xe86a;&#xe904;" horiz-adv-x="1085" d="M760 814q-3 13 -5 26q-11 49 -30 90.5t-52.5 69.5t-91.5 28q-26 0 -55 -9.5t-53.5 -34.5t-40.5 -68.5t-16 -111.5q0 -40 16.5 -75t39.5 -67.5t50.5 -61.5t47.5 -53l-30 -185h-15q-5 14 -17.5 31t-25 36.5t-26.5 39.5t-24 37q-12 17 -23 40t-20.5 48t-15.5 52t-6 54h-169 q-2 -27 -6.5 -75t-10 -99.5t-13.5 -98.5t-16 -74l-39 -12q-33 84 -53.5 174.5t-29.5 184.5h-30v201h30v1h337q8 97 34 156.5t58 92.5t66.5 43.5t56.5 10.5q52 0 92.5 -24.5t68.5 -65.5t48 -97q1 -3 2 -7l-34 232q11 11 39.5 18.5t64.5 7.5q39 0 66 7t44.5 23.5t28.5 43.5 t16 67q21 -29 28 -58.5t7 -59.5q0 -81 -42.5 -130.5t-133.5 -49.5l-43 1l27 -211h25v-2h256v-201h-215q-3 -26 -7 -73.5t-9.5 -99t-13 -98t-15.5 -73.5l-39 -12q-33 83 -53.5 174t-29.5 182v115z" />
<glyph unicode="&#xe86a;&#xe908;" horiz-adv-x="1022" d="M291 901q8 88 32.5 156.5t63.5 115t88 70t109 23.5q57 0 98 -21l20 117h-43q-92 0 -134 49t-42 129q0 31 7.5 60.5t27.5 58.5q6 -39 17.5 -66.5t29 -44t44 -22.5t65.5 -6q35 0 63.5 -8.5t38.5 -18.5l-47 -279q47 -45 70.5 -123.5t27.5 -189.5h230v-201h-178 q-2 -26 -8.5 -68t-15.5 -89t-22.5 -96.5t-31.5 -90.5l-39 -12q-10 21 -17.5 41.5t-12.5 48t-6 61t-1 80.5q0 27 4 55.5t10 61.5t11.5 69t7.5 77q0 30 -7.5 74t-28 83t-54 67t-86.5 28q-58 0 -98 -28t-65.5 -70t-37.5 -92t-12 -97q0 -88 38.5 -183.5t122.5 -187.5l-51 -176 h-18q-78 100 -124 214t-46 230h-105q-2 -26 -6 -73t-9 -99.5t-13 -98.5t-17 -73l-39 -12q-32 82 -52.5 173t-29.5 183h-20v201h291z" />
<glyph unicode="&#xe871;&#xe825;" horiz-adv-x="1300" d="M1247 501v-361q0 -76 -13.5 -131t-39.5 -96t-65.5 -70t-91.5 -53q-29 -13 -46.5 -23.5t-30 -21.5t-21 -27t-21.5 -40h-19l58 248q11 3 23 6.5t25.5 8t29 12t38.5 21.5q13 7 29 19.5t31 30.5t25.5 47t10.5 69v361q0 97 -37.5 148t-103.5 51h-275q-3 -26 -7.5 -73t-10 -98 t-13 -96.5t-15.5 -72.5l-38 -12q-23 53 -38 109t-26 114t-19 116.5t-15 115.5q-9 78 -27.5 146t-46.5 117.5t-66 78t-90 28.5q-178 0 -227 -274h258q93 0 93 -95v-203q0 -63 -10.5 -121.5t-35 -105t-65.5 -74t-102 -27.5q-47 0 -80.5 20.5t-56.5 55.5t-38 80t-23 92t-11 94 t-3 85v199q15 218 90 333.5t211 115.5q66 0 118 -33t88.5 -92.5t58.5 -141.5t32 -182h390q109 0 164 -99t55 -299zM395 700h-285q0 -59 2 -109.5t15.5 -86.5t42 -57t82.5 -21q53 0 82 20.5t42.5 56t16 86t2.5 111.5z" />
<glyph unicode="&#xe871;&#xe823;" horiz-adv-x="899" d="M966 901v-201h-203q-2 -27 -6.5 -75t-10 -99.5t-13 -98t-15.5 -73.5l-39 -11q-24 53 -39 109.5t-26.5 115.5t-19.5 118.5t-15 117.5q-10 79 -28 148t-46.5 119.5t-67.5 79t-91 28.5q-180 0 -230 -278h262q94 0 94 -96v-206q0 -64 -11 -124t-36 -106.5t-66 -74.5t-104 -28 q-47 0 -81 21t-58 56.5t-38.5 81t-23 93t-11.5 95t-3 87.5v201q16 222 92 339t214 117q67 0 119.5 -33.5t89.5 -93.5t59.5 -144t31.5 -185h320zM400 703h-289q0 -60 2.5 -111t15.5 -88.5t42.5 -58.5t83.5 -21q55 0 84.5 20.5t43 57t15.5 87.5t2 114z" />
<glyph unicode="&#xe872;&#xe823;" horiz-adv-x="870" d="M373 899q80 -4 80 -94v-207q0 -63 -11.5 -122.5t-36 -106.5t-65.5 -75t-104 -28q-48 0 -81.5 20.5t-58 56.5t-39 81t-22.5 93t-11.5 95t-3.5 88h-20v201h20q17 221 92.5 339t213.5 118q67 0 119.5 -34t89 -94.5t59 -144.5t33.5 -184h319v-201h-203q-2 -26 -7 -74 t-10 -100.5t-12 -98.5t-16 -73l-39 -12q-24 53 -39.5 110.5t-26.5 116t-19.5 117.5t-14.5 119q-10 78 -28.5 147.5t-46 119.5t-66.5 79t-92 29q-181 0 -230 -279h277v-2zM373 702v-2h-283q0 -59 4 -108q2 -51 15.5 -88t42 -58.5t84.5 -21.5q55 0 83.5 20.5t43 57.5t16.5 88 t2 112h-8z" />
<glyph unicode="&#xe872;&#xe825;" horiz-adv-x="1274" d="M372 898q73 -10 73 -94v-203q0 -63 -10.5 -121.5t-35 -105t-65.5 -74t-102 -27.5q-47 0 -80.5 20.5t-56.5 55.5t-38 80t-23 92t-11 94t-3 85h-20v201h20q15 217 90 332t211 115q66 0 118 -33t88.5 -92.5t58.5 -141.5t32 -182h390q109 0 164 -99t55 -299v-361 q0 -76 -13.5 -131t-39.5 -96t-65.5 -70t-91.5 -53q-29 -13 -46.5 -23.5t-30 -21.5t-21 -27t-21.5 -40h-19l58 248q11 3 23 6.5t25.5 8t29 12t38.5 21.5q13 7 29 19.5t31 30.5t25.5 47t10.5 69v361q0 97 -37.5 148t-103.5 51h-275q-3 -26 -7.5 -73t-10 -98t-13 -96.5 t-15.5 -72.5l-38 -12q-23 53 -38 109t-26 114t-19 116.5t-15 115.5q-9 78 -27.5 146t-46.5 117.5t-66 78t-90 28.5q-177 0 -227 -272h278v-3zM90 700q0 -59 2 -109.5t15.5 -86.5t42 -57t82.5 -21q53 0 82 20.5t42.5 56t16 86t2.5 111.5h-285z" />
<glyph unicode="&#xe871;&#xe82d;" horiz-adv-x="1300" d="M1247 501v-361q0 -76 -13.5 -131t-39.5 -96t-65.5 -70t-91.5 -53q-29 -13 -46.5 -23.5t-30 -21.5t-21 -27t-21.5 -40h-19l58 248q11 3 23 6.5t25.5 8t29 12t38.5 21.5q13 7 29 19.5t31 30.5t25.5 47t10.5 69v361q0 97 -37.5 148t-103.5 51h-275q-3 -26 -7.5 -73t-10 -98 t-13 -96.5t-15.5 -72.5l-38 -12q-23 53 -38 109t-26 114t-19 116.5t-15 115.5q-9 78 -27.5 146t-46.5 117.5t-66 78t-90 28.5q-178 0 -227 -274h258q93 0 93 -95v-203q0 -63 -10.5 -121.5t-35 -105t-65.5 -74t-102 -27.5q-47 0 -80.5 20.5t-56.5 55.5t-38 80t-23 92t-11 94 t-3 85v199q15 218 90 333.5t211 115.5q66 0 118 -33t88.5 -92.5t58.5 -141.5t32 -182h390q109 0 164 -99t55 -299zM395 700h-285q0 -59 2 -109.5t15.5 -86.5t42 -57t82.5 -21q53 0 82 20.5t42.5 56t16 86t2.5 111.5z" />
<glyph unicode="&#xe871;&#xe82c;" horiz-adv-x="899" d="M966 901v-201h-203q-2 -27 -6.5 -75t-10 -99.5t-13 -98t-15.5 -73.5l-39 -11q-24 53 -39 109.5t-26.5 115.5t-19.5 118.5t-15 117.5q-10 79 -28 148t-46.5 119.5t-67.5 79t-91 28.5q-180 0 -230 -278h262q94 0 94 -96v-206q0 -64 -11 -124t-36 -106.5t-66 -74.5t-104 -28 q-47 0 -81 21t-58 56.5t-38.5 81t-23 93t-11.5 95t-3 87.5v201q16 222 92 339t214 117q67 0 119.5 -33.5t89.5 -93.5t59.5 -144t31.5 -185h320zM400 703h-289q0 -60 2.5 -111t15.5 -88.5t42.5 -58.5t83.5 -21q55 0 84.5 20.5t43 57t15.5 87.5t2 114z" />
<glyph unicode="&#xe872;&#xe82c;" horiz-adv-x="885" d="M373 899q80 -4 80 -94v-207q0 -63 -11.5 -122.5t-36 -106.5t-65.5 -75t-104 -28q-48 0 -81.5 20.5t-58 56.5t-39 81t-22.5 93t-11.5 95t-3.5 88h-20v201h20q17 221 92.5 339t213.5 118q67 0 119.5 -34t89 -94.5t59 -144.5t33.5 -184h319v-201h-203q-2 -26 -7 -74 t-10 -100.5t-12 -98.5t-16 -73l-39 -12q-24 53 -39.5 110.5t-26.5 116t-19.5 117.5t-14.5 119q-10 78 -28.5 147.5t-46 119.5t-66.5 79t-92 29q-181 0 -230 -279h277v-2zM373 702v-2h-283q0 -59 4 -108q2 -51 15.5 -88t42 -58.5t84.5 -21.5q55 0 83.5 20.5t43 57.5t16.5 88 t2 112h-8z" />
<glyph unicode="&#xe871;&#xe837;" horiz-adv-x="1399" d="M1351 667v-104q0 -63 -21.5 -101.5t-53.5 -38.5v21q0 119 -43.5 185.5t-130.5 70.5h-408q17 -63 39.5 -111.5t45.5 -85.5t45.5 -64t37.5 -47l-34 -175h-26q-79 95 -134 257.5t-88 373.5q-12 80 -36.5 141t-56.5 103t-68.5 63.5t-74.5 21.5q-179 0 -229 -277h260 q94 0 94 -96v-205q0 -62 -10.5 -121.5t-35.5 -106t-66.5 -74.5t-102.5 -28q-48 0 -81.5 21t-57 56t-38.5 80.5t-23 92.5t-11 94.5t-3 86.5v200q15 221 90.5 337t213.5 116q66 0 118 -42t88.5 -107.5t58.5 -146t29 -157.5h540q83 -8 128 -68.5t45 -164.5zM398 700h-287 q0 -60 2 -110.5t15 -87.5t42.5 -58t83.5 -21t83 20.5t43 57t16 87t2 112.5z" />
<glyph unicode="&#xe871;&#xe834;" horiz-adv-x="1004" d="M1067 901v-201h-369q17 -63 39.5 -112t46 -85t46 -63.5t36.5 -48.5l-35 -176h-24q-82 94 -137.5 258t-87.5 377q-13 80 -37.5 141.5t-56 102.5t-68.5 63.5t-76 22.5q-178 0 -229 -279h262q92 0 92 -96v-207q0 -61 -10 -120.5t-35 -106.5t-66 -76t-102 -29q-49 0 -83 21.5 t-57.5 57.5t-39 81t-23.5 92t-10 95.5t-2 86.5v201q14 221 90 338t213 117q68 0 120 -42t89 -107.5t58.5 -146.5t29.5 -159h426zM399 700h-288q0 -59 2 -110t15 -88t43 -58.5t85 -21.5q53 0 82 20.5t43 57.5t16 87t2 113z" />
<glyph unicode="&#xe872;&#xe834;" horiz-adv-x="997" d="M373 899q78 -6 78 -94v-207q0 -61 -11.5 -120.5t-36 -106.5t-65.5 -76t-102 -29q-50 0 -82.5 21.5t-57 57.5t-39 81t-22.5 92t-11.5 95.5t-3.5 86.5h-20v201h20q17 221 91.5 338t214.5 117q65 0 117.5 -42t89 -107.5t58 -146.5t30.5 -159h436v-201h-379q16 -63 38.5 -112 t46 -85t46 -63.5t37.5 -48.5l-35 -176h-25q-79 94 -134.5 258t-90.5 377q-10 80 -34.5 141.5t-57.5 102.5t-70 63.5t-73 22.5q-181 0 -232 -279h279v-2zM90 700q0 -59 2 -110t16.5 -88t43 -58.5t84.5 -21.5q53 0 81.5 20.5t43 57.5t16.5 87t2 113h-289z" />
<glyph unicode="&#xe872;&#xe837;" horiz-adv-x="1372" d="M373 899q76 -8 76 -94v-207q0 -61 -10.5 -120.5t-35 -105.5t-66.5 -75t-104 -29q-47 0 -80.5 21.5t-57 56.5t-38 80t-22.5 92t-11.5 95.5t-3.5 86.5h-20v201h20q15 219 91 336q75 117 213 117q65 0 117.5 -42t89 -107.5t58 -146.5t29.5 -159h539q84 -6 129 -67.5 t45 -163.5v-105q0 -63 -21.5 -101t-54.5 -38v20q0 119 -43 185.5t-131 70.5h-407q16 -63 38.5 -111t46 -85t46 -64.5t37.5 -48.5l-33 -174h-27q-80 94 -134 257t-89 374q-10 80 -34.5 141.5t-57.5 103.5t-69 63.5t-74 21.5q-179 0 -230 -277h279v-2zM90 700q0 -59 2 -110 t15.5 -88t43 -57.5t82.5 -20.5q56 0 84.5 20.5t43 56.5t16.5 87t2 112h-289z" />
<glyph unicode="&#xe871;&#xe83e;" horiz-adv-x="801" d="M754 901v-205q0 -92 -10.5 -164.5t-33 -123t-56 -77t-85.5 -26.5q-82 0 -126 61.5t-46 184.5q-4 -123 -48 -184.5t-126 -61.5q-51 0 -86 26.5t-56.5 77t-30.5 123t-9 164.5v205q6 111 37 197t79 144t110.5 88t131.5 30q95 0 159.5 -40t106.5 -104.5t63.5 -147.5 t25.5 -167zM668 901q-6 43 -21.5 93t-47.5 91t-81 69t-119 28q-47 0 -92 -18.5t-84 -53.5t-66.5 -87t-39.5 -122h184q45 0 68.5 -27.5t27.5 -72.5q2 45 25.5 72.5t69.5 27.5h176zM326 696h-213q0 -118 21.5 -176.5t88.5 -58.5q33 0 53.5 13t30.5 43t14.5 74t4.5 105z M682 696h-213q0 -61 3 -105t13.5 -74t31 -43t52.5 -13q68 0 90.5 58.5t22.5 176.5z" />
<glyph unicode="&#xe871;&#xe83c;" horiz-adv-x="881" d="M932 899v-199h-193q0 -92 -9 -162.5t-30.5 -119.5t-56.5 -76t-84 -27q-80 0 -123 60.5t-47 179.5q-2 -119 -46 -179.5t-124 -60.5q-49 0 -84 27t-56.5 76t-29.5 119.5t-8 162.5v199q6 111 37 195t78 141t107.5 87t129.5 30q90 0 154.5 -39t105.5 -102.5t61.5 -145.5 t24.5 -166h193zM659 899q-8 43 -23 91t-46 89t-78 69t-119 28q-45 0 -90 -17.5t-83 -52.5t-65.5 -87t-39.5 -120h184q43 0 65.5 -26.5t26.5 -71.5q2 45 24.5 71.5t67.5 26.5h176zM319 698h-208q0 -118 21.5 -174.5t86.5 -56.5q35 0 54.5 13.5t29.5 42t13 71.5t3 104z M672 698h-209q0 -61 3 -104t13 -71.5t29.5 -42t52.5 -13.5q68 0 89.5 56.5t21.5 174.5z" />
<glyph unicode="&#xe872;&#xe83c;" horiz-adv-x="870" d="M651 698h-209q0 -61 3.5 -104t13.5 -71.5t29.5 -42t54.5 -13.5q65 0 86.5 56.5t21.5 174.5zM279 899q45 0 67.5 -26.5t24.5 -71.5q4 45 26.5 71.5t67.5 26.5h174q-6 43 -22.5 91t-46 89t-78 69t-117.5 28q-47 0 -91 -17.5t-82 -52.5t-67 -86q-29 -53 -41 -121h185z M20 899q9 111 38.5 195t76.5 141t107.5 87t130.5 30q92 0 156.5 -39t105.5 -102.5t61.5 -145.5t24.5 -166h201v-199h-201q0 -92 -10.5 -162.5t-32 -119.5t-55 -76t-82.5 -27q-82 0 -125 60.5t-45 179.5q-4 -119 -47 -179.5t-123 -60.5q-51 0 -85 27t-55.5 76t-31.5 121 q-9 69 -9 159h-20v201h20zM90 698q0 -118 21.5 -174.5t89.5 -56.5q32 0 51.5 13.5t31 42t13.5 71.5t2 104h-209z" />
<glyph unicode="&#xe872;&#xe83e;" horiz-adv-x="778" d="M305 696h-213q0 -118 21.5 -176.5t89.5 -58.5q35 0 54 13t30.5 43t14.5 74t3 105zM662 696h-213q0 -61 3 -105t13 -74t30.5 -43t55.5 -13q65 0 88 58.5t23 176.5zM20 901q9 111 38.5 197t77.5 144t110.5 88t132.5 30q94 0 158.5 -40t106.5 -104.5t63.5 -147.5t25.5 -167 v-205q0 -92 -10 -164.5t-31.5 -123t-56.5 -77t-84 -26.5q-84 0 -128 61.5t-46 184.5q-2 -123 -47 -184.5t-127 -61.5q-49 0 -84 26.5t-57.5 77t-32 123t-9.5 164.5v4h-20v201h20zM283 901q45 0 68.5 -27.5t25.5 -72.5q2 45 25.5 72.5t68.5 27.5h176q-6 43 -21.5 93t-46 91 t-79.5 69t-121 28q-45 0 -91 -18.5t-84 -53.5t-66.5 -87t-41.5 -122h187z" />
<glyph unicode="&#xe871;&#xe846;" horiz-adv-x="801" d="M754 901v-205q0 -92 -10.5 -164.5t-33 -123t-56 -77t-85.5 -26.5q-82 0 -126 61.5t-46 184.5q-4 -123 -48 -184.5t-126 -61.5q-51 0 -86 26.5t-56.5 77t-30.5 123t-9 164.5v205q6 111 37 197t79 144t110.5 88t131.5 30q95 0 159.5 -40t106.5 -104.5t63.5 -147.5 t25.5 -167zM668 901q-6 43 -21.5 93t-47.5 91t-81 69t-119 28q-47 0 -92 -18.5t-84 -53.5t-66.5 -87t-39.5 -122h184q45 0 68.5 -27.5t27.5 -72.5q2 45 25.5 72.5t69.5 27.5h176zM326 696h-213q0 -118 21.5 -176.5t88.5 -58.5q33 0 53.5 13t30.5 43t14.5 74t4.5 105z M682 696h-213q0 -61 3 -105t13.5 -74t31 -43t52.5 -13q68 0 90.5 58.5t22.5 176.5z" />
<glyph unicode="&#xe871;&#xe844;" horiz-adv-x="881" d="M932 899v-199h-193q0 -92 -9 -162.5t-30.5 -119.5t-56.5 -76t-84 -27q-80 0 -123 60.5t-47 179.5q-2 -119 -46 -179.5t-124 -60.5q-49 0 -84 27t-56.5 76t-29.5 119.5t-8 162.5v199q6 111 37 195t78 141t107.5 87t129.5 30q90 0 154.5 -39t105.5 -102.5t61.5 -145.5 t24.5 -166h193zM659 899q-8 43 -23 91t-46 89t-78 69t-119 28q-45 0 -90 -17.5t-83 -52.5t-65.5 -87t-39.5 -120h184q43 0 65.5 -26.5t26.5 -71.5q2 45 24.5 71.5t67.5 26.5h176zM319 698h-208q0 -118 21.5 -174.5t86.5 -56.5q35 0 54.5 13.5t29.5 42t13 71.5t3 104z M672 698h-209q0 -61 3 -104t13 -71.5t29.5 -42t52.5 -13.5q68 0 89.5 56.5t21.5 174.5z" />
<glyph unicode="&#xe872;&#xe844;" horiz-adv-x="866" d="M651 698h-209q0 -61 3.5 -104t13.5 -71.5t29.5 -42t54.5 -13.5q65 0 86.5 56.5t21.5 174.5zM279 899q45 0 67.5 -26.5t24.5 -71.5q4 45 26.5 71.5t67.5 26.5h174q-6 43 -22.5 91t-46 89t-78 69t-117.5 28q-47 0 -91 -17.5t-82 -52.5t-67 -86q-29 -53 -41 -121h185z M20 899q9 111 38.5 195t76.5 141t107.5 87t130.5 30q92 0 156.5 -39t105.5 -102.5t61.5 -145.5t24.5 -166h201v-199h-201q0 -92 -10.5 -162.5t-32 -119.5t-55 -76t-82.5 -27q-82 0 -125 60.5t-45 179.5q-4 -119 -47 -179.5t-123 -60.5q-51 0 -85 27t-55.5 76t-31.5 121 q-9 69 -9 159h-20v201h20zM90 698q0 -118 21.5 -174.5t89.5 -56.5q32 0 51.5 13.5t31 42t13.5 71.5t2 104h-209z" />
<glyph unicode="&#xe872;&#xe846;" horiz-adv-x="795" d="M305 696h-213q0 -118 21.5 -176.5t89.5 -58.5q35 0 54 13t30.5 43t14.5 74t3 105zM662 696h-213q0 -61 3 -105t13 -74t30.5 -43t55.5 -13q65 0 88 58.5t23 176.5zM20 901q9 111 38.5 197t77.5 144t110.5 88t132.5 30q94 0 158.5 -40t106.5 -104.5t63.5 -147.5t25.5 -167 v-205q0 -92 -10 -164.5t-31.5 -123t-56.5 -77t-84 -26.5q-84 0 -128 61.5t-46 184.5q-2 -123 -47 -184.5t-127 -61.5q-49 0 -84 26.5t-57.5 77t-32 123t-9.5 164.5v4h-20v201h20zM283 901q45 0 68.5 -27.5t25.5 -72.5q2 45 25.5 72.5t68.5 27.5h176q-6 43 -21.5 93t-46 91 t-79.5 69t-121 28q-45 0 -91 -18.5t-84 -53.5t-66.5 -87t-41.5 -122h187z" />
<glyph unicode="&#xe871;&#xe84e;" horiz-adv-x="1298" d="M1207 667v-103q0 -63 -21.5 -101.5t-52.5 -38.5v21q0 119 -43.5 185t-130.5 70h-238q0 -91 -9.5 -162.5t-31 -121t-55.5 -76t-83 -26.5q-82 0 -125.5 60.5t-45.5 180.5q-3 -120 -47 -180.5t-123 -60.5q-50 0 -84.5 26.5t-56 76t-31 121t-9.5 162.5v200q8 109 38.5 193.5 t77 141.5t107.5 87t130 30q92 0 156.5 -39t106 -103t61.5 -145t24 -165h314q83 -8 127.5 -68t44.5 -165zM637 900q-5 44 -21 92.5t-47 89t-78 67.5t-118 27q-45 0 -89.5 -17.5t-82.5 -52t-66 -86t-40 -120.5h182q46 0 68.5 -26.5t25.5 -71.5q2 45 25 71.5t68 26.5h173z M651 700h-210q0 -61 3.5 -104.5t14 -72t30 -42t53.5 -13.5q65 0 87 56.5t22 175.5zM300 700h-209q0 -119 21.5 -175.5t88.5 -56.5q32 0 52 13.5t30 42t13.5 72t3.5 104.5z" />
<glyph unicode="&#xe871;&#xe84b;" horiz-adv-x="1298" d="M1369 901v-200h-399l229 -326v-27l-48 -229h-26l-230 582h-152q0 -91 -10 -163t-31.5 -121.5t-56 -76t-83.5 -26.5q-81 0 -124.5 60.5t-45.5 180.5q-3 -120 -47 -180.5t-124 -60.5q-50 0 -85 26.5t-56.5 76t-30.5 121.5t-9 163v200q8 109 38 194t77.5 142.5t109 87 t129.5 29.5q92 0 156.5 -39t106 -103t62 -145.5t24.5 -165.5h626zM659 901q-5 44 -21 92.5t-47 89.5t-78.5 68t-118.5 27q-46 0 -90 -18t-82.5 -52.5t-66.5 -86.5t-40 -120h182q46 0 69 -27t26 -71q2 44 25 71t68 27h174zM673 701h-211q0 -62 3.5 -105.5t14 -72t30 -42 t52.5 -13.5q66 0 88.5 57t22.5 176zM321 701h-210q0 -119 22 -176t88 -57q33 0 53 13.5t30 42t13.5 72t3.5 105.5z" />
<glyph unicode="&#xe872;&#xe84b;" horiz-adv-x="866" d="M651 698h-209q0 -61 3.5 -104t13.5 -71.5t29.5 -42t54.5 -13.5q65 0 86.5 56.5t21.5 174.5zM279 899q45 0 67.5 -26.5t24.5 -71.5q4 45 26.5 71.5t67.5 26.5h174q-6 43 -22.5 91t-46 89t-78 69t-117.5 28q-47 0 -91 -17.5t-82 -52.5t-67 -86q-29 -53 -41 -121h185z M20 899q9 111 38.5 195t76.5 141t107.5 87t130.5 30q92 0 156.5 -39t105.5 -102.5t61.5 -145.5t24.5 -166h201v-199h-201q0 -92 -10.5 -162.5t-32 -119.5t-55 -76t-82.5 -27q-82 0 -125 60.5t-45 179.5q-4 -119 -47 -179.5t-123 -60.5q-51 0 -85 27t-55.5 76t-31.5 121 q-9 69 -9 159h-20v201h20zM90 698q0 -118 21.5 -174.5t89.5 -56.5q32 0 51.5 13.5t31 42t13.5 71.5t2 104h-209z" />
<glyph unicode="&#xe872;&#xe84e;" horiz-adv-x="799" d="M305 696h-213q0 -118 21.5 -176.5t89.5 -58.5q35 0 54 13t30.5 43t14.5 74t3 105zM662 696h-213q0 -61 3 -105t13 -74t30.5 -43t55.5 -13q65 0 88 58.5t23 176.5zM20 901q9 111 38.5 197t77.5 144t110.5 88t132.5 30q94 0 158.5 -40t106.5 -104.5t63.5 -147.5t25.5 -167 v-205q0 -92 -10 -164.5t-31.5 -123t-56.5 -77t-84 -26.5q-84 0 -128 61.5t-46 184.5q-2 -123 -47 -184.5t-127 -61.5q-49 0 -84 26.5t-57.5 77t-32 123t-9.5 164.5v4h-20v201h20zM283 901q45 0 68.5 -27.5t25.5 -72.5q2 45 25.5 72.5t68.5 27.5h176q-6 43 -21.5 93t-46 91 t-79.5 69t-121 28q-45 0 -91 -18.5t-84 -53.5t-66.5 -87t-41.5 -122h187z" />
<glyph unicode="&#xe872;&#xe84f;" horiz-adv-x="1298" d="M651 700h-210q0 -61 3.5 -104.5t14 -72t30 -42t53.5 -13.5q65 0 87 56.5t22 175.5zM241 900h36q46 0 68.5 -26.5t25.5 -71.5q2 45 25 71.5t68 26.5h173q-5 44 -21 92.5t-47 89t-78 67.5t-118 27q-45 0 -89.5 -17.5t-82.5 -52t-66 -85.5q-28 -52 -40 -120h146v-1zM20 901 q8 108 39 193q30 84 76.5 141t107.5 87t130 30q92 0 156.5 -39t106 -103t61.5 -145t24 -165h314q83 -8 127.5 -68t44.5 -165v-103q0 -63 -21.5 -101.5t-52.5 -38.5v21q0 119 -43.5 185t-130.5 70h-238q0 -91 -9.5 -162.5t-31 -121t-55.5 -76t-83 -26.5q-82 0 -125.5 60.5 t-45.5 180.5q-3 -120 -47 -180.5t-123 -60.5q-50 0 -84.5 26.5t-56 76t-31 121t-9.5 162.5h-20v201h20zM91 700q0 -119 21.5 -175.5t88.5 -56.5q32 0 52 13.5t30 42t13.5 72t3.5 104.5h-209z" />
<glyph unicode="&#xe871;&#xe856;" horiz-adv-x="1298" d="M1207 667v-103q0 -63 -21.5 -101.5t-52.5 -38.5v21q0 119 -43.5 185t-130.5 70h-238q0 -91 -9.5 -162.5t-31 -121t-55.5 -76t-83 -26.5q-82 0 -125.5 60.5t-45.5 180.5q-3 -120 -47 -180.5t-123 -60.5q-50 0 -84.5 26.5t-56 76t-31 121t-9.5 162.5v200q8 109 38.5 193.5 t77 141.5t107.5 87t130 30q92 0 156.5 -39t106 -103t61.5 -145t24 -165h314q83 -8 127.5 -68t44.5 -165zM637 900q-5 44 -21 92.5t-47 89t-78 67.5t-118 27q-45 0 -89.5 -17.5t-82.5 -52t-66 -86t-40 -120.5h182q46 0 68.5 -26.5t25.5 -71.5q2 45 25 71.5t68 26.5h173z M651 700h-210q0 -61 3.5 -104.5t14 -72t30 -42t53.5 -13.5q65 0 87 56.5t22 175.5zM300 700h-209q0 -119 21.5 -175.5t88.5 -56.5q32 0 52 13.5t30 42t13.5 72t3.5 104.5z" />
<glyph unicode="&#xe871;&#xe853;" horiz-adv-x="1292" d="M1369 901v-200h-399l229 -326v-27l-48 -229h-26l-230 582h-152q0 -91 -10 -163t-31.5 -121.5t-56 -76t-83.5 -26.5q-81 0 -124.5 60.5t-45.5 180.5q-3 -120 -47 -180.5t-124 -60.5q-50 0 -85 26.5t-56.5 76t-30.5 121.5t-9 163v200q8 109 38 194t77.5 142.5t109 87 t129.5 29.5q92 0 156.5 -39t106 -103t62 -145.5t24.5 -165.5h626zM659 901q-5 44 -21 92.5t-47 89.5t-78.5 68t-118.5 27q-46 0 -90 -18t-82.5 -52.5t-66.5 -86.5t-40 -120h182q46 0 69 -27t26 -71q2 44 25 71t68 27h174zM673 701h-211q0 -62 3.5 -105.5t14 -72t30 -42 t52.5 -13.5q66 0 88.5 57t22.5 176zM321 701h-210q0 -119 22 -176t88 -57q33 0 53 13.5t30 42t13.5 72t3.5 105.5z" />
<glyph unicode="&#xe872;&#xe853;" horiz-adv-x="870" d="M651 698h-209q0 -61 3.5 -104t13.5 -71.5t29.5 -42t54.5 -13.5q65 0 86.5 56.5t21.5 174.5zM279 899q45 0 67.5 -26.5t24.5 -71.5q4 45 26.5 71.5t67.5 26.5h174q-6 43 -22.5 91t-46 89t-78 69t-117.5 28q-47 0 -91 -17.5t-82 -52.5t-67 -86q-29 -53 -41 -121h185z M20 899q9 111 38.5 195t76.5 141t107.5 87t130.5 30q92 0 156.5 -39t105.5 -102.5t61.5 -145.5t24.5 -166h201v-199h-201q0 -92 -10.5 -162.5t-32 -119.5t-55 -76t-82.5 -27q-82 0 -125 60.5t-45 179.5q-4 -119 -47 -179.5t-123 -60.5q-51 0 -85 27t-55.5 76t-31.5 121 q-9 69 -9 159h-20v201h20zM90 698q0 -118 21.5 -174.5t89.5 -56.5q32 0 51.5 13.5t31 42t13.5 71.5t2 104h-209z" />
<glyph unicode="&#xe872;&#xe856;" horiz-adv-x="803" d="M305 696h-213q0 -118 21.5 -176.5t89.5 -58.5q35 0 54 13t30.5 43t14.5 74t3 105zM662 696h-213q0 -61 3 -105t13 -74t30.5 -43t55.5 -13q65 0 88 58.5t23 176.5zM20 901q9 111 38.5 197t77.5 144t110.5 88t132.5 30q94 0 158.5 -40t106.5 -104.5t63.5 -147.5t25.5 -167 v-205q0 -92 -10 -164.5t-31.5 -123t-56.5 -77t-84 -26.5q-84 0 -128 61.5t-46 184.5q-2 -123 -47 -184.5t-127 -61.5q-49 0 -84 26.5t-57.5 77t-32 123t-9.5 164.5v4h-20v201h20zM283 901q45 0 68.5 -27.5t25.5 -72.5q2 45 25.5 72.5t68.5 27.5h176q-6 43 -21.5 93t-46 91 t-79.5 69t-121 28q-45 0 -91 -18.5t-84 -53.5t-66.5 -87t-41.5 -122h187z" />
<glyph unicode="&#xe872;&#xe857;" horiz-adv-x="1298" d="M651 700h-210q0 -61 3.5 -104.5t14 -72t30 -42t53.5 -13.5q65 0 87 56.5t22 175.5zM241 900h36q46 0 68.5 -26.5t25.5 -71.5q2 45 25 71.5t68 26.5h173q-5 44 -21 92.5t-47 89t-78 67.5t-118 27q-45 0 -89.5 -17.5t-82.5 -52t-66 -85.5q-28 -52 -40 -120h146v-1zM20 901 q8 108 39 193q30 84 76.5 141t107.5 87t130 30q92 0 156.5 -39t106 -103t61.5 -145t24 -165h314q83 -8 127.5 -68t44.5 -165v-103q0 -63 -21.5 -101.5t-52.5 -38.5v21q0 119 -43.5 185t-130.5 70h-238q0 -91 -9.5 -162.5t-31 -121t-55.5 -76t-83 -26.5q-82 0 -125.5 60.5 t-45.5 180.5q-3 -120 -47 -180.5t-123 -60.5q-50 0 -84.5 26.5t-56 76t-31 121t-9.5 162.5h-20v201h20zM91 700q0 -119 21.5 -175.5t88.5 -56.5q32 0 52 13.5t30 42t13.5 72t3.5 104.5h-209z" />
<glyph unicode="&#xe871;&#xe85d;" horiz-adv-x="1599" d="M1556 668v-103q0 -61 -21.5 -100t-53.5 -39v20q0 119 -43 184.5t-129 69.5h-627l39 -161q27 -115 68.5 -168.5t113.5 -53.5q33 0 53.5 11.5t32.5 27t20.5 27.5t16.5 12q21 0 28 -17.5t7 -51.5q0 -33 -12.5 -63t-34 -52.5t-49 -34.5t-62.5 -12q-51 0 -92 23.5t-71.5 67.5 t-54 108.5t-44.5 148.5q-18 82 -31.5 140.5t-22.5 96t-13.5 60t-7.5 35t-4 18.5t-3 10q-31 156 -86 230t-131 74q-178 0 -227 -277h258q94 0 94 -94v-205q0 -61 -11.5 -120.5t-36 -104.5t-65.5 -74t-100 -29q-47 0 -82 21.5t-58.5 56.5t-38 79t-22.5 91t-10 95.5t-2 84.5 v199q14 219 90 335t211 116q66 0 113 -32t80.5 -91.5t57 -142.5t46.5 -185h745q82 -6 127 -66.5t45 -164.5zM395 700h-284q0 -59 2 -109t14 -87t42 -57.5t85 -20.5q51 0 81 20.5t43 56.5t15 86t2 111z" />
<glyph unicode="&#xe871;&#xe85c;" horiz-adv-x="1198" d="M1261 900v-200h-574l37 -164q26 -115 68.5 -168.5t116.5 -53.5q32 0 51.5 12t32 27t21 27.5t18.5 12.5q19 0 26.5 -18t7.5 -51q0 -34 -12 -64t-33.5 -52.5t-50 -35t-61.5 -12.5q-54 0 -94 23.5t-71.5 68t-56 110t-43.5 148.5q-19 82 -32 140.5t-22 97t-14 61.5t-7.5 35.5 t-4 18t-2.5 10.5q-30 157 -86.5 230t-132.5 73q-179 0 -228 -276h259q94 0 94 -96v-204q0 -63 -10.5 -122.5t-35.5 -105.5t-66 -74t-103 -28q-47 0 -80.5 21t-57 56t-38.5 80t-23.5 92.5t-11 94.5t-2.5 86v200q15 220 90.5 336t212.5 116q66 0 113.5 -32.5t81 -92t58 -143 t45.5 -184.5h620zM397 700h-287q0 -59 2.5 -110t15.5 -87.5t42 -57.5t83 -21t83 20.5t43 56.5t16 86.5t2 112.5z" />
<glyph unicode="&#xe872;&#xe85c;" horiz-adv-x="1165" d="M373 899q76 -8 76 -94v-205q0 -63 -11.5 -122.5t-36 -105.5t-65.5 -74t-103 -28q-47 0 -80.5 20.5t-57 56.5t-38 80t-23.5 92t-11.5 95.5t-2.5 85.5h-20v201h20q15 219 91 336q75 115 213 115q65 0 112 -33t81 -92.5t58.5 -142.5t45.5 -185h620v-199h-573l37 -163 q24 -115 67 -169.5t117 -54.5q33 0 52.5 12.5t31.5 28t20 27.5t19 12q18 0 26.5 -18.5t8.5 -50.5q0 -33 -12.5 -64t-34 -53.5t-50 -34.5t-61.5 -12q-53 0 -93 23.5t-72 68.5t-56.5 109.5t-42.5 148.5q-21 82 -33 140.5t-21.5 97t-14.5 61t-7 35t-4 18.5t-2 10 q-31 158 -87.5 231t-131.5 73q-181 0 -230 -275h279v-2zM90 700q0 -59 2 -110t15.5 -87t42 -57.5t83.5 -21.5q54 0 82.5 20.5t43 56.5t16.5 87t2 112h-287z" />
<glyph unicode="&#xe872;&#xe85d;" horiz-adv-x="1602" d="M372 899q74 -10 74 -94v-204q0 -62 -10.5 -121.5t-35 -105t-65.5 -73.5t-102 -28q-47 0 -81 21t-57.5 55.5t-38.5 79.5t-23 92t-10.5 94.5t-2.5 84.5h-20v201h20q15 218 91 334q75 115 211 115q66 0 113 -32t80.5 -91.5t57.5 -142.5t45 -184h746q82 -7 127 -67.5 t45 -164.5v-103q0 -62 -21.5 -100.5t-53.5 -38.5v21q0 118 -43 184t-130 69h-625l38 -162q26 -115 68.5 -168t114.5 -53q32 0 52 11.5t33 26.5t21 28t17 13q19 0 26.5 -18t7.5 -52t-12 -63.5t-33.5 -51.5t-50 -35t-61.5 -13q-53 0 -93 23.5t-71 68t-55 109.5t-45 147 q-18 83 -31 141t-22 96t-13.5 61t-7 35.5t-4 18t-2.5 9.5q-31 157 -87 230t-131 73q-178 0 -227 -274h277v-2zM90 700q0 -58 2.5 -108.5t15 -87.5t42 -57.5t83.5 -20.5q53 0 82 20t43 56.5t16 86.5t2 111h-286z" />
<glyph unicode="&#xe872;&#xe904;" horiz-adv-x="889" d="M372 703v-3h-281q0 -58 3 -108q2 -51 15 -88.5t42.5 -58.5t83.5 -21q55 0 84.5 20.5t43 57t15.5 87.5t2 114h-8zM372 1353l-23 210q11 11 39.5 18.5t64.5 7.5q39 0 66 7t44.5 23.5t28.5 43.5t16 47q21 -9 28 -38.5t7 -59.5q0 -81 -42.5 -130.5t-133.5 -49.5l-43 1l5 -100 q8 -4 17 -9q52 -34 89 -94t59.5 -144t31.5 -185h320v-201h-203q-2 -27 -6.5 -75t-10 -99.5t-13 -98t-15.5 -73.5l-39 -11q-24 53 -39 109.5t-26.5 115.5t-19.5 118.5t-15 117.5q-10 79 -28 148t-46.5 119.5t-67.5 79t-91 28.5q-180 0 -230 -278h276v-1q80 -6 80 -95v-206 q0 -64 -11 -124t-36 -106.5t-66 -74.5t-104 -28q-47 0 -81 21t-58 56.5t-38.5 81t-23 93t-11.5 95t-3 87.5h-20v201h20q16 222 92 339t214 117q24 0 46 -4z" />
<glyph unicode="&#xe872;&#xe908;" horiz-adv-x="899" d="M372 899q73 -10 73 -94v-204q0 -63 -10 -121.5t-35 -104.5t-66 -74t-101 -28q-48 0 -81.5 21t-56.5 55.5t-38 79.5t-23.5 92.5t-11 94.5t-2.5 84h-20v201h20q15 217 90 333q75 115 212 115q48 0 93 -21l18 111l-42 -1q-90 0 -132.5 50t-42.5 129q0 30 7 59.5t29 57.5 q5 -39 15.5 -66t28 -43.5t44 -23t65.5 -6.5q35 0 63.5 -7.5t39.5 -18.5l-47 -270q68 -54 106.5 -158t50.5 -241h315v-200h-200q-2 -26 -6.5 -72.5t-9.5 -97.5t-13.5 -97.5t-15.5 -72.5l-38 -11q-24 52 -39 108.5t-25.5 114t-18.5 116.5t-15 116q-11 79 -28.5 146.5t-46 117 t-66.5 78t-89 28.5q-178 0 -228 -273h278v-2zM90 700q0 -58 2 -108.5t15 -87.5t42.5 -57.5t83.5 -20.5q52 0 81.5 20t43 56t15.5 87t2 111h-285z" />
<glyph unicode="&#xe899;&#xe825;" horiz-adv-x="1350" d="M1305 496v-369q0 -78 -14.5 -134t-41 -98t-67.5 -73t-92 -53q-31 -15 -48.5 -25t-31 -22.5t-21.5 -28t-22 -39.5h-21l60 254q12 2 24 5t25.5 8t31 13.5t37.5 22.5q15 6 31 19.5t31.5 32t26 47t10.5 71.5v369q0 100 -38 152t-106 52h-346q-2 -28 -6 -75t-10 -99.5 t-14.5 -99.5t-16.5 -74l-37 -12q-16 41 -32.5 100.5t-27.5 124t-18.5 126t-7.5 108.5q0 98 -19.5 170.5t-50 121t-69.5 71t-76 22.5q-182 0 -231 -281h264q94 0 94 -96v-184q0 -76 -13 -129.5t-40 -89t-67 -55t-93 -27.5q-80 -9 -125 -28.5t-65 -29.5q-2 15 -3 33t-1 29 q0 39 7 67.5t30.5 50t64.5 35t106 21.5q29 4 51.5 11t37 22.5t22.5 43t8 70.5v53h-354v203q14 223 91 342t216 119q68 0 120 -34t90 -94t60.5 -145t32.5 -188h428q113 0 169.5 -101.5t56.5 -305.5z" />
<glyph unicode="&#xe899;&#xe823;" horiz-adv-x="899" d="M961 900v-202h-233q-2 -27 -6.5 -75t-10 -99t-13 -98t-15.5 -73l-39 -13q-17 41 -32 100t-26.5 123t-18.5 125t-7 108q0 98 -20 170.5t-50.5 119.5t-68.5 69.5t-75 22.5q-180 0 -231 -278h263q93 0 93 -96v-183q0 -74 -13 -127t-39 -89.5t-65.5 -56t-92.5 -25.5 q-80 -9 -123.5 -28t-66.5 -30q-2 15 -3.5 33.5t-1.5 27.5q0 39 8 67.5t31 50t64 34.5t106 21q28 3 50 10.5t37 23t22.5 43t7.5 70.5v52h-352v202q16 222 92 339t214 117q67 0 119 -32.5t89 -92.5t60 -144.5t32 -186.5h315z" />
<glyph unicode="&#xe89a;&#xe823;" horiz-adv-x="877" d="M20 901q17 221 93 338q75 117 213 117q67 0 119.5 -33t89 -92.5t59 -144.5t33.5 -187h313v-201h-231q-2 -26 -7.5 -74.5t-10.5 -99.5t-12 -98t-15 -74l-39 -12q-19 41 -33 100.5t-25.5 123t-18.5 125t-7 108.5q0 98 -20.5 169.5t-51.5 119t-69 70t-74 22.5 q-181 0 -232 -277h279v-2q78 -6 78 -94v-184q0 -74 -12.5 -127.5t-39 -89t-65.5 -55t-92 -25.5q-80 -11 -124 -29.5t-67 -30.5q-2 17 -4 35t-2 27q0 39 8 67.5t32 50t64.5 35t106.5 21.5q27 2 49.5 9t36.5 23.5t22.5 43t8.5 69.5v53h-353v2h-20v201h20z" />
<glyph unicode="&#xe89a;&#xe825;" horiz-adv-x="1335" d="M20 901v2q16 224 92 342t216 118q67 0 120 -33t90.5 -93.5t60.5 -145.5t32 -188h429q111 0 167.5 -101t56.5 -307v-369q0 -77 -14 -133.5t-41 -98.5t-67.5 -72t-92.5 -54q-30 -14 -48 -24t-30.5 -22t-21 -28t-22.5 -41h-20l59 254q12 3 24 6.5t26 8.5t30.5 13t38.5 21 q13 8 30 20.5t32 31t25.5 47.5t10.5 71v369q0 100 -38 152.5t-105 52.5h-347q-2 -28 -6 -75.5t-10 -99.5t-14 -99t-16 -74l-38 -12q-17 41 -32.5 100t-27 123.5t-18.5 126t-7 109.5q0 99 -19.5 171.5t-51 120t-69.5 70.5t-76 23q-182 0 -232 -281h264q95 0 95 -97v-184 q0 -75 -13.5 -128.5t-39.5 -89.5t-66 -55.5t-93 -26.5q-81 -9 -125.5 -28t-65.5 -30q-2 14 -3.5 33t-1.5 28q0 39 7.5 68t31 50.5t64.5 35t107 20.5q28 4 50.5 11.5t37 22.5t22.5 43t8 71v53h-375v201h20z" />
<glyph unicode="&#xe899;&#xe82d;" horiz-adv-x="1356" d="M1305 496v-369q0 -78 -14.5 -134t-41 -98t-67.5 -73t-92 -53q-31 -15 -48.5 -25t-31 -22.5t-21.5 -28t-22 -39.5h-21l60 254q12 2 24 5t25.5 8t31 13.5t37.5 22.5q15 6 31 19.5t31.5 32t26 47t10.5 71.5v369q0 100 -38 152t-106 52h-346q-2 -28 -6 -75t-10 -99.5 t-14.5 -99.5t-16.5 -74l-37 -12q-16 41 -32.5 100.5t-27.5 124t-18.5 126t-7.5 108.5q0 98 -19.5 170.5t-50 121t-69.5 71t-76 22.5q-182 0 -231 -281h264q94 0 94 -96v-184q0 -76 -13 -129.5t-40 -89t-67 -55t-93 -27.5q-80 -9 -125 -28.5t-65 -29.5q-2 15 -3 33t-1 29 q0 39 7 67.5t30.5 50t64.5 35t106 21.5q29 4 51.5 11t37 22.5t22.5 43t8 70.5v53h-354v203q14 223 91 342t216 119q68 0 120 -34t90 -94t60.5 -145t32.5 -188h428q113 0 169.5 -101.5t56.5 -305.5z" />
<glyph unicode="&#xe899;&#xe82c;" horiz-adv-x="885" d="M961 900v-202h-233q-2 -27 -6.5 -75t-10 -99t-13 -98t-15.5 -73l-39 -13q-17 41 -32 100t-26.5 123t-18.5 125t-7 108q0 98 -20 170.5t-50.5 119.5t-68.5 69.5t-75 22.5q-180 0 -231 -278h263q93 0 93 -96v-183q0 -74 -13 -127t-39 -89.5t-65.5 -56t-92.5 -25.5 q-80 -9 -123.5 -28t-66.5 -30q-2 15 -3.5 33.5t-1.5 27.5q0 39 8 67.5t31 50t64 34.5t106 21q28 3 50 10.5t37 23t22.5 43t7.5 70.5v52h-352v202q16 222 92 339t214 117q67 0 119 -32.5t89 -92.5t60 -144.5t32 -186.5h315z" />
<glyph unicode="&#xe89a;&#xe82c;" horiz-adv-x="877" d="M20 901q17 221 93 338q75 117 213 117q67 0 119.5 -33t89 -92.5t59 -144.5t33.5 -187h313v-201h-231q-2 -26 -7.5 -74.5t-10.5 -99.5t-12 -98t-15 -74l-39 -12q-19 41 -33 100.5t-25.5 123t-18.5 125t-7 108.5q0 98 -20.5 169.5t-51.5 119t-69 70t-74 22.5 q-181 0 -232 -277h279v-2q78 -6 78 -94v-184q0 -74 -12.5 -127.5t-39 -89t-65.5 -55t-92 -25.5q-80 -11 -124 -29.5t-67 -30.5q-2 17 -4 35t-2 27q0 39 8 67.5t32 50t64.5 35t106.5 21.5q27 2 49.5 9t36.5 23.5t22.5 43t8.5 69.5v53h-353v2h-20v201h20z" />
<glyph unicode="&#xe89a;&#xe82d;" horiz-adv-x="1343" d="M20 901v2q16 224 92 342t216 118q67 0 120 -33t90.5 -93.5t60.5 -145.5t32 -188h429q111 0 167.5 -101t56.5 -307v-369q0 -77 -14 -133.5t-41 -98.5t-67.5 -72t-92.5 -54q-30 -14 -48 -24t-30.5 -22t-21 -28t-22.5 -41h-20l59 254q12 3 24 6.5t26 8.5t30.5 13t38.5 21 q13 8 30 20.5t32 31t25.5 47.5t10.5 71v369q0 100 -38 152.5t-105 52.5h-347q-2 -28 -6 -75.5t-10 -99.5t-14 -99t-16 -74l-38 -12q-17 41 -32.5 100t-27 123.5t-18.5 126t-7 109.5q0 99 -19.5 171.5t-51 120t-69.5 70.5t-76 23q-182 0 -232 -281h264q95 0 95 -97v-184 q0 -75 -13.5 -128.5t-39.5 -89.5t-66 -55.5t-93 -26.5q-81 -9 -125.5 -28t-65.5 -30q-2 14 -3.5 33t-1.5 28q0 39 7.5 68t31 50.5t64.5 35t107 20.5q28 4 50.5 11.5t37 22.5t22.5 43t8 71v53h-375v201h20z" />
<glyph unicode="&#xe899;&#xe837;" horiz-adv-x="1393" d="M1342 668v-103q0 -62 -20.5 -100.5t-52.5 -38.5v21q0 118 -43.5 184t-130.5 69h-397q22 -84 62.5 -160.5t97.5 -142.5l-31 -179h-27q-88 130 -137.5 277.5t-77.5 304.5q-17 98 -43.5 168.5t-58 116.5t-67.5 68t-74 22q-178 0 -227 -275h258q92 0 92 -95v-179 q0 -74 -12.5 -126.5t-38.5 -88.5t-65 -54.5t-91 -25.5q-78 -9 -121.5 -27.5t-65.5 -29.5q-2 14 -3.5 33t-1.5 27q0 38 8 66.5t30.5 49.5t62.5 34t105 21q27 3 49 10t36.5 22.5t22 42.5t7.5 69v51h-347v200q15 219 90 334.5t212 115.5q66 0 117 -38t88.5 -100.5t62 -144 t37.5 -167.5h524q82 -7 126.5 -67.5t44.5 -164.5z" />
<glyph unicode="&#xe899;&#xe834;" horiz-adv-x="997" d="M1055 901v-201h-350q20 -86 62 -162.5t97 -144.5l-30 -180h-27q-90 129 -140.5 278.5t-76.5 309.5q-19 98 -45.5 169.5t-58 118t-67.5 69t-75 22.5q-178 0 -229 -279h262q92 0 92 -96v-180q0 -74 -13.5 -127.5t-39 -89t-64.5 -55t-92 -27.5q-80 -9 -124 -27t-64 -31 q-2 17 -3 35.5t-1 26.5q0 39 7 67.5t30.5 50t63.5 35t105 21.5q27 2 48.5 9t37 22.5t22.5 42t7 71.5v51h-348v201q14 219 90 337t213 118q68 0 119 -38t89 -101.5t62.5 -146.5t36.5 -169h404z" />
<glyph unicode="&#xe89a;&#xe834;" horiz-adv-x="971" d="M20 901q16 220 91.5 337t212.5 117q67 0 119 -38t89.5 -101.5t62 -145.5t37.5 -169h412v-201h-360q22 -86 63 -163t98 -143l-31 -181h-27q-90 130 -140 279.5t-77 307.5q-18 99 -44.5 170.5t-58.5 117.5t-68.5 68.5t-74.5 22.5q-179 0 -229 -278h277v-1q78 -8 78 -95 v-181q0 -74 -13.5 -127t-39.5 -89t-65 -55.5t-92 -26.5q-80 -9 -123.5 -27.5t-65.5 -29.5q-2 15 -3 33.5t-1 27.5q0 39 7.5 67.5t30.5 49.5t63 34.5t107 21.5q27 3 48.5 10t36.5 22.5t22.5 42.5t7.5 71v51h-370v201h20z" />
<glyph unicode="&#xe89a;&#xe837;" horiz-adv-x="1380" d="M20 901q15 217 91 334q73 115 211 115q65 0 116 -38t89 -100.5t62.5 -144.5t37.5 -168h524q82 -6 127 -66.5t45 -164.5v-103q0 -61 -21.5 -100t-52.5 -39v20q0 119 -44 184.5t-130 69.5h-397q22 -84 62 -160.5t98 -142.5l-31 -180h-27q-88 131 -137 278.5t-78 305.5 q-16 96 -42.5 166.5t-58.5 116.5t-68 69t-74 23q-179 0 -228 -275h279v-2q71 -8 71 -94v-178q0 -74 -12 -127.5t-37.5 -89t-64.5 -54t-92 -24.5q-78 -10 -121 -28.5t-66 -29.5q-2 15 -4 33.5t-2 26.5q0 39 8 66.5t30.5 49t62.5 35t106 21.5q27 2 49.5 9t36.5 22.5t21.5 42 t7.5 69.5v51h-367v201h20z" />
<glyph unicode="&#xe899;&#xe83e;" horiz-adv-x="866" d="M793 899v-201q0 -182 -52.5 -284.5t-152.5 -102.5q-80 0 -124 60.5t-46 183.5q-2 -100 -54.5 -158.5t-154.5 -70.5q-80 -9 -124 -27t-67 -31q-2 15 -3 34.5t-1 27.5q0 39 7.5 67.5t31 50t63.5 34t105 20.5q29 4 50.5 11t37 22.5t22.5 42t7 69.5v51h-295v201q8 111 42 196 t85 142t115.5 88t134.5 31q92 0 159.5 -39t113.5 -103.5t69.5 -146.5t30.5 -168zM709 899q-7 45 -26 94t-53 90t-87.5 68t-122.5 27q-45 0 -93 -17.5t-90 -52.5t-75 -87t-43 -122h205q92 0 94 -92q2 43 25.5 67.5t68.5 24.5h197zM721 698h-234q0 -61 4.5 -104t13.5 -71.5 t29.5 -42t53.5 -13.5q67 0 100 56.5t33 174.5z" />
<glyph unicode="&#xe899;&#xe83c;" horiz-adv-x="926" d="M971 899v-199h-185q0 -184 -52 -285.5t-150 -101.5q-80 0 -124 60.5t-46 181.5q-2 -98 -53.5 -156.5t-153.5 -70.5q-80 -9 -123 -27t-66 -31q-2 17 -3 35.5t-1 26.5q0 39 7.5 67.5t30 49t63.5 34t106 21.5q27 2 49.5 9t35.5 22.5t21.5 42t8.5 69.5v53h-293v199 q6 109 40 193t86 141t115.5 87t131.5 30q94 0 160.5 -39t112.5 -102.5t69.5 -144.5t27.5 -165h185zM705 899q-7 43 -26.5 92t-54 89t-86 67t-122.5 27q-45 0 -92.5 -17.5t-89 -52.5t-73.5 -86t-44 -119h205q90 0 92 -92q2 41 26.5 66.5t67.5 25.5h197zM717 700h-232 q0 -63 3.5 -106t13.5 -71.5t30.5 -41t51.5 -12.5q65 0 99 55.5t34 175.5z" />
<glyph unicode="&#xe89a;&#xe83c;" horiz-adv-x="911" d="M696 700h-231q0 -63 3 -106t13.5 -71.5t30.5 -41t51 -12.5q68 0 100.5 55.5t32.5 175.5zM291 899h10q90 0 92 -92q2 41 26.5 66.5t67.5 25.5h197q-6 43 -25.5 92t-54.5 89t-86 67t-123 27q-45 0 -92 -17.5t-89 -52.5t-73 -84q-32 -51 -45 -119h195v-2zM23 901 q8 109 40 191q33 84 85.5 141t116 87t130.5 30q94 0 162 -39t113 -102.5t68.5 -144.5t29.5 -165h182v-199h-182q0 -184 -52 -285.5t-153 -101.5q-80 0 -124 60.5t-46 181.5q-2 -98 -53 -156.5t-154 -70.5q-80 -9 -123 -27t-65 -31q-2 17 -3 35.5t-1 26.5q0 39 7 67.5 t29.5 49t63.5 34t107 21.5q26 2 48.5 9t36 22.5t21.5 42t8 69.5v53h-315v201h23z" />
<glyph unicode="&#xe89a;&#xe83e;" horiz-adv-x="825" d="M700 698h-231q0 -61 3 -104t13.5 -71.5t31 -42t50.5 -13.5q68 0 100.5 56.5t32.5 174.5zM305 899q90 0 92 -92q2 43 25.5 67.5t69.5 24.5h196q-6 45 -25.5 94t-53.5 90t-87 68t-123 27q-45 0 -93 -17.5t-90 -52.5t-75 -86q-30 -53 -43 -121h207v-2zM23 901q8 109 43 195 q32 84 84.5 141t117 88t131.5 31q93 0 161.5 -39t114.5 -103.5t69.5 -146.5t27.5 -168v-201q0 -182 -52 -284.5t-153 -102.5q-80 0 -124 60.5t-46 183.5q-2 -100 -54 -158.5t-155 -70.5q-79 -9 -123.5 -27t-66.5 -31q-2 15 -3 34.5t-1 27.5q0 39 7 67.5t30.5 50t63.5 34 t108 20.5q26 4 47.5 11t37 22.5t22.5 42t7 69.5v51h-294v2h-23v201h23z" />
<glyph unicode="&#xe899;&#xe846;" horiz-adv-x="846" d="M793 899v-201q0 -182 -52.5 -284.5t-152.5 -102.5q-80 0 -124 60.5t-46 183.5q-2 -100 -54.5 -158.5t-154.5 -70.5q-80 -9 -124 -27t-67 -31q-2 15 -3 34.5t-1 27.5q0 39 7.5 67.5t31 50t63.5 34t105 20.5q29 4 50.5 11t37 22.5t22.5 42t7 69.5v51h-295v201q8 111 42 196 t85 142t115.5 88t134.5 31q92 0 159.5 -39t113.5 -103.5t69.5 -146.5t30.5 -168zM709 899q-7 45 -26 94t-53 90t-87.5 68t-122.5 27q-45 0 -93 -17.5t-90 -52.5t-75 -87t-43 -122h205q92 0 94 -92q2 43 25.5 67.5t68.5 24.5h197zM721 698h-234q0 -61 4.5 -104t13.5 -71.5 t29.5 -42t53.5 -13.5q67 0 100 56.5t33 174.5z" />
<glyph unicode="&#xe899;&#xe844;" horiz-adv-x="928" d="M971 899v-199h-185q0 -184 -52 -285.5t-150 -101.5q-80 0 -124 60.5t-46 181.5q-2 -98 -53.5 -156.5t-153.5 -70.5q-80 -9 -123 -27t-66 -31q-2 17 -3 35.5t-1 26.5q0 39 7.5 67.5t30 49t63.5 34t106 21.5q27 2 49.5 9t35.5 22.5t21.5 42t8.5 69.5v53h-293v199 q6 109 40 193t86 141t115.5 87t131.5 30q94 0 160.5 -39t112.5 -102.5t69.5 -144.5t27.5 -165h185zM705 899q-7 43 -26.5 92t-54 89t-86 67t-122.5 27q-45 0 -92.5 -17.5t-89 -52.5t-73.5 -86t-44 -119h205q90 0 92 -92q2 41 26.5 66.5t67.5 25.5h197zM717 700h-232 q0 -63 3.5 -106t13.5 -71.5t30.5 -41t51.5 -12.5q65 0 99 55.5t34 175.5z" />
<glyph unicode="&#xe89a;&#xe844;" horiz-adv-x="899" d="M696 700h-231q0 -63 3 -106t13.5 -71.5t30.5 -41t51 -12.5q68 0 100.5 55.5t32.5 175.5zM291 899h10q90 0 92 -92q2 41 26.5 66.5t67.5 25.5h197q-6 43 -25.5 92t-54.5 89t-86 67t-123 27q-45 0 -92 -17.5t-89 -52.5t-73 -84q-32 -51 -45 -119h195v-2zM23 901 q8 109 40 191q33 84 85.5 141t116 87t130.5 30q94 0 162 -39t113 -102.5t68.5 -144.5t29.5 -165h182v-199h-182q0 -184 -52 -285.5t-153 -101.5q-80 0 -124 60.5t-46 181.5q-2 -98 -53 -156.5t-154 -70.5q-80 -9 -123 -27t-65 -31q-2 17 -3 35.5t-1 26.5q0 39 7 67.5 t29.5 49t63.5 34t107 21.5q26 2 48.5 9t36 22.5t21.5 42t8 69.5v53h-315v201h23z" />
<glyph unicode="&#xe89a;&#xe846;" horiz-adv-x="831" d="M700 698h-231q0 -61 3 -104t13.5 -71.5t31 -42t50.5 -13.5q68 0 100.5 56.5t32.5 174.5zM305 899q90 0 92 -92q2 43 25.5 67.5t69.5 24.5h196q-6 45 -25.5 94t-53.5 90t-87 68t-123 27q-45 0 -93 -17.5t-90 -52.5t-75 -86q-30 -53 -43 -121h207v-2zM23 901q8 109 43 195 q32 84 84.5 141t117 88t131.5 31q93 0 161.5 -39t114.5 -103.5t69.5 -146.5t27.5 -168v-201q0 -182 -52 -284.5t-153 -102.5q-80 0 -124 60.5t-46 183.5q-2 -100 -54 -158.5t-155 -70.5q-79 -9 -123.5 -27t-66.5 -31q-2 15 -3 34.5t-1 27.5q0 39 7 67.5t30.5 50t63.5 34 t108 20.5q26 4 47.5 11t37 22.5t22.5 42t7 69.5v51h-294v2h-23v201h23z" />
<glyph unicode="&#xe899;&#xe84e;" horiz-adv-x="1358" d="M1279 668v-102q0 -63 -21.5 -101t-53.5 -38v21q0 118 -43 184t-130 69h-247q0 -181 -51.5 -282.5t-149.5 -101.5q-81 0 -124.5 60.5t-45.5 179.5q-2 -99 -53.5 -156t-154.5 -69q-78 -9 -121.5 -27.5t-65.5 -29.5q-2 14 -3 32.5t-1 27.5q0 38 7.5 66.5t30 49.5t63 34 t105.5 20q27 4 49 11t36 22.5t22 42t8 69.5v51h-293v199q8 109 41.5 193t85 141t115.5 86.5t131 29.5q92 0 159.5 -39t113 -102.5t69 -144t27.5 -164.5h323q82 -7 127 -67.5t45 -164.5zM701 900q-5 44 -24.5 92t-54 88.5t-86 67.5t-121.5 27q-44 0 -92 -17.5t-89.5 -52 t-73 -86t-43.5 -119.5h203q91 0 93 -93q2 42 26 67.5t67 25.5h195zM714 701h-231q0 -61 3.5 -104t14 -71.5t30 -42t52.5 -13.5q65 0 98 56t33 175z" />
<glyph unicode="&#xe899;&#xe84b;" horiz-adv-x="1399" d="M1462 899v-199h-438l229 -325v-27l-47 -229h-24l-232 581h-162q0 -182 -52 -284.5t-150 -102.5q-80 0 -124 60.5t-46 181.5q-2 -100 -54.5 -156.5t-154.5 -70.5q-80 -9 -123 -27t-66 -31q-2 15 -3 33.5t-1 28.5q0 39 7.5 66.5t30 49t63.5 35t106 21.5q29 4 50.5 10 t36 21.5t21.5 43t7 68.5v53h-293v199q6 109 41 195t86 142t114.5 86t133.5 30q92 0 159.5 -39t112.5 -102.5t69.5 -145.5t28.5 -166h674zM702 899q-6 45 -24.5 93t-53 89t-87 68t-119.5 27q-47 0 -94.5 -17.5t-89 -52.5t-73.5 -86t-44 -121h205q90 0 92 -90q4 41 27.5 65.5 t66.5 24.5h194zM717 700h-234q0 -59 4.5 -103t14.5 -72.5t29.5 -42t52.5 -13.5q65 0 99 56.5t34 174.5z" />
<glyph unicode="&#xe89a;&#xe84b;" horiz-adv-x="918" d="M696 700h-231q0 -63 3 -106t13.5 -71.5t30.5 -41t51 -12.5q68 0 100.5 55.5t32.5 175.5zM291 899h10q90 0 92 -92q2 41 26.5 66.5t67.5 25.5h197q-6 43 -25.5 92t-54.5 89t-86 67t-123 27q-45 0 -92 -17.5t-89 -52.5t-73 -84q-32 -51 -45 -119h195v-2zM23 901 q8 109 40 191q33 84 85.5 141t116 87t130.5 30q94 0 162 -39t113 -102.5t68.5 -144.5t29.5 -165h182v-199h-182q0 -184 -52 -285.5t-153 -101.5q-80 0 -124 60.5t-46 181.5q-2 -98 -53 -156.5t-154 -70.5q-80 -9 -123 -27t-65 -31q-2 17 -3 35.5t-1 26.5q0 39 7 67.5 t29.5 49t63.5 34t107 21.5q26 2 48.5 9t36 22.5t21.5 42t8 69.5v53h-315v201h23z" />
<glyph unicode="&#xe89a;&#xe84e;" horiz-adv-x="836" d="M700 698h-231q0 -61 3 -104t13.5 -71.5t31 -42t50.5 -13.5q68 0 100.5 56.5t32.5 174.5zM305 899q90 0 92 -92q2 43 25.5 67.5t69.5 24.5h196q-6 45 -25.5 94t-53.5 90t-87 68t-123 27q-45 0 -93 -17.5t-90 -52.5t-75 -86q-30 -53 -43 -121h207v-2zM23 901q8 109 43 195 q32 84 84.5 141t117 88t131.5 31q93 0 161.5 -39t114.5 -103.5t69.5 -146.5t27.5 -168v-201q0 -182 -52 -284.5t-153 -102.5q-80 0 -124 60.5t-46 183.5q-2 -100 -54 -158.5t-155 -70.5q-79 -9 -123.5 -27t-66.5 -31q-2 15 -3 34.5t-1 27.5q0 39 7 67.5t30.5 50t63.5 34 t108 20.5q26 4 47.5 11t37 22.5t22.5 42t7 69.5v51h-294v2h-23v201h23z" />
<glyph unicode="&#xe89a;&#xe84f;" horiz-adv-x="1323" d="M694 701h-231q0 -61 3.5 -104t14 -71.5t30 -42t52.5 -13.5q65 0 98 56t33 175zM22 901q8 108 42 192q33 84 84.5 141t115.5 86.5t131 29.5q92 0 159.5 -39t113 -102.5t69 -144t27.5 -164.5h323q82 -7 127 -67.5t45 -164.5v-102q0 -63 -21.5 -101t-53.5 -38v21 q0 118 -43 184t-130 69h-247q0 -181 -51.5 -282.5t-149.5 -101.5q-81 0 -124.5 60.5t-45.5 179.5q-2 -99 -53.5 -156t-154.5 -69q-78 -9 -121.5 -27.5t-65.5 -29.5q-2 14 -3 32.5t-1 27.5q0 38 7.5 66.5t30 49.5t63 34t105.5 20q27 4 49 11t36 22.5t22 42t8 69.5v50h-315 v201h22zM97 901h240v-6q54 -16 56 -88q2 42 26 67.5t67 25.5h195q-5 44 -24.5 92t-54 88.5t-86 67.5t-121.5 27q-44 0 -92 -17.5t-89.5 -52t-72.5 -85.5q-32 -52 -44 -119z" />
<glyph unicode="&#xe899;&#xe856;" horiz-adv-x="1352" d="M1279 668v-102q0 -63 -21.5 -101t-53.5 -38v21q0 118 -43 184t-130 69h-247q0 -181 -51.5 -282.5t-149.5 -101.5q-81 0 -124.5 60.5t-45.5 179.5q-2 -99 -53.5 -156t-154.5 -69q-78 -9 -121.5 -27.5t-65.5 -29.5q-2 14 -3 32.5t-1 27.5q0 38 7.5 66.5t30 49.5t63 34 t105.5 20q27 4 49 11t36 22.5t22 42t8 69.5v51h-293v199q8 109 41.5 193t85 141t115.5 86.5t131 29.5q92 0 159.5 -39t113 -102.5t69 -144t27.5 -164.5h323q82 -7 127 -67.5t45 -164.5zM701 900q-5 44 -24.5 92t-54 88.5t-86 67.5t-121.5 27q-44 0 -92 -17.5t-89.5 -52 t-73 -86t-43.5 -119.5h203q91 0 93 -93q2 42 26 67.5t67 25.5h195zM714 701h-231q0 -61 3.5 -104t14 -71.5t30 -42t52.5 -13.5q65 0 98 56t33 175z" />
<glyph unicode="&#xe899;&#xe853;" horiz-adv-x="1403" d="M1462 899v-199h-438l229 -325v-27l-47 -229h-24l-232 581h-162q0 -182 -52 -284.5t-150 -102.5q-80 0 -124 60.5t-46 181.5q-2 -100 -54.5 -156.5t-154.5 -70.5q-80 -9 -123 -27t-66 -31q-2 15 -3 33.5t-1 28.5q0 39 7.5 66.5t30 49t63.5 35t106 21.5q29 4 50.5 10 t36 21.5t21.5 43t7 68.5v53h-293v199q6 109 41 195t86 142t114.5 86t133.5 30q92 0 159.5 -39t112.5 -102.5t69.5 -145.5t28.5 -166h674zM702 899q-6 45 -24.5 93t-53 89t-87 68t-119.5 27q-47 0 -94.5 -17.5t-89 -52.5t-73.5 -86t-44 -121h205q90 0 92 -90q4 41 27.5 65.5 t66.5 24.5h194zM717 700h-234q0 -59 4.5 -103t14.5 -72.5t29.5 -42t52.5 -13.5q65 0 99 56.5t34 174.5z" />
<glyph unicode="&#xe89a;&#xe853;" horiz-adv-x="907" d="M696 700h-231q0 -63 3 -106t13.5 -71.5t30.5 -41t51 -12.5q68 0 100.5 55.5t32.5 175.5zM291 899h10q90 0 92 -92q2 41 26.5 66.5t67.5 25.5h197q-6 43 -25.5 92t-54.5 89t-86 67t-123 27q-45 0 -92 -17.5t-89 -52.5t-73 -84q-32 -51 -45 -119h195v-2zM23 901 q8 109 40 191q33 84 85.5 141t116 87t130.5 30q94 0 162 -39t113 -102.5t68.5 -144.5t29.5 -165h182v-199h-182q0 -184 -52 -285.5t-153 -101.5q-80 0 -124 60.5t-46 181.5q-2 -98 -53 -156.5t-154 -70.5q-80 -9 -123 -27t-65 -31q-2 17 -3 35.5t-1 26.5q0 39 7 67.5 t29.5 49t63.5 34t107 21.5q26 2 48.5 9t36 22.5t21.5 42t8 69.5v53h-315v201h23z" />
<glyph unicode="&#xe89a;&#xe856;" horiz-adv-x="831" d="M700 698h-231q0 -61 3 -104t13.5 -71.5t31 -42t50.5 -13.5q68 0 100.5 56.5t32.5 174.5zM305 899q90 0 92 -92q2 43 25.5 67.5t69.5 24.5h196q-6 45 -25.5 94t-53.5 90t-87 68t-123 27q-45 0 -93 -17.5t-90 -52.5t-75 -86q-30 -53 -43 -121h207v-2zM23 901q8 109 43 195 q32 84 84.5 141t117 88t131.5 31q93 0 161.5 -39t114.5 -103.5t69.5 -146.5t27.5 -168v-201q0 -182 -52 -284.5t-153 -102.5q-80 0 -124 60.5t-46 183.5q-2 -100 -54 -158.5t-155 -70.5q-79 -9 -123.5 -27t-66.5 -31q-2 15 -3 34.5t-1 27.5q0 39 7 67.5t30.5 50t63.5 34 t108 20.5q26 4 47.5 11t37 22.5t22.5 42t7 69.5v51h-294v2h-23v201h23z" />
<glyph unicode="&#xe89a;&#xe857;" horiz-adv-x="1300" d="M694 701h-231q0 -61 3.5 -104t14 -71.5t30 -42t52.5 -13.5q65 0 98 56t33 175zM22 901q8 108 42 192q33 84 84.5 141t115.5 86.5t131 29.5q92 0 159.5 -39t113 -102.5t69 -144t27.5 -164.5h323q82 -7 127 -67.5t45 -164.5v-102q0 -63 -21.5 -101t-53.5 -38v21 q0 118 -43 184t-130 69h-247q0 -181 -51.5 -282.5t-149.5 -101.5q-81 0 -124.5 60.5t-45.5 179.5q-2 -99 -53.5 -156t-154.5 -69q-78 -9 -121.5 -27.5t-65.5 -29.5q-2 14 -3 32.5t-1 27.5q0 38 7.5 66.5t30 49.5t63 34t105.5 20q27 4 49 11t36 22.5t22 42t8 69.5v50h-315 v201h22zM97 901h240v-6q54 -16 56 -88q2 42 26 67.5t67 25.5h195q-5 44 -24.5 92t-54 88.5t-86 67.5t-121.5 27q-44 0 -92 -17.5t-89.5 -52t-72.5 -85.5q-32 -52 -44 -119z" />
<glyph unicode="&#xe899;&#xe85d;" horiz-adv-x="1628" d="M1563 668v-105q0 -61 -21.5 -100t-52.5 -39v20q0 119 -44 185.5t-130 70.5h-629l39 -163q25 -117 68 -170.5t114 -53.5q33 0 53.5 13.5t33 28t20.5 26.5t18 12q19 0 26 -18.5t7 -50.5q0 -33 -12.5 -63t-33 -53.5t-50 -35.5t-62.5 -12q-53 0 -93 24.5t-70.5 68.5 t-55 108.5t-45.5 148.5q-18 84 -31.5 141.5t-22.5 95t-13.5 61t-7.5 36t-4 18.5t-3 10q-31 158 -86 232t-131 74q-180 0 -229 -279h260q94 0 94 -94v-180q0 -74 -14.5 -127.5t-40 -88t-64.5 -54t-92 -25.5q-80 -11 -123 -29t-63 -31q-4 15 -5 34.5t-1 27.5q0 39 8 66.5 t30.5 49t63.5 35t104 21.5q27 2 49.5 9t37 22.5t22.5 43t8 68.5v53h-348v199q14 221 90 337t213 116q66 0 113 -33t80.5 -92.5t58.5 -142.5t45 -185h750q82 -6 127 -67.5t45 -163.5z" />
<glyph unicode="&#xe899;&#xe85c;" horiz-adv-x="1176" d="M1257 899v-199h-573l37 -163q27 -115 68.5 -168.5t115.5 -53.5q33 0 52.5 12.5t33 27t21.5 27.5t16 13q21 0 28 -18.5t7 -50.5q0 -33 -12.5 -64t-34 -53.5t-50 -34.5t-61.5 -12q-53 0 -93 23.5t-70.5 68.5t-55 109.5t-45.5 148.5q-18 80 -30.5 138.5t-21.5 97t-14.5 61 t-8.5 35t-4 18.5t-3 10q-31 156 -86 230t-131 74q-178 0 -227 -277h258q94 0 94 -94v-180q0 -72 -13.5 -126.5t-39 -89t-65.5 -54t-91 -25.5q-80 -8 -123 -27.5t-63 -30.5q-2 15 -3 33.5t-1 28.5q0 37 7 65.5t29.5 49t62.5 34t105 21.5q27 4 49.5 11t37 22.5t21.5 42t7 67.5 v53h-346v199q14 219 89 335t212 116q66 0 114 -32t80.5 -91.5t56 -143.5t48.5 -184h616z" />
<glyph unicode="&#xe89a;&#xe85c;" horiz-adv-x="1157" d="M0 700v201h20q15 219 90 334t213 115q65 0 112.5 -32t80.5 -91.5t57 -143t47 -184.5h617v-199h-573l37 -163q27 -115 69 -168.5t116 -53.5q31 0 51 12t33 27t21 28t17 13q20 0 27.5 -18.5t7.5 -51.5t-12.5 -63t-34 -52.5t-50 -35t-60.5 -12.5q-54 0 -94 23.5t-71 68 t-55.5 109.5t-43.5 148q-19 81 -32 139.5t-22 97t-14 61.5t-7.5 35t-3.5 18t-3 10q-31 157 -86.5 230t-130.5 73q-179 0 -229 -274h232v-2h27q93 0 93 -95v-179q0 -73 -13 -126.5t-38.5 -88.5t-65 -54.5t-91.5 -26.5q-79 -8 -122 -27t-65 -29q-2 14 -3 32.5t-1 27.5 q0 38 7.5 66.5t30 49.5t62.5 34t106 21q27 4 49 11t36 22.5t22 42t8 68.5v52h-368z" />
<glyph unicode="&#xe89a;&#xe85d;" horiz-adv-x="1599" d="M0 700v201h20q15 219 91 336q75 115 213 115q65 0 112 -33t81 -92.5t58.5 -142.5t45.5 -185h749q82 -6 127 -67.5t45 -163.5v-105q0 -61 -21.5 -100t-52.5 -39v20q0 119 -44 185.5t-130 70.5h-628l39 -163q24 -117 67 -170.5t117 -53.5q31 0 51.5 13.5t32.5 28t20 26.5 t19 12q18 0 25 -18.5t7 -50.5q0 -33 -11 -63t-32.5 -53.5t-50 -35.5t-61.5 -12q-53 0 -94 24.5t-72 68.5t-55.5 108.5t-42.5 148.5q-21 84 -33 141.5t-22.5 95t-14.5 61t-7 36t-4 18.5t-1 10q-31 158 -87.5 232t-131.5 74q-181 0 -230 -277h275v-2q80 -6 80 -94v-180 q0 -74 -13.5 -127.5t-39 -88t-65.5 -54t-91 -25.5q-80 -11 -124 -29t-65 -31q-4 15 -5 34.5t-1 27.5q0 39 8 66.5t30.5 49t63.5 35t107 21.5q27 2 49.5 9t35.5 22.5t21.5 43t8.5 68.5v53h-369z" />
<glyph unicode="&#xe89a;&#xe904;" horiz-adv-x="866" d="M485 1292q27 -24 50 -61q36 -60 58.5 -145t33.5 -187h313v-201h-231q-2 -26 -7.5 -74.5t-10.5 -99.5t-12 -98t-15 -74l-39 -12q-19 41 -33 100.5t-25.5 123t-18.5 125t-7 108.5q0 98 -20.5 169.5t-51.5 119t-69 70t-74 22.5q-181 0 -232 -277h279v-2q78 -6 78 -94v-184 q0 -74 -12.5 -127.5t-39 -89t-65.5 -55t-92 -25.5q-80 -11 -124 -29.5t-67 -30.5q-2 17 -4 35t-2 27q0 39 8 67.5t32 50t64.5 35t106.5 21.5q27 2 49.5 9t36.5 23.5t22.5 43t8.5 69.5v53h-353v2h-20v201h20q17 221 93 338q75 117 213 117q55 0 100 -23l-37 223q12 11 41 19 t64 8q38 0 65 6t44.5 23.5t27.5 44t16 65.5q23 -28 30 -58t7 -58q0 -80 -43 -130.5t-133 -50.5h-43z" />
<glyph unicode="&#xe89a;&#xe908;" horiz-adv-x="877" d="M510 1268q12 -19 25 -37q36 -60 58.5 -145t33.5 -187h313v-201h-231q-2 -26 -7.5 -74.5t-10.5 -99.5t-12 -98t-15 -74l-39 -12q-19 41 -33 100.5t-25.5 123t-18.5 125t-7 108.5q0 98 -20.5 169.5t-51.5 119t-69 70t-74 22.5q-181 0 -232 -277h279v-2q78 -6 78 -94v-184 q0 -74 -12.5 -127.5t-39 -89t-65.5 -55t-92 -25.5q-80 -11 -124 -29.5t-67 -30.5q-2 17 -4 35t-2 27q0 39 8 67.5t32 50t64.5 35t106.5 21.5q27 2 49.5 9t36.5 23.5t22.5 43t8.5 69.5v53h-353v2h-20v201h20q17 221 93 338q75 117 213 117q67 0 118 -33q11 -6 21 -12l16 119 l-43 -3q-90 0 -133 50.5t-43 130.5q0 28 7 58t30 58q4 -38 14.5 -66t28.5 -44.5t45 -22.5t66 -6q34 0 63 -7t39 -19z" />
<glyph unicode="&#xe8c2;&#xe82d;" horiz-adv-x="1241" d="M1182 500v-363q0 -76 -14.5 -131t-40 -96t-64.5 -70.5t-92 -52.5q-31 -14 -48.5 -25.5t-28.5 -21.5t-20.5 -26.5t-21.5 -41.5h-21l58 250q12 2 24.5 6t25.5 9.5t28.5 12.5t38.5 21q14 6 30.5 18.5t30.5 31t24.5 47t10.5 69.5v363q0 98 -37 149t-104 51h-338 q-2 -26 -7.5 -68t-14.5 -88t-22.5 -95.5t-31.5 -90.5l-39 -12q-10 19 -17.5 40.5t-12.5 48t-7 61t-2 79.5q0 27 5 57t12.5 61.5t11.5 67.5t6 77q0 20 -3 50t-11.5 62.5t-20.5 65.5t-32.5 58.5t-47.5 42t-61 16.5q-56 0 -95.5 -35t-65.5 -85t-38 -107.5t-12 -102.5 q0 -86 39 -182.5t123 -186.5l-52 -176h-20q-78 100 -122 213t-44 229v199q6 90 30.5 165t62.5 129t88 84t110 30q59 0 103 -31t74 -85t45 -129t19 -163h388q110 0 165.5 -98.5t55.5 -300.5z" />
<glyph unicode="&#xe8c2;&#xe82c;" horiz-adv-x="784" d="M834 901v-201h-207q-4 -26 -9.5 -68t-13.5 -89t-22.5 -96.5t-32.5 -90.5l-39 -12q-10 21 -17.5 41.5t-12.5 47t-7 61t-2 81.5q0 27 5 57t11.5 61.5t11.5 67.5t7 77q0 20 -3 50t-11.5 63.5t-20.5 65.5t-31.5 58.5t-47 43t-62.5 16.5q-56 0 -95.5 -35t-66.5 -85t-39 -107.5 t-12 -104.5q0 -88 40 -183.5t122 -187.5l-52 -176h-18q-80 100 -124 214t-44 230v201q6 88 31.5 164t63.5 130t88 85t110 31q59 0 103 -31t75 -86t45 -130t18 -163h259z" />
<glyph unicode="&#xe8c4;&#xe82c;" horiz-adv-x="758" d="M20 901q8 89 33 164.5t63 130t88 84.5t109 30q60 0 104.5 -30.5t74.5 -85.5t45 -130t19 -163h258v-201h-208q-3 -27 -8 -68.5t-14 -88.5t-22.5 -96t-32.5 -90l-39 -12q-10 19 -17.5 40t-12.5 47.5t-6.5 61.5t-1.5 81q0 27 5 56.5t11 61t11 68t6 77.5q0 21 -2.5 50.5 t-10.5 63t-21 65.5t-32.5 58.5t-47 42.5t-62.5 16q-55 0 -95 -34.5t-66.5 -84.5t-38.5 -108t-12 -105q0 -87 39.5 -182t122.5 -187l-52 -176h-19q-78 100 -123 213t-45 230h-20v201h20z" />
<glyph unicode="&#xe8c4;&#xe82d;" horiz-adv-x="1245" d="M20 901q8 88 33 163q24 75 62 129t87.5 84t108.5 30q61 0 105 -30.5t73.5 -85t45 -129t18.5 -162.5h388q110 0 165.5 -99t55.5 -301v-363q0 -76 -14 -131.5t-40.5 -96.5t-65.5 -70.5t-91 -52.5q-30 -13 -47.5 -24t-29.5 -22t-20.5 -27.5t-22.5 -39.5h-20l58 249 q12 3 24 6.5t25.5 8.5t29.5 12.5t37 21.5q14 7 30.5 19t31.5 30.5t25 47t10 69.5v363q0 97 -37 148.5t-104 51.5h-338q-2 -26 -7 -68t-14.5 -88.5t-22.5 -95t-33 -89.5l-38 -12q-10 18 -17.5 39t-12.5 48t-6.5 61.5t-1.5 80.5q0 27 5 56t11.5 60.5t11 67.5t5.5 77 q0 21 -2.5 51t-10.5 62.5t-21 65t-33 58.5t-46.5 42t-62.5 16q-55 0 -94.5 -34.5t-65.5 -84.5t-38.5 -107.5t-12.5 -103.5q0 -86 39.5 -181.5t123.5 -186.5l-52 -175h-20q-77 100 -122 212t-45 229h-20v201h20z" />
<glyph unicode="&#xe8c2;&#xe837;" horiz-adv-x="1260" d="M1206 668v-103q0 -63 -21.5 -101t-51.5 -38v20q0 119 -43 184.5t-132 69.5h-393q23 -86 64 -161.5t98 -141.5l-31 -180h-26q-58 82 -91.5 152.5t-54 138t-34 133.5t-25.5 137q-12 64 -23.5 133.5t-29 128t-45 97.5t-72.5 39q-39 0 -65.5 -19.5t-47 -50.5t-34 -71 t-20.5 -81t-10 -80.5t-3 -70.5q0 -62 9 -110t29.5 -90t52.5 -82t73 -85l-54 -176h-18q-78 98 -122 214t-44 226v199q6 88 25.5 170t51.5 145.5t77 99.5t104 36q55 0 95 -33t66.5 -92.5t42 -142.5t21.5 -183h510q82 -6 127 -67.5t45 -163.5z" />
<glyph unicode="&#xe8c2;&#xe834;" horiz-adv-x="903" d="M968 901v-202h-394q23 -87 64 -164t99 -144l-31 -182h-28q-57 82 -91.5 154t-55.5 140t-34.5 135.5t-26.5 140.5q-12 63 -23 134t-29 130t-46 98t-74 39q-38 0 -66 -19.5t-48 -50.5t-33 -71.5t-21 -82t-11 -82t-3 -72.5q0 -61 10 -110t30.5 -91.5t51.5 -83.5t73 -87 l-52 -178h-20q-78 101 -123.5 218t-45.5 229v202q8 90 27.5 173t52 146.5t77.5 100.5t104 37q58 0 98.5 -33.5t67.5 -94t43 -144.5t22 -185h436z" />
<glyph unicode="&#xe8c4;&#xe834;" horiz-adv-x="877" d="M20 901q9 90 28.5 173t51 146.5t76.5 100.5t105 37q59 0 99 -34t66.5 -94.5t43 -144.5t22.5 -184h436v-203h-393q23 -86 63.5 -162.5t98.5 -144.5l-31 -182h-29q-57 82 -91 153.5t-55.5 140t-34.5 136.5t-25 139q-13 64 -24 134.5t-28.5 130t-46 98.5t-73.5 39 q-39 0 -67 -19.5t-48.5 -50.5t-32.5 -72t-20.5 -82t-11.5 -81.5t-3 -71.5q0 -62 10.5 -111t31 -92t51 -84t71.5 -86l-51 -178h-21q-77 100 -122.5 218t-45.5 228v2h-20v201h20z" />
<glyph unicode="&#xe8c4;&#xe837;" horiz-adv-x="1237" d="M20 901q9 86 27 168q19 82 50.5 145.5t76.5 99.5t105 36q57 0 96 -33t66.5 -92.5t42 -142.5t22.5 -183h510q82 -6 126 -67.5t44 -163.5v-103q0 -63 -20.5 -101t-53.5 -38v20q0 119 -43 184.5t-131 69.5h-391q20 -86 61 -161.5t99 -141.5l-31 -180h-27q-55 82 -90 152.5 t-55.5 138t-33.5 133.5t-26 137q-12 64 -23 133.5t-28.5 128t-45.5 97.5t-73 39q-36 0 -64 -19.5t-48.5 -50.5t-32.5 -71t-20.5 -81t-11.5 -80.5t-3 -70.5q0 -62 10.5 -110t30 -90t51 -82t72.5 -85l-51 -176h-21q-75 98 -120.5 214t-45.5 226h-20v201h20z" />
<glyph unicode="&#xe8c2;&#xe84e;" horiz-adv-x="1300" d="M1240 667v-104q0 -63 -21.5 -102t-53.5 -39v21q0 120 -43.5 187t-131.5 70h-248v-145q0 -59 -6 -104t-23.5 -76t-48.5 -47t-81 -16q-83 0 -121.5 58.5t-38.5 184.5v272q0 16 2 29t10 23t22 16t38 6h172q0 138 -62.5 208t-195.5 70q-82 0 -138 -31t-90 -80.5t-47.5 -111.5 t-13.5 -124q0 -76 10.5 -133.5t30 -107t47.5 -97t62 -103.5l-75 -158q-41 58 -70.5 130.5t-48 151.5t-27.5 160t-9 157q0 61 9 123.5t27 120.5t47.5 109.5t70.5 89t94.5 59.5t120.5 22q90 0 150.5 -30t98.5 -87.5t57.5 -142.5t26.5 -195h325q83 -7 128 -68t45 -166zM672 700 h-178v-87q0 -43 3.5 -71.5t13.5 -45t27 -23t45 -6.5q27 0 44 7t27 24t14 45.5t4 69.5v87z" />
<glyph unicode="&#xe8c2;&#xe84b;" horiz-adv-x="1348" d="M1416 900v-200h-446l228 -324v-27l-48 -228h-26l-228 579h-160v-144q0 -57 -6.5 -102t-23.5 -76t-48 -46.5t-80 -15.5q-82 0 -120 57.5t-38 182.5v270q0 16 2 29t9.5 23t22 16t36.5 6h171q0 136 -62 205.5t-193 69.5q-83 0 -138 -30.5t-88.5 -80.5t-47 -111t-13.5 -123 q0 -74 10 -131t30 -106t47.5 -96t61.5 -102l-75 -157q-40 56 -69 128t-48 150.5t-27.5 159t-8.5 154.5q0 61 8.5 122.5t26.5 119.5t47.5 108.5t70 88t93.5 59.5t120 22q89 0 148.5 -29.5t97.5 -86.5t57 -141.5t27 -192.5h680zM666 700h-177v-87q0 -43 4 -70.5t14 -44 t26.5 -23t44.5 -6.5q27 0 43.5 7.5t26.5 24t14 45t4 67.5v87z" />
<glyph unicode="&#xe8c4;&#xe84b;" horiz-adv-x="866" d="M647 700h-176v-88q0 -43 4 -70.5t14.5 -44t26.5 -22.5t43 -6t44.5 6t27.5 23.5t13 45t3 68.5v88zM23 901q2 27 6 53q10 62 27.5 119t46 108.5t69.5 89.5t94 59.5t121 21.5q88 0 148.5 -30t98.5 -86t57.5 -141t27.5 -196h217v-199h-217v-145q0 -57 -6 -102t-23.5 -76 t-48.5 -47.5t-82 -16.5q-82 0 -120 58.5t-38 183.5v272q0 15 2.5 28t9.5 23.5t21.5 15.5t36.5 5h172q0 137 -61.5 207t-194.5 70q-84 0 -139 -31t-88 -80t-47.5 -110.5t-14.5 -123.5q0 -75 11.5 -132.5t31 -106.5t46 -96t63.5 -103l-76 -157q-41 57 -69.5 128.5t-47 151.5 t-28.5 160q0 12 -2 24h-27v201h23z" />
<glyph unicode="&#xe8c4;&#xe84e;" horiz-adv-x="801" d="M670 694h-183v-90q0 -45 4.5 -73.5t13.5 -45t27.5 -23.5t47.5 -7q26 0 43.5 7t28 24.5t14.5 47t4 70.5v90zM23 901q2 29 6 55q10 66 28.5 125.5t48 112.5t71.5 91t98.5 61.5t123.5 23.5q95 0 156 -30.5t100 -90t59.5 -146.5t28.5 -202v-356q0 -60 -6 -107t-24.5 -78.5 t-50 -48t-82.5 -16.5q-86 0 -126 60.5t-40 189.5v280q0 17 3 30t10 23.5t22.5 16.5t37.5 6h179q0 141 -64.5 214t-202.5 73q-84 0 -141 -32t-93 -83t-49.5 -114.5t-13.5 -129.5q0 -75 11.5 -134.5t32 -111t48 -100.5t62.5 -106l-78 -164q-41 59 -70.5 134t-49 157t-29.5 166 q-2 14 -2 30h-27v201h23z" />
<glyph unicode="&#xe8c4;&#xe84f;" horiz-adv-x="1276" d="M651 700h-178v-88q0 -43 4 -71.5t14.5 -45t27 -22.5t44.5 -6q27 0 44.5 7t26.5 23.5t13 45t4 69.5v88zM23 901q2 27 6 55q10 62 27.5 120.5t47 109.5t70.5 89t94.5 59.5t120.5 21.5q90 0 150.5 -30t98.5 -87t57.5 -142t27.5 -196h324q83 -6 128.5 -67.5t45.5 -165.5v-105 q0 -63 -21.5 -102t-54.5 -39v20q0 121 -43 187.5t-131 70.5h-248v-145q0 -59 -6 -104t-23.5 -76t-49.5 -47.5t-81 -16.5q-84 0 -122 58.5t-38 185.5v272q0 17 2.5 29t10.5 22.5t21.5 16.5t37.5 6h172q0 137 -62.5 208t-195.5 71q-82 0 -138 -32t-90 -81t-47.5 -110.5 t-13.5 -125.5q0 -75 10.5 -132.5t30 -106.5t47 -97.5t62.5 -103.5l-76 -158q-41 58 -69.5 130.5t-47 151.5t-28.5 161q0 12 -2 24h-27v201h23z" />
<glyph unicode="&#xe8c2;&#xe856;" horiz-adv-x="829" d="M690 695h-183v-90q0 -45 4 -74t14 -46t28 -24t46 -7t45.5 7.5t27.5 25t14 47t4 71.5v90zM763 902v-357q0 -60 -6 -106.5t-24.5 -78.5t-50.5 -48.5t-83 -16.5q-85 0 -125 60.5t-40 189.5v281q0 16 2.5 29.5t10.5 23.5t22.5 16.5t38.5 6.5h178q0 141 -64.5 213.5 t-201.5 72.5q-85 0 -142.5 -32t-92.5 -83.5t-49 -115t-14 -127.5q0 -77 11 -136.5t31.5 -110.5t49 -100t63.5 -106l-78 -163q-42 59 -72 133.5t-49.5 156t-28.5 165.5t-9 161q0 63 9 127t28 124t49 113t72 91.5t97.5 61.5t124.5 23q93 0 155 -31t101 -90t59 -146.5 t28 -200.5z" />
<glyph unicode="&#xe8c2;&#xe853;" horiz-adv-x="1333" d="M1416 900v-200h-446l228 -324v-27l-48 -228h-26l-228 579h-160v-144q0 -57 -6.5 -102t-23.5 -76t-48 -46.5t-80 -15.5q-82 0 -120 57.5t-38 182.5v270q0 16 2 29t9.5 23t22 16t36.5 6h171q0 136 -62 205.5t-193 69.5q-83 0 -138 -30.5t-88.5 -80.5t-47 -111t-13.5 -123 q0 -74 10 -131t30 -106t47.5 -96t61.5 -102l-75 -157q-40 56 -69 128t-48 150.5t-27.5 159t-8.5 154.5q0 61 8.5 122.5t26.5 119.5t47.5 108.5t70 88t93.5 59.5t120 22q89 0 148.5 -29.5t97.5 -86.5t57 -141.5t27 -192.5h680zM666 700h-177v-87q0 -43 4 -70.5t14 -44 t26.5 -23t44.5 -6.5q27 0 43.5 7.5t26.5 24t14 45t4 67.5v87z" />
<glyph unicode="&#xe8c4;&#xe853;" horiz-adv-x="877" d="M647 700h-176v-88q0 -43 4 -70.5t14.5 -44t26.5 -22.5t43 -6t44.5 6t27.5 23.5t13 45t3 68.5v88zM23 901q2 27 6 53q10 62 27.5 119t46 108.5t69.5 89.5t94 59.5t121 21.5q88 0 148.5 -30t98.5 -86t57.5 -141t27.5 -196h217v-199h-217v-145q0 -57 -6 -102t-23.5 -76 t-48.5 -47.5t-82 -16.5q-82 0 -120 58.5t-38 183.5v272q0 15 2.5 28t9.5 23.5t21.5 15.5t36.5 5h172q0 137 -61.5 207t-194.5 70q-84 0 -139 -31t-88 -80t-47.5 -110.5t-14.5 -123.5q0 -75 11.5 -132.5t31 -106.5t46 -96t63.5 -103l-76 -157q-41 57 -69.5 128.5t-47 151.5 t-28.5 160q0 12 -2 24h-27v201h23z" />
<glyph unicode="&#xe8c4;&#xe856;" horiz-adv-x="797" d="M670 694h-183v-90q0 -45 4.5 -73.5t13.5 -45t27.5 -23.5t47.5 -7q26 0 43.5 7t28 24.5t14.5 47t4 70.5v90zM23 901q2 29 6 55q10 66 28.5 125.5t48 112.5t71.5 91t98.5 61.5t123.5 23.5q95 0 156 -30.5t100 -90t59.5 -146.5t28.5 -202v-356q0 -60 -6 -107t-24.5 -78.5 t-50 -48t-82.5 -16.5q-86 0 -126 60.5t-40 189.5v280q0 17 3 30t10 23.5t22.5 16.5t37.5 6h179q0 141 -64.5 214t-202.5 73q-84 0 -141 -32t-93 -83t-49.5 -114.5t-13.5 -129.5q0 -75 11.5 -134.5t32 -111t48 -100.5t62.5 -106l-78 -164q-41 59 -70.5 134t-49 157t-29.5 166 q-2 14 -2 30h-27v201h23z" />
<glyph unicode="&#xe8c4;&#xe857;" horiz-adv-x="1272" d="M651 700h-178v-88q0 -43 4 -71.5t14.5 -45t27 -22.5t44.5 -6q27 0 44.5 7t26.5 23.5t13 45t4 69.5v88zM23 901q2 27 6 55q10 62 27.5 120.5t47 109.5t70.5 89t94.5 59.5t120.5 21.5q90 0 150.5 -30t98.5 -87t57.5 -142t27.5 -196h324q83 -6 128.5 -67.5t45.5 -165.5v-105 q0 -63 -21.5 -102t-54.5 -39v20q0 121 -43 187.5t-131 70.5h-248v-145q0 -59 -6 -104t-23.5 -76t-49.5 -47.5t-81 -16.5q-84 0 -122 58.5t-38 185.5v272q0 17 2.5 29t10.5 22.5t21.5 16.5t37.5 6h172q0 137 -62.5 208t-195.5 71q-82 0 -138 -32t-90 -81t-47.5 -110.5 t-13.5 -125.5q0 -75 10.5 -132.5t30 -106.5t47 -97.5t62.5 -103.5l-76 -158q-41 58 -69.5 130.5t-47 151.5t-28.5 161q0 12 -2 24h-27v201h23z" />
<glyph unicode="&#xe8c2;&#xe85d;" horiz-adv-x="1602" d="M1516 668v-104q0 -63 -21.5 -101.5t-53.5 -38.5v21q0 119 -43.5 186t-130.5 69h-613q18 -123 41 -199.5t51.5 -117.5t61.5 -55t69 -14q32 0 52 12.5t32.5 27t20.5 27.5t18 13q19 0 27 -18t8 -52t-12.5 -63.5t-33.5 -52t-50 -35.5t-62 -13q-56 0 -98 24.5t-72.5 67 t-52 97.5t-37 115.5t-26.5 123t-19 118.5q-14 92 -30.5 177t-41 150t-61.5 105t-95 40q-55 0 -97.5 -34.5t-71.5 -87t-44.5 -118t-15.5 -125.5q0 -105 40 -196t124 -183l-51 -176h-21q-77 101 -122 214t-45 228v201q8 109 37 194t71.5 142t94 87t101.5 30q44 0 80 -19 t64 -51.5t50 -77t39 -95t30.5 -104.5t24.5 -106h711q83 -8 128 -68.5t45 -164.5z" />
<glyph unicode="&#xe8c2;&#xe85c;" horiz-adv-x="1145" d="M1210 901v-201h-555q19 -125 42.5 -201.5t51 -117.5t61.5 -55.5t69 -14.5q32 0 52.5 13.5t33 28t20.5 26.5t19 12q18 0 25 -17.5t7 -51.5q0 -33 -11 -63t-32.5 -53.5t-50.5 -35.5t-63 -12q-56 0 -98 25.5t-72.5 66.5t-52 96t-37 115.5t-25.5 124t-21 121.5 q-14 90 -30.5 175t-41 151.5t-62.5 105.5t-95 39q-53 0 -96 -34t-73 -87t-44 -118t-14 -128q0 -102 40 -194.5t124 -184.5l-54 -176h-18q-80 100 -124 214t-44 230v201q6 109 35.5 194t71.5 142t94.5 88t101.5 31q45 0 81 -19.5t63.5 -52.5t50 -77t40 -95t31 -105.5 t25.5 -105.5h575z" />
<glyph unicode="&#xe8c4;&#xe85c;" horiz-adv-x="1120" d="M20 901q9 109 37.5 194t70.5 142t94 88t104 31q43 0 78.5 -19.5t64.5 -52.5t50.5 -77t38.5 -95t30.5 -105.5t25.5 -105.5h578v-201h-555q16 -125 39.5 -201.5t52.5 -117.5t61.5 -55.5t67.5 -14.5t54.5 13.5t31.5 28t20.5 26.5t18.5 12q18 0 26.5 -17.5t8.5 -51.5 q0 -33 -12.5 -63t-34 -53.5t-50 -35.5t-63.5 -12q-55 0 -97 25.5t-73 66.5t-52.5 96t-36.5 115.5t-25.5 124t-18.5 121.5q-16 90 -31.5 175t-41 151.5t-62.5 105.5t-94 39q-56 0 -99 -34t-71.5 -87t-44 -118t-15.5 -128q0 -102 40 -194.5t124 -184.5l-51 -176h-21 q-77 100 -122.5 214t-45.5 230h-20v201h20z" />
<glyph unicode="&#xe8c4;&#xe85d;" horiz-adv-x="1552" d="M20 901q9 109 37.5 194t70.5 142t94 87t102 30q45 0 80.5 -18.5t63.5 -51.5t50.5 -78t38.5 -95t29.5 -104.5t25.5 -105.5h711q84 -8 128 -68.5t44 -164.5v-105q0 -61 -21.5 -100t-52.5 -39v20q0 119 -44 186.5t-130 69.5h-612q16 -122 39.5 -199t52.5 -118t61.5 -55.5 t67.5 -14.5q33 0 53.5 13.5t32.5 28t20.5 26.5t18.5 12q18 0 26.5 -17.5t8.5 -51.5q0 -33 -13.5 -63t-34 -52.5t-49 -35.5t-63.5 -13q-55 0 -97 24.5t-73 67.5t-52.5 97t-36.5 114.5t-26.5 123t-17.5 120.5q-14 92 -30.5 177t-41 149.5t-61.5 104.5t-96 40q-56 0 -98 -34 t-70.5 -87t-45 -119t-16.5 -125q0 -104 40 -195.5t124 -183.5l-49 -176h-23q-75 100 -120.5 214t-45.5 228h-20v201h20z" />
<glyph unicode="&#xe8e2;&#xe82d;" horiz-adv-x="1237" d="M1182 500v-363q0 -76 -14.5 -131t-40 -96t-64.5 -70.5t-92 -52.5q-31 -14 -48.5 -25.5t-28.5 -21.5t-20.5 -26.5t-21.5 -41.5h-21l58 250q12 2 24.5 6t25.5 9.5t28.5 12.5t38.5 21q14 6 30.5 18.5t30.5 31t24.5 47t10.5 69.5v363q0 98 -37 149t-104 51h-338 q-2 -26 -7.5 -68t-14.5 -88t-22.5 -95.5t-31.5 -90.5l-39 -12q-10 19 -17.5 40.5t-12.5 48t-7 61t-2 79.5q0 27 5 57t12.5 61.5t11.5 67.5t6 77q0 20 -3 50t-11.5 62.5t-20.5 65.5t-32.5 58.5t-47.5 42t-61 16.5q-56 0 -95.5 -35t-65.5 -85t-38 -107.5t-12 -102.5 q0 -86 39 -182.5t123 -186.5l-52 -176h-20q-78 100 -122 213t-44 229v199q6 90 30.5 165t62.5 129t88 84t110 30q59 0 103 -31t74 -85t45 -129t19 -163h388q110 0 165.5 -98.5t55.5 -300.5z" />
<glyph unicode="&#xe8e2;&#xe82c;" horiz-adv-x="776" d="M834 901v-201h-207q-4 -26 -9.5 -68t-13.5 -89t-22.5 -96.5t-32.5 -90.5l-39 -12q-10 21 -17.5 41.5t-12.5 47t-7 61t-2 81.5q0 27 5 57t11.5 61.5t11.5 67.5t7 77q0 20 -3 50t-11.5 63.5t-20.5 65.5t-31.5 58.5t-47 43t-62.5 16.5q-56 0 -95.5 -35t-66.5 -85t-39 -107.5 t-12 -104.5q0 -88 40 -183.5t122 -187.5l-52 -176h-18q-80 100 -124 214t-44 230v201q6 88 31.5 164t63.5 130t88 85t110 31q59 0 103 -31t75 -86t45 -130t18 -163h259z" />
<glyph unicode="&#xe8e4;&#xe82c;" horiz-adv-x="776" d="M20 901q8 89 33 164.5t63 130t88 84.5t109 30q60 0 104.5 -30.5t74.5 -85.5t45 -130t19 -163h258v-201h-208q-3 -27 -8 -68.5t-14 -88.5t-22.5 -96t-32.5 -90l-39 -12q-10 19 -17.5 40t-12.5 47.5t-6.5 61.5t-1.5 81q0 27 5 56.5t11 61t11 68t6 77.5q0 21 -2.5 50.5 t-10.5 63t-21 65.5t-32.5 58.5t-47 42.5t-62.5 16q-55 0 -95 -34.5t-66.5 -84.5t-38.5 -108t-12 -105q0 -87 39.5 -182t122.5 -187l-52 -176h-19q-78 100 -123 213t-45 230h-20v201h20z" />
<glyph unicode="&#xe8e4;&#xe82d;" horiz-adv-x="1239" d="M20 901q8 88 33 163q24 75 62 129t87.5 84t108.5 30q61 0 105 -30.5t73.5 -85t45 -129t18.5 -162.5h388q110 0 165.5 -99t55.5 -301v-363q0 -76 -14 -131.5t-40.5 -96.5t-65.5 -70.5t-91 -52.5q-30 -13 -47.5 -24t-29.5 -22t-20.5 -27.5t-22.5 -39.5h-20l58 249 q12 3 24 6.5t25.5 8.5t29.5 12.5t37 21.5q14 7 30.5 19t31.5 30.5t25 47t10 69.5v363q0 97 -37 148.5t-104 51.5h-338q-2 -26 -7 -68t-14.5 -88.5t-22.5 -95t-33 -89.5l-38 -12q-10 18 -17.5 39t-12.5 48t-6.5 61.5t-1.5 80.5q0 27 5 56t11.5 60.5t11 67.5t5.5 77 q0 21 -2.5 51t-10.5 62.5t-21 65t-33 58.5t-46.5 42t-62.5 16q-55 0 -94.5 -34.5t-65.5 -84.5t-38.5 -107.5t-12.5 -103.5q0 -86 39.5 -181.5t123.5 -186.5l-52 -175h-20q-77 100 -122 212t-45 229h-20v201h20z" />
<glyph unicode="&#xe8e2;&#xe837;" horiz-adv-x="1247" d="M1206 668v-103q0 -63 -21.5 -101t-51.5 -38v20q0 119 -43 184.5t-132 69.5h-393q23 -86 64 -161.5t98 -141.5l-31 -180h-26q-58 82 -91.5 152.5t-54 138t-34 133.5t-25.5 137q-12 64 -23.5 133.5t-29 128t-45 97.5t-72.5 39q-39 0 -65.5 -19.5t-47 -50.5t-34 -71 t-20.5 -81t-10 -80.5t-3 -70.5q0 -62 9 -110t29.5 -90t52.5 -82t73 -85l-54 -176h-18q-78 98 -122 214t-44 226v199q6 88 25.5 170t51.5 145.5t77 99.5t104 36q55 0 95 -33t66.5 -92.5t42 -142.5t21.5 -183h510q82 -6 127 -67.5t45 -163.5z" />
<glyph unicode="&#xe8e2;&#xe834;" horiz-adv-x="895" d="M968 901v-202h-394q23 -87 64 -164t99 -144l-31 -182h-28q-57 82 -91.5 154t-55.5 140t-34.5 135.5t-26.5 140.5q-12 63 -23 134t-29 130t-46 98t-74 39q-38 0 -66 -19.5t-48 -50.5t-33 -71.5t-21 -82t-11 -82t-3 -72.5q0 -61 10 -110t30.5 -91.5t51.5 -83.5t73 -87 l-52 -178h-20q-78 101 -123.5 218t-45.5 229v202q8 90 27.5 173t52 146.5t77.5 100.5t104 37q58 0 98.5 -33.5t67.5 -94t43 -144.5t22 -185h436z" />
<glyph unicode="&#xe8e4;&#xe834;" horiz-adv-x="877" d="M20 901q9 90 28.5 173t51 146.5t76.5 100.5t105 37q59 0 99 -34t66.5 -94.5t43 -144.5t22.5 -184h436v-203h-393q23 -86 63.5 -162.5t98.5 -144.5l-31 -182h-29q-57 82 -91 153.5t-55.5 140t-34.5 136.5t-25 139q-13 64 -24 134.5t-28.5 130t-46 98.5t-73.5 39 q-39 0 -67 -19.5t-48.5 -50.5t-32.5 -72t-20.5 -82t-11.5 -81.5t-3 -71.5q0 -62 10.5 -111t31 -92t51 -84t71.5 -86l-51 -178h-21q-77 100 -122.5 218t-45.5 228v2h-20v201h20z" />
<glyph unicode="&#xe8e4;&#xe837;" horiz-adv-x="1243" d="M20 901q9 86 27 168q19 82 50.5 145.5t76.5 99.5t105 36q57 0 96 -33t66.5 -92.5t42 -142.5t22.5 -183h510q82 -6 126 -67.5t44 -163.5v-103q0 -63 -20.5 -101t-53.5 -38v20q0 119 -43 184.5t-131 69.5h-391q20 -86 61 -161.5t99 -141.5l-31 -180h-27q-55 82 -90 152.5 t-55.5 138t-33.5 133.5t-26 137q-12 64 -23 133.5t-28.5 128t-45.5 97.5t-73 39q-36 0 -64 -19.5t-48.5 -50.5t-32.5 -71t-20.5 -81t-11.5 -80.5t-3 -70.5q0 -62 10.5 -110t30 -90t51 -82t72.5 -85l-51 -176h-21q-75 98 -120.5 214t-45.5 226h-20v201h20z" />
<glyph unicode="&#xe8e2;&#xe84e;" horiz-adv-x="1284" d="M1240 667v-104q0 -63 -21.5 -102t-53.5 -39v21q0 120 -43.5 187t-131.5 70h-248v-145q0 -59 -6 -104t-23.5 -76t-48.5 -47t-81 -16q-83 0 -121.5 58.5t-38.5 184.5v272q0 16 2 29t10 23t22 16t38 6h172q0 138 -62.5 208t-195.5 70q-82 0 -138 -31t-90 -80.5t-47.5 -111.5 t-13.5 -124q0 -76 10.5 -133.5t30 -107t47.5 -97t62 -103.5l-75 -158q-41 58 -70.5 130.5t-48 151.5t-27.5 160t-9 157q0 61 9 123.5t27 120.5t47.5 109.5t70.5 89t94.5 59.5t120.5 22q90 0 150.5 -30t98.5 -87.5t57.5 -142.5t26.5 -195h325q83 -7 128 -68t45 -166zM672 700 h-178v-87q0 -43 3.5 -71.5t13.5 -45t27 -23t45 -6.5q27 0 44 7t27 24t14 45.5t4 69.5v87z" />
<glyph unicode="&#xe8e2;&#xe84b;" horiz-adv-x="1343" d="M1416 900v-200h-446l228 -324v-27l-48 -228h-26l-228 579h-160v-144q0 -57 -6.5 -102t-23.5 -76t-48 -46.5t-80 -15.5q-82 0 -120 57.5t-38 182.5v270q0 16 2 29t9.5 23t22 16t36.5 6h171q0 136 -62 205.5t-193 69.5q-83 0 -138 -30.5t-88.5 -80.5t-47 -111t-13.5 -123 q0 -74 10 -131t30 -106t47.5 -96t61.5 -102l-75 -157q-40 56 -69 128t-48 150.5t-27.5 159t-8.5 154.5q0 61 8.5 122.5t26.5 119.5t47.5 108.5t70 88t93.5 59.5t120 22q89 0 148.5 -29.5t97.5 -86.5t57 -141.5t27 -192.5h680zM666 700h-177v-87q0 -43 4 -70.5t14 -44 t26.5 -23t44.5 -6.5q27 0 43.5 7.5t26.5 24t14 45t4 67.5v87z" />
<glyph unicode="&#xe8e4;&#xe84b;" horiz-adv-x="877" d="M647 700h-176v-88q0 -43 4 -70.5t14.5 -44t26.5 -22.5t43 -6t44.5 6t27.5 23.5t13 45t3 68.5v88zM23 901q2 27 6 53q10 62 27.5 119t46 108.5t69.5 89.5t94 59.5t121 21.5q88 0 148.5 -30t98.5 -86t57.5 -141t27.5 -196h217v-199h-217v-145q0 -57 -6 -102t-23.5 -76 t-48.5 -47.5t-82 -16.5q-82 0 -120 58.5t-38 183.5v272q0 15 2.5 28t9.5 23.5t21.5 15.5t36.5 5h172q0 137 -61.5 207t-194.5 70q-84 0 -139 -31t-88 -80t-47.5 -110.5t-14.5 -123.5q0 -75 11.5 -132.5t31 -106.5t46 -96t63.5 -103l-76 -157q-41 57 -69.5 128.5t-47 151.5 t-28.5 160q0 12 -2 24h-27v201h23z" />
<glyph unicode="&#xe8e4;&#xe84e;" horiz-adv-x="801" d="M670 694h-183v-90q0 -45 4.5 -73.5t13.5 -45t27.5 -23.5t47.5 -7q26 0 43.5 7t28 24.5t14.5 47t4 70.5v90zM23 901q2 29 6 55q10 66 28.5 125.5t48 112.5t71.5 91t98.5 61.5t123.5 23.5q95 0 156 -30.5t100 -90t59.5 -146.5t28.5 -202v-356q0 -60 -6 -107t-24.5 -78.5 t-50 -48t-82.5 -16.5q-86 0 -126 60.5t-40 189.5v280q0 17 3 30t10 23.5t22.5 16.5t37.5 6h179q0 141 -64.5 214t-202.5 73q-84 0 -141 -32t-93 -83t-49.5 -114.5t-13.5 -129.5q0 -75 11.5 -134.5t32 -111t48 -100.5t62.5 -106l-78 -164q-41 59 -70.5 134t-49 157t-29.5 166 q-2 14 -2 30h-27v201h23z" />
<glyph unicode="&#xe8e4;&#xe84f;" horiz-adv-x="1298" d="M651 700h-178v-88q0 -43 4 -71.5t14.5 -45t27 -22.5t44.5 -6q27 0 44.5 7t26.5 23.5t13 45t4 69.5v88zM23 901q2 27 6 55q10 62 27.5 120.5t47 109.5t70.5 89t94.5 59.5t120.5 21.5q90 0 150.5 -30t98.5 -87t57.5 -142t27.5 -196h324q83 -6 128.5 -67.5t45.5 -165.5v-105 q0 -63 -21.5 -102t-54.5 -39v20q0 121 -43 187.5t-131 70.5h-248v-145q0 -59 -6 -104t-23.5 -76t-49.5 -47.5t-81 -16.5q-84 0 -122 58.5t-38 185.5v272q0 17 2.5 29t10.5 22.5t21.5 16.5t37.5 6h172q0 137 -62.5 208t-195.5 71q-82 0 -138 -32t-90 -81t-47.5 -110.5 t-13.5 -125.5q0 -75 10.5 -132.5t30 -106.5t47 -97.5t62.5 -103.5l-76 -158q-41 58 -69.5 130.5t-47 151.5t-28.5 161q0 12 -2 24h-27v201h23z" />
<glyph unicode="&#xe8e2;&#xe856;" horiz-adv-x="850" d="M690 695h-183v-90q0 -45 4 -74t14 -46t28 -24t46 -7t45.5 7.5t27.5 25t14 47t4 71.5v90zM763 902v-357q0 -60 -6 -106.5t-24.5 -78.5t-50.5 -48.5t-83 -16.5q-85 0 -125 60.5t-40 189.5v281q0 16 2.5 29.5t10.5 23.5t22.5 16.5t38.5 6.5h178q0 141 -64.5 213.5 t-201.5 72.5q-85 0 -142.5 -32t-92.5 -83.5t-49 -115t-14 -127.5q0 -77 11 -136.5t31.5 -110.5t49 -100t63.5 -106l-78 -163q-42 59 -72 133.5t-49.5 156t-28.5 165.5t-9 161q0 63 9 127t28 124t49 113t72 91.5t97.5 61.5t124.5 23q93 0 155 -31t101 -90t59 -146.5 t28 -200.5z" />
<glyph unicode="&#xe8e2;&#xe853;" horiz-adv-x="1339" d="M1416 900v-200h-446l228 -324v-27l-48 -228h-26l-228 579h-160v-144q0 -57 -6.5 -102t-23.5 -76t-48 -46.5t-80 -15.5q-82 0 -120 57.5t-38 182.5v270q0 16 2 29t9.5 23t22 16t36.5 6h171q0 136 -62 205.5t-193 69.5q-83 0 -138 -30.5t-88.5 -80.5t-47 -111t-13.5 -123 q0 -74 10 -131t30 -106t47.5 -96t61.5 -102l-75 -157q-40 56 -69 128t-48 150.5t-27.5 159t-8.5 154.5q0 61 8.5 122.5t26.5 119.5t47.5 108.5t70 88t93.5 59.5t120 22q89 0 148.5 -29.5t97.5 -86.5t57 -141.5t27 -192.5h680zM666 700h-177v-87q0 -43 4 -70.5t14 -44 t26.5 -23t44.5 -6.5q27 0 43.5 7.5t26.5 24t14 45t4 67.5v87z" />
<glyph unicode="&#xe8e4;&#xe853;" horiz-adv-x="881" d="M647 700h-176v-88q0 -43 4 -70.5t14.5 -44t26.5 -22.5t43 -6t44.5 6t27.5 23.5t13 45t3 68.5v88zM23 901q2 27 6 53q10 62 27.5 119t46 108.5t69.5 89.5t94 59.5t121 21.5q88 0 148.5 -30t98.5 -86t57.5 -141t27.5 -196h217v-199h-217v-145q0 -57 -6 -102t-23.5 -76 t-48.5 -47.5t-82 -16.5q-82 0 -120 58.5t-38 183.5v272q0 15 2.5 28t9.5 23.5t21.5 15.5t36.5 5h172q0 137 -61.5 207t-194.5 70q-84 0 -139 -31t-88 -80t-47.5 -110.5t-14.5 -123.5q0 -75 11.5 -132.5t31 -106.5t46 -96t63.5 -103l-76 -157q-41 57 -69.5 128.5t-47 151.5 t-28.5 160q0 12 -2 24h-27v201h23z" />
<glyph unicode="&#xe8e4;&#xe856;" horiz-adv-x="803" d="M670 694h-183v-90q0 -45 4.5 -73.5t13.5 -45t27.5 -23.5t47.5 -7q26 0 43.5 7t28 24.5t14.5 47t4 70.5v90zM23 901q2 29 6 55q10 66 28.5 125.5t48 112.5t71.5 91t98.5 61.5t123.5 23.5q95 0 156 -30.5t100 -90t59.5 -146.5t28.5 -202v-356q0 -60 -6 -107t-24.5 -78.5 t-50 -48t-82.5 -16.5q-86 0 -126 60.5t-40 189.5v280q0 17 3 30t10 23.5t22.5 16.5t37.5 6h179q0 141 -64.5 214t-202.5 73q-84 0 -141 -32t-93 -83t-49.5 -114.5t-13.5 -129.5q0 -75 11.5 -134.5t32 -111t48 -100.5t62.5 -106l-78 -164q-41 59 -70.5 134t-49 157t-29.5 166 q-2 14 -2 30h-27v201h23z" />
<glyph unicode="&#xe8e4;&#xe857;" horiz-adv-x="1292" d="M651 700h-178v-88q0 -43 4 -71.5t14.5 -45t27 -22.5t44.5 -6q27 0 44.5 7t26.5 23.5t13 45t4 69.5v88zM23 901q2 27 6 55q10 62 27.5 120.5t47 109.5t70.5 89t94.5 59.5t120.5 21.5q90 0 150.5 -30t98.5 -87t57.5 -142t27.5 -196h324q83 -6 128.5 -67.5t45.5 -165.5v-105 q0 -63 -21.5 -102t-54.5 -39v20q0 121 -43 187.5t-131 70.5h-248v-145q0 -59 -6 -104t-23.5 -76t-49.5 -47.5t-81 -16.5q-84 0 -122 58.5t-38 185.5v272q0 17 2.5 29t10.5 22.5t21.5 16.5t37.5 6h172q0 137 -62.5 208t-195.5 71q-82 0 -138 -32t-90 -81t-47.5 -110.5 t-13.5 -125.5q0 -75 10.5 -132.5t30 -106.5t47 -97.5t62.5 -103.5l-76 -158q-41 58 -69.5 130.5t-47 151.5t-28.5 161q0 12 -2 24h-27v201h23z" />
<glyph unicode="&#xe8e2;&#xe85d;" horiz-adv-x="1602" d="M1516 668v-104q0 -63 -21.5 -101.5t-53.5 -38.5v21q0 119 -43.5 186t-130.5 69h-613q18 -123 41 -199.5t51.5 -117.5t61.5 -55t69 -14q32 0 52 12.5t32.5 27t20.5 27.5t18 13q19 0 27 -18t8 -52t-12.5 -63.5t-33.5 -52t-50 -35.5t-62 -13q-56 0 -98 24.5t-72.5 67 t-52 97.5t-37 115.5t-26.5 123t-19 118.5q-14 92 -30.5 177t-41 150t-61.5 105t-95 40q-55 0 -97.5 -34.5t-71.5 -87t-44.5 -118t-15.5 -125.5q0 -105 40 -196t124 -183l-51 -176h-21q-77 101 -122 214t-45 228v201q8 109 37 194t71.5 142t94 87t101.5 30q44 0 80 -19 t64 -51.5t50 -77t39 -95t30.5 -104.5t24.5 -106h711q83 -8 128 -68.5t45 -164.5z" />
<glyph unicode="&#xe8e2;&#xe85c;" horiz-adv-x="1139" d="M1210 901v-201h-555q19 -125 42.5 -201.5t51 -117.5t61.5 -55.5t69 -14.5q32 0 52.5 13.5t33 28t20.5 26.5t19 12q18 0 25 -17.5t7 -51.5q0 -33 -11 -63t-32.5 -53.5t-50.5 -35.5t-63 -12q-56 0 -98 25.5t-72.5 66.5t-52 96t-37 115.5t-25.5 124t-21 121.5 q-14 90 -30.5 175t-41 151.5t-62.5 105.5t-95 39q-53 0 -96 -34t-73 -87t-44 -118t-14 -128q0 -102 40 -194.5t124 -184.5l-54 -176h-18q-80 100 -124 214t-44 230v201q6 109 35.5 194t71.5 142t94.5 88t101.5 31q45 0 81 -19.5t63.5 -52.5t50 -77t40 -95t31 -105.5 t25.5 -105.5h575z" />
<glyph unicode="&#xe8e4;&#xe85c;" horiz-adv-x="1124" d="M20 901q9 109 37.5 194t70.5 142t94 88t104 31q43 0 78.5 -19.5t64.5 -52.5t50.5 -77t38.5 -95t30.5 -105.5t25.5 -105.5h578v-201h-555q16 -125 39.5 -201.5t52.5 -117.5t61.5 -55.5t67.5 -14.5t54.5 13.5t31.5 28t20.5 26.5t18.5 12q18 0 26.5 -17.5t8.5 -51.5 q0 -33 -12.5 -63t-34 -53.5t-50 -35.5t-63.5 -12q-55 0 -97 25.5t-73 66.5t-52.5 96t-36.5 115.5t-25.5 124t-18.5 121.5q-16 90 -31.5 175t-41 151.5t-62.5 105.5t-94 39q-56 0 -99 -34t-71.5 -87t-44 -118t-15.5 -128q0 -102 40 -194.5t124 -184.5l-51 -176h-21 q-77 100 -122.5 214t-45.5 230h-20v201h20z" />
<glyph unicode="&#xe8e4;&#xe85d;" horiz-adv-x="1602" d="M20 901q9 109 37.5 194t70.5 142t94 87t102 30q45 0 80.5 -18.5t63.5 -51.5t50.5 -78t38.5 -95t29.5 -104.5t25.5 -105.5h711q84 -8 128 -68.5t44 -164.5v-105q0 -61 -21.5 -100t-52.5 -39v20q0 119 -44 186.5t-130 69.5h-612q16 -122 39.5 -199t52.5 -118t61.5 -55.5 t67.5 -14.5q33 0 53.5 13.5t32.5 28t20.5 26.5t18.5 12q18 0 26.5 -17.5t8.5 -51.5q0 -33 -13.5 -63t-34 -52.5t-49 -35.5t-63.5 -13q-55 0 -97 24.5t-73 67.5t-52.5 97t-36.5 114.5t-26.5 123t-17.5 120.5q-14 92 -30.5 177t-41 149.5t-61.5 104.5t-96 40q-56 0 -98 -34 t-70.5 -87t-45 -119t-16.5 -125q0 -104 40 -195.5t124 -183.5l-49 -176h-23q-75 100 -120.5 214t-45.5 228h-20v201h20z" />
<glyph unicode="&#xe8e6;&#xe904;" horiz-adv-x="686" d="M428 1182q18 -20 31 -45q18 -36 28 -76.5t14.5 -82.5t6.5 -79h212v-200h-166q-5 -23 -13.5 -67.5t-19.5 -91t-21.5 -87.5t-20.5 -57l-41 -27q-13 25 -18.5 70.5t-5.5 101.5q0 47 11 111.5t11 136.5q0 60 -6 112.5t-23 90.5t-49 60t-85 22q-48 0 -87 -26t-66.5 -66.5 t-42.5 -90t-15 -99.5q0 -48 13.5 -90.5t36 -83t52.5 -78.5t64 -74l-71 -164q-132 177 -137 397v1h-20v201h21q7 74 27 133q22 65 56 110t82.5 69t111.5 24q35 0 66 -11l5 -3l-39 244q12 10 40.5 18t63.5 8q38 0 65 6.5t44.5 23.5t28 44t16.5 66q22 -29 29 -58.5t7 -59.5 q0 -80 -42.5 -130t-133.5 -50h-43z" />
<glyph unicode="&#xe8e6;&#xe908;" horiz-adv-x="686" d="M21 901q7 74 27 133q22 65 56 110t82.5 69t111.5 24q35 0 66 -11l23 141l-42 -1q-90 0 -132.5 49t-42.5 129q0 29 6.5 59t28.5 58q5 -39 15.5 -66t28.5 -43.5t44.5 -23.5t65.5 -7q34 0 63 -7.5t40 -18.5l-51 -297q30 -25 48 -61t28 -76.5t14.5 -82.5t6.5 -79h212v-200 h-166q-5 -23 -13.5 -67.5t-19.5 -91t-21.5 -87.5t-20.5 -57l-41 -27q-13 25 -18.5 70.5t-5.5 101.5q0 47 11 111.5t11 136.5q0 60 -6 112.5t-23 90.5t-49 60t-85 22q-48 0 -87 -26t-66.5 -66.5t-42.5 -90t-15 -99.5q0 -48 13.5 -90.5t36 -83t52.5 -78.5t64 -74l-71 -164 q-132 177 -137 397v1h-20v201h21z" />
<glyph unicode="&#xe939;&#xe825;" horiz-adv-x="1300" d="M1255 499v-363q0 -76 -13.5 -131.5t-40 -96.5t-66.5 -71t-91 -53q-30 -13 -47.5 -23.5t-30 -22t-20.5 -27.5t-22 -40h-20l58 249q12 4 23.5 7t25.5 8t30 13t38 21q13 8 29.5 20t31.5 30.5t25.5 47t10.5 69.5v363q0 97 -37.5 149t-103.5 52h-311q-2 -26 -6.5 -73 t-10 -98.5t-13.5 -97.5t-16 -73l-37 -12q-34 83 -54.5 172.5t-28.5 181.5v192q-32 148 -87 216t-127 68q-180 0 -230 -276h261q93 0 93 -95v-205q0 -62 -10.5 -121.5t-35.5 -106t-66 -74.5t-103 -28q-22 0 -39 5q-7 -16 -9 -29.5t-2 -25.5q0 -26 7.5 -41.5t16.5 -29 t16.5 -30t7.5 -45.5q0 -16 -6 -27t-14.5 -18.5t-18.5 -9.5t-19 -2q-50 0 -79.5 38t-29.5 97q0 17 5 37.5t13 42t19 42.5t22 39q-33 31 -53 79.5t-31 101.5t-15 107.5t-4 98.5v200q8 109 33 193.5t64 141.5t91 87t116 30q65 0 117 -33t87.5 -93t55 -142.5t21.5 -183.5h410 q109 0 164.5 -99t55.5 -302zM397 700h-287q0 -59 2 -109.5t15.5 -87.5t43 -58t82.5 -21q54 0 83.5 20t42.5 57t15.5 87t2.5 112z" />
<glyph unicode="&#xe939;&#xe823;" horiz-adv-x="881" d="M954 899v-199h-231q-2 -26 -7 -73t-10.5 -98.5t-13.5 -97.5t-14 -73l-39 -12q-33 82 -53.5 172t-30.5 182v193q-31 145 -85 214t-128 69q-178 0 -227 -277h258q94 0 94 -94v-205q0 -61 -10.5 -120.5t-36 -105.5t-66.5 -75t-100 -29q-25 0 -41 4q-6 -14 -8 -27.5t-2 -25.5 q0 -24 7 -39.5t16.5 -30t16.5 -31t7 -44.5q0 -17 -5 -27t-14.5 -18t-19.5 -10.5t-18 -2.5q-50 0 -79.5 38t-29.5 98q0 16 4 36.5t13.5 42t19.5 42t22 38.5q-32 31 -52.5 79t-32 101.5t-14.5 107.5t-3 99v199q6 109 30.5 194t64.5 141t92.5 86t113.5 30q66 0 118 -33 t87 -92.5t54.5 -142.5t21.5 -183h331zM395 700h-284q0 -59 2 -110t15 -87t42 -57.5t84 -21.5q51 0 81 20.5t43 57.5t15 87t2 111z" />
<glyph unicode="&#xe93a;&#xe823;" horiz-adv-x="877" d="M373 899q73 -8 73 -94v-205q0 -61 -10 -120.5t-34.5 -105.5t-65.5 -75t-103 -29q-22 0 -40 4q-7 -14 -9 -27.5t-2 -25.5q0 -24 7.5 -39.5t16.5 -30t16 -31t7 -44.5q0 -17 -5 -27t-14 -18t-19.5 -10.5t-18.5 -2.5q-49 0 -79 38t-30 98q0 16 5.5 36.5t13.5 42t19.5 42 t21.5 38.5q-33 31 -53.5 79t-30.5 101.5t-14.5 107.5t-4.5 99h-20v201h20q9 107 33 193q25 84 64 140t91 86t114 30q65 0 117.5 -33t87 -92.5t54 -142.5t21.5 -183h334v-199h-234q-2 -26 -7 -73t-10 -98.5t-12 -97.5t-16 -73l-39 -12q-32 82 -52.5 172t-28.5 182v193 q-33 145 -87.5 214t-127.5 69q-179 0 -228 -275h279v-2zM90 700q0 -59 2 -110t15.5 -87t42 -57.5t83.5 -21.5q54 0 82.5 20.5t43 57.5t16.5 87t2 111h-287z" />
<glyph unicode="&#xe93a;&#xe825;" horiz-adv-x="1300" d="M372 899q76 -8 76 -94v-205q0 -62 -10.5 -121.5t-35.5 -106t-66 -74.5t-103 -28q-22 0 -39 5q-7 -16 -9 -29.5t-2 -25.5q0 -26 7.5 -41.5t16.5 -29t16.5 -30t7.5 -45.5q0 -16 -6 -27t-14.5 -18.5t-18.5 -9.5t-19 -2q-50 0 -79.5 38t-29.5 97q0 17 5 37.5t13 42t19 42.5 t22 39q-33 31 -53 79.5t-31 101.5t-15 107.5t-4 98.5h-20v201h20q8 108 33 193q25 84 64 141t91 87t116 30q65 0 117 -33t87.5 -93t55 -142.5t21.5 -183.5h410q109 0 164.5 -99t55.5 -302v-363q0 -76 -13.5 -131.5t-40 -96.5t-66.5 -71t-91 -53q-30 -13 -47.5 -23.5t-30 -22 t-20.5 -27.5t-22 -40h-20l58 249q12 4 23.5 7t25.5 8t30 13t38 21q13 8 29.5 20t31.5 30.5t25.5 47t10.5 69.5v363q0 97 -37.5 149t-103.5 52h-311q-2 -26 -6.5 -73t-10 -98.5t-13.5 -97.5t-16 -73l-37 -12q-34 83 -54.5 172.5t-28.5 181.5v192q-32 148 -87 216t-127 68 q-180 0 -230 -275h278v-2zM90 700q0 -59 2 -109.5t15.5 -87.5t43 -58t82.5 -21q54 0 83.5 20t42.5 57t15.5 87t2.5 112h-287z" />
<glyph unicode="&#xe939;&#xe82d;" horiz-adv-x="1331" d="M1255 499v-363q0 -76 -13.5 -131.5t-40 -96.5t-66.5 -71t-91 -53q-30 -13 -47.5 -23.5t-30 -22t-20.5 -27.5t-22 -40h-20l58 249q12 4 23.5 7t25.5 8t30 13t38 21q13 8 29.5 20t31.5 30.5t25.5 47t10.5 69.5v363q0 97 -37.5 149t-103.5 52h-311q-2 -26 -6.5 -73 t-10 -98.5t-13.5 -97.5t-16 -73l-37 -12q-34 83 -54.5 172.5t-28.5 181.5v192q-32 148 -87 216t-127 68q-180 0 -230 -276h261q93 0 93 -95v-205q0 -62 -10.5 -121.5t-35.5 -106t-66 -74.5t-103 -28q-22 0 -39 5q-7 -16 -9 -29.5t-2 -25.5q0 -26 7.5 -41.5t16.5 -29 t16.5 -30t7.5 -45.5q0 -16 -6 -27t-14.5 -18.5t-18.5 -9.5t-19 -2q-50 0 -79.5 38t-29.5 97q0 17 5 37.5t13 42t19 42.5t22 39q-33 31 -53 79.5t-31 101.5t-15 107.5t-4 98.5v200q8 109 33 193.5t64 141.5t91 87t116 30q65 0 117 -33t87.5 -93t55 -142.5t21.5 -183.5h410 q109 0 164.5 -99t55.5 -302zM397 700h-287q0 -59 2 -109.5t15.5 -87.5t43 -58t82.5 -21q54 0 83.5 20t42.5 57t15.5 87t2.5 112z" />
<glyph unicode="&#xe939;&#xe82c;" horiz-adv-x="881" d="M954 899v-199h-231q-2 -26 -7 -73t-10.5 -98.5t-13.5 -97.5t-14 -73l-39 -12q-33 82 -53.5 172t-30.5 182v193q-31 145 -85 214t-128 69q-178 0 -227 -277h258q94 0 94 -94v-205q0 -61 -10.5 -120.5t-36 -105.5t-66.5 -75t-100 -29q-25 0 -41 4q-6 -14 -8 -27.5t-2 -25.5 q0 -24 7 -39.5t16.5 -30t16.5 -31t7 -44.5q0 -17 -5 -27t-14.5 -18t-19.5 -10.5t-18 -2.5q-50 0 -79.5 38t-29.5 98q0 16 4 36.5t13.5 42t19.5 42t22 38.5q-32 31 -52.5 79t-32 101.5t-14.5 107.5t-3 99v199q6 109 30.5 194t64.5 141t92.5 86t113.5 30q66 0 118 -33 t87 -92.5t54.5 -142.5t21.5 -183h331zM395 700h-284q0 -59 2 -110t15 -87t42 -57.5t84 -21.5q51 0 81 20.5t43 57.5t15 87t2 111z" />
<glyph unicode="&#xe93a;&#xe82c;" horiz-adv-x="870" d="M373 899q73 -8 73 -94v-205q0 -61 -10 -120.5t-34.5 -105.5t-65.5 -75t-103 -29q-22 0 -40 4q-7 -14 -9 -27.5t-2 -25.5q0 -24 7.5 -39.5t16.5 -30t16 -31t7 -44.5q0 -17 -5 -27t-14 -18t-19.5 -10.5t-18.5 -2.5q-49 0 -79 38t-30 98q0 16 5.5 36.5t13.5 42t19.5 42 t21.5 38.5q-33 31 -53.5 79t-30.5 101.5t-14.5 107.5t-4.5 99h-20v201h20q9 107 33 193q25 84 64 140t91 86t114 30q65 0 117.5 -33t87 -92.5t54 -142.5t21.5 -183h334v-199h-234q-2 -26 -7 -73t-10 -98.5t-12 -97.5t-16 -73l-39 -12q-32 82 -52.5 172t-28.5 182v193 q-33 145 -87.5 214t-127.5 69q-179 0 -228 -275h279v-2zM90 700q0 -59 2 -110t15.5 -87t42 -57.5t83.5 -21.5q54 0 82.5 20.5t43 57.5t16.5 87t2 111h-287z" />
<glyph unicode="&#xe93a;&#xe82d;" horiz-adv-x="1300" d="M372 899q76 -8 76 -94v-205q0 -62 -10.5 -121.5t-35.5 -106t-66 -74.5t-103 -28q-22 0 -39 5q-7 -16 -9 -29.5t-2 -25.5q0 -26 7.5 -41.5t16.5 -29t16.5 -30t7.5 -45.5q0 -16 -6 -27t-14.5 -18.5t-18.5 -9.5t-19 -2q-50 0 -79.5 38t-29.5 97q0 17 5 37.5t13 42t19 42.5 t22 39q-33 31 -53 79.5t-31 101.5t-15 107.5t-4 98.5h-20v201h20q8 108 33 193q25 84 64 141t91 87t116 30q65 0 117 -33t87.5 -93t55 -142.5t21.5 -183.5h410q109 0 164.5 -99t55.5 -302v-363q0 -76 -13.5 -131.5t-40 -96.5t-66.5 -71t-91 -53q-30 -13 -47.5 -23.5t-30 -22 t-20.5 -27.5t-22 -40h-20l58 249q12 4 23.5 7t25.5 8t30 13t38 21q13 8 29.5 20t31.5 30.5t25.5 47t10.5 69.5v363q0 97 -37.5 149t-103.5 52h-311q-2 -26 -6.5 -73t-10 -98.5t-13.5 -97.5t-16 -73l-37 -12q-34 83 -54.5 172.5t-28.5 181.5v192q-32 148 -87 216t-127 68 q-180 0 -230 -275h278v-2zM90 700q0 -59 2 -109.5t15.5 -87.5t43 -58t82.5 -21q54 0 83.5 20t42.5 57t15.5 87t2.5 112h-287z" />
<glyph unicode="&#xe939;&#xe837;" horiz-adv-x="1399" d="M1341 668v-104q0 -62 -21.5 -100.5t-53.5 -38.5v21q0 118 -43 184.5t-130 69.5h-400q16 -62 38.5 -110t45.5 -85t45 -63.5t38 -47.5l-35 -174h-25q-79 94 -134 256t-88 373q-12 79 -36.5 140t-56 103t-68.5 63t-74 21q-179 0 -228 -276h259q93 0 93 -95v-204 q0 -63 -10 -122t-35 -105.5t-66 -74.5t-103 -28q-23 0 -40 5q-6 -15 -8 -29t-2 -26q0 -26 7.5 -41t16.5 -29t16.5 -30.5t7.5 -45.5q0 -16 -6 -27t-15 -18t-18.5 -9.5t-18.5 -2.5q-50 0 -79.5 38.5t-29.5 95.5q0 19 5 39t13.5 41.5t19 42.5t21.5 39q-32 31 -52.5 78.5 t-31.5 101t-15 107.5t-4 99v200q15 220 90.5 336t212.5 116q66 0 117.5 -41.5t88 -107t58.5 -146t29 -157.5h533q82 -7 127 -67.5t45 -164.5zM397 700h-286q0 -59 2 -109t15 -87t42 -58t83 -21q53 0 82.5 20.5t43 56.5t16 86.5t2.5 111.5z" />
<glyph unicode="&#xe939;&#xe834;" horiz-adv-x="997" d="M1067 901v-201h-375q17 -61 39.5 -109t45 -85t45 -63.5t36.5 -47.5l-33 -174h-26q-78 94 -133.5 256t-87.5 373q-13 78 -37.5 139.5t-55 103.5t-67.5 62.5t-76 20.5q-178 0 -227 -275h260q92 0 92 -94v-205q0 -63 -10.5 -121.5t-35 -105.5t-66.5 -75t-101 -28 q-25 0 -41 4q-6 -16 -8 -29.5t-2 -25.5q0 -24 7 -39.5t16.5 -29t17.5 -31t8 -43.5q0 -17 -6 -28t-15.5 -18t-18.5 -10.5t-19 -3.5q-50 0 -79.5 38t-29.5 98q0 18 5 38.5t13.5 42t18.5 42t22 36.5q-32 31 -52.5 79t-32 101.5t-14.5 108.5t-3 98v201q14 219 90 335t211 116 q68 0 119 -41t87 -106.5t58.5 -145.5t30.5 -158h430zM397 700h-286q0 -59 2 -109t14 -86t42 -57.5t85 -21.5q51 0 81 20.5t44 56.5t16 87t2 110z" />
<glyph unicode="&#xe93a;&#xe834;" horiz-adv-x="997" d="M375 901q92 0 92 -94v-205q0 -63 -10.5 -121.5t-35 -105.5t-66.5 -75t-101 -28q-25 0 -41 4q-6 -16 -8 -29.5t-2 -25.5q0 -24 7 -39.5t16.5 -29t17.5 -31t8 -43.5q0 -17 -6 -28t-15.5 -18t-18.5 -10.5t-19 -3.5q-50 0 -79.5 38t-29.5 98q0 18 5 38.5t13.5 42t18.5 42 t22 36.5q-32 31 -52.5 79t-32 101.5t-15.5 108.5q-2 53 -2 98h-41v201h41q14 219 90 335t211 116q68 0 119 -41t87 -106.5t58.5 -145.5t30.5 -158h430v-201h-375q17 -61 39.5 -109t45 -85t45 -63.5t36.5 -47.5l-33 -174h-26q-78 94 -133.5 256t-87.5 373q-13 78 -37.5 139.5 t-55 103.5t-67.5 62.5t-76 20.5q-178 0 -227 -275h260zM111 700q0 -59 2 -108q2 -51 14 -87t42 -57.5t85 -21.5q51 0 81 20.5t44 56.5t16 87t2 110h-286z" />
<glyph unicode="&#xe93a;&#xe837;" horiz-adv-x="1399" d="M372 899q75 -9 75 -94v-204q0 -63 -10 -122t-35 -105.5t-66 -74.5t-103 -28q-23 0 -40 5q-6 -15 -8 -29t-2 -26q0 -26 7.5 -41t16.5 -29t16.5 -30.5t7.5 -45.5q0 -16 -6 -27t-15 -18t-18.5 -9.5t-18.5 -2.5q-50 0 -79.5 38.5t-29.5 95.5q0 19 5 39t13.5 41.5t19 42.5 t21.5 39q-32 31 -52.5 78.5t-31.5 101t-15 107.5t-4 99h-20v201h20q15 219 91 335q75 116 212 116q66 0 117.5 -41.5t88 -107t58.5 -146t29 -157.5h533q82 -7 127 -67.5t45 -164.5v-104q0 -62 -21.5 -100.5t-53.5 -38.5v21q0 118 -43 184.5t-130 69.5h-400q16 -62 38.5 -110 t45.5 -85t45 -63.5t38 -47.5l-35 -174h-25q-79 94 -134 256t-88 373q-12 79 -36.5 140t-56 103t-68.5 63t-74 21q-179 0 -228 -275h277v-2zM91 700q0 -59 2 -109t15 -87t42 -58t83 -21q53 0 82.5 20.5t43 56.5t16 86.5t2.5 111.5h-286z" />
<glyph unicode="&#xe939;&#xe83e;" horiz-adv-x="817" d="M750 902v-202q0 -93 -10 -165t-31.5 -122.5t-56 -77t-84.5 -26.5q-83 0 -127 61t-46 183q-2 -122 -46.5 -183t-125.5 -61h-16q-8 -17 -10.5 -31t-2.5 -27q0 -26 7.5 -41.5t16.5 -29.5t17 -30.5t8 -45.5q0 -17 -6.5 -28t-15 -18t-18.5 -10t-19 -3q-50 0 -80.5 39t-30.5 98 q0 34 17.5 77t39.5 81q-49 42 -69.5 133.5t-20.5 226.5v202q8 111 38.5 196.5t78.5 143.5t109.5 88t130.5 30q94 0 159 -39.5t107 -104t62.5 -147t24.5 -167.5zM666 902q-6 45 -22 94t-47 90t-79.5 68.5t-120.5 27.5q-45 0 -90 -18t-83.5 -53t-67 -87.5t-40.5 -121.5h185 q45 0 68.5 -27t25.5 -72q2 45 25.5 72t69.5 27h176zM324 700h-213q0 -121 22.5 -178t89.5 -57q33 0 53 13t30.5 42t14 73t3.5 107zM679 700h-213q0 -63 3.5 -107t14 -73t30.5 -42t54 -13q67 0 89 57t22 178z" />
<glyph unicode="&#xe939;&#xe83c;" horiz-adv-x="895" d="M977 901v-201h-234q0 -92 -10 -162.5t-31.5 -120.5t-56.5 -77t-84 -27q-80 0 -124 61.5t-46 180.5q-2 -119 -46 -180.5t-124 -61.5h-16q-8 -14 -10 -28.5t-2 -28.5q0 -25 7 -40t16 -28.5t16.5 -30t7.5 -44.5q0 -17 -6.5 -28t-14.5 -18.5t-18.5 -10.5t-18.5 -3 q-51 0 -79.5 38t-28.5 97q0 35 16 77t39 79q-47 43 -67.5 133t-20.5 223v201q6 109 37 194t78 142t108.5 87t128.5 30q92 0 156.5 -39t105.5 -102.5t62.5 -145.5t25.5 -166h234zM655 899q-6 43 -21.5 92t-46 89t-77.5 67t-119 27q-45 0 -89 -17.5t-82 -51.5t-65.5 -85 t-39.5 -121h182q45 0 67.5 -26.5t24.5 -69.5q2 43 25.5 69.5t68.5 26.5h172zM319 700h-208q0 -118 21.5 -174.5t86.5 -56.5q35 0 54.5 13.5t29.5 42t13 71.5t3 104zM670 700h-209q0 -61 3 -104t13 -71.5t29.5 -42t52.5 -13.5q68 0 89.5 56.5t21.5 174.5z" />
<glyph unicode="&#xe93a;&#xe83c;" horiz-adv-x="885" d="M649 700h-209q0 -61 3 -104.5t13.5 -71.5t30.5 -41.5t52 -13.5q67 0 88.5 56t21.5 175zM294 898q33 -4 51 -25q23 -27 25 -71q2 44 25 70.5t68 26.5h173q-6 44 -21.5 92.5t-46.5 89t-78.5 67t-117.5 26.5q-45 0 -89.5 -17.5t-82.5 -51.5t-65 -85q-28 -51 -40 -119h199v-3 zM20 901q8 109 38 194t77.5 142t109 87t128.5 30q93 0 157.5 -39t105.5 -102.5t62 -145.5t25 -166h233v-200h-233q0 -92 -10 -163.5t-31.5 -121t-56 -76t-83.5 -26.5q-81 0 -125 61t-46 181q-2 -120 -46 -181t-124 -61h-16q-8 -16 -10.5 -30t-2.5 -27q0 -26 7.5 -41.5 t16.5 -28.5t16.5 -29.5t7.5 -45.5q0 -16 -6 -27.5t-14.5 -18.5t-18.5 -10t-19 -3q-50 0 -79.5 38.5t-29.5 97.5q0 34 17 76t39 80q-48 42 -68 132q-21 90 -21 223h-20v201h20zM91 700q0 -119 21.5 -175t87.5 -56q33 0 52.5 13.5t30 41.5t13.5 71.5t3 104.5h-208z" />
<glyph unicode="&#xe93a;&#xe83e;" horiz-adv-x="801" d="M645 901q-4 45 -20.5 94t-47 90t-79.5 69t-121 28q-45 0 -90 -17.5t-83 -53.5t-66.5 -88t-41.5 -122h185q45 0 68.5 -26.5t25.5 -71.5q2 45 25.5 71.5t68.5 26.5h176zM659 700h-213q0 -63 3.5 -107t13.5 -72.5t30.5 -42t55.5 -13.5q65 0 87.5 57.5t22.5 177.5zM20 901 q9 113 38.5 198t77.5 143t109.5 88t131.5 30q94 0 158.5 -40t106.5 -103.5t62.5 -146.5t24.5 -169v-201q0 -94 -9 -165.5t-30.5 -122t-56.5 -77t-84 -26.5q-84 0 -128 60.5t-46 183.5q-2 -123 -46 -183.5t-126 -60.5h-17q-8 -16 -10 -30.5t-2 -26.5q0 -27 7 -42t16.5 -29.5 t17.5 -31t8 -45.5q0 -18 -6 -28t-15 -17.5t-19.5 -10.5t-18.5 -3q-49 0 -80 39t-31 98q0 33 17.5 76t40.5 82q-50 43 -70.5 134t-20.5 226h-20v201h20zM90 700q0 -120 22.5 -177.5t90.5 -57.5q33 0 53 13.5t30.5 42t13.5 72.5t3 107h-213z" />
<glyph unicode="&#xe939;&#xe846;" horiz-adv-x="803" d="M750 902v-202q0 -93 -10 -165t-31.5 -122.5t-56 -77t-84.5 -26.5q-83 0 -127 61t-46 183q-2 -122 -46.5 -183t-125.5 -61h-16q-8 -17 -10.5 -31t-2.5 -27q0 -26 7.5 -41.5t16.5 -29.5t17 -30.5t8 -45.5q0 -17 -6.5 -28t-15 -18t-18.5 -10t-19 -3q-50 0 -80.5 39t-30.5 98 q0 34 17.5 77t39.5 81q-49 42 -69.5 133.5t-20.5 226.5v202q8 111 38.5 196.5t78.5 143.5t109.5 88t130.5 30q94 0 159 -39.5t107 -104t62.5 -147t24.5 -167.5zM666 902q-6 45 -22 94t-47 90t-79.5 68.5t-120.5 27.5q-45 0 -90 -18t-83.5 -53t-67 -87.5t-40.5 -121.5h185 q45 0 68.5 -27t25.5 -72q2 45 25.5 72t69.5 27h176zM324 700h-213q0 -121 22.5 -178t89.5 -57q33 0 53 13t30.5 42t14 73t3.5 107zM679 700h-213q0 -63 3.5 -107t14 -73t30.5 -42t54 -13q67 0 89 57t22 178z" />
<glyph unicode="&#xe939;&#xe844;" horiz-adv-x="895" d="M977 901v-201h-234q0 -92 -10 -162.5t-31.5 -120.5t-56.5 -77t-84 -27q-80 0 -124 61.5t-46 180.5q-2 -119 -46 -180.5t-124 -61.5h-16q-8 -14 -10 -28.5t-2 -28.5q0 -25 7 -40t16 -28.5t16.5 -30t7.5 -44.5q0 -17 -6.5 -28t-14.5 -18.5t-18.5 -10.5t-18.5 -3 q-51 0 -79.5 38t-28.5 97q0 35 16 77t39 79q-47 43 -67.5 133t-20.5 223v201q6 109 37 194t78 142t108.5 87t128.5 30q92 0 156.5 -39t105.5 -102.5t62.5 -145.5t25.5 -166h234zM655 899q-6 43 -21.5 92t-46 89t-77.5 67t-119 27q-45 0 -89 -17.5t-82 -51.5t-65.5 -85 t-39.5 -121h182q45 0 67.5 -26.5t24.5 -69.5q2 43 25.5 69.5t68.5 26.5h172zM319 700h-208q0 -118 21.5 -174.5t86.5 -56.5q35 0 54.5 13.5t29.5 42t13 71.5t3 104zM670 700h-209q0 -61 3 -104t13 -71.5t29.5 -42t52.5 -13.5q68 0 89.5 56.5t21.5 174.5z" />
<glyph unicode="&#xe93a;&#xe844;" horiz-adv-x="889" d="M649 700h-209q0 -61 3 -104.5t13.5 -71.5t30.5 -41.5t52 -13.5q67 0 88.5 56t21.5 175zM294 898q33 -4 51 -25q23 -27 25 -71q2 44 25 70.5t68 26.5h173q-6 44 -21.5 92.5t-46.5 89t-78.5 67t-117.5 26.5q-45 0 -89.5 -17.5t-82.5 -51.5t-65 -85q-28 -51 -40 -119h199v-3 zM20 901q8 109 38 194t77.5 142t109 87t128.5 30q93 0 157.5 -39t105.5 -102.5t62 -145.5t25 -166h233v-200h-233q0 -92 -10 -163.5t-31.5 -121t-56 -76t-83.5 -26.5q-81 0 -125 61t-46 181q-2 -120 -46 -181t-124 -61h-16q-8 -16 -10.5 -30t-2.5 -27q0 -26 7.5 -41.5 t16.5 -28.5t16.5 -29.5t7.5 -45.5q0 -16 -6 -27.5t-14.5 -18.5t-18.5 -10t-19 -3q-50 0 -79.5 38.5t-29.5 97.5q0 34 17 76t39 80q-48 42 -68 132q-21 90 -21 223h-20v201h20zM91 700q0 -119 21.5 -175t87.5 -56q33 0 52.5 13.5t30 41.5t13.5 71.5t3 104.5h-208z" />
<glyph unicode="&#xe93a;&#xe846;" horiz-adv-x="801" d="M645 901q-4 45 -20.5 94t-47 90t-79.5 69t-121 28q-45 0 -90 -17.5t-83 -53.5t-66.5 -88t-41.5 -122h185q45 0 68.5 -26.5t25.5 -71.5q2 45 25.5 71.5t68.5 26.5h176zM659 700h-213q0 -63 3.5 -107t13.5 -72.5t30.5 -42t55.5 -13.5q65 0 87.5 57.5t22.5 177.5zM20 901 q9 113 38.5 198t77.5 143t109.5 88t131.5 30q94 0 158.5 -40t106.5 -103.5t62.5 -146.5t24.5 -169v-201q0 -94 -9 -165.5t-30.5 -122t-56.5 -77t-84 -26.5q-84 0 -128 60.5t-46 183.5q-2 -123 -46 -183.5t-126 -60.5h-17q-8 -16 -10 -30.5t-2 -26.5q0 -27 7 -42t16.5 -29.5 t17.5 -31t8 -45.5q0 -18 -6 -28t-15 -17.5t-19.5 -10.5t-18.5 -3q-49 0 -80 39t-31 98q0 33 17.5 76t40.5 82q-50 43 -70.5 134t-20.5 226h-20v201h20zM90 700q0 -120 22.5 -177.5t90.5 -57.5q33 0 53 13.5t30.5 42t13.5 72.5t3 107h-213z" />
<glyph unicode="&#xe939;&#xe84e;" horiz-adv-x="1219" d="M1157 668v-103q0 -63 -21.5 -101t-53.5 -38v21q0 118 -43 184t-129 69h-172q0 -90 -9.5 -161.5t-31 -120.5t-55 -75t-83.5 -26q-81 0 -124 60t-45 179q-3 -119 -46.5 -179t-123.5 -60h-15q-8 -17 -10.5 -30.5t-2.5 -26.5q0 -25 7.5 -41t16 -29.5t16 -29.5t7.5 -45 q0 -17 -6 -27.5t-14.5 -18t-18.5 -10t-19 -2.5q-49 0 -78.5 38.5t-29.5 95.5q0 35 17 77t39 79q-49 41 -69 131t-20 222v200q8 109 38 193t77 140.5t108 86.5t129 30q91 0 155.5 -39t105.5 -102.5t61 -144.5t24 -164h246q83 -8 128 -68t45 -164zM655 900q-5 44 -21 92 t-46.5 88.5t-78.5 67.5t-117 27q-46 0 -90 -17.5t-82 -52t-65.5 -86t-39.5 -119.5h182q44 0 67 -27t26 -71q2 44 24.5 71t67.5 27h173zM319 700h-209q0 -118 22 -174t88 -56q32 0 52 13t30.5 41.5t13.5 72t3 103.5zM668 700h-209q0 -60 3.5 -103.5t13.5 -72t30 -41.5t53 -13 q66 0 87.5 56t21.5 174z" />
<glyph unicode="&#xe939;&#xe84b;" horiz-adv-x="1298" d="M1371 900v-200h-407l229 -326v-26l-49 -229h-25l-230 581h-147q0 -91 -10 -162.5t-31.5 -121.5t-55.5 -76t-83 -26q-82 0 -125.5 60.5t-46.5 180.5q-2 -120 -45.5 -180.5t-124.5 -60.5h-15q-8 -17 -10.5 -30.5t-2.5 -26.5q0 -26 7.5 -41.5t16.5 -29t16.5 -30t7.5 -44.5 q0 -17 -6 -28t-15 -18.5t-18.5 -10t-18.5 -2.5q-49 0 -79 38.5t-30 96.5q0 34 17 76.5t39 79.5q-49 42 -69 132.5t-20 223.5v200q8 109 38 193.5t77.5 142t108.5 87t129 29.5q92 0 156.5 -39.5t105.5 -102.5t62 -144.5t25 -165.5h629zM658 900q-6 44 -21.5 92.5t-46 89 t-78.5 67.5t-119 27q-45 0 -90 -17.5t-82.5 -52.5t-65.5 -86.5t-40 -119.5h183q44 0 67 -26.5t25 -71.5q3 45 26.5 71.5t67.5 26.5h174zM321 700h-211q0 -119 22.5 -175.5t87.5 -56.5q33 0 53 13t30.5 42t14 72t3.5 105zM671 700h-210q0 -62 3.5 -105t14 -72t30 -42 t53.5 -13q65 0 87 56.5t22 175.5z" />
<glyph unicode="&#xe93a;&#xe84b;" horiz-adv-x="889" d="M649 700h-209q0 -61 3 -104.5t13.5 -71.5t30.5 -41.5t52 -13.5q67 0 88.5 56t21.5 175zM294 898q33 -4 51 -25q23 -27 25 -71q2 44 25 70.5t68 26.5h173q-6 44 -21.5 92.5t-46.5 89t-78.5 67t-117.5 26.5q-45 0 -89.5 -17.5t-82.5 -51.5t-65 -85q-28 -51 -40 -119h199v-3 zM20 901q8 109 38 194t77.5 142t109 87t128.5 30q93 0 157.5 -39t105.5 -102.5t62 -145.5t25 -166h233v-200h-233q0 -92 -10 -163.5t-31.5 -121t-56 -76t-83.5 -26.5q-81 0 -125 61t-46 181q-2 -120 -46 -181t-124 -61h-16q-8 -16 -10.5 -30t-2.5 -27q0 -26 7.5 -41.5 t16.5 -28.5t16.5 -29.5t7.5 -45.5q0 -16 -6 -27.5t-14.5 -18.5t-18.5 -10t-19 -3q-50 0 -79.5 38.5t-29.5 97.5q0 34 17 76t39 80q-48 42 -68 132q-21 90 -21 223h-20v201h20zM91 700q0 -119 21.5 -175t87.5 -56q33 0 52.5 13.5t30 41.5t13.5 71.5t3 104.5h-208z" />
<glyph unicode="&#xe93a;&#xe84e;" horiz-adv-x="797" d="M645 901q-4 45 -20.5 94t-47 90t-79.5 69t-121 28q-45 0 -90 -17.5t-83 -53.5t-66.5 -88t-41.5 -122h185q45 0 68.5 -26.5t25.5 -71.5q2 45 25.5 71.5t68.5 26.5h176zM659 700h-213q0 -63 3.5 -107t13.5 -72.5t30.5 -42t55.5 -13.5q65 0 87.5 57.5t22.5 177.5zM20 901 q9 113 38.5 198t77.5 143t109.5 88t131.5 30q94 0 158.5 -40t106.5 -103.5t62.5 -146.5t24.5 -169v-201q0 -94 -9 -165.5t-30.5 -122t-56.5 -77t-84 -26.5q-84 0 -128 60.5t-46 183.5q-2 -123 -46 -183.5t-126 -60.5h-17q-8 -16 -10 -30.5t-2 -26.5q0 -27 7 -42t16.5 -29.5 t17.5 -31t8 -45.5q0 -18 -6 -28t-15 -17.5t-19.5 -10.5t-18.5 -3q-49 0 -80 39t-31 98q0 33 17.5 76t40.5 82q-50 43 -70.5 134t-20.5 226h-20v201h20zM90 700q0 -120 22.5 -177.5t90.5 -57.5q33 0 53 13.5t30.5 42t13.5 72.5t3 107h-213z" />
<glyph unicode="&#xe93a;&#xe84f;" horiz-adv-x="1200" d="M647 700h-209q0 -59 4 -103t14.5 -72.5t30 -42t52.5 -13.5q65 0 86.5 56.5t21.5 174.5zM305 897q25 -6 39 -25q23 -26 27 -69q2 43 24.5 69.5t67.5 26.5h172q-4 45 -20.5 93t-47 88t-79 68t-115.5 28q-47 0 -91 -17.5t-82 -52.5t-65 -86q-29 -51 -41 -119h211v-4zM20 901 q9 109 37 193q31 84 78 140t107.5 86t130.5 30q90 0 154.5 -39t105.5 -102.5t61.5 -144.5t24.5 -165h246q82 -6 127 -66.5t45 -164.5v-103q0 -63 -21.5 -101t-52.5 -38v20q0 119 -43 184.5t-129 69.5h-172q0 -90 -10.5 -161.5t-32 -120.5t-54 -75t-83.5 -26q-80 0 -123 59.5 t-45 178.5q-4 -119 -47 -178.5t-123 -59.5h-17q-8 -18 -10 -31.5t-2 -25.5q0 -24 7 -40.5t16.5 -30t16.5 -30t7 -44.5q0 -17 -6 -27t-14.5 -18.5t-18.5 -10.5t-18 -2q-49 0 -79 38t-30 95q0 35 16.5 77t39.5 79q-50 41 -69.5 131t-19.5 223h-20v201h20zM90 700 q0 -118 21.5 -174.5t89.5 -56.5q30 0 50.5 13.5t31 42t13.5 72.5t3 103h-209z" />
<glyph unicode="&#xe939;&#xe856;" horiz-adv-x="1200" d="M1157 668v-103q0 -63 -21.5 -101t-53.5 -38v21q0 118 -43 184t-129 69h-172q0 -90 -9.5 -161.5t-31 -120.5t-55 -75t-83.5 -26q-81 0 -124 60t-45 179q-3 -119 -46.5 -179t-123.5 -60h-15q-8 -17 -10.5 -30.5t-2.5 -26.5q0 -25 7.5 -41t16 -29.5t16 -29.5t7.5 -45 q0 -17 -6 -27.5t-14.5 -18t-18.5 -10t-19 -2.5q-49 0 -78.5 38.5t-29.5 95.5q0 35 17 77t39 79q-49 41 -69 131t-20 222v200q8 109 38 193t77 140.5t108 86.5t129 30q91 0 155.5 -39t105.5 -102.5t61 -144.5t24 -164h246q83 -8 128 -68t45 -164zM655 900q-5 44 -21 92 t-46.5 88.5t-78.5 67.5t-117 27q-46 0 -90 -17.5t-82 -52t-65.5 -86t-39.5 -119.5h182q44 0 67 -27t26 -71q2 44 24.5 71t67.5 27h173zM319 700h-209q0 -118 22 -174t88 -56q32 0 52 13t30.5 41.5t13.5 72t3 103.5zM668 700h-209q0 -60 3.5 -103.5t13.5 -72t30 -41.5t53 -13 q66 0 87.5 56t21.5 174z" />
<glyph unicode="&#xe939;&#xe853;" horiz-adv-x="1284" d="M1371 900v-200h-407l229 -326v-26l-49 -229h-25l-230 581h-147q0 -91 -10 -162.5t-31.5 -121.5t-55.5 -76t-83 -26q-82 0 -125.5 60.5t-46.5 180.5q-2 -120 -45.5 -180.5t-124.5 -60.5h-15q-8 -17 -10.5 -30.5t-2.5 -26.5q0 -26 7.5 -41.5t16.5 -29t16.5 -30t7.5 -44.5 q0 -17 -6 -28t-15 -18.5t-18.5 -10t-18.5 -2.5q-49 0 -79 38.5t-30 96.5q0 34 17 76.5t39 79.5q-49 42 -69 132.5t-20 223.5v200q8 109 38 193.5t77.5 142t108.5 87t129 29.5q92 0 156.5 -39.5t105.5 -102.5t62 -144.5t25 -165.5h629zM658 900q-6 44 -21.5 92.5t-46 89 t-78.5 67.5t-119 27q-45 0 -90 -17.5t-82.5 -52.5t-65.5 -86.5t-40 -119.5h183q44 0 67 -26.5t25 -71.5q3 45 26.5 71.5t67.5 26.5h174zM321 700h-211q0 -119 22.5 -175.5t87.5 -56.5q33 0 53 13t30.5 42t14 72t3.5 105zM671 700h-210q0 -62 3.5 -105t14 -72t30 -42 t53.5 -13q65 0 87 56.5t22 175.5z" />
<glyph unicode="&#xe93a;&#xe853;" horiz-adv-x="877" d="M649 700h-209q0 -61 3 -104.5t13.5 -71.5t30.5 -41.5t52 -13.5q67 0 88.5 56t21.5 175zM294 898q33 -4 51 -25q23 -27 25 -71q2 44 25 70.5t68 26.5h173q-6 44 -21.5 92.5t-46.5 89t-78.5 67t-117.5 26.5q-45 0 -89.5 -17.5t-82.5 -51.5t-65 -85q-28 -51 -40 -119h199v-3 zM20 901q8 109 38 194t77.5 142t109 87t128.5 30q93 0 157.5 -39t105.5 -102.5t62 -145.5t25 -166h233v-200h-233q0 -92 -10 -163.5t-31.5 -121t-56 -76t-83.5 -26.5q-81 0 -125 61t-46 181q-2 -120 -46 -181t-124 -61h-16q-8 -16 -10.5 -30t-2.5 -27q0 -26 7.5 -41.5 t16.5 -28.5t16.5 -29.5t7.5 -45.5q0 -16 -6 -27.5t-14.5 -18.5t-18.5 -10t-19 -3q-50 0 -79.5 38.5t-29.5 97.5q0 34 17 76t39 80q-48 42 -68 132q-21 90 -21 223h-20v201h20zM91 700q0 -119 21.5 -175t87.5 -56q33 0 52.5 13.5t30 41.5t13.5 71.5t3 104.5h-208z" />
<glyph unicode="&#xe93a;&#xe856;" horiz-adv-x="801" d="M645 901q-4 45 -20.5 94t-47 90t-79.5 69t-121 28q-45 0 -90 -17.5t-83 -53.5t-66.5 -88t-41.5 -122h185q45 0 68.5 -26.5t25.5 -71.5q2 45 25.5 71.5t68.5 26.5h176zM659 700h-213q0 -63 3.5 -107t13.5 -72.5t30.5 -42t55.5 -13.5q65 0 87.5 57.5t22.5 177.5zM20 901 q9 113 38.5 198t77.5 143t109.5 88t131.5 30q94 0 158.5 -40t106.5 -103.5t62.5 -146.5t24.5 -169v-201q0 -94 -9 -165.5t-30.5 -122t-56.5 -77t-84 -26.5q-84 0 -128 60.5t-46 183.5q-2 -123 -46 -183.5t-126 -60.5h-17q-8 -16 -10 -30.5t-2 -26.5q0 -27 7 -42t16.5 -29.5 t17.5 -31t8 -45.5q0 -18 -6 -28t-15 -17.5t-19.5 -10.5t-18.5 -3q-49 0 -80 39t-31 98q0 33 17.5 76t40.5 82q-50 43 -70.5 134t-20.5 226h-20v201h20zM90 700q0 -120 22.5 -177.5t90.5 -57.5q33 0 53 13.5t30.5 42t13.5 72.5t3 107h-213z" />
<glyph unicode="&#xe93a;&#xe857;" horiz-adv-x="1206" d="M647 700h-209q0 -59 4 -103t14.5 -72.5t30 -42t52.5 -13.5q65 0 86.5 56.5t21.5 174.5zM305 897q25 -6 39 -25q23 -26 27 -69q2 43 24.5 69.5t67.5 26.5h172q-4 45 -20.5 93t-47 88t-79 68t-115.5 28q-47 0 -91 -17.5t-82 -52.5t-65 -86q-29 -51 -41 -119h211v-4zM20 901 q9 109 37 193q31 84 78 140t107.5 86t130.5 30q90 0 154.5 -39t105.5 -102.5t61.5 -144.5t24.5 -165h246q82 -6 127 -66.5t45 -164.5v-103q0 -63 -21.5 -101t-52.5 -38v20q0 119 -43 184.5t-129 69.5h-172q0 -90 -10.5 -161.5t-32 -120.5t-54 -75t-83.5 -26q-80 0 -123 59.5 t-45 178.5q-4 -119 -47 -178.5t-123 -59.5h-17q-8 -18 -10 -31.5t-2 -25.5q0 -24 7 -40.5t16.5 -30t16.5 -30t7 -44.5q0 -17 -6 -27t-14.5 -18.5t-18.5 -10.5t-18 -2q-49 0 -79 38t-30 95q0 35 16.5 77t39.5 79q-50 41 -69.5 131t-19.5 223h-20v201h20zM90 700 q0 -118 21.5 -174.5t89.5 -56.5q30 0 50.5 13.5t31 42t13.5 72.5t3 103h-209z" />
<glyph unicode="&#xe939;&#xe85d;" horiz-adv-x="1626" d="M1560 667v-103q0 -63 -21.5 -101t-52.5 -38v21q0 118 -44 184.5t-130 69.5h-627l37 -164q27 -114 69.5 -167.5t115.5 -53.5q32 0 51.5 12t32 27t21 27.5t17.5 12.5q20 0 27.5 -18t7.5 -51q0 -34 -12.5 -63.5t-33.5 -52t-49.5 -35t-61.5 -12.5q-54 0 -94 23.5t-71.5 67.5 t-55.5 109.5t-43 147.5q-19 83 -32 141t-22.5 96t-14 61.5t-7.5 36t-4 18t-2 10.5q-31 157 -86.5 229.5t-131.5 72.5q-179 0 -229 -275h260q93 0 93 -95v-204q0 -63 -10.5 -122t-35 -105.5t-66 -74.5t-102.5 -28q-23 0 -39 4q-7 -15 -9 -28.5t-2 -25.5q0 -25 7.5 -40.5 t16 -29t16.5 -30.5t8 -45q0 -17 -6 -28t-15 -18t-18.5 -9.5t-18.5 -2.5q-50 0 -79.5 38t-29.5 97q0 18 5 38t13 41.5t19 42t22 39.5q-33 30 -53.5 78.5t-31 101.5t-14.5 107.5t-4 98.5v200q15 219 90.5 335t212.5 116q66 0 113 -32t80.5 -91.5t58 -143t46.5 -184.5h746 q82 -8 127.5 -68.5t45.5 -164.5zM397 700h-287q0 -59 2 -109.5t15.5 -87t42.5 -57.5t83 -21q53 0 82 20t43.5 56.5t16.5 87t2 111.5z" />
<glyph unicode="&#xe939;&#xe85c;" horiz-adv-x="1171" d="M1261 901v-201h-574l37 -164q27 -115 69.5 -168.5t115.5 -53.5q32 0 52 12t32.5 27t21 27.5t18.5 12.5q18 0 26 -18t8 -51q0 -34 -12.5 -63.5t-33.5 -52.5t-50 -35.5t-62 -12.5q-54 0 -94 23.5t-71.5 68.5t-55.5 110.5t-44 147.5q-19 83 -32 141t-22 96.5t-14 62t-7.5 36 t-3.5 18t-2 9.5q-31 158 -87 231t-132 73q-180 0 -229 -276h260q93 0 93 -96v-205q0 -62 -10.5 -121.5t-35 -106t-66 -74.5t-103.5 -28q-23 0 -39 5q-7 -16 -9 -29.5t-2 -25.5q0 -26 7.5 -41.5t16.5 -29t16.5 -30t7.5 -45.5q0 -16 -6 -27t-14.5 -18t-18.5 -10t-19 -3 q-50 0 -79.5 38.5t-29.5 96.5q0 18 5 38.5t13 42t19 42t22 39.5q-33 31 -53 79.5t-31 101.5t-15 107.5t-4 98.5v201q15 220 90.5 336t213.5 116q66 0 113 -32.5t80.5 -92t58 -143t46.5 -184.5h619zM398 700h-288q0 -59 2.5 -109.5t15.5 -87.5t42.5 -58t82.5 -21 q54 0 83.5 20.5t43 57t16 87t2.5 111.5z" />
<glyph unicode="&#xe93a;&#xe85c;" horiz-adv-x="1135" d="M372 900q76 -8 76 -95v-205q0 -62 -10.5 -121.5t-35 -106t-66 -74.5t-103.5 -28q-23 0 -39 5q-7 -16 -9 -29.5t-2 -25.5q0 -26 7.5 -41.5t16.5 -29t16.5 -30t7.5 -45.5q0 -16 -6 -27t-14.5 -18t-18.5 -10t-19 -3q-50 0 -79.5 38.5t-29.5 96.5q0 18 5 38.5t13 42t19 42 t22 39.5q-33 31 -53 79.5t-31 101.5t-15 107.5t-4 98.5h-20v201h20q15 220 90.5 336t213.5 116q66 0 113 -32.5t80.5 -92t58 -143t46.5 -184.5h589v-201h-544l37 -164q27 -115 69.5 -168.5t115.5 -53.5q32 0 52 12t32.5 27t21 27.5t18.5 12.5q18 0 26 -18t8 -51 q0 -34 -12.5 -63.5t-33.5 -52.5t-50 -35.5t-62 -12.5q-54 0 -94 23.5t-71.5 68.5t-55.5 110.5t-44 147.5q-19 83 -32 141t-22 96.5t-14 62t-7.5 36t-3.5 18t-2 9.5q-31 158 -87 231t-132 73q-180 0 -229 -276h277v-1zM90 700q0 -59 2.5 -109.5t15.5 -87.5t42.5 -58t82.5 -21 q54 0 83.5 20.5t43 57t16 87t2.5 111.5h-288z" />
<glyph unicode="&#xe93a;&#xe85d;" horiz-adv-x="1618" d="M1561 668v-105q0 -61 -21.5 -99t-52.5 -38v20q0 117 -44 183.5t-130 70.5h-629l39 -163q27 -115 69 -168.5t115 -53.5q31 0 51.5 12.5t33 27t20.5 26.5t16 12q21 0 29 -17.5t8 -49.5q0 -35 -13.5 -65t-34 -52.5t-49 -34.5t-61.5 -12q-53 0 -94 23.5t-71.5 67.5t-55 109.5 t-43.5 147.5q-18 84 -31.5 141.5t-22.5 95t-14.5 61t-8.5 36t-4 18.5t-1 10q-31 158 -86 231t-133 73q-178 0 -227 -277h260q92 0 92 -94v-205q0 -61 -10.5 -120.5t-35 -105.5t-66.5 -75t-101 -29q-25 0 -41 4q-6 -14 -8 -27.5t-2 -25.5q0 -24 7 -39.5t16.5 -30t17.5 -31 t8 -44.5q0 -17 -6 -28t-15.5 -18t-18.5 -9.5t-19 -2.5q-50 0 -79.5 38t-29.5 98q0 16 5 36.5t13.5 42t18.5 42t22 38.5q-32 31 -52.5 79t-32 101.5t-14.5 107.5t-3 99v199q14 219 90 336t211 117q68 0 115 -33t79.5 -92.5t57 -142.5t47.5 -185h745q82 -6 128.5 -67.5 t46.5 -163.5zM397 700h-286q0 -59 2 -109t15 -87t42 -57.5t84 -20.5q51 0 81 19.5t44 56.5t16 87t2 111z" />
<glyph unicode="&#xe93a;&#xe904;" horiz-adv-x="850" d="M90 700q0 -59 2 -110t15.5 -87t42 -57.5t83.5 -21.5q54 0 82.5 20.5t43 57.5t16.5 87t2 111h-287zM498 1268q14 -21 28 -43q35 -60 54.5 -143t21.5 -183h303v-199h-203q-2 -26 -7 -73t-10 -98.5t-12 -97.5t-16 -73l-39 -12q-32 82 -52.5 172t-28.5 182v193 q-33 145 -87.5 214t-127.5 69q-179 0 -228 -275h279v-2q73 -8 73 -94v-205q0 -61 -10 -120.5t-34.5 -105.5t-65.5 -75t-103 -29q-22 0 -40 4q-7 -14 -9 -27.5t-2 -25.5q0 -24 7.5 -39.5t16.5 -30t16 -31t7 -44.5q0 -17 -5 -27t-14 -18t-19.5 -10.5t-18.5 -2.5q-49 0 -79 38 t-30 98q0 16 5.5 36.5t13.5 42t19.5 42t21.5 38.5q-33 31 -53.5 79t-30.5 101.5t-14.5 107.5t-4.5 99h-20v201h20q9 107 33 193q25 84 64 140t91 86t114 30q63 0 114 -31l-37 227q13 10 41.5 18.5t63.5 8.5q39 0 65.5 6t44 23.5t27.5 44t16 65.5q23 -29 30 -58.5t7 -58.5 q0 -79 -43 -129.5t-133 -50.5h-43z" />
<glyph unicode="&#xe93a;&#xe908;" horiz-adv-x="870" d="M90 700q0 -59 2 -110t15.5 -87t42 -57.5t83.5 -21.5q54 0 82.5 20.5t43 57.5t16.5 87t2 111h-287zM516 1243q4 -8 10 -18q35 -60 54.5 -143t21.5 -183h334v-199h-234q-2 -26 -7 -73t-10 -98.5t-12 -97.5t-16 -73l-39 -12q-32 82 -52.5 172t-28.5 182v193 q-33 145 -87.5 214t-127.5 69q-179 0 -228 -275h279v-2q73 -8 73 -94v-205q0 -61 -10 -120.5t-34.5 -105.5t-65.5 -75t-103 -29q-22 0 -40 4q-7 -14 -9 -27.5t-2 -25.5q0 -24 7.5 -39.5t16.5 -30t16 -31t7 -44.5q0 -17 -5 -27t-14 -18t-19.5 -10.5t-18.5 -2.5q-49 0 -79 38 t-30 98q0 16 5.5 36.5t13.5 42t19.5 42t21.5 38.5q-33 31 -53.5 79t-30.5 101.5t-14.5 107.5t-4.5 99h-20v201h20q9 107 33 193q25 84 64 140t91 86t114 30q65 0 118 -33q19 -10 33 -27l19 119l-43 -2q-91 0 -134 50t-43 130q0 31 7.5 59.5t27.5 59.5q6 -41 16.5 -67.5 t29 -43t45 -23.5t65.5 -7q35 0 63.5 -7.5t38.5 -19.5l-47 -297z" />
<glyph unicode="&#xe961;&#xe825;" horiz-adv-x="1247" d="M1188 500v-363q0 -74 -14.5 -129t-40 -96t-66.5 -70.5t-90 -54.5q-31 -12 -48.5 -22.5t-29.5 -22.5t-20.5 -27.5t-22.5 -40.5h-18l57 248q12 4 23.5 7t24.5 8.5t29.5 12.5t39.5 21q12 9 29.5 20t31.5 30.5t24.5 48t10.5 67.5v363q0 98 -38 149t-103 51h-344 q-2 -24 -7.5 -66t-14.5 -89t-22.5 -95.5t-31.5 -89.5l-39 -12q-10 19 -17.5 39.5t-12.5 48t-6 61t-1 81.5q0 26 4 62t9 72t9.5 69.5t4.5 56.5q0 47 -9.5 98t-29 95t-49 73t-70.5 29q-49 0 -85 -23t-61.5 -61.5t-38 -95t-12.5 -124.5q0 -47 20.5 -83.5t48.5 -66.5t57.5 -51.5 t47.5 -31.5l-65 -274h-33q-6 34 -15 73t-21.5 75t-26 66.5t-27.5 53.5q-4 -27 -11 -55.5t-18.5 -54t-25.5 -40.5q-13 -14 -29 -14h-4v475h29q8 96 31.5 172t59.5 128t82 80t99 28q41 0 75 -20.5t59.5 -54.5t43 -78t28.5 -88t17 -88t8 -79h394q108 0 164.5 -99.5t56.5 -301.5 z" />
<glyph unicode="&#xe961;&#xe823;" horiz-adv-x="780" d="M838 901v-201h-209q-4 -26 -9.5 -68t-14.5 -89t-22.5 -96.5t-31.5 -90.5l-39 -12q-10 18 -17.5 40t-12.5 48.5t-7 61t-2 81.5q0 27 5 63t10.5 73t9.5 70.5t4 56.5q0 47 -9.5 99t-29 96t-49 73t-72.5 29q-47 0 -85 -21.5t-62.5 -62.5t-38 -97.5t-13.5 -124.5 q0 -47 20.5 -84.5t49.5 -67.5t58.5 -51.5t47.5 -31.5l-65 -279h-33q-6 37 -16 76t-22.5 75t-26 67.5t-27.5 56.5q-2 -29 -10 -58.5t-19.5 -54t-25.5 -40.5q-13 -15 -29 -15h-4v479h29q8 98 32.5 175t59.5 128t82 80t98 29q43 0 78 -20.5t60.5 -55.5t43 -79t28.5 -89t17 -89 t9 -79h260z" />
<glyph unicode="&#xe962;&#xe823;" horiz-adv-x="778" d="M70 901q8 98 32.5 175t59.5 128t82 80t98 29q43 0 78 -20.5t60.5 -55.5t43 -79t28.5 -89t17 -89t9 -79h260v-201h-209q-4 -26 -9.5 -68t-14.5 -89t-22.5 -96.5t-31.5 -90.5l-39 -12q-10 18 -17.5 40t-12.5 48.5t-7 61t-2 81.5q0 27 5 63t10.5 73t9.5 70.5t4 56.5 q0 47 -9.5 99t-29 96t-49 73t-72.5 29q-47 0 -85 -21.5t-62.5 -62.5t-38 -97.5t-13.5 -124.5q0 -47 20.5 -84.5t49.5 -67.5t58.5 -51.5t47.5 -31.5l-65 -279h-33q-6 37 -16 76t-22.5 75t-26 67.5t-27.5 56.5q-2 -29 -10 -58.5t-19.5 -54t-25.5 -40.5q-13 -15 -29 -15h-4v278 h-41v201h70z" />
<glyph unicode="&#xe962;&#xe825;" horiz-adv-x="1221" d="M50 901q7 97 30.5 172t59.5 127.5t82 80t99 27.5q42 0 75.5 -20t59 -54t43.5 -78t29.5 -88.5t17.5 -88.5t7 -78h394q109 0 164.5 -99.5t55.5 -301.5v-362q0 -75 -14 -130.5t-40 -96.5t-66 -70.5t-91 -52.5q-30 -14 -47.5 -24t-29.5 -22t-20.5 -28t-22.5 -40h-19l58 249 q12 3 23.5 6.5t25 8.5t29.5 12.5t38 20.5q13 8 30 20t31.5 31t25 47.5t10.5 68.5v362q0 99 -38 150t-103 51h-344q-3 -26 -7.5 -67.5t-14 -88.5t-22.5 -95.5t-33 -89.5l-38 -12q-10 19 -17 39.5t-12 47.5t-6.5 61.5t-1.5 80.5q0 27 4 62.5t9 72t9.5 70t4.5 56.5 q0 47 -9.5 98.5t-29 95t-49 72t-71.5 28.5q-48 0 -84 -22t-61.5 -61.5t-38 -95.5t-12.5 -124q0 -46 20.5 -83.5t48.5 -67t57.5 -51t47.5 -32.5l-65 -274h-32q-6 36 -16 74.5t-22.5 74t-25.5 66.5t-27 54q-5 -26 -12 -55.5t-18 -54.5t-25 -40q-13 -14 -30 -14h-4v274h-20v201 h50z" />
<glyph unicode="&#xe961;&#xe82d;" horiz-adv-x="1247" d="M1188 500v-363q0 -74 -14.5 -129t-40 -96t-66.5 -70.5t-90 -54.5q-31 -12 -48.5 -22.5t-29.5 -22.5t-20.5 -27.5t-22.5 -40.5h-18l57 248q12 4 23.5 7t24.5 8.5t29.5 12.5t39.5 21q12 9 29.5 20t31.5 30.5t24.5 48t10.5 67.5v363q0 98 -38 149t-103 51h-344 q-2 -24 -7.5 -66t-14.5 -89t-22.5 -95.5t-31.5 -89.5l-39 -12q-10 19 -17.5 39.5t-12.5 48t-6 61t-1 81.5q0 26 4 62t9 72t9.5 69.5t4.5 56.5q0 47 -9.5 98t-29 95t-49 73t-70.5 29q-49 0 -85 -23t-61.5 -61.5t-38 -95t-12.5 -124.5q0 -47 20.5 -83.5t48.5 -66.5t57.5 -51.5 t47.5 -31.5l-65 -274h-33q-6 34 -15 73t-21.5 75t-26 66.5t-27.5 53.5q-4 -27 -11 -55.5t-18.5 -54t-25.5 -40.5q-13 -14 -29 -14h-4v475h29q8 96 31.5 172t59.5 128t82 80t99 28q41 0 75 -20.5t59.5 -54.5t43 -78t28.5 -88t17 -88t8 -79h394q108 0 164.5 -99.5t56.5 -301.5 z" />
<glyph unicode="&#xe961;&#xe82c;" horiz-adv-x="784" d="M838 901v-201h-209q-4 -26 -9.5 -68t-14.5 -89t-22.5 -96.5t-31.5 -90.5l-39 -12q-10 18 -17.5 40t-12.5 48.5t-7 61t-2 81.5q0 27 5 63t10.5 73t9.5 70.5t4 56.5q0 47 -9.5 99t-29 96t-49 73t-72.5 29q-47 0 -85 -21.5t-62.5 -62.5t-38 -97.5t-13.5 -124.5 q0 -47 20.5 -84.5t49.5 -67.5t58.5 -51.5t47.5 -31.5l-65 -279h-33q-6 37 -16 76t-22.5 75t-26 67.5t-27.5 56.5q-2 -29 -10 -58.5t-19.5 -54t-25.5 -40.5q-13 -15 -29 -15h-4v479h29q8 98 32.5 175t59.5 128t82 80t98 29q43 0 78 -20.5t60.5 -55.5t43 -79t28.5 -89t17 -89 t9 -79h260z" />
<glyph unicode="&#xe962;&#xe82c;" horiz-adv-x="797" d="M70 901q8 98 32.5 175t59.5 128t82 80t98 29q43 0 78 -20.5t60.5 -55.5t43 -79t28.5 -89t17 -89t9 -79h260v-201h-209q-4 -26 -9.5 -68t-14.5 -89t-22.5 -96.5t-31.5 -90.5l-39 -12q-10 18 -17.5 40t-12.5 48.5t-7 61t-2 81.5q0 27 5 63t10.5 73t9.5 70.5t4 56.5 q0 47 -9.5 99t-29 96t-49 73t-72.5 29q-47 0 -85 -21.5t-62.5 -62.5t-38 -97.5t-13.5 -124.5q0 -47 20.5 -84.5t49.5 -67.5t58.5 -51.5t47.5 -31.5l-65 -279h-33q-6 37 -16 76t-22.5 75t-26 67.5t-27.5 56.5q-2 -29 -10 -58.5t-19.5 -54t-25.5 -40.5q-13 -15 -29 -15h-4v278 h-41v201h70z" />
<glyph unicode="&#xe962;&#xe82d;" horiz-adv-x="1231" d="M50 901q7 97 30.5 172t59.5 127.5t82 80t99 27.5q42 0 75.5 -20t59 -54t43.5 -78t29.5 -88.5t17.5 -88.5t7 -78h394q109 0 164.5 -99.5t55.5 -301.5v-362q0 -75 -14 -130.5t-40 -96.5t-66 -70.5t-91 -52.5q-30 -14 -47.5 -24t-29.5 -22t-20.5 -28t-22.5 -40h-19l58 249 q12 3 23.5 6.5t25 8.5t29.5 12.5t38 20.5q13 8 30 20t31.5 31t25 47.5t10.5 68.5v362q0 99 -38 150t-103 51h-344q-3 -26 -7.5 -67.5t-14 -88.5t-22.5 -95.5t-33 -89.5l-38 -12q-10 19 -17 39.5t-12 47.5t-6.5 61.5t-1.5 80.5q0 27 4 62.5t9 72t9.5 70t4.5 56.5 q0 47 -9.5 98.5t-29 95t-49 72t-71.5 28.5q-48 0 -84 -22t-61.5 -61.5t-38 -95.5t-12.5 -124q0 -46 20.5 -83.5t48.5 -67t57.5 -51t47.5 -32.5l-65 -274h-32q-6 36 -16 74.5t-22.5 74t-25.5 66.5t-27 54q-5 -26 -12 -55.5t-18 -54.5t-25 -40q-13 -14 -30 -14h-4v274h-20v201 h50z" />
<glyph unicode="&#xe961;&#xe837;" horiz-adv-x="1262" d="M1216 667v-104q0 -64 -21.5 -102.5t-54.5 -38.5v21q0 120 -43.5 187t-131.5 70h-405q17 -63 39.5 -112t46 -86t45.5 -64t38 -47l-35 -177h-25q-40 48 -75.5 113.5t-64.5 146t-50.5 175t-33.5 201.5q-6 51 -11.5 108.5t-17.5 107t-34.5 82.5t-60.5 33q-49 0 -82.5 -24 t-54.5 -67t-30.5 -101t-9.5 -126q0 -46 20.5 -89.5t49 -80t58.5 -63t48 -37.5l-66 -278h-32q-7 37 -17 76t-22 75t-25.5 67.5t-27.5 54.5q-5 -26 -12 -56t-18 -55t-26 -41q-13 -14 -30 -14h-4v480h30v10q0 92 19 172q19 83 52.5 144t80.5 95.5t100 34.5q60 0 97 -42.5 t59 -108.5t33.5 -147t18.5 -158h512q83 -8 128.5 -69t45.5 -166z" />
<glyph unicode="&#xe961;&#xe834;" horiz-adv-x="870" d="M952 901v-201h-397q16 -61 38.5 -109t46.5 -85t45.5 -64.5t37.5 -48.5l-35 -174h-24q-39 47 -75 112.5t-64.5 144.5t-49 173t-33.5 201q-6 49 -11 106.5t-18.5 106.5t-35 82t-60.5 33q-47 0 -79.5 -24t-54 -67t-31 -100t-9.5 -125q0 -47 20.5 -90t48.5 -79t57.5 -62.5 t47.5 -36.5l-65 -275h-31q-8 35 -17 74t-21.5 75t-26 66.5t-27.5 55.5q-4 -27 -11 -56.5t-18.5 -54t-25.5 -40.5q-12 -14 -26 -14q-3 0 -7 1v475h29q0 96 18 179t52 143.5t80 95.5t99 35q60 0 97 -43t58.5 -107.5t32.5 -145.5t19 -157h426z" />
<glyph unicode="&#xe962;&#xe834;" horiz-adv-x="858" d="M50 901v10q0 91 18 170q19 83 52.5 143.5t80 94.5t98.5 34q60 0 97 -42.5t58.5 -107.5t33 -145.5t18.5 -156.5h427v-200h-397q16 -63 38.5 -111t46 -85t45 -64.5t37.5 -46.5l-35 -175h-24q-40 47 -75.5 112.5t-64 145t-49.5 173.5t-33 200q-6 50 -11.5 107t-18 106 t-34 81.5t-60.5 32.5q-48 0 -81 -23.5t-54 -66t-30 -100t-9 -125.5q0 -46 20 -89t48 -79t58 -62.5t47 -37.5l-65 -274h-31q-7 35 -17 73.5t-22.5 74.5t-25 67t-27.5 55q-4 -27 -11.5 -56.5t-18.5 -54t-25 -40.5q-13 -14 -28 -14h-6v275h-20v201h50z" />
<glyph unicode="&#xe962;&#xe837;" horiz-adv-x="1282" d="M49 901q0 98 19.5 182t53.5 144.5t81 95.5t98 35q61 0 98 -42t58.5 -108.5t34 -147.5t18.5 -159h512q84 -6 129 -67.5t45 -165.5v-105q0 -63 -21.5 -102t-54.5 -39v20q0 121 -44 187.5t-132 70.5h-403q16 -63 38.5 -112t46 -86t45 -63.5t38.5 -47.5l-35 -178h-25 q-41 49 -75.5 114.5t-64.5 146.5t-51.5 175t-31.5 201q-6 51 -12 108.5t-17.5 106.5t-34 83t-61.5 34q-49 0 -83 -24.5t-54.5 -67.5t-29.5 -100.5t-9 -127.5q0 -45 20.5 -89t48 -80t58.5 -62.5t47 -36.5l-66 -279h-30q-8 37 -18.5 76t-21.5 75t-24.5 67.5t-27.5 54.5 q-7 -27 -14 -56.5t-17 -54t-25 -40.5q-14 -15 -31 -15h-4v278h-20v201h49z" />
<glyph unicode="&#xe961;&#xe83e;" horiz-adv-x="801" d="M743 899v-324q0 -59 -8 -107t-27.5 -84t-52 -55.5t-84.5 -19.5q-82 0 -126 70t-44 196v250q0 17 2.5 30t10.5 23.5t22.5 15.5t36.5 5h195q0 137 -62.5 208t-195.5 71q-72 0 -126.5 -22.5t-89 -61.5t-52 -89.5t-17.5 -105.5t23.5 -106.5t55.5 -92.5t64.5 -69.5t50.5 -38.5 l-65 -279h-33q-6 37 -16 76t-22.5 75t-26 67.5t-27.5 56.5q-4 -29 -11 -58.5t-18.5 -54t-25.5 -40.5q-12 -14 -26 -14q-3 0 -7 1v477q8 84 31.5 167t67.5 146.5t110.5 103.5t159.5 40q90 0 150.5 -31t98 -88t57 -142t27.5 -196zM672 698h-201v-88q0 -69 22.5 -107t77.5 -38 q56 0 78.5 40t22.5 105v88z" />
<glyph unicode="&#xe961;&#xe83c;" horiz-adv-x="907" d="M954 901v-201h-215v-122q0 -58 -7.5 -106.5t-27.5 -84t-52.5 -54.5t-81.5 -19q-83 0 -127.5 69t-44.5 195v249q0 15 2.5 28t10.5 23.5t22 16.5t38 6h193q0 136 -62.5 206t-194.5 70q-71 0 -124.5 -22.5t-89 -61.5t-53 -89t-17.5 -103q0 -56 24 -107t56 -91.5t64.5 -69 t49.5 -40.5l-64 -275h-33q-6 36 -16 75t-22 74.5t-25 67t-28 54.5q-4 -26 -11 -56t-18.5 -54.5t-25.5 -40.5q-13 -14 -30 -14h-4v477q9 83 32.5 164.5t67.5 145.5t110 103t157 39q90 0 150 -30t98 -87t57 -142t27 -193h215zM669 700h-200v-86q0 -70 22.5 -108t78.5 -38 q54 0 76.5 39.5t22.5 106.5v86z" />
<glyph unicode="&#xe962;&#xe83c;" horiz-adv-x="881" d="M649 700h-200v-86q0 -69 22.5 -107t79.5 -38q53 0 75.5 39t22.5 106v86zM20 901q9 82 32.5 164t67.5 146.5t110.5 103.5t156.5 39t150.5 -31t98.5 -87t56.5 -141t26.5 -194h215v-201h-215v-122q0 -58 -7 -106t-27.5 -84t-53.5 -55.5t-80 -19.5q-84 0 -128 70t-44 195v249 q0 15 2 28t10 23.5t21.5 16.5t38.5 6h192q0 135 -62.5 206t-193.5 71q-72 0 -125 -22.5t-89 -61.5t-53.5 -89.5t-17.5 -103.5q0 -55 25 -106.5t56.5 -92t64.5 -69.5t49 -39l-64 -277h-32q-6 37 -16.5 76t-22.5 75t-24.5 66.5t-28.5 55.5q-5 -27 -12 -56.5t-18 -54t-25 -40.5 q-13 -15 -30 -15h-4v276h-20v201h20z" />
<glyph unicode="&#xe962;&#xe83e;" horiz-adv-x="784" d="M651 698h-198v-88q0 -69 22.5 -107t77.5 -38q53 0 75.5 40t22.5 105v88zM20 901q9 82 33 166q23 82 68 145.5t111.5 103.5t156.5 40t150.5 -31t98.5 -88t57.5 -142t27.5 -196v-324q0 -59 -8 -107t-27.5 -84t-52.5 -55.5t-82 -19.5q-84 0 -128 70t-44 196v250q0 17 2 30 t10 23.5t22.5 15.5t37.5 5h194q0 137 -62.5 208t-195.5 71q-72 0 -125 -22.5t-89 -61.5t-53.5 -89.5t-17.5 -105.5t24 -106.5t55.5 -92.5t64.5 -69.5t51 -38.5l-66 -279h-30q-8 37 -18.5 76t-21.5 75t-24.5 67.5t-27.5 56.5q-7 -29 -14 -58.5t-17 -54t-25 -40.5 q-13 -14 -28 -14q-3 0 -7 1v278h-20v201h20z" />
<glyph unicode="&#xe961;&#xe846;" horiz-adv-x="801" d="M743 899v-324q0 -59 -8 -107t-27.5 -84t-52 -55.5t-84.5 -19.5q-82 0 -126 70t-44 196v250q0 17 2.5 30t10.5 23.5t22.5 15.5t36.5 5h195q0 137 -62.5 208t-195.5 71q-72 0 -126.5 -22.5t-89 -61.5t-52 -89.5t-17.5 -105.5t23.5 -106.5t55.5 -92.5t64.5 -69.5t50.5 -38.5 l-65 -279h-33q-6 37 -16 76t-22.5 75t-26 67.5t-27.5 56.5q-4 -29 -11 -58.5t-18.5 -54t-25.5 -40.5q-12 -14 -26 -14q-3 0 -7 1v477q8 84 31.5 167t67.5 146.5t110.5 103.5t159.5 40q90 0 150.5 -31t98 -88t57 -142t27.5 -196zM672 698h-201v-88q0 -69 22.5 -107t77.5 -38 q56 0 78.5 40t22.5 105v88z" />
<glyph unicode="&#xe961;&#xe844;" horiz-adv-x="907" d="M954 901v-201h-215v-122q0 -58 -7.5 -106.5t-27.5 -84t-52.5 -54.5t-81.5 -19q-83 0 -127.5 69t-44.5 195v249q0 15 2.5 28t10.5 23.5t22 16.5t38 6h193q0 136 -62.5 206t-194.5 70q-71 0 -124.5 -22.5t-89 -61.5t-53 -89t-17.5 -103q0 -56 24 -107t56 -91.5t64.5 -69 t49.5 -40.5l-64 -275h-33q-6 36 -16 75t-22 74.5t-25 67t-28 54.5q-4 -26 -11 -56t-18.5 -54.5t-25.5 -40.5q-13 -14 -30 -14h-4v477q9 83 32.5 164.5t67.5 145.5t110 103t157 39q90 0 150 -30t98 -87t57 -142t27 -193h215zM669 700h-200v-86q0 -70 22.5 -108t78.5 -38 q54 0 76.5 39.5t22.5 106.5v86z" />
<glyph unicode="&#xe962;&#xe844;" horiz-adv-x="889" d="M649 700h-200v-86q0 -69 22.5 -107t79.5 -38q53 0 75.5 39t22.5 106v86zM20 901q9 82 32.5 164t67.5 146.5t110.5 103.5t156.5 39t150.5 -31t98.5 -87t56.5 -141t26.5 -194h215v-201h-215v-122q0 -58 -7 -106t-27.5 -84t-53.5 -55.5t-80 -19.5q-84 0 -128 70t-44 195v249 q0 15 2 28t10 23.5t21.5 16.5t38.5 6h192q0 135 -62.5 206t-193.5 71q-72 0 -125 -22.5t-89 -61.5t-53.5 -89.5t-17.5 -103.5q0 -55 25 -106.5t56.5 -92t64.5 -69.5t49 -39l-64 -277h-32q-6 37 -16.5 76t-22.5 75t-24.5 66.5t-28.5 55.5q-5 -27 -12 -56.5t-18 -54t-25 -40.5 q-13 -15 -30 -15h-4v276h-20v201h20z" />
<glyph unicode="&#xe962;&#xe846;" horiz-adv-x="801" d="M651 698h-198v-88q0 -69 22.5 -107t77.5 -38q53 0 75.5 40t22.5 105v88zM20 901q9 82 33 166q23 82 68 145.5t111.5 103.5t156.5 40t150.5 -31t98.5 -88t57.5 -142t27.5 -196v-324q0 -59 -8 -107t-27.5 -84t-52.5 -55.5t-82 -19.5q-84 0 -128 70t-44 196v250q0 17 2 30 t10 23.5t22.5 15.5t37.5 5h194q0 137 -62.5 208t-195.5 71q-72 0 -125 -22.5t-89 -61.5t-53.5 -89.5t-17.5 -105.5t24 -106.5t55.5 -92.5t64.5 -69.5t51 -38.5l-66 -279h-30q-8 37 -18.5 76t-21.5 75t-24.5 67.5t-27.5 56.5q-7 -29 -14 -58.5t-17 -54t-25 -40.5 q-13 -14 -28 -14q-3 0 -7 1v278h-20v201h20z" />
<glyph unicode="&#xe961;&#xe84e;" horiz-adv-x="1300" d="M1206 668v-103q0 -63 -21 -101t-53 -38v20q0 119 -43 185t-130 69h-224v-121q0 -58 -7.5 -106.5t-27 -83.5t-52 -54t-81.5 -19q-82 0 -126 69t-44 194v247q0 16 2.5 29t10 23t21.5 16t38 6h192q0 136 -62 205.5t-193 69.5q-72 0 -125 -22.5t-88 -61t-52.5 -88 t-17.5 -103.5q0 -56 23.5 -106t55.5 -90.5t64.5 -69.5t49.5 -40l-65 -273h-31q-7 35 -16.5 73.5t-22 74.5t-25.5 67t-27 54q-5 -26 -12 -55.5t-17.5 -54.5t-25.5 -41q-14 -13 -28 -13h-6v474q9 83 32.5 164t67.5 144.5t109.5 102.5t156.5 39q89 0 148.5 -30t97.5 -86.5 t56.5 -141t26.5 -192.5h300q81 -8 126 -68t45 -164zM666 700h-198v-86q0 -69 22 -106.5t77 -37.5q53 0 76 39t23 105v86z" />
<glyph unicode="&#xe961;&#xe84b;" horiz-adv-x="1298" d="M1359 900v-201h-420l230 -328v-26l-48 -230h-27l-231 584h-121v-123q0 -59 -7.5 -107.5t-28 -84t-52.5 -54.5t-82 -19q-83 0 -127 69t-44 196v249q0 16 2 29t9.5 23.5t22 16.5t37.5 6h195q0 136 -62.5 206.5t-195.5 70.5q-71 0 -125 -22.5t-89 -61.5t-53 -89t-18 -104 q0 -57 24 -107.5t56 -92t64.5 -70t49.5 -39.5l-65 -276h-32q-6 36 -16 74.5t-22 75t-25.5 68t-28.5 54.5q-4 -27 -11.5 -56.5t-18.5 -55t-25 -41.5q-13 -13 -28 -13h-6v479q9 84 32.5 165.5t68 146t110.5 103.5t158 39q89 0 149.5 -29.5t98.5 -87.5t58 -143t27 -194h617z M668 701h-199v-87q0 -69 22.5 -107t77.5 -38q54 0 76.5 39.5t22.5 105.5v87z" />
<glyph unicode="&#xe962;&#xe84b;" horiz-adv-x="891" d="M649 700h-200v-86q0 -69 22.5 -107t79.5 -38q53 0 75.5 39t22.5 106v86zM20 901q9 82 32.5 164t67.5 146.5t110.5 103.5t156.5 39t150.5 -31t98.5 -87t56.5 -141t26.5 -194h215v-201h-215v-122q0 -58 -7 -106t-27.5 -84t-53.5 -55.5t-80 -19.5q-84 0 -128 70t-44 195v249 q0 15 2 28t10 23.5t21.5 16.5t38.5 6h192q0 135 -62.5 206t-193.5 71q-72 0 -125 -22.5t-89 -61.5t-53.5 -89.5t-17.5 -103.5q0 -55 25 -106.5t56.5 -92t64.5 -69.5t49 -39l-64 -277h-32q-6 37 -16.5 76t-22.5 75t-24.5 66.5t-28.5 55.5q-5 -27 -12 -56.5t-18 -54t-25 -40.5 q-13 -15 -30 -15h-4v276h-20v201h20z" />
<glyph unicode="&#xe962;&#xe84e;" horiz-adv-x="801" d="M651 698h-198v-88q0 -69 22.5 -107t77.5 -38q53 0 75.5 40t22.5 105v88zM20 901q9 82 33 166q23 82 68 145.5t111.5 103.5t156.5 40t150.5 -31t98.5 -88t57.5 -142t27.5 -196v-324q0 -59 -8 -107t-27.5 -84t-52.5 -55.5t-82 -19.5q-84 0 -128 70t-44 196v250q0 17 2 30 t10 23.5t22.5 15.5t37.5 5h194q0 137 -62.5 208t-195.5 71q-72 0 -125 -22.5t-89 -61.5t-53.5 -89.5t-17.5 -105.5t24 -106.5t55.5 -92.5t64.5 -69.5t51 -38.5l-66 -279h-30q-8 37 -18.5 76t-21.5 75t-24.5 67.5t-27.5 56.5q-7 -29 -14 -58.5t-17 -54t-25 -40.5 q-13 -14 -28 -14q-3 0 -7 1v278h-20v201h20z" />
<glyph unicode="&#xe962;&#xe84f;" horiz-adv-x="1247" d="M645 700h-196v-86q0 -69 21.5 -107t76.5 -38q53 0 75.5 40t22.5 105v86zM20 901q9 82 33 164q23 80 67 143.5t109.5 102.5t155.5 39t149.5 -30t97.5 -86t56.5 -141t26.5 -194h301q80 -6 125 -66.5t45 -164.5v-103q0 -63 -20.5 -101t-53.5 -38v20q0 119 -43 184.5 t-131 69.5h-223v-120q0 -60 -7.5 -108t-26.5 -83t-52 -54.5t-82 -19.5q-82 0 -126 70t-44 195v245q0 17 3 30t10 23.5t21.5 15.5t37.5 5h192q0 137 -62.5 207t-193.5 70q-72 0 -124 -23t-88 -61.5t-53.5 -88t-17.5 -104.5t24 -105.5t55.5 -90t64.5 -69.5t51 -40l-66 -272 h-30q-8 34 -17.5 72t-21.5 75t-25.5 67.5t-27.5 53.5q-5 -27 -12 -55.5t-17 -54t-25 -40.5q-14 -14 -31 -14h-4v274h-20v201h20z" />
<glyph unicode="&#xe961;&#xe856;" horiz-adv-x="1296" d="M1206 668v-103q0 -63 -21 -101t-53 -38v20q0 119 -43 185t-130 69h-224v-121q0 -58 -7.5 -106.5t-27 -83.5t-52 -54t-81.5 -19q-82 0 -126 69t-44 194v247q0 16 2.5 29t10 23t21.5 16t38 6h192q0 136 -62 205.5t-193 69.5q-72 0 -125 -22.5t-88 -61t-52.5 -88 t-17.5 -103.5q0 -56 23.5 -106t55.5 -90.5t64.5 -69.5t49.5 -40l-65 -273h-31q-7 35 -16.5 73.5t-22 74.5t-25.5 67t-27 54q-5 -26 -12 -55.5t-17.5 -54.5t-25.5 -41q-14 -13 -28 -13h-6v474q9 83 32.5 164t67.5 144.5t109.5 102.5t156.5 39q89 0 148.5 -30t97.5 -86.5 t56.5 -141t26.5 -192.5h300q81 -8 126 -68t45 -164zM666 700h-198v-86q0 -69 22 -106.5t77 -37.5q53 0 76 39t23 105v86z" />
<glyph unicode="&#xe961;&#xe853;" horiz-adv-x="1298" d="M1359 900v-201h-420l230 -328v-26l-48 -230h-27l-231 584h-121v-123q0 -59 -7.5 -107.5t-28 -84t-52.5 -54.5t-82 -19q-83 0 -127 69t-44 196v249q0 16 2 29t9.5 23.5t22 16.5t37.5 6h195q0 136 -62.5 206.5t-195.5 70.5q-71 0 -125 -22.5t-89 -61.5t-53 -89t-18 -104 q0 -57 24 -107.5t56 -92t64.5 -70t49.5 -39.5l-65 -276h-32q-6 36 -16 74.5t-22 75t-25.5 68t-28.5 54.5q-4 -27 -11.5 -56.5t-18.5 -55t-25 -41.5q-13 -13 -28 -13h-6v479q9 84 32.5 165.5t68 146t110.5 103.5t158 39q89 0 149.5 -29.5t98.5 -87.5t58 -143t27 -194h617z M668 701h-199v-87q0 -69 22.5 -107t77.5 -38q54 0 76.5 39.5t22.5 105.5v87z" />
<glyph unicode="&#xe962;&#xe853;" horiz-adv-x="881" d="M649 700h-200v-86q0 -69 22.5 -107t79.5 -38q53 0 75.5 39t22.5 106v86zM20 901q9 82 32.5 164t67.5 146.5t110.5 103.5t156.5 39t150.5 -31t98.5 -87t56.5 -141t26.5 -194h215v-201h-215v-122q0 -58 -7 -106t-27.5 -84t-53.5 -55.5t-80 -19.5q-84 0 -128 70t-44 195v249 q0 15 2 28t10 23.5t21.5 16.5t38.5 6h192q0 135 -62.5 206t-193.5 71q-72 0 -125 -22.5t-89 -61.5t-53.5 -89.5t-17.5 -103.5q0 -55 25 -106.5t56.5 -92t64.5 -69.5t49 -39l-64 -277h-32q-6 37 -16.5 76t-22.5 75t-24.5 66.5t-28.5 55.5q-5 -27 -12 -56.5t-18 -54t-25 -40.5 q-13 -15 -30 -15h-4v276h-20v201h20z" />
<glyph unicode="&#xe962;&#xe856;" horiz-adv-x="801" d="M651 698h-198v-88q0 -69 22.5 -107t77.5 -38q53 0 75.5 40t22.5 105v88zM20 901q9 82 33 166q23 82 68 145.5t111.5 103.5t156.5 40t150.5 -31t98.5 -88t57.5 -142t27.5 -196v-324q0 -59 -8 -107t-27.5 -84t-52.5 -55.5t-82 -19.5q-84 0 -128 70t-44 196v250q0 17 2 30 t10 23.5t22.5 15.5t37.5 5h194q0 137 -62.5 208t-195.5 71q-72 0 -125 -22.5t-89 -61.5t-53.5 -89.5t-17.5 -105.5t24 -106.5t55.5 -92.5t64.5 -69.5t51 -38.5l-66 -279h-30q-8 37 -18.5 76t-21.5 75t-24.5 67.5t-27.5 56.5q-7 -29 -14 -58.5t-17 -54t-25 -40.5 q-13 -14 -28 -14q-3 0 -7 1v278h-20v201h20z" />
<glyph unicode="&#xe962;&#xe857;" horiz-adv-x="1298" d="M665 700h-196v-86q0 -69 21.5 -107t76.5 -38q53 0 75.5 40t22.5 105v86zM40 901q9 82 33 164q23 80 67 143.5t109.5 102.5t155.5 39t149.5 -30t97.5 -86t56.5 -141t26.5 -194h301q80 -6 125 -66.5t45 -164.5v-103q0 -63 -20.5 -101t-53.5 -38v20q0 119 -43 184.5 t-131 69.5h-223v-120q0 -60 -7.5 -108t-26.5 -83t-52 -54.5t-82 -19.5q-82 0 -126 70t-44 195v245q0 17 3 30t10 23.5t21.5 15.5t37.5 5h192q0 137 -62.5 207t-193.5 70q-72 0 -124 -23t-88 -61.5t-53.5 -88t-17.5 -104.5t24 -105.5t55.5 -90t64.5 -69.5t51 -40l-66 -272 h-30q-8 34 -17.5 72t-21.5 75t-25.5 67.5t-27.5 53.5q-5 -27 -12 -55.5t-17 -54t-25 -40.5q-14 -14 -31 -14h-4v274h-20v201h20z" />
<glyph unicode="&#xe961;&#xe85d;" horiz-adv-x="1544" d="M1473 667v-103q0 -62 -21 -100.5t-53 -38.5v22q0 117 -43.5 183.5t-129.5 69.5h-576q18 -124 41 -199.5t51 -116t61 -54t69 -13.5q31 0 50.5 11.5t32.5 26.5t21 27.5t18 12.5q19 0 26.5 -18t7.5 -51q0 -34 -12 -63.5t-33 -52t-50 -35t-61 -12.5q-56 0 -97.5 24.5 t-72.5 66t-52.5 96.5t-36.5 115t-25.5 122.5t-18.5 117.5q-14 91 -30.5 175.5t-41 149.5t-61.5 104.5t-94 39.5q-39 0 -77 -23t-66.5 -62.5t-45.5 -93t-17 -115.5q0 -59 21 -105.5t50.5 -83.5t60 -61.5t48.5 -35.5l-64 -273h-33q-6 36 -16 74t-22 73.5t-25 66.5t-27 55 q-4 -27 -11 -56.5t-18.5 -53.5t-26.5 -40q-13 -15 -29 -15h-4v475q24 108 50.5 192t65.5 141t87.5 86.5t98.5 29.5q43 0 79 -19t63.5 -51.5t50 -76t39 -94t29.5 -104t24 -104.5h674q83 -8 127.5 -68.5t44.5 -164.5z" />
<glyph unicode="&#xe961;&#xe85c;" horiz-adv-x="1139" d="M1200 900v-200h-550q18 -123 41 -198.5t51 -117t61 -55t69 -13.5q31 0 51 12t32.5 27t21 27.5t17.5 12.5q19 0 26.5 -18.5t7.5 -50.5q0 -34 -12 -63.5t-33.5 -52t-50 -35t-60.5 -12.5q-56 0 -97.5 24.5t-72 66t-52 96t-37 115t-26 123t-18.5 118.5q-14 91 -30 175 t-41 149t-62 104.5t-94 39.5q-39 0 -76.5 -23t-66.5 -62.5t-46.5 -93t-17.5 -116.5q0 -58 21.5 -105t51 -83.5t60 -61t48.5 -35.5l-65 -273h-32q-6 35 -16 73.5t-22 74t-25 66.5t-27 55q-4 -27 -11.5 -56.5t-18.5 -54t-26 -39.5q-13 -14 -29 -14h-4v474q24 108 50 192 t65.5 141t88 86.5t98.5 29.5q43 0 79 -19.5t64 -51.5t50 -76t38.5 -94t30 -103.5t24.5 -104.5h572z" />
<glyph unicode="&#xe962;&#xe85c;" horiz-adv-x="1137" d="M40 901q24 107 50 191t65.5 141t88 86.5t98.5 29.5q43 0 79 -19.5t64 -51.5t50 -76t38.5 -94t30 -103.5t24.5 -104.5h572v-200h-550q18 -123 41 -198.5t51 -117t61 -55t69 -13.5q31 0 51 12t32.5 27t21 27.5t17.5 12.5q19 0 26.5 -18.5t7.5 -50.5q0 -34 -12 -63.5 t-33.5 -52t-50 -35t-60.5 -12.5q-56 0 -97.5 24.5t-72 66t-52 96t-37 115t-26 123t-18.5 118.5q-14 91 -30 175t-41 149t-62 104.5t-94 39.5q-39 0 -76.5 -23t-66.5 -62.5t-46.5 -93t-17.5 -116.5q0 -58 21.5 -105t51 -83.5t60 -61t48.5 -35.5l-65 -273h-32q-6 35 -16 73.5 t-22 74t-25 66.5t-27 55q-4 -27 -11.5 -56.5t-18.5 -54t-26 -39.5q-13 -14 -29 -14h-4v274h-40v201h40z" />
<glyph unicode="&#xe962;&#xe85d;" horiz-adv-x="1528" d="M20 901q23 107 52 191q24 84 63 141t88 87t99 30q43 0 78.5 -19.5t63.5 -52.5t50.5 -76t38.5 -93t29.5 -104.5t23.5 -105.5h674q84 -6 128 -67.5t44 -163.5v-105q0 -61 -20.5 -99t-53.5 -38v20q0 117 -43 183.5t-129 70.5h-575q16 -125 39.5 -199.5t51.5 -115.5 t60.5 -54.5t69.5 -13.5q31 0 50.5 11.5t32.5 27t21.5 27.5t18.5 12q18 0 25.5 -18.5t7.5 -50.5q0 -33 -12.5 -63t-33 -52.5t-49 -34.5t-61.5 -12q-55 0 -97 24.5t-73 65.5t-52.5 96.5t-36.5 114.5t-25.5 121.5t-18.5 118.5q-14 92 -30.5 176t-41 149.5t-61.5 104.5t-94 39 q-39 0 -77 -23t-66.5 -62.5t-45 -93t-16.5 -114.5q0 -60 20.5 -107t50 -84t60.5 -61.5t49 -34.5l-66 -272h-32q-6 34 -16.5 72t-21.5 74t-24.5 66.5t-27.5 55.5q-5 -27 -12 -56.5t-18 -53t-25 -39.5q-13 -15 -30 -15h-4v274h-20v201h20z" />
<glyph unicode="&#xe962;&#xe904;" horiz-adv-x="780" d="M459 1262q10 -11 20 -25q27 -35 44.5 -79t28.5 -89t17 -89t9 -79h260v-201h-209q-4 -26 -9.5 -68t-14.5 -89t-22.5 -96.5t-31.5 -90.5l-39 -12q-10 18 -17.5 40t-12.5 48.5t-7 61t-2 81.5q0 27 5 63t10.5 73t9.5 70.5t4 56.5q0 47 -9.5 99t-29 96t-49 73t-72.5 29 q-47 0 -85 -21.5t-62.5 -62.5t-38 -97.5t-13.5 -124.5q0 -47 20.5 -84.5t49.5 -67.5t58.5 -51.5t47.5 -31.5l-65 -279h-33q-6 37 -16 76t-22.5 75t-26 67.5t-27.5 56.5q-2 -29 -10 -58.5t-19.5 -54t-25.5 -40.5q-13 -15 -29 -15h-4v278h-41v201h70q8 98 32.5 175t59.5 128 t82 80t98 29q31 0 57 -10l-39 243q13 10 40.5 18.5t64.5 8.5t63.5 6t45 23.5t28.5 44t16 65.5q23 -29 29 -58.5t6 -58.5q0 -79 -42 -129.5t-134 -50.5h-43z" />
<glyph unicode="&#xe962;&#xe908;" horiz-adv-x="784" d="M475 1243q2 -4 4 -6q27 -35 44.5 -79t28.5 -89t17 -89t9 -79h260v-201h-209q-4 -26 -9.5 -68t-14.5 -89t-22.5 -96.5t-31.5 -90.5l-39 -12q-10 18 -17.5 40t-12.5 48.5t-7 61t-2 81.5q0 27 5 63t10.5 73t9.5 70.5t4 56.5q0 47 -9.5 99t-29 96t-49 73t-72.5 29 q-47 0 -85 -21.5t-62.5 -62.5t-38 -97.5t-13.5 -124.5q0 -47 20.5 -84.5t49.5 -67.5t58.5 -51.5t47.5 -31.5l-65 -279h-33q-6 37 -16 76t-22.5 75t-26 67.5t-27.5 56.5q-2 -29 -10 -58.5t-19.5 -54t-25.5 -40.5q-13 -15 -29 -15h-4v278h-41v201h70q8 98 32.5 175t59.5 128 t82 80t98 29q43 0 78 -21q6 -6 12 -10l19 127l-43 -2q-91 0 -133 50t-42 130q0 31 6.5 59.5t28.5 59.5q4 -41 15.5 -67.5t29 -43t45 -23.5t64.5 -7t64.5 -7.5t39.5 -19.5l-49 -297z" />
<glyph unicode="&#xe989;&#xe825;" horiz-adv-x="1300" d="M1226 501v-360q0 -75 -13.5 -129.5t-40 -96t-65.5 -71t-90 -52.5q-30 -13 -47.5 -23t-29.5 -22t-20.5 -27.5t-22.5 -39.5h-19l58 248q12 3 23 6t25 8t29.5 13t38.5 21q13 7 29 19t31 31t25.5 47.5t10.5 67.5v360q0 98 -37.5 149t-102.5 51h-343q-2 -26 -7 -67t-14 -88 t-22.5 -95.5t-32.5 -88.5l-39 -12q-9 18 -16 39t-12 48t-6.5 61t-1.5 81q0 25 4 60.5t9 72t9.5 70t4.5 56.5q0 46 -14 97t-39.5 95t-60.5 72t-77 28q-45 0 -84.5 -17.5t-71.5 -48t-53 -72.5t-28 -92h173v-199h-149q15 -36 36 -72t46 -70t52.5 -64t52.5 -56l-23 -222h-23 q-6 13 -11.5 28.5t-14 33t-21.5 38.5t-35 46q-52 58 -82 112.5t-45.5 108.5t-20.5 108.5t-6 112.5v16q0 93 22 178q24 91 66.5 158.5t99.5 107.5t121 40q43 0 78.5 -20.5t64.5 -54t51.5 -76.5t37 -88t23.5 -88.5t10 -77.5h392q108 0 163 -99t55 -300z" />
<glyph unicode="&#xe989;&#xe823;" horiz-adv-x="817" d="M876 903v-204h-216q-2 -27 -5.5 -70t-11 -90.5t-19.5 -97.5t-33 -92l-25 -12q-11 19 -17.5 40.5t-10.5 49t-5 63t-1 82.5q0 27 4 63.5t8.5 74t7.5 72t3 57.5q0 47 -14 100t-39.5 98t-61.5 74t-80 29q-47 0 -88 -18t-73.5 -49.5t-54 -74.5t-29.5 -95h178v-204h-164 q14 -38 36 -75.5t48 -72t54 -65.5t54 -57l-13 -229h-22q-7 13 -12.5 29t-14.5 34.5t-22.5 40t-36.5 47.5q-52 59 -83.5 115t-47.5 112t-21 112t-6 115v16q0 97 23 184q24 94 68 163.5t102.5 110.5t125.5 41q65 0 115.5 -40t85.5 -101t53 -134.5t18 -141.5h243z" />
<glyph unicode="&#xe98a;&#xe823;" horiz-adv-x="809" d="M25 901q4 53 18 105q25 94 69 162.5t102 110.5t126 42q63 0 114.5 -41t86 -101.5t52 -134t17.5 -141.5h264v-205h-235q-2 -26 -6 -69t-11.5 -90t-19.5 -97.5t-33 -93.5l-24 -10q-13 18 -19 39.5t-10 49.5t-5 62.5t-1 81.5q0 27 4 64t8 75t7 71.5t3 58.5q0 47 -13 99 t-38.5 97t-61.5 75t-81 30q-47 0 -88 -18.5t-74 -50.5t-54.5 -75t-29.5 -94h178v-205h-164q15 -36 37.5 -74t48 -73t53 -65.5t54.5 -57.5l-12 -227h-23q-8 12 -13 28.5t-14.5 35t-22.5 40t-36 45.5q-51 60 -83 116t-48 112.5t-20 111.5q0 4 -2 10h-25v201h25z" />
<glyph unicode="&#xe98a;&#xe825;" horiz-adv-x="1300" d="M24 901q6 50 18 98q24 91 66.5 158.5t99.5 107.5t121 40q43 0 78.5 -20.5t64.5 -54t51.5 -76.5t37 -88t23.5 -88.5t10 -77.5h392q108 0 163 -99t55 -300v-360q0 -75 -13.5 -129.5t-40 -96t-65.5 -71t-90 -52.5q-30 -13 -47.5 -23t-29.5 -22t-20.5 -27.5t-22.5 -39.5h-19 l58 248q12 3 23 6t25 8t29.5 13t38.5 21q13 7 29 19t31 31t25.5 47.5t10.5 67.5v360q0 98 -37.5 149t-102.5 51h-343q-2 -26 -7 -67t-14 -88t-22.5 -95.5t-32.5 -88.5l-39 -12q-9 18 -16 39t-12 48t-6.5 61t-1.5 81q0 25 4 60.5t9 72t9.5 70t4.5 56.5q0 46 -14 97t-39.5 95 t-60.5 72t-77 28q-45 0 -84.5 -17.5t-71.5 -48t-53 -72.5t-28 -92h173v-199h-149q15 -36 36 -72t46 -70t52.5 -64t52.5 -56l-23 -222h-23q-6 13 -11.5 28.5t-14 33t-21.5 38.5t-35 46q-52 58 -82 112.5t-45.5 108.5t-20.5 109q0 3 -1 7h-25v201h24z" />
<glyph unicode="&#xe989;&#xe82d;" horiz-adv-x="1296" d="M1225 501v-360q0 -75 -13.5 -129.5t-40 -96t-65.5 -71t-90 -52.5q-30 -13 -47.5 -23t-29.5 -22t-20.5 -27.5t-22.5 -39.5h-19l58 248q12 3 23 6t25 8t29.5 13t38.5 21q13 7 29 19t31 31t25.5 47.5t10.5 67.5v360q0 98 -37.5 149t-102.5 51h-343q-2 -26 -7 -67t-14 -88 t-22.5 -95.5t-32.5 -88.5l-39 -12q-9 18 -16 39t-12 48t-6.5 61t-1.5 81q0 25 4 60.5t9 72t9.5 70t4.5 56.5q0 46 -14 97t-39.5 95t-60.5 72t-77 28q-45 0 -84.5 -17.5t-71.5 -48t-53 -72.5t-28 -92h173v-199h-149q15 -36 36 -72t46 -70t52.5 -64t52.5 -56l-23 -222h-23 q-6 13 -11.5 28.5t-14 33t-21.5 38.5t-35 46q-52 58 -82 112.5t-45.5 108.5t-20.5 108.5t-6 112.5v16q0 93 22 178q24 91 66.5 158.5t99.5 107.5t121 40q43 0 78.5 -20.5t64.5 -54t51.5 -76.5t37 -88t23.5 -88.5t10 -77.5h392q108 0 163 -99t55 -300z" />
<glyph unicode="&#xe989;&#xe82c;" horiz-adv-x="817" d="M875 903v-204h-216q-2 -27 -5.5 -70t-11 -90.5t-19.5 -97.5t-33 -92l-25 -12q-11 19 -17.5 40.5t-10.5 49t-5 63t-1 82.5q0 27 4 63.5t8.5 74t7.5 72t3 57.5q0 47 -14 100t-39.5 98t-61.5 74t-80 29q-47 0 -88 -18t-73.5 -49.5t-54 -74.5t-29.5 -95h178v-204h-164 q14 -38 36 -75.5t48 -72t54 -65.5t54 -57l-13 -229h-22q-7 13 -12.5 29t-14.5 34.5t-22.5 40t-36.5 47.5q-52 59 -83.5 115t-47.5 112t-21 112t-6 115v16q0 97 23 184q24 94 68 163.5t102.5 110.5t125.5 41q65 0 115.5 -40t85.5 -101t53 -134.5t18 -141.5h243z" />
<glyph unicode="&#xe98a;&#xe82c;" horiz-adv-x="817" d="M25 901q4 53 18 105q25 94 69 162.5t102 110.5t126 42q63 0 114.5 -41t86 -101.5t52 -134t17.5 -141.5h264v-205h-235q-2 -26 -6 -69t-11.5 -90t-19.5 -97.5t-33 -93.5l-24 -10q-13 18 -19 39.5t-10 49.5t-5 62.5t-1 81.5q0 27 4 64t8 75t7 71.5t3 58.5q0 47 -13 99 t-38.5 97t-61.5 75t-81 30q-47 0 -88 -18.5t-74 -50.5t-54.5 -75t-29.5 -94h178v-205h-164q15 -36 37.5 -74t48 -73t53 -65.5t54.5 -57.5l-12 -227h-23q-8 12 -13 28.5t-14.5 35t-22.5 40t-36 45.5q-51 60 -83 116t-48 112.5t-20 111.5q0 4 -2 10h-25v201h25z" />
<glyph unicode="&#xe98a;&#xe82d;" horiz-adv-x="1272" d="M24 901q6 50 18 98q24 91 66.5 158.5t99.5 107.5t121 40q43 0 78.5 -20.5t64.5 -54t51.5 -76.5t37 -88t23.5 -88.5t10 -77.5h392q108 0 163 -99t55 -300v-360q0 -75 -13.5 -129.5t-40 -96t-65.5 -71t-90 -52.5q-30 -13 -47.5 -23t-29.5 -22t-20.5 -27.5t-22.5 -39.5h-19 l58 248q12 3 23 6t25 8t29.5 13t38.5 21q13 7 29 19t31 31t25.5 47.5t10.5 67.5v360q0 98 -37.5 149t-102.5 51h-343q-2 -26 -7 -67t-14 -88t-22.5 -95.5t-32.5 -88.5l-39 -12q-9 18 -16 39t-12 48t-6.5 61t-1.5 81q0 25 4 60.5t9 72t9.5 70t4.5 56.5q0 46 -14 97t-39.5 95 t-60.5 72t-77 28q-45 0 -84.5 -17.5t-71.5 -48t-53 -72.5t-28 -92h173v-199h-149q15 -36 36 -72t46 -70t52.5 -64t52.5 -56l-23 -222h-23q-6 13 -11.5 28.5t-14 33t-21.5 38.5t-35 46q-52 58 -82 112.5t-45.5 108.5t-20.5 109q0 3 -1 7h-25v201h24z" />
<glyph unicode="&#xe989;&#xe837;" horiz-adv-x="1300" d="M1246 667v-103q0 -62 -21 -100.5t-53 -38.5v21q0 118 -43.5 184t-129.5 70h-378q16 -62 39 -110.5t45.5 -85t44.5 -63.5t37 -47l-34 -174h-25q-39 47 -77 111t-67.5 144t-48 174t-18.5 199q0 57 -3 116t-18 105t-43.5 76t-80.5 30q-63 0 -108 -25.5t-74.5 -65.5 t-47.5 -88.5t-29 -95.5h173v-200h-149q14 -37 35 -73t46 -70.5t53 -64t53 -54.5l-23 -224h-22q-6 13 -11.5 28t-15 33.5t-22.5 39t-35 45.5q-51 58 -82 113t-46 109.5t-20 109t-6 112.5v11q0 43 7 95q7 59 24.5 120t45 118.5t66 102.5t89 72t112.5 27q53 0 89.5 -21 t60 -56.5t35 -81t17 -96.5t5.5 -102q0 -50 -1 -93h483q83 -8 127.5 -68.5t44.5 -164.5z" />
<glyph unicode="&#xe989;&#xe834;" horiz-adv-x="948" d="M1017 900v-200h-396q16 -62 38.5 -110.5t45.5 -85.5t45 -63.5t38 -46.5l-35 -174h-25q-39 47 -77 111t-67.5 144t-47.5 173.5t-18 199.5q0 57 -3 115.5t-18 105t-44.5 76.5t-80.5 30q-64 0 -108.5 -25.5t-74 -65.5t-48 -88.5t-29.5 -95.5h173v-200h-148 q13 -37 34.5 -73.5t47 -70t53 -64t52.5 -55.5l-23 -224h-22q-7 14 -12.5 29t-14 33t-22 39t-35.5 46q-50 58 -81.5 113t-46.5 109t-20 109t-6 113v11q0 44 7 96q7 59 24.5 119.5t45 118t66 102t89 72t112.5 27.5q53 0 90 -21.5t60 -56.5t35 -81t17 -96.5t5 -101.5 q0 -49 -1 -93h426z" />
<glyph unicode="&#xe98a;&#xe834;" horiz-adv-x="934" d="M25 901l2 10q7 59 24.5 119.5t45 118t66 102t89 72t112.5 27.5q53 0 90 -21.5t60 -56.5t35 -81t17 -96.5t5 -101.5q0 -49 -1 -93h426v-200h-396q16 -62 38.5 -110.5t45.5 -85.5t45 -63.5t38 -46.5l-35 -174h-25q-39 47 -77 111t-67.5 144t-47.5 173.5t-18 199.5 q0 57 -3 115.5t-18 105t-44.5 76.5t-80.5 30q-64 0 -108.5 -25.5t-74 -65.5t-48 -88.5t-29.5 -95.5h173v-200h-148q13 -37 34.5 -73.5t47 -70t53 -64t52.5 -55.5l-23 -224h-22q-7 14 -12.5 29t-14 33t-22 39t-35.5 46q-50 58 -81.5 113t-46.5 109t-20 109q0 4 -1 9h-25v201 h25z" />
<glyph unicode="&#xe98a;&#xe837;" horiz-adv-x="1300" d="M25 901q1 4 2 9q7 59 24.5 120t45 118.5t66 102.5t89 72t112.5 27q53 0 89.5 -21t60 -56.5t35 -81t17 -96.5t5.5 -102q0 -50 -1 -93h483q83 -8 127.5 -68.5t44.5 -164.5v-103q0 -62 -21 -100.5t-53 -38.5v21q0 118 -43.5 184t-129.5 70h-378q16 -62 39 -110.5t45.5 -85 t44.5 -63.5t37 -47l-34 -174h-25q-39 47 -77 111t-67.5 144t-48 174t-18.5 199q0 57 -3 116t-18 105t-43.5 76t-80.5 30q-63 0 -108 -25.5t-74.5 -65.5t-47.5 -88.5t-29 -95.5h173v-200h-149q14 -37 35 -73t46 -70.5t53 -64t53 -54.5l-23 -224h-22q-6 13 -11.5 28t-15 33.5 t-22.5 39t-35 45.5q-51 58 -82 113t-46 109.5t-20 109.5q0 4 -1 8h-25v201h25z" />
<glyph unicode="&#xe989;&#xe83e;" horiz-adv-x="817" d="M747 900v-326q0 -59 -7.5 -108t-28 -84.5t-53 -55t-82.5 -19.5q-84 0 -128.5 70.5t-44.5 196.5v251q0 16 2.5 29.5t10.5 23.5t22 16t38 6h196q0 138 -63 208.5t-197 70.5q-64 0 -115 -20t-88 -56.5t-61 -88.5t-35 -114h176v-202h-151q14 -38 35.5 -74.5t47.5 -71.5 t53.5 -65.5t53.5 -55.5l-24 -227h-22q-6 13 -12 29t-14.5 34.5t-22 39t-35.5 46.5q-53 59 -84 114.5t-46.5 111t-20.5 111t-6 113.5v12q0 48 7 103q8 61 26.5 122t48 118.5t71.5 101.5t96 70.5t122 26.5q90 0 152.5 -34.5t102 -95.5t58.5 -145t22 -182zM676 698h-201v-88 q0 -70 23 -108.5t78 -38.5t77.5 40t22.5 107v88z" />
<glyph unicode="&#xe989;&#xe83c;" horiz-adv-x="895" d="M952 901v-201h-213v-120q0 -60 -8 -107t-27.5 -83t-52.5 -55.5t-82 -19.5q-82 0 -126 70t-44 195v247q0 15 2 28t10.5 23.5t21.5 16.5t36 6h195q0 135 -61.5 205t-194.5 70q-64 0 -114 -19.5t-87 -55.5t-60.5 -87t-33.5 -113h174v-201h-150q15 -36 36.5 -72t46 -71 t52 -64.5t54.5 -56.5l-25 -223h-20q-9 12 -14 27.5t-14 34t-22.5 40t-33.5 45.5q-52 60 -82.5 114t-47 108.5t-20.5 110t-6 112.5q0 51 8 112.5t25.5 122t47.5 116.5t70.5 99t94 70t121.5 27q90 0 151.5 -34t99 -94.5t57 -143.5t23.5 -179h213zM664 700h-197v-86 q0 -67 22.5 -105t75.5 -38t76 39t23 104v86z" />
<glyph unicode="&#xe98a;&#xe83c;" horiz-adv-x="881" d="M641 700h-197v-86q0 -67 22.5 -105t78.5 -38q53 0 74.5 39t21.5 104v86zM25 901q2 8 4 17q8 61 25.5 121.5t46 116.5t70.5 99t95 70t121 27q88 0 149.5 -34t100.5 -94.5t58.5 -143.5t23.5 -179h213v-201h-213v-120q0 -60 -8.5 -107t-27.5 -83t-52 -55.5t-82 -19.5 q-82 0 -126 70t-44 195v247q0 15 2 28t9 23.5t21.5 16.5t37.5 6h192q0 135 -61.5 205t-192.5 70q-63 0 -113.5 -19.5t-88.5 -55.5t-61.5 -87t-33.5 -113h174v-201h-147q12 -36 33.5 -72t47 -71t53.5 -64.5t52 -56.5l-22 -223h-23q-6 12 -11 27.5t-14.5 34t-22.5 40t-36 45.5 q-49 60 -81 114t-47 108.5t-19 109.5q0 4 -2 8h-25v201h25z" />
<glyph unicode="&#xe98a;&#xe83e;" horiz-adv-x="803" d="M655 698h-201v-88q0 -70 23 -108.5t78 -38.5t77.5 40t22.5 107v88zM25 901q1 8 2 17q8 61 26.5 122t48 118.5t71.5 101.5t96 70.5t122 26.5q90 0 152.5 -34.5t102 -95.5t58.5 -145t22 -182v-326q0 -59 -7.5 -108t-28 -84.5t-53 -55t-82.5 -19.5q-84 0 -128.5 70.5 t-44.5 196.5v251q0 16 2.5 29.5t10.5 23.5t22 16t38 6h196q0 138 -63 208.5t-197 70.5q-64 0 -115 -20t-88 -56.5t-61 -88.5t-35 -114h176v-202h-151q14 -38 35.5 -74.5t47.5 -71.5t53.5 -65.5t53.5 -55.5l-24 -227h-22q-6 13 -12 29t-14.5 34.5t-22 39t-35.5 46.5 q-53 59 -84 114.5t-46.5 111t-20.5 111.5q0 5 -1 10h-25v201h25z" />
<glyph unicode="&#xe989;&#xe846;" horiz-adv-x="817" d="M747 900v-326q0 -59 -7.5 -108t-28 -84.5t-53 -55t-82.5 -19.5q-84 0 -128.5 70.5t-44.5 196.5v251q0 16 2.5 29.5t10.5 23.5t22 16t38 6h196q0 138 -63 208.5t-197 70.5q-64 0 -115 -20t-88 -56.5t-61 -88.5t-35 -114h176v-202h-151q14 -38 35.5 -74.5t47.5 -71.5 t53.5 -65.5t53.5 -55.5l-24 -227h-22q-6 13 -12 29t-14.5 34.5t-22 39t-35.5 46.5q-53 59 -84 114.5t-46.5 111t-20.5 111t-6 113.5v12q0 48 7 103q8 61 26.5 122t48 118.5t71.5 101.5t96 70.5t122 26.5q90 0 152.5 -34.5t102 -95.5t58.5 -145t22 -182zM676 698h-201v-88 q0 -70 23 -108.5t78 -38.5t77.5 40t22.5 107v88z" />
<glyph unicode="&#xe989;&#xe844;" horiz-adv-x="899" d="M952 901v-201h-213v-120q0 -60 -8 -107t-27.5 -83t-52.5 -55.5t-82 -19.5q-82 0 -126 70t-44 195v247q0 15 2 28t10.5 23.5t21.5 16.5t36 6h195q0 135 -61.5 205t-194.5 70q-64 0 -114 -19.5t-87 -55.5t-60.5 -87t-33.5 -113h174v-201h-150q15 -36 36.5 -72t46 -71 t52 -64.5t54.5 -56.5l-25 -223h-20q-9 12 -14 27.5t-14 34t-22.5 40t-33.5 45.5q-52 60 -82.5 114t-47 108.5t-20.5 110t-6 112.5q0 51 8 112.5t25.5 122t47.5 116.5t70.5 99t94 70t121.5 27q90 0 151.5 -34t99 -94.5t57 -143.5t23.5 -179h213zM664 700h-197v-86 q0 -67 22.5 -105t75.5 -38t76 39t23 104v86z" />
<glyph unicode="&#xe98a;&#xe844;" horiz-adv-x="887" d="M641 700h-197v-86q0 -67 22.5 -105t78.5 -38q53 0 74.5 39t21.5 104v86zM25 901q2 8 4 17q8 61 25.5 121.5t46 116.5t70.5 99t95 70t121 27q88 0 149.5 -34t100.5 -94.5t58.5 -143.5t23.5 -179h213v-201h-213v-120q0 -60 -8.5 -107t-27.5 -83t-52 -55.5t-82 -19.5 q-82 0 -126 70t-44 195v247q0 15 2 28t9 23.5t21.5 16.5t37.5 6h192q0 135 -61.5 205t-192.5 70q-63 0 -113.5 -19.5t-88.5 -55.5t-61.5 -87t-33.5 -113h174v-201h-147q12 -36 33.5 -72t47 -71t53.5 -64.5t52 -56.5l-22 -223h-23q-6 12 -11 27.5t-14.5 34t-22.5 40t-36 45.5 q-49 60 -81 114t-47 108.5t-19 109.5q0 4 -2 8h-25v201h25z" />
<glyph unicode="&#xe98a;&#xe846;" horiz-adv-x="801" d="M655 698h-201v-88q0 -70 23 -108.5t78 -38.5t77.5 40t22.5 107v88zM25 901q1 8 2 17q8 61 26.5 122t48 118.5t71.5 101.5t96 70.5t122 26.5q90 0 152.5 -34.5t102 -95.5t58.5 -145t22 -182v-326q0 -59 -7.5 -108t-28 -84.5t-53 -55t-82.5 -19.5q-84 0 -128.5 70.5 t-44.5 196.5v251q0 16 2.5 29.5t10.5 23.5t22 16t38 6h196q0 138 -63 208.5t-197 70.5q-64 0 -115 -20t-88 -56.5t-61 -88.5t-35 -114h176v-202h-151q14 -38 35.5 -74.5t47.5 -71.5t53.5 -65.5t53.5 -55.5l-24 -227h-22q-6 13 -12 29t-14.5 34.5t-22 39t-35.5 46.5 q-53 59 -84 114.5t-46.5 111t-20.5 111.5q0 5 -1 10h-25v201h25z" />
<glyph unicode="&#xe989;&#xe84e;" horiz-adv-x="1268" d="M1209 667v-104q0 -63 -21.5 -101t-52.5 -38v20q0 119 -44 185.5t-131 70.5h-220v-123q0 -57 -8 -106t-28 -84t-52 -54t-82 -19q-82 0 -126 69t-44 194v249q0 16 2 29t10 22.5t22 16t37 6.5h194q0 136 -62 206t-194 70q-64 0 -115 -20t-87.5 -56t-60.5 -87t-34 -113h174 v-200h-149q14 -38 35.5 -74t47 -70.5t53 -64.5t52.5 -55l-23 -225h-22q-7 14 -12 29t-14 33t-22 39t-36 47q-52 58 -82.5 113t-46 109.5t-20.5 109.5t-6 114v11q0 46 8 101q8 61 26 121.5t47 117t70 100t95.5 70t121.5 26.5q89 0 150.5 -34t100.5 -94.5t57.5 -143.5 t22.5 -180h296q83 -8 128 -68.5t45 -164.5zM669 700h-199v-88q0 -69 22.5 -106.5t77.5 -37.5q54 0 76.5 39.5t22.5 104.5v88z" />
<glyph unicode="&#xe989;&#xe84b;" horiz-adv-x="1298" d="M1364 900v-200h-417l229 -325v-26l-48 -228h-26l-229 579h-136v-122q0 -58 -7 -106t-27 -83.5t-52.5 -54.5t-81.5 -19q-82 0 -126 69t-44 194v248q0 15 2.5 28.5t10 23.5t21.5 16t37 6h193q0 136 -61.5 205.5t-193.5 69.5q-64 0 -114.5 -20t-87.5 -55.5t-60.5 -86.5 t-32.5 -113h172v-200h-149q14 -38 36 -74t47 -70t52.5 -64t52.5 -55l-23 -225h-22q-7 14 -12 29.5t-14 33.5t-22 39t-35 45q-52 59 -82.5 113.5t-46 109.5t-20.5 109.5t-6 113.5v11q0 47 7 101q8 60 26.5 121t47 117.5t70 99.5t95.5 69.5t121 26.5q88 0 149.5 -34t101 -94.5 t57.5 -143.5t21 -179h627zM672 699h-200v-87q0 -70 22.5 -108t77.5 -38q54 0 77 39.5t23 106.5v87z" />
<glyph unicode="&#xe98a;&#xe84b;" horiz-adv-x="887" d="M641 700h-197v-86q0 -67 22.5 -105t78.5 -38q53 0 74.5 39t21.5 104v86zM25 901q2 8 4 17q8 61 25.5 121.5t46 116.5t70.5 99t95 70t121 27q88 0 149.5 -34t100.5 -94.5t58.5 -143.5t23.5 -179h213v-201h-213v-120q0 -60 -8.5 -107t-27.5 -83t-52 -55.5t-82 -19.5 q-82 0 -126 70t-44 195v247q0 15 2 28t9 23.5t21.5 16.5t37.5 6h192q0 135 -61.5 205t-192.5 70q-63 0 -113.5 -19.5t-88.5 -55.5t-61.5 -87t-33.5 -113h174v-201h-147q12 -36 33.5 -72t47 -71t53.5 -64.5t52 -56.5l-22 -223h-23q-6 12 -11 27.5t-14.5 34t-22.5 40t-36 45.5 q-49 60 -81 114t-47 108.5t-19 109.5q0 4 -2 8h-25v201h25z" />
<glyph unicode="&#xe98a;&#xe84e;" horiz-adv-x="801" d="M655 698h-201v-88q0 -70 23 -108.5t78 -38.5t77.5 40t22.5 107v88zM25 901q1 8 2 17q8 61 26.5 122t48 118.5t71.5 101.5t96 70.5t122 26.5q90 0 152.5 -34.5t102 -95.5t58.5 -145t22 -182v-326q0 -59 -7.5 -108t-28 -84.5t-53 -55t-82.5 -19.5q-84 0 -128.5 70.5 t-44.5 196.5v251q0 16 2.5 29.5t10.5 23.5t22 16t38 6h196q0 138 -63 208.5t-197 70.5q-64 0 -115 -20t-88 -56.5t-61 -88.5t-35 -114h176v-202h-151q14 -38 35.5 -74.5t47.5 -71.5t53.5 -65.5t53.5 -55.5l-24 -227h-22q-6 13 -12 29t-14.5 34.5t-22 39t-35.5 46.5 q-53 59 -84 114.5t-46.5 111t-20.5 111.5q0 5 -1 10h-25v201h25z" />
<glyph unicode="&#xe98a;&#xe84f;" horiz-adv-x="1262" d="M1189 667v-104q0 -63 -21.5 -101t-52.5 -38v20q0 119 -44 185.5t-131 70.5h-220v-123q0 -57 -8 -106t-28 -84t-52 -54t-82 -19q-82 0 -126 69t-44 194v249q0 16 2 29t10 22.5t22 16t37 6.5h194q0 136 -62 206t-194 70q-64 0 -115 -20t-87.5 -56t-60.5 -87t-34 -113h174 v-200h-149q14 -38 35.5 -74t47 -70.5t53 -64.5t52.5 -55l-23 -225h-22q-7 14 -12 29t-14 33t-22 39t-36 47q-52 58 -82.5 113t-46 109.5t-20.5 109.5t-6 114v11q0 46 8 101q8 61 26 121.5t47 117t70 100t95.5 70t121.5 26.5q89 0 150.5 -34t100.5 -94.5t57.5 -143.5 t22.5 -180h296q83 -8 128 -68.5t45 -164.5zM649 700h-199v-88q0 -69 22.5 -106.5t77.5 -37.5q54 0 76.5 39.5t22.5 104.5v88z" />
<glyph unicode="&#xe989;&#xe856;" horiz-adv-x="1268" d="M1209 667v-104q0 -63 -21.5 -101t-52.5 -38v20q0 119 -44 185.5t-131 70.5h-220v-123q0 -57 -8 -106t-28 -84t-52 -54t-82 -19q-82 0 -126 69t-44 194v249q0 16 2 29t10 22.5t22 16t37 6.5h194q0 136 -62 206t-194 70q-64 0 -115 -20t-87.5 -56t-60.5 -87t-34 -113h174 v-200h-149q14 -38 35.5 -74t47 -70.5t53 -64.5t52.5 -55l-23 -225h-22q-7 14 -12 29t-14 33t-22 39t-36 47q-52 58 -82.5 113t-46 109.5t-20.5 109.5t-6 114v11q0 46 8 101q8 61 26 121.5t47 117t70 100t95.5 70t121.5 26.5q89 0 150.5 -34t100.5 -94.5t57.5 -143.5 t22.5 -180h296q83 -8 128 -68.5t45 -164.5zM669 700h-199v-88q0 -69 22.5 -106.5t77.5 -37.5q54 0 76.5 39.5t22.5 104.5v88z" />
<glyph unicode="&#xe989;&#xe853;" horiz-adv-x="1298" d="M1364 900v-200h-417l229 -325v-26l-48 -228h-26l-229 579h-136v-122q0 -58 -7 -106t-27 -83.5t-52.5 -54.5t-81.5 -19q-82 0 -126 69t-44 194v248q0 15 2.5 28.5t10 23.5t21.5 16t37 6h193q0 136 -61.5 205.5t-193.5 69.5q-64 0 -114.5 -20t-87.5 -55.5t-60.5 -86.5 t-32.5 -113h172v-200h-149q14 -38 36 -74t47 -70t52.5 -64t52.5 -55l-23 -225h-22q-7 14 -12 29.5t-14 33.5t-22 39t-35 45q-52 59 -82.5 113.5t-46 109.5t-20.5 109.5t-6 113.5v11q0 47 7 101q8 60 26.5 121t47 117.5t70 99.5t95.5 69.5t121 26.5q88 0 149.5 -34t101 -94.5 t57.5 -143.5t21 -179h627zM672 699h-200v-87q0 -70 22.5 -108t77.5 -38q54 0 77 39.5t23 106.5v87z" />
<glyph unicode="&#xe98a;&#xe853;" horiz-adv-x="887" d="M641 700h-197v-86q0 -67 22.5 -105t78.5 -38q53 0 74.5 39t21.5 104v86zM25 901q2 8 4 17q8 61 25.5 121.5t46 116.5t70.5 99t95 70t121 27q88 0 149.5 -34t100.5 -94.5t58.5 -143.5t23.5 -179h213v-201h-213v-120q0 -60 -8.5 -107t-27.5 -83t-52 -55.5t-82 -19.5 q-82 0 -126 70t-44 195v247q0 15 2 28t9 23.5t21.5 16.5t37.5 6h192q0 135 -61.5 205t-192.5 70q-63 0 -113.5 -19.5t-88.5 -55.5t-61.5 -87t-33.5 -113h174v-201h-147q12 -36 33.5 -72t47 -71t53.5 -64.5t52 -56.5l-22 -223h-23q-6 12 -11 27.5t-14.5 34t-22.5 40t-36 45.5 q-49 60 -81 114t-47 108.5t-19 109.5q0 4 -2 8h-25v201h25z" />
<glyph unicode="&#xe98a;&#xe856;" horiz-adv-x="803" d="M655 698h-201v-88q0 -70 23 -108.5t78 -38.5t77.5 40t22.5 107v88zM25 901q1 8 2 17q8 61 26.5 122t48 118.5t71.5 101.5t96 70.5t122 26.5q90 0 152.5 -34.5t102 -95.5t58.5 -145t22 -182v-326q0 -59 -7.5 -108t-28 -84.5t-53 -55t-82.5 -19.5q-84 0 -128.5 70.5 t-44.5 196.5v251q0 16 2.5 29.5t10.5 23.5t22 16t38 6h196q0 138 -63 208.5t-197 70.5q-64 0 -115 -20t-88 -56.5t-61 -88.5t-35 -114h176v-202h-151q14 -38 35.5 -74.5t47.5 -71.5t53.5 -65.5t53.5 -55.5l-24 -227h-22q-6 13 -12 29t-14.5 34.5t-22 39t-35.5 46.5 q-53 59 -84 114.5t-46.5 111t-20.5 111.5q0 5 -1 10h-25v201h25z" />
<glyph unicode="&#xe98a;&#xe857;" horiz-adv-x="1272" d="M1189 667v-104q0 -63 -21.5 -101t-52.5 -38v20q0 119 -44 185.5t-131 70.5h-220v-123q0 -57 -8 -106t-28 -84t-52 -54t-82 -19q-82 0 -126 69t-44 194v249q0 16 2 29t10 22.5t22 16t37 6.5h194q0 136 -62 206t-194 70q-64 0 -115 -20t-87.5 -56t-60.5 -87t-34 -113h174 v-200h-149q14 -38 35.5 -74t47 -70.5t53 -64.5t52.5 -55l-23 -225h-22q-7 14 -12 29t-14 33t-22 39t-36 47q-52 58 -82.5 113t-46 109.5t-20.5 109.5t-6 114v11q0 46 8 101q8 61 26 121.5t47 117t70 100t95.5 70t121.5 26.5q89 0 150.5 -34t100.5 -94.5t57.5 -143.5 t22.5 -180h296q83 -8 128 -68.5t45 -164.5zM649 700h-199v-88q0 -69 22.5 -106.5t77.5 -37.5q54 0 76.5 39.5t22.5 104.5v88z" />
<glyph unicode="&#xe989;&#xe85d;" horiz-adv-x="1534" d="M1454 666v-105q0 -63 -21.5 -101t-52.5 -38v20q0 119 -44 185.5t-132 70.5h-579q16 -125 39.5 -200.5t51 -117.5t61.5 -56.5t71 -14.5q31 0 51.5 13.5t32.5 28t20.5 27.5t18.5 13q18 0 26.5 -19.5t8.5 -49.5q0 -35 -12.5 -65t-34 -53.5t-50 -35.5t-61.5 -12 q-57 0 -99 24.5t-73 67.5t-53.5 97t-37 115.5t-24.5 124t-20 120.5q-15 92 -29 177t-36.5 150.5t-58.5 105.5t-93 40q-39 0 -75 -21.5t-65.5 -58.5t-49 -88.5t-21.5 -110.5h174v-201h-150q15 -36 35.5 -73t47 -72t53 -64.5t53.5 -54.5l-25 -227h-20q-9 14 -14 29.5t-13 34 t-22.5 40t-34.5 45.5q-52 56 -82.5 110t-47 107.5t-21.5 107.5t-5 112q0 143 27.5 248.5t71.5 175t97.5 103.5t102.5 34q43 0 77 -19.5t59.5 -52.5t44 -77t32.5 -94t25.5 -104.5t21.5 -107.5h680q84 -6 129 -67.5t45 -165.5z" />
<glyph unicode="&#xe989;&#xe85c;" horiz-adv-x="1102" d="M1176 901v-201h-553q17 -125 40.5 -201t51 -117.5t61 -55t69.5 -13.5q32 0 51.5 12t32.5 27t21.5 27.5t17.5 12.5q19 0 27 -18t8 -51q0 -34 -12.5 -64t-33.5 -52.5t-49.5 -35.5t-62.5 -13q-56 0 -98 25t-73 67t-52.5 97t-36.5 115.5t-26 123.5t-20 119q-14 92 -28.5 177 t-36.5 150.5t-58 105t-93 39.5q-39 0 -75.5 -21.5t-65 -58.5t-48 -87t-22.5 -109h174v-201h-150q14 -37 36 -73.5t47 -71t52.5 -65t53.5 -55.5l-24 -225h-22q-6 14 -11.5 29t-14.5 33.5t-22 39t-35 46.5q-51 57 -81.5 110.5t-47 106.5t-21.5 107t-6 111q0 143 28 249 t71.5 175.5t96.5 103t103 33.5q44 0 78 -19.5t59 -52t43 -76.5t32.5 -95t25.5 -105t22 -105h577z" />
<glyph unicode="&#xe98a;&#xe85c;" horiz-adv-x="1079" d="M25 901q6 78 22 141q29 107 73 175.5t96 102.5t103 34q43 0 77 -19.5t59.5 -52.5t43 -77t33 -94t25.5 -104.5t23 -105.5h575v-201h-553q19 -125 42.5 -200.5t51 -117.5t60 -55.5t69.5 -13.5q31 0 51.5 12.5t33 27t20.5 26.5t18 12q19 0 27 -17.5t8 -49.5q0 -35 -12.5 -65 t-34 -52.5t-50 -35.5t-61.5 -13q-57 0 -99 25.5t-72.5 67.5t-52 96t-36 114.5t-26 124t-21.5 119.5q-12 92 -27.5 177t-37 150.5t-57.5 105.5t-93 40q-39 0 -76 -21.5t-65.5 -58.5t-48 -87t-21.5 -110h174v-201h-149q12 -36 34.5 -73t47 -72t52.5 -64.5t54 -56.5l-24 -223 h-23q-4 12 -10 27.5t-15.5 34t-21.5 39t-35 46.5q-51 58 -82 111t-47 106.5t-20 106.5q-2 8 -2 18h-25v201h25z" />
<glyph unicode="&#xe98a;&#xe85d;" horiz-adv-x="1522" d="M25 901q6 78 24 139q29 107 72 176.5t96 103.5t102 34q43 0 77 -19.5t59.5 -52.5t44 -77t33 -94t25.5 -104.5t22 -107.5h682q81 -6 127.5 -67.5t46.5 -165.5v-105q0 -63 -21.5 -101t-54.5 -38v20q0 119 -44 185.5t-130 70.5h-582q19 -125 41.5 -200.5t51 -117.5 t61.5 -56.5t69 -14.5q31 0 51.5 13.5t33 28t20.5 27.5t18 13q19 0 27 -19.5t8 -49.5q0 -35 -12 -65t-33.5 -53.5t-50.5 -35.5t-62 -12q-57 0 -99 24.5t-72.5 67.5t-52 97t-37 115.5t-26 124t-20.5 120.5q-14 92 -28.5 177t-37 150.5t-58.5 105.5t-93 40q-39 0 -74.5 -21.5 t-65.5 -58.5t-49.5 -88.5t-21.5 -110.5h174v-201h-149q14 -36 34.5 -73t47 -72t54.5 -64.5t52 -54.5l-22 -227h-23q-6 14 -12 29.5t-14.5 34t-21.5 40t-36 45.5q-51 56 -82 110t-47 107.5t-20 108.5q-2 8 -2 18h-25v201h25z" />
<glyph unicode="&#xe98a;&#xe904;" horiz-adv-x="811" d="M475 1262q37 -35 66 -82q34 -62 51.5 -135.5t17.5 -141.5h264v-205h-235q-2 -26 -6 -69t-11.5 -90t-19.5 -97.5t-33 -93.5l-24 -10q-13 18 -19 39.5t-10 49.5t-5 62.5t-1 81.5q0 27 4 64t8 75t7 71.5t3 58.5q0 47 -13 99t-38.5 97t-61.5 75t-81 30q-47 0 -88 -18.5 t-74 -50.5t-54.5 -75t-29.5 -94h178v-205h-164q15 -36 37.5 -74t48 -73t53 -65.5t54.5 -57.5l-12 -227h-23q-8 12 -13 28.5t-14.5 35t-22.5 40t-36 45.5q-51 60 -83 116t-48 112.5t-20 111.5q0 4 -2 10h-25v201h25q4 53 18 105q25 94 69 162.5t102 110.5t126 42q43 0 80 -18 l-39 243q10 10 39 18.5t63 8.5q39 0 65.5 6t44 23.5t29 44t17.5 65.5q20 -29 27.5 -58.5t7.5 -58.5q0 -79 -42 -129.5t-134 -50.5h-43l22 -153h-2z" />
<glyph unicode="&#xe98a;&#xe908;" horiz-adv-x="811" d="M469 1268q41 -37 72 -88q34 -62 51.5 -135.5t17.5 -141.5h264v-205h-235q-2 -26 -6 -69t-11.5 -90t-19.5 -97.5t-33 -93.5l-24 -10q-13 18 -19 39.5t-10 49.5t-5 62.5t-1 81.5q0 27 4 64t8 75t7 71.5t3 58.5q0 47 -13 99t-38.5 97t-61.5 75t-81 30q-47 0 -88 -18.5 t-74 -50.5t-54.5 -75t-29.5 -94h178v-205h-164q15 -36 37.5 -74t48 -73t53 -65.5t54.5 -57.5l-12 -227h-23q-8 12 -13 28.5t-14.5 35t-22.5 40t-36 45.5q-51 60 -83 116t-48 112.5t-20 111.5q0 4 -2 10h-25v201h25q4 53 18 105q25 94 69 162.5t102 110.5t126 42q45 0 84 -21 l16 130l-43 -3q-90 0 -132 50.5t-42 130.5q0 28 6.5 58t28.5 58q4 -38 15.5 -66t28.5 -44.5t45 -22.5t65 -6t65.5 -7t38.5 -19z" />
<glyph unicode="&#xe83a;&#xe83e;" horiz-adv-x="1204" d="M1139 870q0 -42 -9 -62.5t-15 -20.5q-16 0 -23.5 17t-16.5 69q-13 79 -35 137t-50.5 96t-64 57t-73.5 19q-181 0 -232 -282h264q94 0 94 -96v-208q0 -64 -10.5 -124.5t-35.5 -107.5t-67 -75t-104 -28q-48 0 -82.5 21t-58 56.5t-39 81.5t-23.5 93.5t-10.5 96t-2.5 87.5 h-145v-153q0 -135 -47 -209t-148 -74q-102 0 -153.5 74t-51.5 209v356h545q14 225 91 342.5t216 117.5q70 0 123.5 -36.5t90 -102.5t55 -155.5t18.5 -195.5zM907 697h-291q0 -60 2 -111t15.5 -88.5t43.5 -59.5t84 -22q55 0 84.5 21.5t43.5 58t16 88.5t2 113zM340 697h-280 v-153q0 -64 39 -96t108 -32q62 0 97.5 32t35.5 96v153z" />
<glyph unicode="&#xe872;&#xe84c;" horiz-adv-x="1298" d="M653 701h-211q0 -62 3.5 -105.5t14 -72t30 -42t52.5 -13.5q66 0 88.5 57t22.5 176zM277 901q46 0 69 -27t26 -71q2 44 25 71t68 27h174q-5 44 -21 92.5t-47 89.5t-78.5 68t-118.5 27q-46 0 -90 -18t-82.5 -52.5t-66.5 -86.5t-40 -120h182zM20 901q8 109 38 194 t77.5 142.5t109 87t129.5 29.5q92 0 156.5 -39t106 -103t62 -145.5t24.5 -165.5h636v-200h-409l229 -326v-27l-48 -229h-26l-230 582h-152q0 -91 -10 -163t-31.5 -121.5t-56 -76t-83.5 -26.5q-81 0 -124.5 60.5t-45.5 180.5q-3 -120 -47 -180.5t-124 -60.5q-50 0 -85 26.5 t-56.5 76t-30.5 121.5t-9 162h-20v201h20zM91 700q0 -118 22 -175t88 -57q33 0 53 13.5t30 42t13.5 72t3.5 105.5h-54v-1h-156z" />
<glyph unicode="&#xe872;&#xe854;" horiz-adv-x="1298" d="M653 701h-211q0 -62 3.5 -105.5t14 -72t30 -42t52.5 -13.5q66 0 88.5 57t22.5 176zM277 901q46 0 69 -27t26 -71q2 44 25 71t68 27h174q-5 44 -21 92.5t-47 89.5t-78.5 68t-118.5 27q-46 0 -90 -18t-82.5 -52.5t-66.5 -86.5t-40 -120h182zM20 901q8 109 38 194 t77.5 142.5t109 87t129.5 29.5q92 0 156.5 -39t106 -103t62 -145.5t24.5 -165.5h636v-200h-409l229 -326v-27l-48 -229h-26l-230 582h-152q0 -91 -10 -163t-31.5 -121.5t-56 -76t-83.5 -26.5q-81 0 -124.5 60.5t-45.5 180.5q-3 -120 -47 -180.5t-124 -60.5q-50 0 -85 26.5 t-56.5 76t-30.5 121.5t-9 162h-20v201h20zM91 700q0 -118 22 -175t88 -57q33 0 53 13.5t30 42t13.5 72t3.5 105.5h-54v-1h-156z" />
<glyph unicode="&#xe89a;&#xe84c;" horiz-adv-x="1366" d="M682 900q-5 44 -24 92.5t-54 89t-86.5 67t-120.5 26.5q-46 0 -93.5 -17.5t-89 -51.5t-73.5 -86t-44 -120h204q91 0 93 -92q3 41 26.5 66.5t66.5 25.5h195zM696 701h-232q0 -61 3.5 -104.5t14 -72t30 -42t52.5 -13.5q66 0 99 56.5t33 175.5zM22 901q8 107 42 193 q34 85 85.5 142t115.5 86.5t133 29.5q92 0 160 -39.5t113 -103t69 -145t28 -164.5h665v-200h-428l229 -325v-27l-48 -229h-25l-230 581h-163q0 -182 -51.5 -284t-150.5 -102q-81 0 -124.5 60.5t-46.5 180.5q-2 -100 -53.5 -157t-155.5 -70q-79 -9 -122.5 -27.5t-65.5 -29.5 q-2 14 -3 32.5t-1 28.5q0 38 7.5 66.5t30 49.5t63.5 34.5t106 20.5q28 4 49.5 11t36 22t22 42.5t7.5 69.5v52h-316v201h22z" />
<glyph unicode="&#xe89a;&#xe854;" horiz-adv-x="1352" d="M682 900q-5 44 -24 92.5t-54 89t-86.5 67t-120.5 26.5q-46 0 -93.5 -17.5t-89 -51.5t-73.5 -86t-44 -120h204q91 0 93 -92q3 41 26.5 66.5t66.5 25.5h195zM696 701h-232q0 -61 3.5 -104.5t14 -72t30 -42t52.5 -13.5q66 0 99 56.5t33 175.5zM22 901q8 107 42 193 q34 85 85.5 142t115.5 86.5t133 29.5q92 0 160 -39.5t113 -103t69 -145t28 -164.5h665v-200h-428l229 -325v-27l-48 -229h-25l-230 581h-163q0 -182 -51.5 -284t-150.5 -102q-81 0 -124.5 60.5t-46.5 180.5q-2 -100 -53.5 -157t-155.5 -70q-79 -9 -122.5 -27.5t-65.5 -29.5 q-2 14 -3 32.5t-1 28.5q0 38 7.5 66.5t30 49.5t63.5 34.5t106 20.5q28 4 49.5 11t36 22t22 42.5t7.5 69.5v52h-316v201h22z" />
<glyph unicode="&#xe8c4;&#xe84c;" horiz-adv-x="1298" d="M646 700h-177v-87q0 -43 4 -70.5t14 -44t26.5 -23t44.5 -6.5q27 0 43.5 7.5t26.5 24t14 45t4 67.5v87zM23 901q2 26 6 52q8 61 26 119t47.5 108.5t70 88t93.5 59.5t120 22q89 0 148.5 -29.5t97.5 -86.5t57 -141.5t27 -192.5h650v-200h-416l228 -324v-27l-48 -228h-26 l-228 579h-160v-144q0 -57 -6.5 -102t-23.5 -76t-48 -46.5t-80 -15.5q-82 0 -120 57.5t-38 182.5v270q0 16 2 29t9.5 23t22 16t36.5 6h171q0 136 -62 205.5t-193 69.5q-83 0 -138 -30.5t-88.5 -80.5t-47 -111t-13.5 -123q0 -74 10 -131t30 -106t47.5 -96t61.5 -102l-75 -157 q-40 56 -69 128t-48 150.5t-27 159.5q-2 12 -3 24h-26v201h23z" />
<glyph unicode="&#xe8c4;&#xe854;" horiz-adv-x="1298" d="M646 700h-177v-87q0 -43 4 -70.5t14 -44t26.5 -23t44.5 -6.5q27 0 43.5 7.5t26.5 24t14 45t4 67.5v87zM23 901q2 26 6 52q8 61 26 119t47.5 108.5t70 88t93.5 59.5t120 22q89 0 148.5 -29.5t97.5 -86.5t57 -141.5t27 -192.5h650v-200h-416l228 -324v-27l-48 -228h-26 l-228 579h-160v-144q0 -57 -6.5 -102t-23.5 -76t-48 -46.5t-80 -15.5q-82 0 -120 57.5t-38 182.5v270q0 16 2 29t9.5 23t22 16t36.5 6h171q0 136 -62 205.5t-193 69.5q-83 0 -138 -30.5t-88.5 -80.5t-47 -111t-13.5 -123q0 -74 10 -131t30 -106t47.5 -96t61.5 -102l-75 -157 q-40 56 -69 128t-48 150.5t-27 159.5q-2 12 -3 24h-26v201h23z" />
<glyph unicode="&#xe8e4;&#xe84c;" horiz-adv-x="1298" d="M646 700h-177v-87q0 -43 4 -70.5t14 -44t26.5 -23t44.5 -6.5q27 0 43.5 7.5t26.5 24t14 45t4 67.5v87zM23 901q2 26 6 52q8 61 26 119t47.5 108.5t70 88t93.5 59.5t120 22q89 0 148.5 -29.5t97.5 -86.5t57 -141.5t27 -192.5h650v-200h-416l228 -324v-27l-48 -228h-26 l-228 579h-160v-144q0 -57 -6.5 -102t-23.5 -76t-48 -46.5t-80 -15.5q-82 0 -120 57.5t-38 182.5v270q0 16 2 29t9.5 23t22 16t36.5 6h171q0 136 -62 205.5t-193 69.5q-83 0 -138 -30.5t-88.5 -80.5t-47 -111t-13.5 -123q0 -74 10 -131t30 -106t47.5 -96t61.5 -102l-75 -157 q-40 56 -69 128t-48 150.5t-27 159.5q-2 12 -3 24h-26v201h23z" />
<glyph unicode="&#xe8e4;&#xe854;" horiz-adv-x="1298" d="M646 700h-177v-87q0 -43 4 -70.5t14 -44t26.5 -23t44.5 -6.5q27 0 43.5 7.5t26.5 24t14 45t4 67.5v87zM23 901q2 26 6 52q8 61 26 119t47.5 108.5t70 88t93.5 59.5t120 22q89 0 148.5 -29.5t97.5 -86.5t57 -141.5t27 -192.5h650v-200h-416l228 -324v-27l-48 -228h-26 l-228 579h-160v-144q0 -57 -6.5 -102t-23.5 -76t-48 -46.5t-80 -15.5q-82 0 -120 57.5t-38 182.5v270q0 16 2 29t9.5 23t22 16t36.5 6h171q0 136 -62 205.5t-193 69.5q-83 0 -138 -30.5t-88.5 -80.5t-47 -111t-13.5 -123q0 -74 10 -131t30 -106t47.5 -96t61.5 -102l-75 -157 q-40 56 -69 128t-48 150.5t-27 159.5q-2 12 -3 24h-26v201h23z" />
<glyph unicode="&#xe93a;&#xe84c;" horiz-adv-x="1298" d="M638 900q-6 44 -21.5 92.5t-46 89t-78.5 67.5t-119 27q-45 0 -90 -17.5t-82.5 -52.5t-65.5 -86.5t-40 -119.5h183q44 0 67 -26.5t25 -71.5q3 45 26.5 71.5t67.5 26.5h174zM651 700h-210q0 -62 3.5 -105t14 -72t30 -42t53.5 -13q65 0 87 56.5t22 175.5zM301 700h-211 q0 -119 22.5 -175.5t87.5 -56.5q33 0 53 13t30.5 42t14 72t3.5 105zM20 901q8 108 38 193q30 84 77.5 141.5t108.5 87t129 29.5q92 0 156.5 -39.5t105.5 -102.5t62 -144.5t25 -165.5h639v-200h-417l229 -326v-26l-49 -229h-25l-230 581h-147q0 -91 -10 -162.5t-31.5 -121.5 t-55.5 -76t-83 -26q-82 0 -125.5 60.5t-46.5 180.5q-2 -120 -45.5 -180.5t-124.5 -60.5h-15q-8 -17 -10.5 -30.5t-2.5 -26.5q0 -26 7.5 -41.5t16.5 -29t16.5 -30t7.5 -44.5q0 -17 -6 -28t-15 -18.5t-18.5 -10t-18.5 -2.5q-49 0 -79 38.5t-30 96.5q0 34 17 76.5t39 79.5 q-49 42 -69 132.5t-20 223.5h-20v201h20z" />
<glyph unicode="&#xe93a;&#xe854;" horiz-adv-x="1298" d="M638 900q-6 44 -21.5 92.5t-46 89t-78.5 67.5t-119 27q-45 0 -90 -17.5t-82.5 -52.5t-65.5 -86.5t-40 -119.5h183q44 0 67 -26.5t25 -71.5q3 45 26.5 71.5t67.5 26.5h174zM651 700h-210q0 -62 3.5 -105t14 -72t30 -42t53.5 -13q65 0 87 56.5t22 175.5zM301 700h-211 q0 -119 22.5 -175.5t87.5 -56.5q33 0 53 13t30.5 42t14 72t3.5 105zM20 901q8 108 38 193q30 84 77.5 141.5t108.5 87t129 29.5q92 0 156.5 -39.5t105.5 -102.5t62 -144.5t25 -165.5h639v-200h-417l229 -326v-26l-49 -229h-25l-230 581h-147q0 -91 -10 -162.5t-31.5 -121.5 t-55.5 -76t-83 -26q-82 0 -125.5 60.5t-46.5 180.5q-2 -120 -45.5 -180.5t-124.5 -60.5h-15q-8 -17 -10.5 -30.5t-2.5 -26.5q0 -26 7.5 -41.5t16.5 -29t16.5 -30t7.5 -44.5q0 -17 -6 -28t-15 -18.5t-18.5 -10t-18.5 -2.5q-49 0 -79 38.5t-30 96.5q0 34 17 76.5t39 79.5 q-49 42 -69 132.5t-20 223.5h-20v201h20z" />
<glyph unicode="&#xe962;&#xe84c;" horiz-adv-x="1298" d="M648 701h-199v-87q0 -69 22.5 -107t77.5 -38q54 0 76.5 39.5t22.5 105.5v87zM20 901q9 83 33 165q23 81 67.5 145.5t110.5 103.5t158 39q89 0 149.5 -29.5t98.5 -87.5t58 -143t27 -194h637v-201h-440l230 -328v-26l-48 -230h-27l-231 584h-121v-123q0 -59 -7.5 -107.5 t-28 -84t-52.5 -54.5t-82 -19q-83 0 -127 69t-44 196v249q0 16 2 29t9.5 23.5t22 16.5t37.5 6h195q0 136 -62.5 206.5t-195.5 70.5q-71 0 -125 -22.5t-89 -61.5t-53 -89t-18 -104q0 -57 24 -107.5t56 -92t64.5 -70t49.5 -39.5l-65 -276h-32q-6 36 -16 74.5t-22 75t-25.5 68 t-28.5 54.5q-4 -27 -11.5 -56.5t-18.5 -55t-25 -41.5q-13 -13 -28 -13h-6v279h-20v201h20z" />
<glyph unicode="&#xe962;&#xe854;" horiz-adv-x="1298" d="M648 701h-199v-87q0 -69 22.5 -107t77.5 -38q54 0 76.5 39.5t22.5 105.5v87zM20 901q9 83 33 165q23 81 67.5 145.5t110.5 103.5t158 39q89 0 149.5 -29.5t98.5 -87.5t58 -143t27 -194h637v-201h-440l230 -328v-26l-48 -230h-27l-231 584h-121v-123q0 -59 -7.5 -107.5 t-28 -84t-52.5 -54.5t-82 -19q-83 0 -127 69t-44 196v249q0 16 2 29t9.5 23.5t22 16.5t37.5 6h195q0 136 -62.5 206.5t-195.5 70.5q-71 0 -125 -22.5t-89 -61.5t-53 -89t-18 -104q0 -57 24 -107.5t56 -92t64.5 -70t49.5 -39.5l-65 -276h-32q-6 36 -16 74.5t-22 75t-25.5 68 t-28.5 54.5q-4 -27 -11.5 -56.5t-18.5 -55t-25 -41.5q-13 -13 -28 -13h-6v279h-20v201h20z" />
<glyph unicode="&#xe98a;&#xe84c;" horiz-adv-x="1298" d="M651 699h-200v-87q0 -70 22.5 -108t77.5 -38q54 0 77 39.5t23 106.5v87zM25 901l2 16q8 60 26.5 121t47 117.5t70 99.5t95.5 69.5t121 26.5q88 0 149.5 -34t101 -94.5t57.5 -143.5t21 -179h637v-200h-427l229 -325v-26l-48 -228h-26l-229 579h-136v-122q0 -58 -7 -106 t-27 -83.5t-52.5 -54.5t-81.5 -19q-82 0 -126 69t-44 194v248q0 15 2.5 28.5t10 23.5t21.5 16t37 6h193q0 136 -61.5 205.5t-193.5 69.5q-64 0 -114.5 -20t-87.5 -55.5t-60.5 -86.5t-32.5 -113h172v-200h-149q14 -38 36 -74t47 -70t52.5 -64t52.5 -55l-23 -225h-22 q-7 14 -12 29.5t-14 33.5t-22 39t-35 45q-52 59 -82.5 113.5t-46 109.5t-20.5 110q0 4 -1 8h-25v201h25z" />
<glyph unicode="&#xe98a;&#xe854;" horiz-adv-x="1298" d="M651 699h-200v-87q0 -70 22.5 -108t77.5 -38q54 0 77 39.5t23 106.5v87zM25 901l2 16q8 60 26.5 121t47 117.5t70 99.5t95.5 69.5t121 26.5q88 0 149.5 -34t101 -94.5t57.5 -143.5t21 -179h637v-200h-427l229 -325v-26l-48 -228h-26l-229 579h-136v-122q0 -58 -7 -106 t-27 -83.5t-52.5 -54.5t-81.5 -19q-82 0 -126 69t-44 194v248q0 15 2.5 28.5t10 23.5t21.5 16t37 6h193q0 136 -61.5 205.5t-193.5 69.5q-64 0 -114.5 -20t-87.5 -55.5t-60.5 -86.5t-32.5 -113h172v-200h-149q14 -38 36 -74t47 -70t52.5 -64t52.5 -55l-23 -225h-22 q-7 14 -12 29.5t-14 33.5t-22 39t-35 45q-52 59 -82.5 113.5t-46 109.5t-20.5 110q0 4 -1 8h-25v201h25z" />
<glyph unicode="&#xe904;&#xe904;" horiz-adv-x="700" d="M737 899v-199h-200q-2 -26 -6.5 -73t-10.5 -98.5t-13 -97.5t-15 -73l-39 -12q-31 82 -52.5 172t-29.5 182h-160q-2 -26 -6 -73t-10.5 -98.5t-14.5 -97.5t-14 -73l-37 -12q-35 82 -55.5 172t-28.5 182h-45v199h39l-47 342q10 12 38.5 19.5t63.5 7.5q39 0 65.5 6t44 23.5 t29 44t15.5 67.5q22 -29 29.5 -58.5t7.5 -60.5q0 -80 -43 -130t-133 -50l-43 2l24 -213h320l-37 275q10 10 38.5 17t63.5 7q39 0 65.5 7t44 23.5t28 43t16.5 67.5q22 -28 29.5 -58t7.5 -60q0 -80 -43 -130.5t-134 -50.5l-43 2l17 -143h274z" />
<glyph unicode="&#xe904;&#xe908;" horiz-adv-x="754" d="M809 901v-201h-272q-2 -24 -7.5 -72t-10.5 -99.5t-12 -97.5t-15 -73l-39 -12q-33 82 -53.5 173t-28.5 181h-160l-6 -72t-10.5 -99.5t-13.5 -97.5t-15 -73l-39 -12q-33 82 -53.5 173t-28.5 181h-45v201h39l-47 340q10 12 38.5 19.5t63.5 7.5q39 0 65.5 7t44 23.5t29 43 t15.5 67.5q22 -31 28.5 -59.5t6.5 -59.5q0 -80 -42 -130t-132 -50l-43 2l24 -211h479l33 211l-41 -2q-92 0 -134 50t-42 130q0 31 7 59.5t30 59.5q4 -41 14 -67.5t27.5 -43t45.5 -23.5t66 -7q35 0 64 -7.5t39 -19.5l-57 -340h188z" />
<glyph unicode="&#xe908;&#xe908;" horiz-adv-x="698" d="M758 899v-199h-221q-2 -26 -7.5 -73t-10.5 -99.5t-12 -98.5t-15 -73l-39 -12q-33 84 -53.5 174t-28.5 182h-160q-2 -26 -7 -73t-10.5 -99.5t-13.5 -98.5t-14 -73l-39 -12q-33 84 -53.5 174t-30.5 182h-43v199h129l21 127l-44 -2q-90 0 -133 50t-43 130q0 31 7.5 60.5 t27.5 58.5q6 -39 17.5 -66.5t29 -44t44 -22.5t65.5 -6q35 0 63.5 -8.5t38.5 -20.5l-43 -256h324l18 127l-41 -2q-92 0 -134 50t-42 130q0 31 6 60.5t31 58.5q4 -39 14.5 -66.5t27.5 -44t45 -22.5t67 -6q34 0 63 -8.5t39 -20.5l-43 -256h203z" />
<glyph unicode="&#xe86a;&#xe865;" horiz-adv-x="1012" d="M1046 897v-204h-181q-2 -26 -7.5 -68.5t-14.5 -90t-22.5 -97t-34.5 -90.5l-38 -12q-11 19 -17.5 40t-11.5 48.5t-7 62.5t-2 82q0 26 5 55.5t11 62t11 69.5t6 78q0 21 -3 51t-10 63.5t-21 66.5t-33.5 59t-47 42t-62.5 16q-56 0 -97 -34t-67 -85t-38.5 -109t-12.5 -106 q0 -88 39.5 -184t123.5 -189l-52 -178h-19q-79 101 -124.5 215.5t-45.5 231.5h-106q-2 -26 -6.5 -73.5t-10 -99.5t-13 -99t-15.5 -74l-40 -12q-33 83 -53.5 174.5t-29.5 183.5v204h274q8 90 33 166t63.5 131t89.5 85.5t109 30.5q61 0 106.5 -31.5t76 -86.5t45.5 -130.5 t19 -164.5h231zM847 107q0 -11 -6.5 -19.5t-17 -18t-24.5 -20.5t-26 -25q-13 -13 -22 -25.5t-16 -22t-13.5 -15t-14.5 -5.5q-20 0 -32.5 9.5t-12.5 29.5q0 26 4 46.5t12 46.5q6 15 15 33t21 33t25.5 24.5t30.5 9.5q18 0 40 -20q37 -33 37 -61z" />
<glyph unicode="&#xe86a;&#xe8c7;" horiz-adv-x="1530" d="M1497 1150q-281 -342 -281 -725v-24q-42 22 -78 60t-65.5 81t-52.5 85t-38 73h-130q-2 -26 -7 -68t-14.5 -88.5t-22.5 -95.5t-33 -89l-39 -12q-9 18 -16.5 39t-12.5 48t-6.5 61.5t-1.5 80.5q0 26 5 55t11 61t11 68.5t6 76.5q0 21 -2.5 50.5t-10.5 62.5t-21 65.5t-33 58 t-46.5 41.5t-62.5 16q-54 0 -94 -34t-66 -84t-38 -107.5t-12 -103.5q0 -87 39 -182t122 -186l-51 -175h-20q-77 100 -122 212.5t-45 228.5h-104q-2 -26 -6.5 -73.5t-10 -98.5t-13.5 -97t-15 -72l-39 -12q-33 82 -53 172t-29 181v200h270q8 89 32.5 164t62.5 128.5t88 84 t108 30.5q60 0 104.5 -31t74 -85t45 -129t18.5 -162h227q0 -58 5.5 -99t16.5 -73t29 -58.5t42 -56.5q1 33 12.5 93t30 130t43.5 140t51 122q51 110 51 169q0 11 -3.5 30.5t-8 41t-8.5 40.5t-4 30q0 21 12 33.5t27 12.5q13 0 22.5 -12.5t16.5 -28.5z" />
<glyph unicode="&#xe86a;&#xe8e8;" horiz-adv-x="1528" d="M1497 1151q-280 -341 -280 -721v-29q-43 23 -79 61t-66 81t-52.5 85t-38.5 72h-129q-2 -26 -7 -68t-14.5 -88t-22.5 -95.5t-34 -90.5l-39 -12q-8 19 -15 40.5t-12.5 48t-7.5 61t-2 79.5q0 27 5.5 55.5t11.5 61.5t11 69t5 77q0 20 -2 50t-10 62.5t-21.5 65.5t-33 58.5 t-46 40.5t-63.5 15q-53 0 -93 -33.5t-65.5 -83.5t-38 -107.5t-12.5 -102.5q0 -88 39 -183.5t123 -185.5l-51 -176h-21q-78 100 -123 213t-45 229h-102q-2 -26 -7 -73t-10.5 -98.5t-13.5 -97.5t-14 -73l-39 -12q-35 82 -54.5 172t-27.5 182v199h268q8 90 33 165t62.5 128 t88 84t107.5 31q62 0 106 -31t73.5 -85t45 -129t19.5 -163h225q0 -57 6 -98t17.5 -73t29 -58.5t41.5 -57.5q0 33 12.5 93.5t31 130t43 140.5t51.5 122q51 110 51 170q0 10 -4 29.5t-8.5 41t-8.5 41t-4 29.5q0 21 12.5 33t26.5 12q12 0 22.5 -12t16.5 -29zM1749 322 q0 -11 -6 -19t-16.5 -18.5t-23.5 -20.5t-28 -24q-12 -15 -21 -26t-16.5 -21.5t-13.5 -15.5t-14 -5q-19 0 -31 9t-12 30q0 25 3 46.5t11 45.5q6 14 15.5 31.5t20.5 33t25.5 24.5t30.5 9q17 0 39 -18q37 -35 37 -61zM1491 397q0 -12 -7 -20t-17.5 -17.5t-23.5 -19.5t-28 -25 q-10 -14 -19.5 -26.5t-16.5 -21.5t-13 -14t-14 -5q-21 0 -33 8t-12 31q0 24 4 44.5t12 47.5q6 14 14.5 31.5t19.5 33t26.5 24.5t29.5 9q19 0 41 -20q37 -33 37 -60z" />
<glyph unicode="&#xe872;&#xe8c4;" horiz-adv-x="1266" d="M372 703v-3h-281q0 -58 3 -108q2 -51 15 -88.5t42.5 -58.5t83.5 -21q55 0 84.5 20.5t43 57t15.5 87.5t2 114h-8zM743 700q-2 -27 -6.5 -75t-10 -99.5t-13 -98t-15.5 -73.5l-39 -11q-24 53 -39 109.5t-26.5 115.5t-19.5 118.5t-15 117.5q-10 79 -28 148t-46.5 119.5 t-67.5 79t-91 28.5q-180 0 -230 -278h276v-1q80 -6 80 -95v-206q0 -64 -11 -124t-36 -106.5t-66 -74.5t-104 -28q-47 0 -81 21t-58 56.5t-38.5 81t-23 93t-11.5 95t-3 87.5h-20v201h20q16 222 92 339t214 117q67 0 119.5 -33.5t89.5 -93.5t59.5 -144t31.5 -185h705v-201 h-234q-2 -26 -7 -73.5t-10.5 -98.5t-13 -97.5t-14.5 -72.5l-40 -13q-33 82 -53 173t-29 182h-187z" />
<glyph unicode="&#xe872;&#xe8e5;" horiz-adv-x="1272" d="M373 702v-2h-283q0 -59 4 -108q2 -51 15.5 -88t42 -58.5t84.5 -21.5q55 0 83.5 20.5t43 57.5t16.5 88t2 112h-8zM743 700q-2 -26 -7 -74t-10 -100.5t-12 -98.5t-16 -73l-39 -12q-24 53 -39.5 110.5t-26.5 116t-19.5 117.5t-14.5 119q-10 78 -28.5 147.5t-46 119.5 t-66.5 79t-92 29q-181 0 -230 -279h277v-2q80 -4 80 -94v-207q0 -63 -11.5 -122.5t-36 -106.5t-65.5 -75t-104 -28q-48 0 -81.5 20.5t-58 56.5t-39 81t-22.5 93t-11.5 95t-3.5 88h-20v201h20q17 221 92.5 339t213.5 118q67 0 119.5 -34t89 -94.5t59 -144.5t33.5 -184h704 v-201h-233q-2 -26 -7.5 -73t-11.5 -98.5t-13 -97.5t-13 -73l-41 -14q-33 82 -53.5 173t-28.5 183h-187zM770 92q0 -10 -7 -19.5t-17.5 -18.5t-23.5 -19t-28 -25q-12 -14 -20 -26.5t-15.5 -21.5t-13.5 -14t-14 -5q-21 0 -33 8t-12 31q0 24 4 44.5t12 47.5q6 14 14.5 31.5 t19.5 33t26.5 24.5t29.5 9q19 0 41 -20q37 -33 37 -60zM1100 92q0 -10 -7.5 -19.5t-16.5 -18.5t-23.5 -19t-28.5 -25q-10 -14 -19.5 -26.5t-16.5 -21.5t-13 -14t-14 -5q-21 0 -33.5 8t-12.5 31q0 24 4.5 44.5t12.5 47.5q6 14 14 31.5t20.5 33t27 24.5t30.5 9t39 -20 q37 -33 37 -60z" />
<glyph unicode="&#xe89a;&#xe8c4;" horiz-adv-x="1235" d="M899 698h-190q-2 -26 -7.5 -74.5t-10.5 -99.5t-12 -97t-15 -73l-39 -12q-19 41 -33 99.5t-25.5 123t-18.5 125t-7 107.5q0 98 -20.5 170.5t-51.5 120t-69 70t-74 22.5q-181 0 -232 -279h279v-2q78 -6 78 -94v-182q0 -74 -12.5 -127.5t-39 -90t-65.5 -56t-92 -25.5 q-80 -9 -124 -28.5t-67 -29.5q-2 15 -4 33t-2 29q0 39 8 67.5t32 50t64.5 34t106.5 20.5q27 4 49.5 11t36.5 22.5t22.5 43t8.5 70.5v51h-353v2h-20v201h20q17 221 93 338q75 119 213 119q67 0 119.5 -33t89 -93.5t59 -144t33.5 -186.5h673v-201h-233q-2 -26 -7 -73 t-10.5 -98.5t-13.5 -97.5t-14 -73l-41 -14q-33 82 -51 174q-21 90 -31 180z" />
<glyph unicode="&#xe89a;&#xe8e5;" horiz-adv-x="1231" d="M899 698h-190q-2 -26 -7.5 -74.5t-10.5 -99.5t-12 -97t-15 -73l-39 -12q-19 41 -33 99.5t-25.5 123t-18.5 125t-7 107.5q0 98 -20.5 170.5t-51.5 120t-69 70t-74 22.5q-181 0 -232 -279h279v-2q78 -6 78 -94v-182q0 -74 -12.5 -127.5t-39 -90t-65.5 -56t-92 -25.5 q-80 -9 -124 -28.5t-67 -29.5q-2 15 -4 33t-2 29q0 39 8 67.5t32 50t64.5 34t106.5 20.5q27 4 49.5 11t36.5 22.5t22.5 43t8.5 70.5v51h-353v2h-20v201h20q17 221 93 338q75 119 213 119q67 0 119.5 -33t89 -93.5t59 -144t33.5 -186.5h673v-201h-233q-2 -26 -7 -73 t-10.5 -98.5t-13.5 -97.5t-14 -73l-41 -14q-33 82 -51 174q-21 90 -31 180zM1079 92q0 -10 -6 -19.5t-16 -18.5t-23.5 -19t-27.5 -25q-13 -14 -22 -26.5t-16 -21.5t-13.5 -14t-14.5 -5q-18 0 -30.5 8t-12.5 31q0 24 3 44.5t11 47.5q7 14 16 31.5t20 33t25.5 24.5t31.5 9 q16 0 38 -20q37 -33 37 -60zM750 92q0 -10 -7.5 -19.5t-16.5 -18.5t-23.5 -19t-26.5 -25q-12 -14 -21.5 -26.5t-16.5 -21.5t-13.5 -14t-14.5 -5q-18 0 -31.5 8t-13.5 31q0 24 4 44.5t13 47.5q6 14 14 31.5t20.5 33t26.5 24.5t31 9q16 0 39 -20q37 -33 37 -60z" />
<glyph unicode="&#xe93a;&#xe8c4;" horiz-adv-x="1225" d="M90 700q0 -59 2.5 -110t15.5 -87.5t42 -57.5t83 -21q53 0 82 20.5t43 57t16 86.5t2 112h-286zM850 701h-148q-2 -27 -6.5 -74t-10 -97.5t-13 -96.5t-15.5 -73l-39 -12q-32 82 -52.5 172t-29.5 181v192q-32 146 -86.5 214.5t-127.5 68.5q-178 0 -227 -274h277v-2 q74 -9 74 -95v-203q0 -63 -10 -122.5t-35 -105.5t-66 -74t-102 -28q-23 0 -40 4q-6 -14 -8 -28t-2 -26q0 -25 7 -40.5t16.5 -29t16.5 -30t7 -45.5q0 -17 -5.5 -27.5t-14.5 -18t-19 -10t-19 -2.5q-49 0 -78.5 38.5t-29.5 96.5q0 18 4.5 38t13 41.5t19.5 42t22 39.5 q-33 31 -53 79t-31 101t-15 107.5t-4 98.5h-20v201h20q8 107 33 192q24 84 63.5 141t91.5 86.5t114 29.5q66 0 118 -33t87 -92.5t54.5 -142.5t21.5 -182h688v-201h-234q-2 -26 -7 -73.5t-10.5 -98.5t-13 -97.5t-14.5 -72.5l-40 -13q-33 82 -53 173t-29 182h-40v1z" />
<glyph unicode="&#xe93a;&#xe8e5;" horiz-adv-x="1235" d="M90 700q0 -59 2 -110t15.5 -87t42 -57.5t83.5 -21.5q54 0 82.5 20.5t43 57.5t16.5 87t2 111h-287zM702 700q-2 -26 -7 -73t-10 -97.5t-12 -96.5t-16 -73l-39 -12q-32 82 -52.5 172t-28.5 180v193q-33 145 -87.5 214t-127.5 69q-179 0 -228 -275h279v-2q73 -8 73 -94v-203 q0 -63 -10 -122.5t-34.5 -105.5t-65.5 -74t-103 -28q-22 0 -40 4q-7 -14 -9 -28.5t-2 -26.5q0 -24 7.5 -39.5t16.5 -29t16 -30t7 -44.5q0 -19 -5 -29t-14 -17t-19.5 -10.5t-18.5 -3.5q-49 0 -79 39t-30 97q0 18 5.5 38.5t13.5 42t19.5 42t21.5 38.5q-33 31 -53.5 79 t-30.5 101.5t-14.5 107.5t-4.5 97h-20v201h20q9 109 33 193q25 84 64 141t91 87t114 30q65 0 117.5 -34t87 -93.5t54 -142.5t21.5 -181h688v-201h-233q-2 -26 -7.5 -73t-10.5 -98.5t-12 -97.5t-15 -73l-39 -14q-35 82 -54.5 173t-27.5 183h-189zM750 92q0 -10 -7.5 -19.5 t-16.5 -18.5t-23.5 -19t-26.5 -25q-12 -14 -21.5 -26.5t-16.5 -21.5t-13.5 -14t-14.5 -5q-18 0 -31.5 8t-13.5 31q0 24 4 44.5t13 47.5q6 14 14 31.5t20.5 33t26.5 24.5t31 9q16 0 39 -20q37 -33 37 -60zM1079 92q0 -10 -6 -19.5t-16 -18.5t-23.5 -19t-27.5 -25 q-13 -14 -22 -26.5t-16 -21.5t-13.5 -14t-14.5 -5q-18 0 -30.5 8t-12.5 31q0 24 3 44.5t11 47.5q7 14 16 31.5t20 33t25.5 24.5t31.5 9q16 0 38 -20q37 -33 37 -60z" />
<glyph unicode="&#xe962;&#xe8c4;" horiz-adv-x="1135" d="M628 700q-3 -27 -8 -68.5t-14.5 -89t-22.5 -96.5t-33 -90l-38 -12q-10 19 -17.5 40t-12.5 47.5t-6.5 62t-1.5 81.5q0 27 4.5 62.5t9.5 73t9.5 71t4.5 56.5q0 47 -9.5 99t-29 96t-49.5 73t-72 29q-48 0 -85 -22t-62.5 -62.5t-38 -97t-12.5 -124.5q0 -46 20.5 -84t48.5 -68 t58 -51.5t48 -32.5l-65 -277h-33q-6 37 -16 75.5t-22.5 74.5t-25.5 67.5t-27 55.5q-4 -27 -11.5 -57t-18.5 -55t-26 -41q-13 -14 -30 -14h-4v278h-40v201h70q8 98 32 174.5t59.5 128.5t82 80t99.5 28q43 0 77 -20.5t59.5 -54.5t43.5 -78t29.5 -89.5t17.5 -89.5t8 -79h623 v-201h-234q-2 -26 -7 -73.5t-10.5 -98.5t-13 -97.5t-14.5 -72.5l-40 -13q-33 82 -53 173t-29 182h-172z" />
<glyph unicode="&#xe962;&#xe8e5;" horiz-adv-x="1124" d="M659 92q0 -10 -7 -19.5t-16 -18.5t-23.5 -19t-26.5 -25q-13 -14 -22 -26.5t-16 -21.5t-13.5 -14t-14.5 -5q-18 0 -31.5 8t-13.5 31q0 24 4 44.5t13 47.5q6 14 14 31.5t20.5 33t26.5 24.5t31 9q16 0 39 -20q36 -33 36 -60zM989 92q0 -10 -6 -19.5t-16.5 -18.5t-23.5 -19 t-28 -25q-12 -14 -21 -26.5t-16.5 -21.5t-13.5 -14t-14 -5q-19 0 -31 8t-12 31q0 24 3 44.5t11 47.5q6 14 15.5 31.5t20.5 33t25.5 24.5t30.5 9q17 0 39 -20q37 -33 37 -60zM629 700q-4 -26 -9.5 -68t-14.5 -89t-22.5 -96.5t-31.5 -90.5l-39 -12q-10 18 -17.5 40t-12.5 48.5 t-7 61t-2 81.5q0 27 5 63t10.5 73t9.5 70.5t4 56.5q0 47 -9.5 99t-29 96t-49 73t-72.5 29q-47 0 -85 -21.5t-62.5 -62.5t-38 -97.5t-13.5 -124.5q0 -47 20.5 -84.5t49.5 -67.5t58.5 -51.5t47.5 -31.5l-65 -279h-33q-6 37 -16 76t-22.5 75t-26 67.5t-27.5 56.5 q-2 -29 -10 -58.5t-19.5 -54t-25.5 -40.5q-13 -15 -29 -15h-4v278h-41v201h70q8 98 32.5 175t59.5 128t82 80t98 29q43 0 78 -20.5t60.5 -55.5t43 -79t28.5 -89t17 -89t9 -79h622v-201h-233q-2 -26 -7.5 -73t-10.5 -98.5t-12 -97.5t-15 -73l-39 -14q-33 82 -53.5 173 t-28.5 183h-172z" />
<glyph unicode="&#xe98a;&#xe8c4;" horiz-adv-x="1120" d="M801 698h-162q-2 -26 -6 -69t-11.5 -90t-19.5 -97.5t-33 -93.5l-24 -10q-13 18 -19 39.5t-10 49.5t-5 62.5t-1 81.5q0 27 4 64t8 75t7 71.5t3 58.5q0 47 -13 99t-38.5 97t-61.5 75t-81 30q-47 0 -88 -18.5t-74 -50.5t-54.5 -75t-29.5 -94h178v-205h-164q15 -36 37.5 -74 t48 -73t53 -65.5t54.5 -57.5l-12 -227h-23q-8 12 -13 28.5t-14.5 35t-22.5 40t-36 45.5q-51 60 -83 116t-48 112.5t-20 111.5q0 4 -2 10h-25v201h25q4 53 18 105q25 94 69 162.5t102 110.5t126 42q63 0 114.5 -41t86 -101.5t52 -134t17.5 -141.5h264v-2h326v-201h-233 q-2 -26 -7.5 -73t-10.5 -98.5t-12 -97.5t-15 -73l-39 -14q-33 82 -54 174q-20 90 -28 180z" />
<glyph unicode="&#xe98a;&#xe8e5;" horiz-adv-x="1124" d="M659 92q0 -10 -7 -19.5t-16 -18.5t-23.5 -19t-26.5 -25q-13 -14 -22 -26.5t-16 -21.5t-13.5 -14t-14.5 -5q-18 0 -31.5 8t-13.5 31q0 24 4 44.5t13 47.5q6 14 14 31.5t20.5 33t26.5 24.5t31 9q16 0 39 -20q36 -33 36 -60zM989 92q0 -10 -6 -19.5t-16.5 -18.5t-23.5 -19 t-28 -25q-12 -14 -21 -26.5t-16.5 -21.5t-13.5 -14t-14 -5q-19 0 -31 8t-12 31q0 24 3 44.5t11 47.5q6 14 15.5 31.5t20.5 33t25.5 24.5t30.5 9q17 0 39 -20q37 -33 37 -60zM801 698h-162q-2 -26 -6 -69t-11.5 -90t-19.5 -97.5t-33 -93.5l-24 -10q-13 18 -19 39.5t-10 49.5 t-5 62.5t-1 81.5q0 27 4 64t8 75t7 71.5t3 58.5q0 47 -13 99t-38.5 97t-61.5 75t-81 30q-47 0 -88 -18.5t-74 -50.5t-54.5 -75t-29.5 -94h178v-205h-164q15 -36 37.5 -74t48 -73t53 -65.5t54.5 -57.5l-12 -227h-23q-8 12 -13 28.5t-14.5 35t-22.5 40t-36 45.5 q-51 60 -83 116t-48 112.5t-20 111.5q0 4 -2 10h-25v201h25q4 53 18 105q25 94 69 162.5t102 110.5t126 42q63 0 114.5 -41t86 -101.5t52 -134t17.5 -141.5h264v-2h326v-201h-233q-2 -26 -7.5 -73t-10.5 -98.5t-12 -97.5t-15 -73l-39 -14q-33 82 -54 174q-20 90 -28 180z " />
<glyph unicode="&#xd;" horiz-adv-x="1044" />
<glyph unicode=" "  horiz-adv-x="532" />
<glyph unicode="&#x09;" horiz-adv-x="532" />
<glyph unicode="&#xa0;" horiz-adv-x="532" />
<glyph unicode="!" horiz-adv-x="524" d="M324 385h-113l-47 977h207zM147 102q0 35 9.5 59.5t25 40t37 22.5t47.5 7q25 0 46.5 -7t37 -22.5t25.5 -40t10 -59.5q0 -34 -10 -59t-25.5 -41t-37 -23.5t-46.5 -7.5q-26 0 -47.5 7.5t-37 23.5t-25 41t-9.5 59z" />
<glyph unicode="&#x22;" horiz-adv-x="823" d="M292 1359l-33 -425h-93l-33 425h159zM581 1359l-33 -425h-91l-33 425h157z" />
<glyph unicode="#" horiz-adv-x="1255" d="M911 825l-57 -303h258v-127h-283l-75 -395h-138l78 395h-268l-76 -395h-133l72 395h-238v127h262l62 303h-254v127h276l76 400h135l-76 -400h273l78 400h133l-78 -400h242v-127h-269zM451 522h268l59 303h-268z" />
<glyph unicode="$" horiz-adv-x="1102" d="M932 412q0 -66 -23.5 -119t-66.5 -93t-105.5 -65.5t-142.5 -38.5v-215h-129v207q-47 0 -95 4t-93.5 13.5t-84 20.5t-69.5 28v161q31 -14 72 -29.5t86 -27.5t93 -20.5t91 -8.5v408q-84 29 -145.5 59.5t-102.5 70.5t-60.5 91t-19.5 123q0 61 23.5 113.5t65.5 91.5 t103.5 64.5t135.5 31.5v170h129v-166q94 -4 174 -23.5t141 -50.5l-61 -135q-53 25 -118.5 43.5t-135.5 24.5v-395q84 -29 147.5 -61t105.5 -70.5t63.5 -89t21.5 -117.5zM768 412q0 30 -10 56t-29.5 47.5t-53.5 38.5t-81 36v-350q88 12 131 58t43 114zM303 979q0 -35 8 -61.5 t26.5 -49t50.5 -40t77 -33.5v346q-84 -15 -123 -57t-39 -105z" />
<glyph unicode="%" horiz-adv-x="1599" d="M240 950q0 -151 32.5 -229t106.5 -78q145 0 145 307q0 305 -145 305q-74 0 -106.5 -75.5t-32.5 -229.5zM662 950q0 -100 -16.5 -180t-51.5 -134t-88 -84t-127 -30q-68 0 -119 30t-87 84t-53.5 134t-17.5 180q0 101 15.5 179.5t50.5 133t87 83t124 28.5q70 0 123 -28.5 t88 -83t53.5 -133t18.5 -179.5zM1059 408q0 -154 32.5 -230t106.5 -76q145 0 145 306q0 303 -145 303q-74 0 -106.5 -76t-32.5 -227zM1481 408q0 -101 -16.5 -181t-51.5 -134t-88 -83.5t-127 -29.5q-68 0 -120 29.5t-87 83.5t-52 134t-17 181q0 100 16 179t50 132t86 82.5 t124 29.5q70 0 122 -29.5t88 -82.5t54.5 -132t18.5 -179zM1241 1356l-752 -1356h-147l756 1356h143z" />
<glyph unicode="&#x26;" horiz-adv-x="1438" d="M395 1061q0 -31 7 -60.5t22 -59.5t39 -60.5t57 -63.5q53 32 92.5 60t65 57t38 61t12.5 70q0 33 -11 60.5t-32.5 47.5t-51.5 31.5t-69 11.5q-78 0 -123.5 -40.5t-45.5 -114.5zM518 127q53 0 97.5 10.5t83 28.5t71 43t62.5 53l-354 371q-47 -30 -83.5 -58.5t-61.5 -61.5 t-38 -72t-13 -90q0 -49 16 -90.5t46 -71t74 -46t100 -16.5zM109 346q0 71 18 126.5t53.5 101.5t86 85t115.5 77q-29 33 -56 68t-47.5 75t-33.5 85t-13 97q0 68 23 122.5t66 92.5t105.5 57.5t143.5 19.5q75 0 135 -19.5t101.5 -57.5t63.5 -92.5t22 -122.5q0 -58 -23 -108 t-61.5 -92.5t-88 -78.5t-104.5 -69l321 -339q25 27 44.5 54t35 58t28 66.5t21.5 78.5h168q-14 -60 -32.5 -110.5t-42.5 -95.5t-54 -83.5t-65 -75.5l252 -268h-205l-153 157q-45 -41 -88.5 -73.5t-93 -54.5t-106 -34.5t-127.5 -12.5q-96 0 -172 24t-128.5 71t-80.5 115 t-28 156z" />
<glyph unicode="'" horiz-adv-x="399" d="M293 1364l-33 -430h-94l-33 430h160z" />
<glyph unicode="(" horiz-adv-x="616" d="M82 790q0 118 17 232.5t52 222.5t88 207.5t127 187.5h162q-132 -182 -200.5 -400t-68.5 -448q0 -112 17.5 -223t51 -217.5t83.5 -206.5t115 -189h-160q-74 85 -127 182t-88 203t-52 219.5t-17 229.5z" />
<glyph unicode=")" horiz-adv-x="596" d="M508 788q0 -116 -17.5 -229t-52.5 -218t-88 -202.5t-127 -181.5h-160q66 86 115 186.5t83 207t51.5 218t17.5 222.5q0 229 -67.5 446t-201.5 399h162q74 -88 127 -187t88 -206.5t52.5 -222.5t17.5 -232z" />
<glyph unicode="*" horiz-adv-x="1071" d="M543 1364l-33 -311l313 88l21 -154l-299 -22l194 -258l-141 -76l-139 284l-125 -284l-148 76l193 258l-297 22l22 154l312 -88l-35 311h162z" />
<glyph unicode="+" horiz-adv-x="1096" d="M453 724h-351v136h351v353h136v-353h351v-136h-351v-349h-136v349z" />
<glyph unicode="," horiz-adv-x="512" d="M362 238l15 -23q-14 -54 -33.5 -115t-43 -123t-49 -123.5t-50.5 -117.5h-138q15 61 29.5 127t28 131.5t24.5 128t19 115.5h198z" />
<glyph unicode="-" horiz-adv-x="659" d="M82 715v158h466v-158h-466z" />
<glyph unicode="." horiz-adv-x="549" d="M147 111q0 38 10 64.5t27 43t40 24t50 7.5q26 0 49.5 -7.5t40.5 -24t27 -43t10 -64.5q0 -37 -10 -63.5t-27 -43.5t-40.5 -25t-49.5 -8q-27 0 -50 8t-40 25t-27 43.5t-10 63.5z" />
<glyph unicode="/" horiz-adv-x="733" d="M688 1471l-503 -1351h-165l504 1351h164z" />
<glyph unicode="0" horiz-adv-x="1059" d="M957 672q0 -162 -23.5 -291t-75.5 -218t-134 -136t-198 -47q-109 0 -189.5 47t-133.5 136t-79 218t-26 291q0 163 23.5 292t74.5 217.5t132.5 135.5t197.5 47q109 0 190 -46.5t134.5 -135t80 -217.5t26.5 -293zM268 672q0 -137 14 -240t44 -171.5t79.5 -103t120.5 -34.5 q70 0 120 34t81.5 102t46 171.5t14.5 241.5t-14.5 241t-46 171t-81.5 102.5t-120 34.5q-71 0 -120.5 -34.5t-79.5 -102.5t-44 -171t-14 -241z" />
<glyph unicode="1" horiz-adv-x="963" d="M669 0h-162v841q0 40 0.5 85t2 89.5t2.5 85.5t2 73q-15 -17 -27 -29t-24.5 -23t-26.5 -23.5t-33 -28.5l-137 -112l-88 113l353 276h138v-1347z" />
<glyph unicode="2" horiz-adv-x="1069" d="M928 0h-832v142l319 348q69 74 122.5 135t91.5 119.5t58 117.5t20 128q0 54 -15.5 95t-44 69.5t-68 43t-87.5 14.5q-87 0 -156.5 -35t-132.5 -89l-93 108q36 33 78 61.5t90.5 49.5t102 33.5t113.5 12.5q87 0 158 -24.5t120 -70.5t76 -112.5t27 -149.5q0 -77 -24 -147.5 t-66.5 -138.5t-101.5 -136.5t-127 -141.5l-257 -273v-8h629v-151z" />
<glyph unicode="3" horiz-adv-x="1128" d="M887 1024q0 -67 -21 -122t-59 -95.5t-91.5 -66.5t-118.5 -37v-5q163 -20 247 -103t84 -216q0 -88 -30 -161t-90 -126t-152.5 -82.5t-219.5 -29.5q-99 0 -187.5 15.5t-166.5 56.5v156q80 -42 173 -65t178 -23q84 0 145.5 18.5t101 52t58.5 83t19 111.5t-24.5 106.5t-69 73 t-109.5 42.5t-146 14h-122v138h122q74 0 131.5 18.5t96.5 52.5t59.5 80.5t20.5 102.5q0 47 -16.5 84.5t-47 64t-72.5 40t-93 13.5q-98 0 -173 -30.5t-142 -80.5l-85 115q35 28 77.5 53t93 43.5t108 29.5t121.5 11q99 0 173.5 -24.5t125 -69t76 -105.5t25.5 -133z" />
<glyph unicode="4" horiz-adv-x="1128" d="M1008 304h-197v-304h-163v304h-625v147l614 910h174v-904h197v-153zM648 457v330q0 52 1.5 109t3 111t4 101t3.5 79h-8q-7 -19 -16.5 -41.5t-21 -45t-23.5 -44t-23 -36.5l-380 -563h460z" />
<glyph unicode="5" horiz-adv-x="1085" d="M515 829q91 0 170.5 -25t138 -75.5t92 -124.5t33.5 -171q0 -106 -31.5 -190t-93.5 -142.5t-153.5 -89.5t-209.5 -31q-47 0 -93 4.5t-88 13.5t-80 23t-69 32v160q31 -22 72 -38.5t86.5 -27.5t91.5 -17t84 -6q74 0 131 17t97 53t61.5 90.5t21.5 129.5q0 133 -81.5 203 t-237.5 70q-25 0 -54 -2.5t-58.5 -6t-55.5 -8t-46 -7.5l-83 53l51 637h639v-154h-493l-36 -388q30 6 78.5 12t115.5 6z" />
<glyph unicode="6" horiz-adv-x="1100" d="M113 569q0 97 9 191t33.5 182t66.5 163t106.5 130t155.5 87t212 32q19 0 39.5 -1t42 -3t41 -6.5t35.5 -8.5v-141q-33 10 -73 16.5t-79 6.5q-81 0 -143.5 -19.5t-109 -55.5t-77 -85t-50 -109.5t-27.5 -128t-12 -139.5h12q16 33 43 60.5t61.5 49t77.5 33t96 11.5 q89 0 159.5 -27t118.5 -79t75.5 -128t27.5 -172q0 -104 -28.5 -187t-80.5 -140.5t-128 -89t-168 -31.5t-171 35.5t-138.5 108.5t-93 183.5t-33.5 261.5zM547 121q55 0 100 18.5t78 56t51.5 95t18.5 137.5q0 64 -15.5 115t-46.5 87t-76 54t-104 18q-61 0 -112.5 -20 t-86.5 -55t-55 -79t-20 -87q0 -62 17 -122t51 -109.5t83 -79t117 -29.5z" />
<glyph unicode="7" horiz-adv-x="1096" d="M267 0l521 1199h-698v154h870v-134l-514 -1219h-179z" />
<glyph unicode="8" horiz-adv-x="1094" d="M524 1354q76 0 144.5 -20.5t120 -60.5t82 -100.5t30.5 -140.5q0 -61 -18.5 -110.5t-50 -89t-75.5 -71.5t-95 -56q53 -29 103 -64t90 -78t63.5 -97t23.5 -120q0 -84 -29.5 -151.5t-85 -115.5t-132.5 -73.5t-171 -25.5q-100 0 -178 24.5t-131 70.5t-81 113.5t-28 151.5 q0 68 20.5 122t54.5 98t82 78t102 58q-46 29 -84.5 63t-67.5 74.5t-46 90t-17 110.5q0 78 30.5 138.5t82.5 100.5t120 60.5t141 20.5zM268 338q0 -49 15.5 -90t46 -69.5t78 -44t112.5 -15.5q66 0 114 15.5t81 45t49 71.5t16 93q0 47 -17.5 86t-50 72t-79.5 61.5t-105 57.5 l-26 12q-117 -55 -175.5 -126t-58.5 -169zM522 1214q-96 0 -153.5 -48t-57.5 -142q0 -51 16.5 -88t45 -66.5t67.5 -52t86 -45.5q43 21 82 44.5t68 53t45 68.5t16 86q0 94 -57 142t-158 48z" />
<glyph unicode="9" horiz-adv-x="1128" d="M948 764q0 -96 -9.5 -191.5t-33.5 -182.5t-66 -162t-107 -130t-155.5 -86.5t-211.5 -31.5q-18 0 -39 1t-42 3t-41 5t-36 7v143q32 -12 72.5 -17.5t79.5 -5.5q123 0 202.5 43t126 116.5t66.5 171.5t24 206h-12q-18 -33 -43.5 -61t-60 -49t-78.5 -33t-98 -12q-87 0 -157 27 t-119.5 79t-76.5 127.5t-27 172.5q0 104 29 187.5t81.5 141.5t127.5 89t169 31q92 0 171.5 -35.5t138 -108.5t92 -184t33.5 -261zM517 1220q-55 0 -100.5 -18.5t-79 -57t-51 -97t-17.5 -138.5q0 -64 15 -115t45.5 -87t76 -55.5t105.5 -19.5q63 0 113.5 22t86 56t55.5 78.5 t20 88.5q0 61 -17 122.5t-50.5 110.5t-84 79.5t-117.5 30.5z" />
<glyph unicode=":" horiz-adv-x="502" d="M147 96q0 33 9.5 57.5t24 39t35 21.5t44.5 7q25 0 45.5 -7t35.5 -21.5t24.5 -39t9.5 -57.5t-9.5 -56.5t-24.5 -38.5t-35.5 -22.5t-45.5 -7.5q-24 0 -44.5 7.5t-35 22.5t-24 38.5t-9.5 56.5zM147 881q0 34 9.5 58t24 38t35 20.5t44.5 6.5q25 0 45.5 -6.5t35.5 -20.5 t24.5 -38t9.5 -58q0 -33 -9.5 -56.5t-24.5 -39t-35.5 -22.5t-45.5 -7q-24 0 -44.5 7t-35 22.5t-24 39t-9.5 56.5z" />
<glyph unicode=";" horiz-adv-x="500" d="M336 193l12 -21q-12 -49 -29.5 -104.5t-39 -111.5t-44 -112.5t-47.5 -107.5h-125q15 55 27 115.5t25.5 120t22.5 116.5t18 105h180zM139 877q0 34 9.5 59t24.5 39t36.5 21.5t46.5 7.5q23 0 44.5 -7.5t36.5 -21.5t24.5 -39t9.5 -59q0 -35 -9.5 -58.5t-24.5 -39 t-36.5 -22.5t-44.5 -7q-25 0 -46.5 7t-36.5 22.5t-24.5 39t-9.5 58.5z" />
<glyph unicode="&#x3c;" horiz-adv-x="1094" d="M924 379l-822 377v90l822 426v-142l-654 -323l654 -287v-141z" />
<glyph unicode="=" horiz-adv-x="1096" d="M102 912v135h834v-135h-834zM102 542v135h834v-135h-834z" />
<glyph unicode="&#x3e;" horiz-adv-x="1085" d="M102 490l651 285l-651 322v142l817 -426v-90l-817 -375v142z" />
<glyph unicode="?" horiz-adv-x="838" d="M258 375v33q0 53 7 94t24.5 77.5t48.5 71.5t76 74q43 37 73.5 67.5t51 62.5t30 67.5t9.5 83.5q0 45 -13.5 79.5t-40 61.5t-64.5 41t-89 14q-76 0 -144.5 -24.5t-132.5 -55.5l-57 133q74 37 160 65t174 28q84 0 151.5 -24t114.5 -68t72.5 -106.5t25.5 -141.5 q0 -62 -12 -109t-36.5 -89t-60.5 -80t-85 -81q-47 -41 -78 -70.5t-48.5 -58t-23.5 -59.5t-6 -70v-16h-127zM215 98q0 35 9 58.5t24.5 39t36 22.5t47.5 7q22 0 43.5 -7t37 -22.5t24.5 -39t9 -58.5q0 -32 -9 -57t-24.5 -40t-37 -22.5t-43.5 -7.5q-27 0 -47.5 7.5t-36 22.5 t-24.5 40t-9 57z" />
<glyph unicode="@" horiz-adv-x="1702" d="M1563 670q0 -58 -9.5 -116t-27 -111.5t-44 -98.5t-62.5 -78t-81 -52t-98 -19q-43 0 -77 13t-58.5 36.5t-39.5 54.5t-22 63h-2q-18 -34 -42.5 -65t-58.5 -54.5t-75 -35.5t-90 -12q-71 0 -126.5 26.5t-94.5 73.5t-59.5 112.5t-20.5 147.5q0 92 27.5 171t80 136.5t126 88 t165.5 30.5q41 0 83 -3t80 -9t71 -14.5t53 -16.5l-20 -387q0 -23 -1 -35t-1 -19v-18q0 -49 9 -80.5t25.5 -50t37 -26t40.5 -7.5q43 0 76 29t55.5 77t32.5 113.5t10 137.5q0 133 -39.5 236.5t-110.5 174t-168 107.5t-212 37q-160 0 -279.5 -52.5t-201.5 -144.5t-124 -220 t-42 -280q0 -141 37 -249.5t108.5 -183t178 -112.5t241.5 -38q57 0 112.5 6t107.5 17.5t99.5 25.5t86.5 31v-131q-80 -37 -180.5 -57.5t-223.5 -20.5q-166 0 -298 48t-222 138t-138 222t-48 298q0 176 55 328t157.5 263.5t248 175t325.5 63.5q145 0 267 -47t211 -136.5 t139.5 -215.5t50.5 -285zM625 551q0 -125 48 -180.5t126 -55.5q51 0 88 20.5t60.5 59.5t34.5 93.5t15 117.5l15 236q-27 8 -63 14t-75 6q-69 0 -116 -26.5t-77 -70.5t-43 -100.5t-13 -113.5z" />
<glyph unicode="A" horiz-adv-x="1155" d="M978 0l-148 420h-506l-150 -420h-174l498 1361h157l499 -1361h-176zM775 573l-137 393q-6 17 -13.5 41t-16 52t-17 58t-15.5 59q-7 -29 -15 -59.5t-16.5 -59t-16.5 -52t-13 -39.5l-135 -393h395z" />
<glyph unicode="B" horiz-adv-x="1202" d="M199 1354h368q119 0 210 -17.5t151.5 -58.5t91.5 -105.5t31 -160.5q0 -58 -18.5 -108t-53.5 -88t-85 -63.5t-114 -33.5v-10q64 -11 120 -31.5t98 -57t65.5 -93t23.5 -134.5q0 -94 -29.5 -165.5t-87 -123t-138 -78t-185.5 -26.5h-448v1354zM371 780h227q78 0 130 14.5 t85 41t47 67.5t14 96q0 111 -71.5 159t-224.5 48h-207v-426zM371 635v-490h247q80 0 135.5 18.5t89.5 52.5t48 81t14 102q0 54 -14 97t-49 73.5t-92.5 48t-143.5 17.5h-235z" />
<glyph unicode="C" horiz-adv-x="1174" d="M731 1196q-96 0 -175 -37t-135 -105.5t-87 -168t-31 -223.5q0 -127 27.5 -226.5t81 -168t133.5 -103.5t186 -35q82 0 154.5 15.5t142.5 35.5v-145q-35 -15 -69.5 -25t-73.5 -17t-83 -10t-97 -3q-150 0 -258.5 49t-180 139t-106.5 217t-35 279q0 151 40 277t116.5 215 t190.5 139.5t259 50.5q98 0 187.5 -19.5t160.5 -58.5l-69 -142q-58 29 -125.5 49.5t-153.5 20.5z" />
<glyph unicode="D" horiz-adv-x="1341" d="M1195 689q0 -171 -44.5 -300t-128.5 -215.5t-206.5 -130t-278.5 -43.5h-338v1352h376q142 0 256.5 -42.5t195 -126t124.5 -207.5t44 -287zM1013 683q0 135 -30.5 233.5t-89 162.5t-143.5 95t-193 31h-186v-1057h150q244 0 368 135t124 400z" />
<glyph unicode="E" horiz-adv-x="997" d="M901 0h-702v1353h702v-152h-530v-418h495v-150h-495v-481h530v-152z" />
<glyph unicode="F" horiz-adv-x="954" d="M371 0h-172v1343h698v-151h-526v-473h489v-152h-489v-567z" />
<glyph unicode="G" horiz-adv-x="1296" d="M721 698h439v-650q-50 -16 -100.5 -29t-104.5 -21.5t-112.5 -13t-126.5 -4.5q-143 0 -252.5 47.5t-185 136t-114.5 215t-39 284.5q0 156 43 282t125.5 214.5t203.5 136t277 47.5q100 0 192.5 -20t172.5 -58l-65 -147q-33 16 -70.5 29.5t-77.5 24t-82 17t-84 6.5 q-111 0 -196 -37t-142.5 -106t-87.5 -167.5t-30 -223.5q0 -118 25 -216t79 -168.5t140.5 -109.5t207.5 -39q40 0 73 2t61.5 6t53.5 9t48 9v396h-271v148z" />
<glyph unicode="H" horiz-adv-x="1358" d="M1157 0h-172v631h-614v-631h-172v1352h172v-572h614v572h172v-1352z" />
<glyph unicode="I" horiz-adv-x="664" d="M573 0h-491v94l159 38v1089l-159 38v94h491v-94l-160 -38v-1089l160 -38v-94z" />
<glyph unicode="J" horiz-adv-x="465" d="M-39 -389q-47 0 -83 6t-62 16v152q32 -8 68 -14.5t79 -6.5q37 0 72 9.5t63.5 33t46 65.5t17.5 105v1377h176v-1358q0 -98 -27.5 -171t-77 -120t-119 -70.5t-153.5 -23.5z" />
<glyph unicode="K" horiz-adv-x="1110" d="M1110 0h-195l-415 645l-129 -104v-541h-172v1352h172v-676l112 155l418 521h193l-482 -588z" />
<glyph unicode="L" horiz-adv-x="952" d="M199 0v1348h171v-1195h529v-153h-700z" />
<glyph unicode="M" horiz-adv-x="1653" d="M758 0l-410 1185h-7q5 -69 9 -136q4 -59 6 -123t2 -117v-809h-159v1353h255l382 -1103h5l383 1103h256v-1353h-172v821q0 48 1.5 110t4.5 118q4 66 7 134h-8l-413 -1183h-142z" />
<glyph unicode="N" horiz-adv-x="1356" d="M1212 0h-198l-666 1120h-6q4 -71 8 -141q4 -61 6 -127t2 -119v-733h-159v1354h196l664 -1114h6q-2 69 -6 139q0 29 -2 59.5t-3 61t-2 60.5t-1 52v742h161v-1354z" />
<glyph unicode="O" horiz-adv-x="1403" d="M1278 664q0 -153 -37 -279.5t-109.5 -216.5t-180.5 -139t-249 -49q-148 0 -256.5 49t-180 139t-106 217t-34.5 281q0 155 34.5 281t106.5 215t181 137.5t257 48.5q141 0 248 -48.5t179.5 -138t109.5 -215.5t37 -282zM304 664q0 -124 23.5 -223.5t72.5 -169t124 -106.5 t178 -37q104 0 179 37t123.5 106.5t71.5 169t23 223.5q0 126 -23 225t-71 167.5t-122.5 105.5t-178.5 37t-179 -37t-124.5 -105.5t-73 -167.5t-23.5 -225z" />
<glyph unicode="P" horiz-adv-x="1137" d="M1010 956q0 -84 -26 -161.5t-84 -137t-153.5 -95.5t-236.5 -36h-139v-526h-172v1354h336q122 0 212.5 -27t148.5 -78t86 -124.5t28 -168.5zM371 674h118q86 0 151 14t106.5 47t63 85t21.5 126q0 133 -75.5 196.5t-237.5 63.5h-147v-532z" />
<glyph unicode="Q" horiz-adv-x="1403" d="M1305 653q0 -122 -23 -227t-67 -189t-110 -145.5t-153 -97.5q40 -87 104 -153.5t147 -122.5l-112 -132q-96 68 -176.5 160t-127.5 210q-16 -2 -35 -2.5t-36 -0.5q-152 0 -263 50t-184 142t-108.5 222t-35.5 288t35.5 287t109 220t185 141t263.5 50q144 0 253.5 -50 t183.5 -141.5t112 -220.5t38 -288zM308 653q0 -127 24.5 -229t74 -173t126.5 -109t183 -38t182.5 38t126.5 109t73.5 173t23.5 229q0 129 -23.5 230.5t-73 171.5t-125.5 107.5t-182 37.5t-183.5 -37.5t-127.5 -107.5t-74.5 -171.5t-24.5 -230.5z" />
<glyph unicode="R" horiz-adv-x="1083" d="M371 559v-559h-172v1353h329q247 0 364.5 -95.5t117.5 -288.5q0 -81 -23 -141t-60.5 -103t-85.5 -71.5t-99 -47.5l369 -606h-203l-325 559h-212zM371 705h152q83 0 141.5 16.5t96 48t54.5 79.5t17 112q0 66 -19 112.5t-57.5 76t-97 43t-139.5 13.5h-148v-501z" />
<glyph unicode="S" horiz-adv-x="948" d="M893 354q0 -88 -32 -157.5t-90 -117.5t-142 -73.5t-189 -25.5q-100 0 -188 16t-148 47v162q31 -15 70 -29t83 -24.5t91 -17.5t92 -7q148 0 216.5 54.5t68.5 156.5q0 49 -12.5 86t-46 67.5t-89 59.5t-141.5 61q-80 33 -140 71t-98 85t-57.5 107.5t-19.5 138.5 q0 80 29.5 142.5t83 105.5t126 66.5t160.5 23.5q109 0 196 -20.5t154 -53.5l-61 -141q-59 24 -135 43.5t-156 19.5q-110 0 -170.5 -51t-60.5 -137q0 -54 13 -91.5t45 -68.5t84 -57.5t128 -57.5q84 -32 146.5 -66t104.5 -78t63.5 -102.5t21.5 -136.5z" />
<glyph unicode="T" horiz-adv-x="1063" d="M580 0h-173v1201h-387v152h946v-152h-386v-1201z" />
<glyph unicode="U" horiz-adv-x="1360" d="M1164 1351v-876q0 -105 -30.5 -195.5t-92 -157t-154 -104.5t-218.5 -38q-118 0 -208.5 35.5t-152 101t-93 157.5t-31.5 205v870h173v-879q0 -162 80 -250.5t241 -88.5q82 0 141.5 24.5t97 70t56 108.5t19.5 137v880h172z" />
<glyph unicode="V" horiz-adv-x="1100" d="M893 1352h182l-452 -1352h-172l-451 1352h182l273 -856q26 -86 45.5 -164l36.5 -146q14 68 34.5 146t49.5 168z" />
<glyph unicode="W" horiz-adv-x="1696" d="M749 1351h182l212 -791q14 -52 27.5 -103.5t25 -100t20 -92t14.5 -78.5q4 35 9.5 76.5t12.5 87.5t16 93.5t19 92.5l185 815h184l-339 -1351h-174l-235 867q-13 47 -25 97t-22 93q-11 51 -21 99q-10 -47 -20 -98q-10 -43 -21.5 -95t-24.5 -102l-223 -861h-174l-357 1351 h182l206 -821q11 -43 20.5 -88.5t17 -91t14 -87.5t11.5 -77q5 34 12 79.5t16 95t19.5 101t22.5 96.5z" />
<glyph unicode="X" horiz-adv-x="1059" d="M1035 0h-195l-327 587l-339 -587h-174l419 706l-390 645h183l306 -517l309 517h176l-389 -639z" />
<glyph unicode="Y" horiz-adv-x="1014" d="M498 668l313 684h186l-411 -826v-526h-174v516l-412 836h188z" />
<glyph unicode="Z" horiz-adv-x="999" d="M952 0h-870v133l657 1065h-639v156h834v-135l-660 -1065h678v-154z" />
<glyph unicode="[" horiz-adv-x="600" d="M544 -44h-380v1676h380v-140h-209v-1395h209v-141z" />
<glyph unicode="\" horiz-adv-x="721" d="M188 1473l502 -1352h-164l-503 1352h165z" />
<glyph unicode="]" horiz-adv-x="553" d="M51 96h209v1397h-209v139h381v-1675h-381v139z" />
<glyph unicode="^" horiz-adv-x="1004" d="M41 549l399 803h88l390 -803h-142l-293 639l-303 -639h-139z" />
<glyph unicode="_" horiz-adv-x="842" d="M846 -324h-850v140h850v-140z" />
<glyph unicode="`" horiz-adv-x="1182" d="M707 1241h-96q-28 22 -60.5 55.5t-63.5 68.5t-56 67.5t-38 53.5v17h175q13 -27 30 -59.5t35.5 -65t37.5 -62.5t36 -53v-22z" />
<glyph unicode="a" horiz-adv-x="999" d="M729 -2l-35 137h-6q-31 -41 -60.5 -69.5t-65.5 -48t-79 -28.5t-100 -9q-64 0 -116 17t-91 54t-60.5 93.5t-21.5 131.5q0 150 104.5 230t319.5 88l166 6v62q0 61 -12.5 102t-38 65.5t-62 36t-84.5 11.5q-73 0 -138.5 -21.5t-125.5 -52.5l-57 125q65 35 148 60.5t173 25.5 q95 0 162.5 -18.5t111.5 -58.5t65.5 -103.5t21.5 -151.5v-684h-119zM426 115q55 0 102 16t82 51t54.5 88.5t19.5 124.5v90l-129 -6q-84 -4 -139.5 -18.5t-88 -40t-47 -62t-14.5 -84.5q0 -81 44 -120t116 -39z" />
<glyph unicode="b" horiz-adv-x="1100" d="M621 1001q84 0 152.5 -31.5t117.5 -96t75.5 -160t26.5 -219.5q0 -127 -26.5 -223.5t-75.5 -161t-117.5 -97t-152.5 -32.5q-54 0 -98 11t-77.5 31.5t-60.5 46t-47 54.5h-10l-35 -125h-119v1399h164v-338q0 -33 -1 -68t-3 -65q-2 -37 -4 -72h8q20 33 46 59.5t60.5 47 t77.5 30.5t99 10zM588 866q-72 0 -120 -22.5t-77 -69.5t-41 -116.5t-12 -163.5q0 -93 12 -163.5t41 -117.5t77 -71.5t122 -24.5q121 0 178 97t57 282q0 186 -57 278t-180 92z" />
<glyph unicode="c" horiz-adv-x="860" d="M549 -20q-92 0 -172 28.5t-138.5 91t-92 157.5t-33.5 232q0 142 34.5 240t94 160.5t140.5 90.5t173 28q70 0 137.5 -15.5t112.5 -38.5l-49 -139q-21 10 -46.5 18.5t-52 14.5t-53 11t-49.5 5q-141 0 -206.5 -91t-65.5 -284q0 -190 65.5 -277t200.5 -87q72 0 131 16.5 t108 38.5v-147q-49 -27 -104 -40t-135 -13z" />
<glyph unicode="d" horiz-adv-x="1096" d="M776 130h-8q-19 -31 -45.5 -58t-61 -48t-77.5 -32.5t-97 -11.5q-84 0 -153 32.5t-118 96.5t-76 159t-27 220q0 127 27 222.5t76 160t118 97t153 32.5q53 0 96 -11.5t77.5 -31t61.5 -45.5t46 -55h11q-3 30 -5 58q-2 23 -4 48t-2 39v391h164v-1395h-132zM518 115 q68 0 115.5 21t76.5 63t43 105t15 148v36q0 91 -12 161.5t-41 118.5t-77.5 72.5t-121.5 24.5q-121 0 -177.5 -98t-56.5 -280q0 -188 56.5 -280t179.5 -92z" />
<glyph unicode="e" horiz-adv-x="997" d="M564 -20q-100 0 -183 33.5t-142.5 98.5t-92.5 160.5t-33 218.5q0 124 30 221.5t85 165.5t131 103.5t168 35.5q90 0 162 -32.5t122 -91t77 -141t27 -182.5v-103h-631q5 -176 74.5 -259t207.5 -83q46 0 86 4.5t77 13t71.5 22t69.5 29.5v-147q-36 -18 -71 -30.5t-72 -21 t-76.5 -12t-86.5 -3.5zM523 880q-104 0 -164.5 -71.5t-70.5 -206.5h448q0 62 -12 113.5t-38 87.5t-66 56.5t-97 20.5z" />
<glyph unicode="f" horiz-adv-x="639" d="M596 877h-223v-877h-166v877h-178v67l178 62v88q0 98 20.5 162.5t58.5 102.5t94 53t128 15q53 0 98 -10t82 -22l-43 -129q-29 10 -61.5 18t-69.5 8t-62.5 -9t-44 -30.5t-26.5 -59.5t-8 -97v-95h223v-124z" />
<glyph unicode="g" horiz-adv-x="997" d="M957 996v-106l-184 -25q26 -33 43.5 -84t17.5 -115q0 -71 -22 -131.5t-66.5 -104.5t-110 -69t-152.5 -25q-20 0 -40.5 0.5t-33.5 3.5q-16 -9 -31.5 -21t-28.5 -27t-20.5 -33.5t-7.5 -41.5q0 -25 11 -40.5t30 -24t45.5 -11t55.5 -2.5h165q87 0 146.5 -22t97.5 -59.5 t55 -88.5t17 -108q0 -83 -30.5 -148.5t-93 -110.5t-158.5 -69.5t-226 -24.5q-100 0 -175 19.5t-124.5 57t-74.5 90.5t-25 119q0 57 18.5 99.5t49 73t71.5 50.5t85 30q-40 18 -65 56.5t-25 87.5q0 57 30 99t94 81q-40 17 -73 46.5t-56 67.5t-36 82.5t-13 92.5 q0 83 23.5 148.5t69.5 111.5t114.5 70.5t158.5 24.5q35 0 72 -5t62 -14h340zM198 -200q0 -35 12 -65t40 -51.5t73 -34t113 -12.5q174 0 260.5 54t86.5 155q0 43 -11.5 70t-37 42.5t-67.5 21t-103 5.5h-165q-33 0 -68.5 -7.5t-65 -28t-48.5 -56.5t-19 -93zM284 666 q0 -108 50.5 -160.5t143.5 -52.5t141.5 52t48.5 164q0 115 -49 169t-143 54q-93 0 -142.5 -56t-49.5 -170z" />
<glyph unicode="h" horiz-adv-x="1206" d="M786 0v631q0 116 -47 174t-147 58q-72 0 -121 -23.5t-79 -69t-43 -111.5t-13 -151v-508h-162v1388h162v-412l-7 -129h9q22 39 53 67t67.5 46.5t77.5 27.5t84 9q163 0 245.5 -85t82.5 -272v-640h-162z" />
<glyph unicode="i" horiz-adv-x="500" d="M338 0h-166v995h166v-995zM160 1264q0 55 27.5 78.5t68.5 23.5q20 0 37.5 -5t31 -18.5t20.5 -33t7 -45.5q0 -54 -27.5 -79.5t-68.5 -25.5t-68.5 25.5t-27.5 79.5z" />
<glyph unicode="j" horiz-adv-x="500" d="M58 -492q-45 0 -74.5 6.5t-51.5 16.5v139q24 -9 49.5 -14t58.5 -5q25 0 47 7t38 25t25 48.5t9 78.5v1191h171v-1179q0 -73 -16 -130.5t-49.5 -98.5t-85 -63t-121.5 -22zM146 1280q0 56 28.5 81.5t71.5 25.5q20 0 38.5 -6t32 -19.5t21.5 -33.5t8 -48q0 -55 -29.5 -81.5 t-70.5 -26.5q-43 0 -71.5 26.5t-28.5 81.5z" />
<glyph unicode="k" horiz-adv-x="944" d="M327 516l123 155l266 328h192l-365 -432l390 -567h-190l-306 459l-99 -75v-384h-164v1416h164v-650l-15 -250h4z" />
<glyph unicode="l" horiz-adv-x="500" d="M340 0h-166v1411h166v-1411z" />
<glyph unicode="m" horiz-adv-x="1700" d="M1364 0v639q0 119 -45 177t-141 58q-66 0 -112 -21.5t-75.5 -62t-43 -101t-13.5 -140.5v-549h-166v639q0 119 -44 177t-140 58q-70 0 -117 -23.5t-76 -69.5t-40 -113.5t-11 -153.5v-514h-166v993h133l25 -135h8q22 39 52 67.5t66 48t75.5 29t80.5 9.5q111 0 182.5 -40 t104.5 -124h8q25 41 57.5 71.5t71.5 51t82 31t90 10.5q158 0 238 -87t80 -276v-649h-164z" />
<glyph unicode="n" horiz-adv-x="1122" d="M795 0v641q0 117 -47.5 176.5t-149.5 59.5q-74 0 -123 -24t-79.5 -71t-43 -113.5t-12.5 -154.5v-514h-166v993h133l25 -133h10q20 39 52 67.5t69 47t79 28t85 9.5q166 0 250 -86t84 -277v-649h-166z" />
<glyph unicode="o" horiz-adv-x="1085" d="M977 496q0 -124 -30 -220t-86.5 -161.5t-137 -100t-180.5 -34.5q-94 0 -172.5 34.5t-136 100t-89.5 161.5t-32 220q0 123 30.5 218.5t86.5 161t137 99.5t181 34q93 0 171.5 -34t136 -99.5t89.5 -161t32 -218.5zM283 496q0 -189 62 -284t201 -95t200 95t61 284 t-61.5 282.5t-201.5 93.5q-139 0 -200 -93.5t-61 -282.5z" />
<glyph unicode="p" horiz-adv-x="1151" d="M637 -51q-55 0 -99 12t-80 31.5t-63.5 47.5t-50.5 58h-10q2 -32 4 -61q2 -25 4 -50.5t2 -39.5v-439h-170v1485h137l27 -139h6q23 35 49.5 62.5t62.5 49t81 34t100 12.5q88 0 159.5 -34t123 -100.5t79 -166t27.5 -230.5t-27.5 -230t-79 -167t-123 -101.5t-159.5 -33.5z M604 870q-69 0 -118.5 -21.5t-80 -65.5t-45 -108.5t-16.5 -154.5v-39q0 -94 12.5 -166.5t43 -123t80.5 -76t126 -25.5q127 0 186.5 102.5t59.5 290.5q0 197 -59.5 292t-188.5 95z" />
</font>
</defs>
</svg>
